<?xml version="1.0" encoding="UTF-8"?>
<svg width="30px" height="30px" viewBox="0 0 30 30" version="1.1" xmlns="http://www.w3.org/2000/svg" xmlns:xlink="http://www.w3.org/1999/xlink">
    <g stroke="none" stroke-width="1" fill="none" fill-rule="evenodd">
        <g transform="translate(-1215.000000, -6723.000000)" fill-rule="nonzero">
            <g transform="translate(165.000000, 6502.000000)">
                <g transform="translate(950.000000, 221.000000)">
                    <g transform="translate(100.000000, 0.000000)">
                        <circle fill="#BDC3C8" cx="15" cy="15" r="15"></circle>
                        <g transform="translate(7.000000, 9.000000)" fill="#FFFFFF">
                            <path d="M14.0081766,12 C15.1071137,12 16,11.1217158 16,10.0407507 L16,1.95924933 C16,0.878284182 15.1071137,0 14.0081766,0 L1.99182339,0 C0.892886345,0 0,0.878284182 0,1.95924933 L0,10.0375335 C0,11.1184987 0.892886345,11.9967828 1.99182339,11.9967828 L14.0081766,11.9967828 L14.0081766,12 L14.0081766,12 Z M2.16927763,2.81129385 C1.96783233,2.64589541 1.94225197,2.35797962 2.11491937,2.16501477 C2.28758678,1.97204993 2.58815596,1.94754646 2.78960126,2.11294489 L7.99840123,6.34591971 L13.2103987,2.10988196 C13.411844,1.94448352 13.7156108,1.96898699 13.8850806,2.16195184 C14.057748,2.35491668 14.0321677,2.64589541 13.8307224,2.80823092 L10.1119781,5.83440973 L13.8499076,9.20363715 C14.0417603,9.37822439 14.0513529,9.66920313 13.8690929,9.85297917 C13.7731666,9.94793012 13.6484623,9.99693707 13.5205606,9.99693707 C13.4022514,9.99693707 13.2839423,9.95405599 13.1912135,9.87135677 L9.3765429,6.4347448 L8.31176059,7.30155513 C8.22222934,7.37506554 8.11031528,7.41182075 8.00159877,7.41182075 C7.88968472,7.41182075 7.7809682,7.37506554 7.69143696,7.30155513 L6.6234571,6.4347448 L2.80878653,9.87441971 C2.71605774,9.95711892 2.59774859,10 2.47943944,10 C2.35153767,10 2.22363589,9.95099306 2.1309071,9.8560421 C1.94864706,9.67226606 1.95823969,9.38128733 2.15009236,9.20670009 L5.88802187,5.83440973 L2.16927763,2.81129385 Z" id="Shape"></path>
                        </g>
                    </g>
                </g>
            </g>
        </g>
    </g>
</svg>
