<?xml version="1.0" encoding="UTF-8"?>
<svg width="30px" height="30px" viewBox="0 0 30 30" version="1.1" xmlns="http://www.w3.org/2000/svg" xmlns:xlink="http://www.w3.org/1999/xlink">
    <g stroke="none" stroke-width="1" fill="none" fill-rule="evenodd">
        <g transform="translate(-1115.000000, -6723.000000)" fill="#BDC3C8" fill-rule="nonzero">
            <g transform="translate(165.000000, 6502.000000)">
                <g transform="translate(950.000000, 221.000000)">
                    <path d="M15,0 C6.71555459,0 0,6.71555459 0,15 C0,23.2844454 6.71555459,30 15,30 C23.2844454,30 30,23.2844454 30,15 C30,6.71555459 23.2844454,0 15,0 Z M22.8337305,21.1377816 C22.6465555,21.3405546 22.3488951,21.494909 22.0483102,21.5735485 C21.2316941,21.7870451 20.2672227,21.5657496 19.507799,21.2313692 C17.0862218,20.1661612 17.6207756,17.467396 18.6830589,15.6063692 C19.0018414,15.0474437 19.3163995,14.4849437 19.6332322,13.9191941 C19.882474,13.4740035 20.4215771,12.7236785 20.2100303,12.1790511 C19.9887348,11.6081023 19.3963388,11.6045277 19.0073657,12.0857886 C18.6330156,12.5491768 18.3174827,13.2133882 18.0591421,13.7524913 C17.7780546,14.339688 16.3745667,17.4241768 16.3745667,17.4241768 C16.1149263,17.9268847 15.6781846,18.6489385 15.2040728,19.0479853 C14.850195,19.3459705 14.2041811,19.4333839 13.7791378,19.124675 C13.4564558,18.8897314 13.3927643,18.577773 13.4561308,18.2147964 C13.7485919,16.5383449 16.2920277,12.6365901 14.5375867,12.3620017 C13.8655763,12.2567158 13.6829506,13.004766 13.4756282,13.4821274 C13.132799,14.2707972 12.8718588,15.0919627 12.5053076,15.8718588 C12.0838388,16.7664645 11.7614818,17.6987652 11.5398614,18.6609619 C11.3634099,19.4294844 11.1346404,20.4089038 10.2595321,20.6431976 C7.86395147,21.2840121 7.13604853,19.7021231 7.13604853,19.7021231 C6.74512565,18.457864 7.11590121,17.3387132 7.49285095,16.1418977 C7.78401213,15.217396 7.95753899,14.2642981 8.32603986,13.364818 C8.98342721,11.7611568 9.63853986,8.41540295 12.0084489,8.62922444 C12.6131932,8.6834922 13.289753,8.98927643 13.8122834,9.29408579 C14.287695,9.57159879 14.6487218,9.71945407 15.2017981,9.42081889 C15.7399263,9.13030763 15.9859185,8.59120451 16.627383,8.40630416 C17.3143414,8.20840555 17.7663562,8.50119151 18.2804376,8.9145364 C19.0005416,9.49360919 19.0788562,9.23201906 19.6732019,9.07993934 C20.1661612,8.9535312 20.7380849,8.89536395 21.2781629,8.98765165 C24.0578423,9.46371317 22.2874783,13.01224 21.6242418,14.4381499 C21.1926993,15.3655763 19.132799,19.0960789 20.9577556,19.597487 C21.5082322,19.7485919 22.2179376,19.679701 22.6764515,20.0745234 C23.1427643,20.47487 23.0966205,20.8540945 22.8337305,21.1377816 Z" id="Shape"></path>
                </g>
            </g>
        </g>
    </g>
</svg>
