<?xml version="1.0" encoding="UTF-8"?>
<svg width="56px" height="60px" viewBox="0 0 56 60" version="1.1" xmlns="http://www.w3.org/2000/svg" xmlns:xlink="http://www.w3.org/1999/xlink">
    <defs>
        <polygon id="path-1" points="0.00143712575 0.00689820359 55.9722156 0.00689820359 55.9722156 34.6467066 0.00143712575 34.6467066"></polygon>
    </defs>
    <g id="Page-1" stroke="none" stroke-width="1" fill="none" fill-rule="evenodd">
        <g id="HOME" transform="translate(-713.000000, -4875.000000)">
            <g id="LOGOS" transform="translate(165.000000, 4875.000000)">
                <g id="nsw-seeklogo.com" transform="translate(548.000000, 0.000000)">
                    <path d="M50.3925749,36.1585629 L47.9702994,46.571497 L45.4268263,36.1585629 L41.9283832,36.1585629 L39.3432335,46.4531737 L36.9935329,36.1585629 L33.1702994,36.1585629 L37.4011976,52.4198802 L41.1635928,52.4198802 L43.6457485,42.131976 L46.1693413,52.4198802 L49.8644311,52.4198802 L49.9015569,52.2809581 L54.1611976,36.1585629 L50.3925749,36.1585629 Z M15.3338443,46.548503 L6.48526946,36.1566467 L2.73611976,36.1566467 L2.73611976,52.4222754 L6.38766467,52.4222754 L6.38766467,42.0538922 L15.2116886,52.4222754 L18.9845509,52.4222754 L18.9845509,36.1566467 L15.3338443,36.1566467 L15.3338443,46.548503 L15.3338443,46.548503 Z" id="Fill-1" fill="#C5C9CA"></path>
                    <path d="M2.34677844,57.4105389 L2.34677844,57.3968862 C2.34677844,55.9868263 3.42529341,54.7937725 4.94210778,54.7937725 C5.82083832,54.7937725 6.3594012,55.0376048 6.87815569,55.4771257 L6.31705389,56.1453892 C5.92814371,55.8138922 5.54697006,55.6062275 4.9074491,55.6062275 C3.9800479,55.6062275 3.27482635,56.4179641 3.27482635,57.3815569 L3.27482635,57.3968862 C3.27482635,58.4318563 3.95746108,59.194491 4.98589222,59.194491 C5.46086228,59.194491 5.89271856,59.0435928 6.20189222,58.8122156 L6.20189222,57.8706587 L4.91398802,57.8706587 L4.91398802,57.1005988 L7.05808383,57.1005988 L7.05808383,59.2146108 C6.56122156,59.639521 5.8491497,60 4.95755689,60 C3.38282635,60 2.34677844,58.8771257 2.34677844,57.4105389" id="Fill-2" fill="#C5C9CA"></path>
                    <path d="M11.928982,57.4105389 L11.928982,57.3968862 C11.928982,56.4179641 11.2160719,55.6062275 10.2160479,55.6062275 C9.21662275,55.6062275 8.52043114,56.4031138 8.52043114,57.3815569 L8.52043114,57.3968862 C8.52043114,58.3753293 9.23197605,59.1870659 10.231497,59.1870659 C11.2309222,59.1870659 11.928982,58.3887425 11.928982,57.4105389 M7.59178443,57.4105389 L7.59178443,57.3968862 C7.59178443,55.9796407 8.68572455,54.7937725 10.231497,54.7937725 C11.778491,54.7937725 12.8557605,55.9647904 12.8557605,57.3815569 L12.8557605,57.3968862 C12.8557605,58.8122156 11.7636886,60 10.2160479,60 C8.6708982,60 7.59178443,58.8277844 7.59178443,57.4105389" id="Fill-3" fill="#C5C9CA"></path>
                    <polyline id="Fill-4" fill="#C5C9CA" points="12.7926228 54.8788024 13.7702515 54.8788024 15.2877126 58.748503 16.7981796 54.8788024 17.754515 54.8788024 15.6617964 59.9499401 14.8846707 59.9499401 12.7926228 54.8788024"></polyline>
                    <polyline id="Fill-5" fill="#C5C9CA" points="18.3509222 54.8788024 22.0839281 54.8788024 22.0839281 55.6706587 19.236 55.6706587 19.236 56.9798802 21.7607186 56.9798802 21.7607186 57.771018 19.236 57.771018 19.236 59.1226347 22.1205988 59.1226347 22.1205988 59.9125749 18.3509222 59.9125749 18.3509222 54.8788024"></polyline>
                    <path d="M25.1576048,57.3750898 C25.7901796,57.3750898 26.1935329,57.0433533 26.1935329,56.5329341 L26.1935329,56.5188024 C26.1935329,55.9796407 25.8047904,55.6845509 25.1497006,55.6845509 L23.8631617,55.6845509 L23.8631617,57.3750898 L25.1576048,57.3750898 Z M22.9787305,54.8785629 L25.2217964,54.8785629 C25.8555689,54.8785629 26.3518563,55.0668263 26.6749701,55.382515 C26.9417964,55.6555689 27.091497,56.028982 27.091497,56.468024 L27.091497,56.4835928 C27.091497,57.3099401 26.5959281,57.8062275 25.891018,58.0081437 L27.2502994,59.9125749 L26.2076647,59.9125749 L24.9705389,58.1583234 L23.8631617,58.1583234 L23.8631617,59.9125749 L22.9787305,59.9125749 L22.9787305,54.8785629 L22.9787305,54.8785629 Z" id="Fill-6" fill="#C5C9CA"></path>
                    <polyline id="Fill-7" fill="#C5C9CA" points="27.8725749 54.8788024 28.6900599 54.8788024 31.3877844 58.3585629 31.3877844 54.8788024 32.2586826 54.8788024 32.2586826 59.9125749 31.5168862 59.9125749 28.7410778 56.3305389 28.7410778 59.9125749 27.8725749 59.9125749 27.8725749 54.8788024"></polyline>
                    <polyline id="Fill-8" fill="#C5C9CA" points="33.1564072 54.8788024 34.0986826 54.8788024 35.6304192 57.2601198 37.1626347 54.8788024 38.1049102 54.8788024 38.1049102 59.9125749 37.2205988 59.9125749 37.2205988 56.302994 35.6304192 58.6766467 35.6021557 58.6766467 34.028024 56.3171257 34.028024 59.9125749 33.1564072 59.9125749 33.1564072 54.8788024"></polyline>
                    <polyline id="Fill-9" fill="#C5C9CA" points="38.9482635 54.8788024 42.6797605 54.8788024 42.6797605 55.6706587 39.8325749 55.6706587 39.8325749 56.9798802 42.3573653 56.9798802 42.3573653 57.771018 39.8325749 57.771018 39.8325749 59.1226347 42.7171257 59.1226347 42.7171257 59.9125749 38.9482635 59.9125749 38.9482635 54.8788024"></polyline>
                    <polyline id="Fill-10" fill="#C5C9CA" points="43.5873054 54.8788024 44.4076647 54.8788024 47.1039521 58.3585629 47.1039521 54.8788024 47.9746108 54.8788024 47.9746108 59.9125749 47.234491 59.9125749 44.4584431 56.3305389 44.4584431 59.9125749 43.5873054 59.9125749 43.5873054 54.8788024"></polyline>
                    <polyline id="Fill-11" fill="#C5C9CA" points="50.2718563 55.6996407 48.6759281 55.6996407 48.6759281 54.8785629 52.760479 54.8785629 52.760479 55.6996407 51.1645509 55.6996407 51.1645509 59.9125749 50.2718563 59.9125749 50.2718563 55.6996407"></polyline>
                    <path d="M19.990012,50.1573653 L22.1380359,47.5846707 C23.6252934,48.811497 25.1832335,49.5911377 27.0708982,49.5911377 C28.5590419,49.5911377 29.4567665,49.000479 29.4567665,48.0332934 L29.4567665,47.9849102 C29.4567665,47.0651497 28.8900599,46.5928144 26.1276647,45.8845509 C22.7987545,45.0354491 20.6513533,44.1152096 20.6513533,40.8337725 L20.6513533,40.7863473 C20.6513533,37.788503 23.0590898,35.8057485 26.4352096,35.8057485 C28.8419162,35.8057485 30.8967665,36.5616766 32.5729341,37.9068263 L30.6845509,40.6450299 C29.2198802,39.6301796 27.7801198,39.0160479 26.3865868,39.0160479 C24.9942515,39.0160479 24.262994,39.6531737 24.262994,40.4560479 L24.262994,40.5034731 C24.262994,41.588982 24.9698204,41.9432335 27.8270659,42.6747305 C31.1796407,43.5475449 33.0677844,44.7520958 33.0677844,47.6313772 L33.0677844,47.6783234 C33.0677844,50.9597605 30.5662275,52.8011976 27.0009581,52.8011976 C24.4982036,52.8011976 21.9728144,51.9276647 19.990012,50.1573653" id="Fill-12" fill="#C5C9CA"></path>
                    <g id="Group-16">
                        <mask id="mask-2" fill="white">
                            <use xlink:href="#path-1"></use>
                        </mask>
                        <g id="Clip-14"></g>
                        <path d="M27.9992814,32.3702994 C27.9293413,32.3798802 29.0380838,32.6273054 29.0380838,32.8620359 C34.811018,32.3477844 36.9231138,34.0021557 41.2148503,34.0021557 C43.9520958,34.0021557 45.2428743,33.3863473 45.4594012,32.1233533 C45.8026347,29.3937725 41.5707784,32.2153293 33.2723353,31.2742515 C33.1166467,30.8186826 33.8079042,30.8771257 34.880479,30.8591617 C44.8428743,30.6934132 47.4673054,30.0852695 51.748024,28.2423952 C53.2081437,27.5817964 53.8014371,27.0349701 54.3729341,26.5528144 C54.6562874,26.3188024 54.8517365,26.1168862 54.965509,25.9832335 C55.0239521,25.914491 55.0682635,25.8701796 55.0907784,25.8368862 C55.1034731,25.8263473 55.1125749,25.8155689 55.1125749,25.8040719 L55.1262275,25.8040719 C55.262994,25.5906587 55.3305389,25.3451497 55.3305389,25.0996407 C55.3305389,24.7075449 55.3305389,24.3161677 55.0105389,24.0814371 C55.0105389,24.0814371 54.8742515,23.9798802 54.611976,23.8012455 C53.8471856,23.2639042 52.1695808,22.0342754 49.7279042,20.8040958 C49.7168862,20.7931497 49.7039521,20.7816766 49.931497,20.4242874 C52.9911377,16.5324551 53.2764072,14.2611257 53.3104192,13.9037126 L53.3104192,13.8587066 C53.3104192,13.6118802 53.2423952,13.3663234 53.1053892,13.1639042 C52.8886228,12.8303473 52.5238323,12.6052695 52.1238323,12.583497 C52.1238323,12.583497 51.44,12.5494371 50.2876647,12.5611018 C49.3279042,12.5719281 48.0385629,12.6278802 46.1329341,12.7840719 C45.7099401,12.4491497 45.7228743,12.1014611 45.7228743,11.777485 C45.7228743,10.0883832 45.6316168,8.63518563 45.5274251,7.60613174 C45.4368862,6.5771497 45.3456287,5.98392814 45.3456287,5.98392814 C45.2543713,5.47990419 44.9566467,5.24529341 44.5691018,5.23446707 C44.4438323,5.23446707 44.3185629,5.25691018 44.1803593,5.31288623 C44.1803593,5.31288623 44.0105389,5.37968862 43.7020359,5.51341317 C42.834491,5.89322156 41.1118563,6.80074251 38.7377246,7.74043114 C38.0871856,4.42907784 37.2093413,2.51623952 37.2093413,2.50526946 C37.0376048,2.02522156 36.7070659,1.8451976 36.3068263,1.91207186 C36.1937725,1.92488623 36.0797605,1.9680479 35.9525749,2.04704192 C35.9525749,2.05736527 35.3149701,2.43779641 34.3097006,3.16543713 C33.5911377,3.68088623 32.6996407,4.36227545 31.708503,5.18943713 L31.251018,5.49147305 C30.4752096,4.48502994 30.0052695,3.52917365 29.5341317,2.76565269 C29.1897006,2.20639521 28.9128144,1.76807186 28.7288623,1.46536527 C28.5468263,1.17482635 28.457006,1.01863473 28.457006,1.01863473 C28.2615569,0.726802395 28.0790419,0.648431138 27.9992814,0.648431138 L27.9736527,0.65108982 C27.8946108,0.65108982 27.7120958,0.72948503 27.5178443,1.01997605 C27.5178443,1.01997605 27.4253892,1.17741317 27.2435928,1.46792814 C27.0610778,1.76938922 26.7568862,2.21611976 26.4227545,2.7708503 C25.9669461,3.544 25.497006,4.48759281 24.7207186,5.49341317 L24.2649102,5.19197605 C23.2720719,4.36481437 22.3805988,3.68220359 21.6626587,3.16797605 C20.6586347,2.44040719 20.0190659,2.05992814 20.0190659,2.04895808 C19.8937725,1.97058683 19.780024,1.92558084 19.6655569,1.91473054 C19.2657964,1.84776048 18.9348743,2.02656287 18.7645509,2.5079521 C18.7645509,2.51877844 17.8851497,4.43161677 17.2341557,7.74308982 C14.8617006,6.80208383 13.1366946,5.89707784 12.2702515,5.5159521 C11.9629461,5.3822515 11.7919521,5.3154491 11.7919521,5.3154491 C11.6539401,5.25947305 11.5285509,5.23576048 11.4032096,5.23576048 C11.0156168,5.24780838 10.7180599,5.48311377 10.6267784,5.98639521 C10.6267784,5.98639521 10.5355449,6.57968862 10.4455329,7.6074491 C10.341988,8.63705389 10.2507545,10.0909701 10.2507545,11.7800479 C10.2507545,12.1052455 10.2622994,12.4516407 9.83935329,12.7866587 C7.93492216,12.6304431 6.64433533,12.5744431 5.68605988,12.5629461 C4.53360479,12.552 3.84843114,12.5854371 3.84843114,12.5854371 C3.44926946,12.607976 3.08419162,12.8309461 2.86694611,13.1676886 C2.73003593,13.3688862 2.66194012,13.6144431 2.66194012,13.860024 L2.66194012,13.9050299 C2.696,14.2636647 2.98067066,16.5337246 6.04021557,20.4255808 C6.26831138,20.7842635 6.25674251,20.7952096 6.24591617,20.8066587 C3.8028024,22.0362395 2.12517365,23.2664431 1.36162874,23.8038084 C1.0982515,23.982515 0.961269461,24.0828743 0.961269461,24.0828743 C0.641772455,24.3188024 0.641772455,24.7094611 0.641772455,25.1008383 C0.641772455,25.3477844 0.710634731,25.5930539 0.847401198,25.805988 L0.858371257,25.805988 C0.858371257,25.8167665 0.870011976,25.8277844 0.88160479,25.8392814 C0.904,25.8728144 0.949700599,25.9171257 1.0068982,25.9858683 C1.12064671,26.1190419 1.31470659,26.3207186 1.60079042,26.5552096 C2.17017964,27.0354491 2.76471856,27.5844311 4.22445509,28.2438323 C8.50450299,30.0879042 11.1293653,30.6960479 21.0918563,30.8622754 C22.1658683,30.8797605 22.855497,30.8213174 22.7005749,31.2768862 C14.4028982,32.2172455 10.1697246,29.3956886 10.5129581,32.125988 C10.7295808,33.3901796 12.0182994,34.0047904 14.7576766,34.0047904 C19.0492216,34.0047904 21.1599281,32.348982 26.9355689,32.862515 C26.9355689,32.6294611 28.0431138,32.382515 27.9736527,32.371497 L27.9992814,32.3702994" id="Fill-13" fill="#FFFFFE" mask="url(#mask-2)"></path>
                        <path d="M27.4439598,32.1700599 C27.3563189,32.2493413 27.3156853,32.3367665 27.3435711,32.4299401 L27.4033263,32.428024 C27.3953589,32.3947305 27.3969524,32.3597605 27.4057165,32.3231138 L27.4439598,32.1700599 Z M28.6471123,32.4318563 L28.7047169,32.4330539 C28.7351193,32.3386826 28.693516,32.2493413 28.605509,32.1688623 L28.6447121,32.3295808 C28.6535128,32.3657485 28.6535128,32.3997605 28.6471123,32.4318563 L28.6471123,32.4318563 Z M11.1482395,32.0325749 C11.2137725,32.4112575 11.4207186,33.3631138 14.7577964,33.3631138 C16.4887186,33.3631138 17.8545868,33.0828743 19.3001198,32.7865868 C20.8921916,32.4601198 22.5381557,32.1219162 24.7923353,32.1219162 C25.4002395,32.1219162 26.0347305,32.1477844 26.6838323,32.1978443 C26.8843114,32.0622754 27.1396407,31.9671856 27.388982,31.8874251 L27.3954491,31.8076647 L27.9101796,31.7343713 L27.9353293,31.9132934 L27.9456287,31.7298204 L27.9707784,31.7293413 L28.0091018,32.1470659 L28.074012,31.7377246 L28.5801198,31.8179641 L28.5844311,31.885509 C28.8352096,31.9652695 29.0895808,32.0610778 29.2900599,32.1966467 C29.9401198,32.1465868 30.5743713,32.1207186 31.1822754,32.1207186 C33.4352096,32.1207186 35.0807186,32.4582036 36.6720958,32.7839521 C38.1176048,33.0802395 39.4833533,33.360479 41.2143713,33.360479 C44.5518563,33.360479 44.7583234,32.4079042 44.8239521,32.0294611 C44.8610778,31.7190419 44.8052695,31.6392814 44.8045509,31.6385629 C44.8040719,31.6373653 44.7113772,31.5398802 44.1875449,31.5398802 C43.6953293,31.5398802 43.0287425,31.6220359 42.1853892,31.7262275 C40.8505389,31.8912575 39.0210778,32.1176048 36.8282635,32.1176048 C35.6210778,32.1176048 34.400479,32.0481437 33.2,31.9125749 L32.7968862,31.8663473 L32.6653892,31.4819162 C32.5302994,31.0879042 32.6670659,30.8076647 32.7609581,30.6752096 C33.074012,30.2337725 33.6407186,30.228503 34.4982036,30.2220359 C34.6165269,30.2208383 34.7398802,30.2194012 34.8699401,30.217485 C45.0102994,30.0486228 47.4821557,29.3801198 51.4941317,27.6529341 C52.7597605,27.080479 53.3073054,26.6150898 53.8376048,26.1650299 L53.9592814,26.0622754 C54.2452695,25.8256287 54.4083832,25.6464671 54.4706587,25.5743713 L54.4706587,25.1623952 L54.685509,25.1623952 C54.6874251,25.1417964 54.6886228,25.1207186 54.6886228,25.0994012 C54.6886228,24.9168862 54.6886228,24.6411976 54.6308982,24.5992814 C54.6213174,24.5916168 54.491976,24.4965269 54.251018,24.331976 L54.0428743,24.1849102 C53.2045509,23.5922156 51.6445509,22.4886228 49.439521,21.3773413 L49.3482635,21.3317126 L49.2754491,21.2597126 C48.8847904,20.8720958 49.154012,20.4504192 49.3906587,20.0790659 L49.4273054,20.0275449 C52.2373653,16.4526707 52.6182036,14.3290778 52.668503,13.8707305 L52.668503,13.8586587 C52.668503,13.7331257 52.6352096,13.6143713 52.5741317,13.5236647 C52.4577246,13.3457246 52.2737725,13.2344192 52.0881437,13.2241916 C52.0874251,13.2241916 51.4112575,13.1914012 50.2941317,13.2023234 C49.1868263,13.2151377 47.8421557,13.2878323 46.1851497,13.4241437 L45.9326946,13.4446467 L45.7341317,13.2872096 C45.079521,12.768503 45.080479,12.1649581 45.0809581,11.8043832 L45.0809581,11.7773653 C45.0809581,9.8588024 44.9607186,8.3811018 44.8895808,7.67094611 C44.8007186,6.6708982 44.7120958,6.08720958 44.7113772,6.08146108 C44.674012,5.87964072 44.6143713,5.87772455 44.5506587,5.87647904 C44.5341317,5.87647904 44.4888623,5.88028743 44.4203593,5.90790419 C44.4112575,5.91176048 44.2493413,5.97602395 43.9573653,6.10263473 C43.7106587,6.21058683 43.3731737,6.37190419 42.9817964,6.55892216 C42.0028743,7.02749701 40.6622754,7.66902994 38.9736527,8.33738922 L38.2562874,8.62098204 L38.108024,7.86438323 C37.5609581,5.07868263 36.840479,3.27657485 36.6328144,2.79065868 C36.6244311,2.77063473 36.6148503,2.74819162 36.6050299,2.72179641 L36.6045509,2.72179641 C36.5401198,2.54064671 36.4881437,2.54064671 36.462994,2.54064671 C36.4483832,2.54064671 36.4308982,2.54189222 36.4124551,2.54507784 L36.377006,2.55015569 C36.377006,2.55015569 36.3520958,2.55477844 36.2941317,2.59137725 L36.2934132,2.59070659 C36.2536527,2.61964072 36.2143713,2.64529341 36.1772455,2.66852695 C35.9494611,2.81439521 35.4179641,3.15566467 34.685988,3.68531737 C34.1223952,4.08960479 33.2210778,4.76311377 32.1202395,5.6822515 L32.0622754,5.72538922 L31.1070659,6.35520958 L30.7427545,5.8834491 C30.1635928,5.13209581 29.7535329,4.41928144 29.3916168,3.79008383 C29.2522156,3.54773653 29.120479,3.31758084 28.988024,3.10301796 C28.8210778,2.83166467 28.6706587,2.59005988 28.5389222,2.37858683 C28.3968862,2.1497006 28.2759281,1.95564072 28.1803593,1.79820359 C28.0979641,1.66713772 28.0330539,1.5617006 27.9873054,1.4851976 C27.9398802,1.56299401 27.8728144,1.67159281 27.7868263,1.80917365 C27.7135329,1.93068263 27.611976,2.08881437 27.4950898,2.26994012 C27.3386826,2.51360479 27.1614371,2.78871856 26.9731737,3.10234731 C26.8720958,3.27338922 26.7667066,3.45908982 26.6582036,3.65250299 C26.2809581,4.32038323 25.8526946,5.07676647 25.2294611,5.88598802 L24.8641916,6.35839521 L23.8539401,5.68548503 C22.7355449,4.75291018 21.8421557,4.08572455 21.2893413,3.6897485 C20.5663234,3.16661078 20.0328383,2.8234012 19.8052934,2.67741317 C19.7647425,2.65113772 19.7217725,2.62349701 19.6799281,2.59329341 L19.6793054,2.59329341 C19.623976,2.55856287 19.5996407,2.55271856 19.5996407,2.55271856 L19.5597126,2.54761677 C19.5411018,2.54443114 19.5237844,2.54318563 19.5083593,2.54318563 C19.4838802,2.54318563 19.4331737,2.54318563 19.369509,2.72244311 L19.3688383,2.72244311 C19.3591856,2.74946108 19.3496048,2.77329341 19.3405749,2.79322156 C19.1329581,3.27971257 18.4118563,5.08136527 17.8641677,7.86692216 L17.7151377,8.62411976 L16.9978204,8.3394491 C15.2971018,7.6651018 13.9498683,7.02107784 12.9658922,6.55063473 C12.5847425,6.36811976 12.2550419,6.21058683 12.0114012,6.10325749 C11.7267066,5.97918563 11.564024,5.91556886 11.5577006,5.91300599 C11.4868982,5.88407186 11.4445749,5.87834731 11.4124311,5.87772455 C11.351976,5.88028743 11.296024,5.89504192 11.2588024,6.10071856 C11.2588024,6.10071856 11.1706826,6.68234731 11.0853174,7.66380838 C11.0125988,8.38433533 10.8923593,9.86529341 10.8923593,11.7798802 L10.8923593,11.8043832 C10.893006,12.1655808 10.8936766,12.7704671 10.2380838,13.2896766 L10.0395449,13.4472335 L9.78687425,13.4266587 C8.13053892,13.2903713 6.78658683,13.2176766 5.67851497,13.2049102 C4.57108982,13.1939401 3.88529341,13.2260838 3.8794491,13.2267784 C3.69760479,13.2371018 3.51506587,13.3475928 3.40641916,13.5154012 C3.33707784,13.6175329 3.30426347,13.7352096 3.30426347,13.8598802 L3.30426347,13.8726467 C3.35377246,14.328479 3.72979641,16.4475449 6.54486228,20.0288623 L6.58220359,20.080982 C6.81870659,20.452479 7.08608383,20.8733892 6.69980838,21.2602874 L6.62658683,21.333006 L6.53401198,21.3799042 C4.32045509,22.4943473 2.76052695,23.5992335 1.92297006,24.1930539 L1.7308503,24.3288623 C1.47686228,24.5010778 1.34706587,24.5961677 1.34131737,24.6 C1.28411976,24.6431138 1.28411976,24.9180838 1.28411976,25.1008383 C1.28411976,25.1219162 1.28474251,25.142994 1.28665868,25.1638323 L1.48912575,25.1638323 L1.49628743,25.5700599 C1.49753293,25.5717365 1.49882635,25.5731737 1.4994491,25.5743713 C1.57005988,25.6565269 1.73657485,25.8373653 2.00776048,26.0591617 L2.13899401,26.1702994 C2.66797605,26.6194012 3.21492216,27.0835928 4.48883832,27.6589222 C8.48986826,29.3820359 10.9618683,30.051018 21.1022994,30.2201198 C21.2321198,30.2227545 21.3567904,30.2232335 21.4751138,30.2246707 C22.3318802,30.2316168 22.8981078,30.2354491 23.2117365,30.6771257 C23.3055329,30.8088623 23.442515,31.0891018 23.3088862,31.4831138 L23.1776766,31.868982 L22.7727904,31.914491 C21.5733892,32.0505389 20.353509,32.119521 19.1465389,32.119521 C16.9527904,32.119521 15.1236168,31.8931737 13.7879281,31.7286228 C12.9447186,31.6244311 12.2781317,31.5415569 11.7852455,31.5415569 C11.2607186,31.5415569 11.1681677,31.6397605 11.167521,31.6407186 C11.1668503,31.6411976 11.1108982,31.7209581 11.1482395,32.0325749 L11.1482395,32.0325749 Z M14.7577964,34.6467066 C12.8411976,34.6467066 10.2502754,34.3966467 9.88007186,32.2337725 L9.87623952,32.205509 C9.79906587,31.5925749 9.90644311,31.1295808 10.2046467,30.7916168 C10.208503,30.7875449 10.2118323,30.7832335 10.2155928,30.7794012 C7.87355689,30.371976 6.11559281,29.7573653 3.97068263,28.8330539 C2.52196407,28.1794012 1.84902994,27.6079042 1.3079521,27.148503 L1.18706587,27.0462275 C0.894586826,26.8071856 0.687664671,26.5942515 0.557748503,26.4471856 L0.508934132,26.4471856 L0.307712575,26.1535329 C0.10651497,25.8411976 -7.18562874e-05,25.4773653 -7.18562874e-05,25.1008383 C-7.18562874e-05,24.6603593 -7.18562874e-05,23.9952096 0.580335329,23.5664671 C0.580958084,23.5658204 0.724263473,23.4604311 1.00131737,23.2727186 L1.1805988,23.1454611 C1.96543713,22.5896048 3.36203593,21.6003114 5.33008383,20.5571497 C2.49439521,16.8692216 2.08172455,14.5873772 2.02320958,13.9652216 L2.02002395,13.8598802 C2.02002395,13.4748503 2.12926946,13.110491 2.33695808,12.8063952 C2.65956886,12.3057006 3.21492216,11.9785868 3.81264671,11.944503 C3.84282635,11.9432814 4.53116168,11.9104671 5.69202395,11.9213174 C6.76088623,11.9341796 8.03477844,11.9997605 9.57992814,12.1218922 C9.60886228,12.0499641 9.60886228,11.9605749 9.60886228,11.8057006 L9.60886228,11.7798802 C9.60886228,9.80934132 9.73295808,8.27961677 9.80749701,7.54368862 C9.89674251,6.51470659 9.98869461,5.91434731 9.9925988,5.8891976 C10.1340599,5.10701796 10.6655569,4.61724551 11.3828743,4.59408383 L11.4033293,4.59408383 C11.6174611,4.59408383 11.8230898,4.63523353 12.0332455,4.72067066 C12.0332455,4.72067066 12.2113533,4.79013174 12.5268503,4.92773653 C12.7910659,5.04402395 13.1285269,5.20543713 13.5199521,5.39243114 C14.3446228,5.78708982 15.4307784,6.30634731 16.7625629,6.85923353 C17.2902994,4.45920958 17.9040479,2.88764072 18.1604311,2.2885988 L18.1650299,2.2777485 C18.430491,1.54756886 19.0307305,1.16632335 19.7511856,1.27827545 C19.9543234,1.30196407 20.1529341,1.37592814 20.3586108,1.50380838 L20.6608144,1.70179641 C20.9461078,1.88697006 21.4282156,2.2057006 22.0394251,2.64845509 C22.8228982,3.20893413 23.6963114,3.88713772 24.5705389,4.6114012 C24.9588024,4.05032335 25.2634731,3.51049102 25.5403593,3.02062275 C25.6536527,2.82083832 25.7621557,2.62792814 25.8701796,2.44488623 C26.0713772,2.11058683 26.2622754,1.81365269 26.4158084,1.57518563 C26.5245509,1.40613174 26.6196407,1.25827545 26.6936527,1.13611976 C26.8728144,0.850826347 26.9621557,0.699017964 26.9647904,0.694610778 L26.9839521,0.663736527 C27.2493413,0.265916168 27.5913772,0.0300838323 27.9288623,0.0106826347 L27.999521,0.00689820359 C28.3506587,0.00689820359 28.7116168,0.245341317 28.9906587,0.661820359 L29.0131737,0.698419162 C29.0165269,0.704862275 29.102515,0.853317365 29.2728144,1.124 C29.371018,1.28658683 29.4893413,1.47616766 29.628982,1.69988024 C29.7611976,1.91324551 29.9128144,2.15746108 30.0807186,2.42996407 C30.2215569,2.65688623 30.3590419,2.8965988 30.5049102,3.14991617 C30.7640719,3.60112575 31.0498204,4.09789222 31.4021557,4.60948503 C32.2641916,3.89413174 33.137485,3.21609581 33.9358084,2.6440479 C34.5465868,2.20184431 35.0246707,1.88502994 35.3113772,1.69988024 L35.3113772,1.69211976 L35.6122156,1.50380838 C35.8146108,1.3765509 36.0131737,1.30196407 36.217006,1.27638323 C36.2998802,1.26349701 36.3827545,1.25695808 36.462994,1.25695808 C37.0821557,1.25695808 37.5717365,1.62788024 37.8083832,2.27520958 L37.8136527,2.28603593 C38.0692216,2.88577246 38.6826347,4.45729341 39.2095808,6.85657485 C40.5298204,6.30960479 41.6081437,5.79343713 42.4277844,5.40141317 C42.8462275,5.20146108 43.1765269,5.04337725 43.4445509,4.92584431 C43.7679042,4.7857006 43.9434731,4.71623952 43.9434731,4.71623952 C44.1482635,4.63336527 44.354012,4.59281437 44.5686228,4.59281437 C45.3058683,4.61346108 45.8380838,5.10253892 45.977006,5.86994012 C45.9841916,5.91176048 46.0752096,6.51264671 46.1671856,7.55013174 C46.240479,8.27645509 46.3645509,9.8028503 46.3645509,11.7773653 L46.3645509,11.8057006 C46.3645509,11.9593293 46.3645509,12.0479281 46.3928144,12.1193054 C47.9386826,11.9971976 49.2124551,11.9316407 50.28,11.9187305 C51.4500599,11.9084072 52.1305389,11.9405509 52.1556886,11.941988 C52.7552096,11.9754012 53.3099401,12.3012455 53.6433533,12.8141557 C53.8433533,13.1097246 53.9528144,13.4742515 53.9528144,13.8586587 L53.9494611,13.9652216 C53.8898204,14.588024 53.4737725,16.8723832 50.6433533,20.5546587 C52.6035928,21.593988 53.9997605,22.5818204 54.7837126,23.1371976 L54.9810778,23.276 C55.2502994,23.4597126 55.394491,23.5671377 55.394491,23.5671377 C55.9722156,23.9913772 55.9722156,24.6577246 55.9722156,25.0994012 C55.9722156,25.4761677 55.8668263,25.8392814 55.6661078,26.1508982 L55.4766467,26.445988 L55.4136527,26.445988 C55.2888623,26.5873054 55.0852695,26.7968862 54.7817964,27.0476647 L54.668024,27.1439521 C54.1267066,27.6035928 53.4526946,28.1755689 52.0122156,28.8273054 C49.8617964,29.7528144 48.1005988,30.3686228 45.7559281,30.7767665 C45.7597605,30.7805988 45.7635928,30.7851497 45.7674251,30.7897006 C46.0656287,31.1276647 46.1729341,31.5899401 46.0958084,32.2028743 L46.091976,32.2313772 C45.7216766,34.3942515 43.131018,34.6440719 41.2143713,34.6440719 C39.3528144,34.6440719 37.8591617,34.3379641 36.4141317,34.0419162 C34.885988,33.7288623 33.3053892,33.4043114 31.1822754,33.4043114 C30.5159281,33.4043114 29.8141317,33.4371257 29.0948503,33.5013174 L28.3961677,33.5628743 L28.3961677,33.1794012 C28.2965269,33.1413174 28.1607186,33.0972455 27.9892216,33.045509 C27.8158084,33.0984431 27.6783234,33.1432335 27.5772455,33.1813174 L27.5772455,33.5643114 L26.8785629,33.5020359 C26.1497006,33.4376048 25.4677844,33.4062275 24.7923353,33.4062275 C22.6687425,33.4062275 21.087497,33.7300599 19.5584671,34.0438323 C18.1135569,34.3401198 16.6192575,34.6467066 14.7577964,34.6467066 L14.7577964,34.6467066 Z" id="Fill-15" fill="#FFFFFE" mask="url(#mask-2)"></path>
                    </g>
                    <path d="M11.4324311,5.28867066 C11.0898443,5.30026347 10.8867784,5.49952096 10.8128383,5.89734132 C10.8128383,5.89734132 10.7305629,6.48929341 10.638012,7.49722156 C10.5525988,8.41820359 10.4503234,9.88047904 10.4503234,11.6183713 C10.4503234,15.5339162 10.9613653,21.0961916 13.3979162,25.3607186 C15.2676647,28.6136527 17.9099401,30.445509 20.8574611,30.5413174 C19.709006,29.6632335 18.3405749,28.2062275 17.6136048,25.9394012 C16.9285509,23.7893413 16.5801198,21.2466826 16.5801198,18.3825868 C16.5801198,14.4290299 17.2421796,11.0392575 17.4453413,10.0943952 C17.4504192,10.0694132 17.4542275,10.0533653 17.4548263,10.0468263 C17.5744431,9.49542515 17.8925509,9.05772455 18.317485,8.83473054 C15.3113772,6.90524551 12.7262515,5.7714012 12.2262275,5.55861078 C11.9273293,5.42050299 11.7646707,5.36201198 11.7634251,5.36131737 L11.7589461,5.36069461 L11.7550898,5.35877844 C11.6452216,5.3131497 11.5365988,5.28929341 11.4324311,5.28867066" id="Fill-17" fill="#C5C9CA"></path>
                    <path d="M37.0368862,9.8611018 C36.960479,9.8611018 36.8776048,9.89643114 36.782994,9.96843114 C36.7805988,9.97037126 36.6886228,10.0398802 36.519521,10.1863473 C36.348503,10.3233054 36.1044311,10.5340359 35.7667066,10.8329102 C35.3156886,11.2346347 34.3978443,12.0837844 33.3276647,13.2605749 C31.6328144,15.1482395 29.3870659,18.1216287 28.319521,21.5654132 C27.7037126,23.573988 27.3971257,25.3137725 27.4074251,26.7362874 C27.3959281,27.8007186 27.565509,28.6996407 27.9094611,29.4126946 C28.2359281,30.1094611 28.7338922,30.6035928 29.434012,30.925509 C29.7276647,31.0562874 30.1010778,31.1228743 30.5439521,31.1228743 L30.5652695,31.1228743 C32.6213174,31.1228743 36.0502994,29.4074251 37.2342515,25.5935329 C37.8699401,23.5379401 38.1932934,21.1123114 38.1932934,18.3832335 C38.1932934,14.9945868 37.7008383,12.0419401 37.4888623,10.9300359 C37.4071856,10.520503 37.3602395,10.2968862 37.3602395,10.2968862 C37.3092216,10.1021078 37.2117365,9.8611018 37.0368862,9.8611018" id="Fill-18" fill="#C5C9CA"></path>
                    <path d="M18.9480958,9.8611018 C18.7674731,9.8611018 18.6594731,10.0995689 18.5998323,10.3032575 C18.592024,10.3412934 18.5463234,10.5597844 18.4717605,10.9319521 C18.4152814,11.216024 18.3014132,11.8208623 18.1788024,12.6782515 C17.9858443,14.0171018 17.7565269,16.0937485 17.7565269,18.3832335 C17.7565269,21.1554012 18.0830419,23.5765269 18.7263713,25.5798802 C19.9334371,29.4035928 23.4499401,31.1228743 25.5611976,31.1228743 L25.5817964,31.1228743 C26.0265868,31.1228743 26.417485,31.051497 26.7439521,30.9120958 C26.9161677,30.8414371 27.0826347,30.7513772 27.268982,30.6261078 C27.1135329,30.4146108 26.9753293,30.1820359 26.8493413,29.9190419 C26.4385629,29.0649102 26.2328144,28.0241916 26.2198802,26.7394012 C26.2316168,25.1525749 26.5633533,23.2969581 27.205988,21.2209341 C27.2613174,21.0313533 27.3281437,20.8371497 27.3937725,20.6501078 C27.4194012,20.5748982 27.4450299,20.5011018 27.4701796,20.4265389 C25.2282635,14.8538922 20.0760479,10.6529581 19.4944192,10.1908263 C19.3099401,10.0411497 19.2161437,9.97037126 19.2148263,9.96977246 C19.1127425,9.89911377 19.0207904,9.8611018 18.9480958,9.8611018" id="Fill-19" fill="#C5C9CA"></path>
                    <path d="M27.9746108,0.739808383 C27.8505389,0.739808383 27.7221557,0.838107784 27.5920958,1.03226347 C27.5901796,1.03609581 27.485509,1.18785629 27.314012,1.47379641 C27.0560479,1.90323353 26.8098204,2.32220359 26.5611976,2.75542515 C26.005988,3.74016766 25.1614371,5.33161677 24.2943713,7.31185629 C23.6991377,8.66222754 23.1566707,10.0678802 22.6823952,11.4909222 C24.3508982,13.1588503 26.5894611,15.7611976 28.0792814,18.9203832 C29.2299401,16.4451257 30.977485,13.9808383 33.2797605,11.5873533 C31.7097006,6.81952096 29.5037126,2.93099401 28.6239521,1.47379641 C28.4376048,1.18194012 28.3415569,1.02780838 28.3415569,1.02780838 C28.1640719,0.760982036 28.0158084,0.739808383 27.9746108,0.739808383" id="Fill-20" fill="#C5C9CA"></path>
                    <path d="M44.4936527,5.28867066 C44.4268263,5.28929341 44.3188024,5.30155689 44.1820359,5.35877844 L44.1779641,5.36069461 L44.1748503,5.36131737 C44.1729341,5.36201198 44.011018,5.42050299 43.7166467,5.55669461 C43.4287425,5.67432335 43.0474251,5.85233533 42.565988,6.07861078 L42.3978443,6.15702994 C40.9135329,6.87564072 39.4687425,7.67767665 38.1022754,8.53971257 C37.9465868,8.62828743 37.7911377,8.72673054 37.6376048,8.82756886 C38.0596407,9.04105389 38.3851497,9.48572455 38.5046707,10.0398802 C38.5077844,10.053988 38.5108982,10.0694132 38.5161677,10.0950659 C38.7159281,11.0399042 39.3683832,14.4290299 39.3683832,18.3825868 C39.3683832,21.2306108 39.028982,23.7726228 38.36,25.9372455 C37.6421557,28.2143713 36.3077844,29.6665868 35.1868263,30.537485 C38.0905389,30.4016766 40.6924551,28.5746108 42.5398802,25.3602395 C44.9762874,21.0961916 45.4874251,15.5339162 45.4874251,11.6183713 C45.4874251,10.2325988 45.4244311,8.84177246 45.2996407,7.48555689 C45.2071856,6.4880479 45.1247904,5.89609581 45.1240719,5.89037126 C45.0507784,5.49952096 44.8447904,5.29961677 44.4936527,5.28867066" id="Fill-21" fill="#C5C9CA"></path>
                    <path d="M36.4352096,1.97817964 C36.3973653,1.97817964 36.3588024,1.98134132 36.319521,1.98718563 L36.3149701,1.98788024 L36.3104192,1.98850299 C36.2217964,1.99741317 36.1291018,2.03537725 36.0347305,2.10095808 L36.0308982,2.10409581 L36.0263473,2.10665868 C36.0198802,2.11065868 35.3822754,2.50141317 34.3983234,3.20778443 C33.851976,3.59913772 32.9863473,4.24443114 31.9250299,5.12184431 C32.6950898,6.7228024 33.3853892,8.3548024 33.9786826,9.98153293 C35.2447904,8.9839521 36.6325749,8.03415569 38.2091018,7.0828982 C37.7623952,4.82301796 37.251976,3.14093413 37.0507784,2.51623952 C37.0431138,2.4942515 37.0388024,2.47882635 37.0347305,2.46725749 C36.9120958,2.14277844 36.7104192,1.97817964 36.4352096,1.97817964" id="Fill-22" fill="#C5C9CA"></path>
                    <path d="M19.5023234,1.97817964 C19.2278323,1.97817964 19.026012,2.14277844 18.9027545,2.46725749 C18.8987545,2.47882635 18.8942754,2.4942515 18.8872814,2.51623952 C18.6861317,3.14093413 18.1744192,4.82301796 17.7283832,7.0828982 C19.3049581,8.03415569 20.6926707,8.9839521 21.9583234,9.98091018 C22.5219641,8.40299401 23.2122395,6.77051497 24.0124551,5.12184431 C23.1743952,4.42701796 22.3426108,3.78366467 21.5392096,3.20778443 C20.5551138,2.50141317 19.9176287,2.11065868 19.9110898,2.10665868 L19.9072814,2.10409581 L19.9027784,2.10095808 C19.808982,2.03537725 19.7164072,1.99741317 19.627018,1.98850299 L19.6225629,1.98788024 L19.6186108,1.98718563 C19.5788503,1.98134132 19.539521,1.97817964 19.5023234,1.97817964" id="Fill-23" fill="#C5C9CA"></path>
                    <path d="M5.28543713,12.5574611 C4.43188024,12.5574611 3.93628743,12.5826347 3.93123353,12.5832335 C3.59573653,12.6030898 3.28529341,12.7869701 3.08028743,13.0890299 C2.96007186,13.269006 2.89837126,13.4920479 2.90790419,13.7156886 C2.96771257,14.3038323 3.35973653,16.4325988 5.9011497,19.6379162 C7.20407186,18.9913293 8.4971976,18.4230898 9.74924551,17.9468982 C9.48902994,16.3483114 9.33415569,14.6039521 9.28977246,12.7573653 C7.73497006,12.611497 6.50991617,12.5690778 5.74761677,12.5600479 C5.58371257,12.5581078 5.42943713,12.5574611 5.28543713,12.5574611" id="Fill-24" fill="#C5C9CA"></path>
                    <path d="M50.6486228,12.5574611 C50.5051497,12.5574611 50.3520958,12.5581078 50.1904192,12.5600479 C49.4273054,12.5690778 48.2021557,12.611497 46.6481437,12.7573653 C46.6050299,14.5371018 46.4500599,16.2815329 46.1873054,17.9468982 C47.44,18.4224192 48.7336527,18.9913293 50.0366467,19.6379162 C52.5849102,16.4242395 52.9726946,14.2921916 53.0304192,13.7111856 C53.0502994,13.5125749 52.9417964,13.2111377 52.8582036,13.0902994 C52.6526946,12.7869701 52.3427545,12.6030898 52.0052695,12.5832335 C52.0014371,12.5826347 51.497006,12.5574611 50.6486228,12.5574611" id="Fill-25" fill="#C5C9CA"></path>
                    <path d="M45.9753293,19.1337725 C45.4541317,21.7554731 44.6402395,24.0469461 43.5542515,25.9468263 C42.4222754,27.9355689 41.0062275,29.4438323 39.3389222,30.4409581 C51.434012,29.7839521 54.8476647,25.891497 55.2038323,25.4423952 L55.2057485,25.439521 C55.325988,25.2565269 55.3863473,25.0553293 55.3863473,24.84 C55.3863473,24.4924551 55.2222754,24.1542515 54.9580838,23.9582994 C54.9576048,23.9582994 54.8155689,23.8644311 54.5616766,23.6913772 L54.5590419,23.6882156 L54.5559281,23.6856527 C54.3643114,23.5411257 54.0867066,23.3591377 53.7362874,23.1296766 C53.6438323,23.0691976 53.5461078,23.0049581 53.4452695,22.9381796 C52.5796407,22.3828982 51.1865868,21.539497 49.4788024,20.6854371 C48.2994012,20.089485 47.1219162,19.5682874 45.9753293,19.1337725" id="Fill-26" fill="#C5C9CA"></path>
                    <path d="M9.96246707,19.1337725 C5.88294611,20.679521 2.59930539,22.8289102 1.36522156,23.6901317 C1.11971257,23.8657006 0.97897006,23.959521 0.973724551,23.9633533 C0.71542515,24.1542515 0.551449102,24.4924551 0.551449102,24.84 C0.551449102,25.0548503 0.611233533,25.2546108 0.730179641,25.4364072 C0.739760479,25.4481437 0.746946108,25.4596407 0.751976048,25.468503 C0.777125749,25.4955689 0.801461078,25.5252695 0.831041916,25.5611976 C0.845173653,25.5784431 0.861293413,25.5985629 0.878586826,25.6191617 C0.961580838,25.7108982 1.15499401,25.9113772 1.45841916,26.1640719 C1.96867066,26.5997605 2.88337725,27.2567665 4.35578443,27.92 C7.4011976,29.3005988 11.623976,30.1722156 16.5994491,30.4517365 C14.9507784,29.4579641 13.5033054,27.9142515 12.382994,25.9461078 C11.2975329,24.0462275 10.4836647,21.7548503 9.96246707,19.1337725" id="Fill-27" fill="#C5C9CA"></path>
                    <path d="M44.4589222,31.3250299 C43.8392814,31.3250299 42.9226347,31.451018 41.5358084,31.6423952 C41.3300599,31.6708982 41.1154491,31.7003593 40.8883832,31.731976 C40.2811976,31.817485 39.5413174,31.8572455 38.560479,31.8572455 C37.959521,31.8572455 37.3365269,31.8431138 36.6766467,31.8282635 L36.6179641,31.8270659 C35.9908982,31.8129341 35.2797605,31.7966467 34.5669461,31.7966467 C33.0847904,31.7966467 31.1683832,31.8572455 29.4797605,32.3276647 C29.3949701,32.3528144 29.3334132,32.4440719 29.3422754,32.5032335 C29.3506587,32.5578443 29.4548503,32.5765269 29.5427545,32.5765269 C29.5679042,32.5765269 29.5937725,32.5750898 29.6210778,32.5731737 C30.2907784,32.5135329 30.9389222,32.4838323 31.5494611,32.4838323 C33.7532934,32.4838323 35.2579641,32.8644311 36.7137725,33.2313772 C38.0828743,33.5772455 39.3760479,33.9037126 41.1731737,33.9037126 C43.0891018,33.9037126 44.6067066,33.4962874 45.2316168,32.8124551 C45.4409581,32.582994 45.5355689,32.3322156 45.5116168,32.0668263 C45.4615569,31.5547305 45.2977246,31.3250299 44.4589222,31.3250299" id="Fill-28" fill="#C5C9CA"></path>
                    <path d="M11.4737725,31.3250299 C10.6394251,31.3250299 10.4761916,31.5547305 10.4261078,32.068024 C10.3997605,32.3317365 10.491018,32.5810778 10.6973413,32.8079042 C11.3097964,33.4840719 12.8684551,33.9037126 14.7645749,33.9037126 C16.560982,33.9037126 17.8548024,33.5772455 19.2239281,33.2313772 C20.6796886,32.8637126 22.1843593,32.4838323 24.3882635,32.4838323 C24.9983234,32.4838323 25.6474251,32.5135329 26.3159281,32.5731737 C26.3449102,32.5750898 26.3705389,32.5765269 26.3949701,32.5765269 C26.4831138,32.5765269 26.5877844,32.5578443 26.5961677,32.5032335 C26.6043114,32.4440719 26.5434731,32.3528144 26.4553293,32.3276647 C24.7700599,31.8572455 22.8528623,31.7966467 21.3713054,31.7966467 L21.3706826,31.7966467 C20.658491,31.7966467 19.9469461,31.8129341 19.3196886,31.8270659 L19.2598323,31.8282635 C18.6004311,31.8431138 17.9782754,31.8572455 17.3773653,31.8572455 C16.3959042,31.8572455 15.656,31.817485 15.0480479,31.731976 C14.8172455,31.6998802 14.5961198,31.6694611 14.3860359,31.6407186 C13.0040958,31.4502994 12.0908263,31.3250299 11.4737725,31.3250299" id="Fill-29" fill="#C5C9CA"></path>
                </g>
            </g>
        </g>
    </g>
</svg>
