<?xml version="1.0" encoding="UTF-8"?>
<svg width="21px" height="21px" viewBox="0 0 21 21" version="1.1" xmlns="http://www.w3.org/2000/svg" xmlns:xlink="http://www.w3.org/1999/xlink">
    <g id="workshop-info" stroke="none" stroke-width="1" fill="none" fill-rule="evenodd">
        <g id="HOME" transform="translate(-463.000000, -3669.000000)" fill="#CFD3D6" fill-rule="nonzero">
            <g id="Group-7" transform="translate(165.000000, 3200.000000)">
                <g id="Group-Copy-9" transform="translate(0.000000, 154.000000)">
                    <path d="M308.333309,335.187495 C313.683181,335.187495 318.020786,330.851453 318.020786,325.500018 C318.020786,320.151711 313.683181,315.812541 308.333309,315.812541 C302.983438,315.812541 298.645833,320.151711 298.645833,325.500018 C298.645833,330.851453 302.983438,335.187495 308.333309,335.187495 Z M308.333309,323.390648 C307.427207,323.390648 306.692688,322.65613 306.692688,321.750027 C306.692688,320.843924 307.427207,320.109406 308.333309,320.109406 C309.239412,320.109406 309.973931,320.843924 309.973931,321.750027 C309.973931,322.65613 309.239412,323.390648 308.333309,323.390648 Z M310.052055,330.500006 L306.614564,330.500006 C306.355699,330.500006 306.145815,330.290122 306.145815,330.031257 L306.145815,329.093759 C306.145815,328.834895 306.355699,328.62501 306.614564,328.62501 L307.083312,328.62501 L307.083312,326.125016 L306.614564,326.125016 C306.355699,326.125016 306.145815,325.915132 306.145815,325.656268 L306.145815,324.71877 C306.145815,324.459905 306.355699,324.250021 306.614564,324.250021 L309.114558,324.250021 C309.373422,324.250021 309.583307,324.459905 309.583307,324.71877 L309.583307,328.62501 L310.052055,328.62501 C310.31092,328.62501 310.520804,328.834895 310.520804,329.093759 L310.520804,330.031257 C310.520804,330.290122 310.31092,330.500006 310.052055,330.500006 Z" id="ïš"></path>
                </g>
            </g>
        </g>
    </g>
</svg>
