<?xml version="1.0" encoding="UTF-8"?>
<svg width="72px" height="72px" viewBox="0 0 72 72" version="1.1" xmlns="http://www.w3.org/2000/svg" xmlns:xlink="http://www.w3.org/1999/xlink">
    <g id="Page-1" stroke="none" stroke-width="1" fill="none" fill-rule="evenodd">
        <g id="HOME" transform="translate(-954.000000, -3790.000000)">
            <g id="Group-7" transform="translate(165.000000, 3200.000000)">
                <g id="Group-Copy-12" transform="translate(760.000000, 561.000000)">
                    <g id="Group-65" transform="translate(30.000000, 30.000000)">
                        <rect id="Rectangle-Copy-10" stroke="#E4E8EC" fill="#FFFFFF" stroke-linejoin="round" x="0" y="0" width="70" height="70" rx="10"></rect>
                        <g id="diamond-svgrepo-com" transform="translate(17.000000, 17.000000)" fill="#55C1E2" fill-rule="nonzero" stroke="#55C1E2">
                            <path d="M18,21.5896641 C17.5949297,21.5896641 17.2665703,21.9180234 17.2665703,22.3230938 L17.2665703,22.6514531 C17.2665703,23.0565234 17.5949297,23.3848828 18,23.3848828 C18.4050703,23.3848828 18.7334297,23.0564531 18.7334297,22.6514531 L18.7334297,22.3230938 C18.7334297,21.9180234 18.405,21.5896641 18,21.5896641 Z" id="Path"></path>
                            <path d="M18,0 C17.5949297,0 17.2665703,0.328359375 17.2665703,0.733429687 L17.2665703,5.085 C17.2665703,5.49007031 17.5949297,5.81842969 18,5.81842969 C18.4050703,5.81842969 18.7334297,5.49007031 18.7334297,5.085 L18.7334297,0.733429687 C18.7334297,0.328359375 18.405,0 18,0 Z" id="Path"></path>
                            <path d="M27.9062578,2.75653125 C27.6197344,2.47014844 27.1554609,2.47014844 26.8690078,2.75653125 L23.7225938,5.90294531 C23.4362109,6.18939844 23.4362109,6.6538125 23.7225938,6.94019531 C23.8658203,7.08342188 24.0534844,7.155 24.2412188,7.155 C24.4289531,7.155 24.6165469,7.08335156 24.7597734,6.94019531 L27.9062578,3.79378125 C28.1926406,3.50725781 28.1926406,3.04291406 27.9062578,2.75653125 Z" id="Path"></path>
                            <path d="M12.2774766,5.902875 L9.1310625,2.75646094 C8.84453906,2.47007813 8.38026563,2.47007813 8.0938125,2.75646094 C7.80742969,3.04291406 7.80742969,3.50732813 8.0938125,3.79371094 L11.2402266,6.940125 C11.3834531,7.08335156 11.5710469,7.15492969 11.7587813,7.15492969 C11.9465156,7.15492969 12.1341797,7.08328125 12.2774766,6.940125 C12.5638594,6.65367188 12.5638594,6.18925781 12.2774766,5.902875 Z" id="Path"></path>
                            <path d="M35.7754922,16.8236016 L28.6437656,9.0495 C28.6382812,9.04359375 28.6331484,9.0388125 28.6282266,9.03501562 C28.4914687,8.89425 28.3031719,8.81184375 28.1033437,8.81184375 L7.89679687,8.81184375 C7.89292969,8.81184375 7.89004687,8.81317969 7.88632031,8.81339062 C7.6865625,8.81627344 7.49411719,8.89924219 7.35630469,9.0495 L0.2244375,16.8236016 C-0.0416953125,17.1137812 -0.010265625,17.5597734 0.223664062,17.8143047 L17.4586641,36.6628359 C17.7396328,36.9641953 18.2387812,36.9935859 18.5411953,36.6628359 L35.7761953,17.8143047 C36.010125,17.5597031 36.0418359,17.1140625 35.7754922,16.8236016 Z M28.3527422,10.9021641 L33.5669766,16.5859453 L26.0914922,16.5859453 L28.3527422,10.9021641 Z M27.0222187,10.2787031 L24.7651172,15.9520781 L19.6490391,10.2787031 L27.0222187,10.2787031 L27.0222187,10.2787031 Z M23.3614687,16.5860156 L12.6386016,16.5860156 L18.0000703,10.6405312 L23.3614687,16.5860156 Z M16.3511719,10.2787031 L11.2350234,15.9520781 L8.97799219,10.2787031 L16.3511719,10.2787031 L16.3511719,10.2787031 Z M7.64725781,10.9021641 L9.90850781,16.5859453 L2.43302344,16.5859453 L7.64725781,10.9021641 Z M2.42936719,18.0528047 L10.4798672,18.0528047 L15.9996094,32.8934531 L2.42936719,18.0528047 Z M18,34.0640156 L12.0448828,18.0528047 L23.9551172,18.0528047 L18,34.0640156 Z M20.0003906,32.8933828 L25.5201328,18.0527344 L33.5706328,18.0527344 L20.0003906,32.8933828 Z" id="Shape"></path>
                        </g>
                    </g>
                </g>
            </g>
        </g>
    </g>
</svg>
