<?xml version="1.0" encoding="UTF-8"?>
<svg width="72px" height="72px" viewBox="0 0 72 72" version="1.1" xmlns="http://www.w3.org/2000/svg" xmlns:xlink="http://www.w3.org/1999/xlink">
    <g id="Page-1" stroke="none" stroke-width="1" fill="none" fill-rule="evenodd">
        <g id="HOME" transform="translate(-954.000000, -3383.000000)">
            <g id="Group-7" transform="translate(165.000000, 3200.000000)">
                <g id="Group-Copy-11" transform="translate(760.000000, 154.000000)">
                    <g id="Group-62" transform="translate(30.000000, 30.000000)">
                        <rect id="Rectangle-Copy-10" stroke="#E4E8EC" fill="#FFFFFF" stroke-linejoin="round" x="0" y="0" width="70" height="70" rx="10"></rect>
                        <g id="docker" transform="translate(6.200000, 17.881818)" fill-rule="nonzero">
                            <path d="M33.7680538,10.5390905 L38.87649,10.5390905 L38.87649,15.8655303 L41.4593043,15.8655303 C42.6523004,15.8655303 43.8790311,15.6488268 45.0085794,15.258487 C45.5637471,15.0663934 46.1866073,14.7993308 46.7341791,14.4632239 C46.0130196,13.5029836 45.644844,12.2904923 45.5367148,11.095319 C45.3892658,9.46947308 45.7109727,7.35348081 46.7895841,6.08105987 L47.3266558,5.44758383 L47.9664949,5.97236632 C49.5774865,7.2924119 50.9324531,9.13723996 51.1712757,11.2402437 C53.1111231,10.6582661 55.3887627,10.795899 57.0985004,11.8023967 L57.8,12.2152955 L57.4309308,12.9504011 C55.984814,15.8288433 52.9614401,16.7207229 50.0057587,16.5628096 C45.5829602,27.798806 35.953873,33.1181818 24.2788197,33.1181818 C18.2468169,33.1181818 12.7130128,30.8182992 9.56162643,25.3599233 L9.51001929,25.2710543 L9.05091685,24.3181059 C7.98570983,21.9154543 7.63183233,19.2833386 7.871772,16.6532737 L7.94393263,15.8655303 L12.3124431,15.8655303 L12.3124431,10.5390905 L17.4206559,10.5390905 L17.4206559,5.32863618 L27.6377517,5.32863618 L27.6377517,0.118181818 L33.7680538,0.118181818 L33.7680538,10.5390905" id="Shape" fill="#364548"></path>
                            <path d="M50.4484577,12.8412986 C50.7907884,10.1896924 48.7995532,8.10708228 47.5646614,7.11818182 C46.1415211,8.75774496 45.9204464,13.0546999 48.1530773,14.863827 C46.90702,15.9666602 44.2815908,16.9662418 41.5931888,16.9662418 L8.86855457,16.9662418 C8.6072845,19.7627117 9.0999014,22.3379919 10.2251492,24.5421006 L10.5974032,25.2208014 C10.8331073,25.6191626 11.0906744,26.00427 11.3689314,26.3743702 C12.7143606,26.4604874 13.9548352,26.4900832 15.0896852,26.4651604 L15.0901318,26.4651604 C17.3203063,26.4162049 19.1400412,26.1536256 20.5191898,25.6774224 C20.7218761,25.6145961 20.9380189,25.7233989 21.0075444,25.9232523 C21.0770698,26.1231056 20.9748834,26.3418745 20.7766637,26.4175401 C20.5931047,26.4811822 20.4019533,26.5403738 20.2045492,26.5966726 L20.2038793,26.5966726 C19.1179337,26.9057596 17.9533838,27.1135978 16.4509692,27.2059456 C16.5402923,27.2075033 16.3580732,27.2192971 16.3576266,27.2192971 C16.3064891,27.222635 16.2421765,27.2299783 16.1908157,27.2326486 C15.5994968,27.2658048 14.9612832,27.2727031 14.308778,27.2727031 C13.5950864,27.2727031 12.8923369,27.2593516 12.1065169,27.2192971 L12.0864192,27.2326486 C14.8130069,30.2865797 19.0763984,32.1181818 24.4205995,32.1181818 C35.7306905,32.1181818 45.3239914,27.1220538 49.572198,15.9056884 C52.5859594,16.2138853 55.4824843,15.4479548 56.8,12.8849135 C54.7013538,11.6781612 52.0024563,12.0629066 50.4484577,12.8412986" id="Path" fill="#22A0C8"></path>
                            <path d="M50.5944796,12.9751843 C50.9380595,10.2615469 48.9395587,8.13021646 47.7001609,7.11818182 C46.2718279,8.79610064 46.0499466,13.1935779 48.2907239,15.0450274 C47.04012,16.1736601 44.4051111,17.1966258 41.7068997,17.1966258 L10.8077955,17.1966258 C10.6737702,21.5795284 12.2744535,24.9064442 15.1064661,26.9177606 L15.1071384,26.9177606 C17.3454504,26.8676599 19.1718251,26.5989378 20.556006,26.1115944 C20.7594318,26.0472983 20.9763633,26.1586465 21.0461424,26.3631752 C21.1159215,26.5677039 21.0133623,26.7915906 20.8144193,26.8690263 C20.6301905,26.9341572 20.4383416,26.9947335 20.2402173,27.0523494 L20.2395449,27.0523494 C19.1496369,27.3686671 17.8804309,27.6086952 16.3725344,27.7032033 C16.3720861,27.7032033 16.3360024,27.6679051 16.3355541,27.6679051 C20.1987546,29.6814988 25.8002496,29.6742114 32.2224814,27.167581 C39.4235391,24.3564749 46.1245794,19.0011629 50.8,12.8758938 C50.7296255,12.9082315 50.661044,12.9412524 50.5944796,12.9751843" id="Path" fill="#37B1D9"></path>
                            <path d="M8.8,20.1181818 C9.00064056,21.6475446 9.43499431,23.079448 10.078808,24.3836773 L10.446355,25.0765704 C10.6790394,25.4832872 10.933351,25.8764498 11.2081277,26.2542615 C12.5367651,26.3421794 13.7615545,26.3723941 14.8822754,26.3469501 C17.0842505,26.296971 18.8809757,26.0289008 20.2426857,25.5427398 C20.4428091,25.4785997 20.6562189,25.5896777 20.7248653,25.7937102 C20.7935116,25.9977427 20.6926173,26.2210862 20.4969039,26.298334 C20.315666,26.363307 20.1269316,26.4237363 19.9320236,26.4812124 L19.9313621,26.4812124 C18.8591478,26.7967627 17.6171606,27.0225777 16.1337434,27.1170838 C16.0828115,27.1202643 15.9939564,27.1209458 15.9425836,27.1238991 C15.3591826,27.1575215 14.735433,27.1781947 14.0909578,27.1781947 C13.386511,27.1781947 12.6659689,27.1643368 11.8905261,27.123672 C14.5826375,30.2414638 18.8181377,32.1181818 24.0947641,32.1181818 C33.6549563,32.1181818 41.9724998,28.3792851 46.8,20.1181818 L8.8,20.1181818" id="Path" fill="#1B81A5"></path>
                            <path d="M10.8,20.1181818 C11.3791613,22.6648088 12.7709805,24.6639755 14.7915651,26.0254083 C17.0230787,25.9780092 18.8439063,25.7237774 20.2238831,25.262713 C20.4266911,25.2018839 20.6429637,25.3072279 20.7125309,25.5007278 C20.7820981,25.6942277 20.6798503,25.9060418 20.4815116,25.9793019 C20.2978424,26.0409208 20.1065762,26.0982307 19.9090536,26.1527397 L19.9083833,26.1527397 C18.8217856,26.4520007 17.5365481,26.6661586 16.0330079,26.7557861 C19.8842515,28.66037 25.4526457,28.6330078 31.8549248,26.2617577 C35.7280657,24.8268562 39.4557459,22.6908783 42.8,20.1181818 L10.8,20.1181818" id="Path" fill="#1D91B4"></path>
                            <path d="M13.8,11.93952 L17.9785639,11.93952 L17.9785639,16.1181818 L13.8,16.1181818 L13.8,11.93952 Z M14.1481082,12.2878473 L14.4778728,12.2878473 L14.4778728,15.7700654 L14.1481082,15.7700654 L14.1481082,12.2878473 Z M14.7679981,12.2878473 L15.111046,12.2878473 L15.111046,15.7700654 L14.768209,15.7700654 L14.768209,12.2878473 L14.7679981,12.2878473 Z M15.4009605,12.2878473 L15.7440084,12.2878473 L15.7440084,15.7700654 L15.4009605,15.7700654 L15.4009605,12.2878473 Z M16.0343446,12.2878473 L16.3771817,12.2878473 L16.3771817,15.7700654 L16.0343446,15.7700654 L16.0343446,12.2878473 Z M16.6675179,12.2878473 L17.0103549,12.2878473 L17.0103549,15.7700654 L16.6675179,15.7700654 L16.6675179,12.2878473 Z M17.3004803,12.2878473 L17.6304557,12.2878473 L17.6304557,15.7700654 L17.3004803,15.7700654 L17.3004803,12.2878473 Z M18.6212253,7.11818182 L22.8,7.11818182 L22.8,11.2966328 L18.6210144,11.2966328 L18.6210144,7.11818182 L18.6212253,7.11818182 Z M18.9695443,7.46650906 L19.299098,7.46650906 L19.299098,10.9485164 L18.9695443,10.9485164 L18.9695443,7.46650906 Z M19.5894342,7.46650906 L19.9322713,7.46650906 L19.9322713,10.9485164 L19.5896451,10.9485164 L19.5896451,7.46650906 L19.5894342,7.46650906 Z M20.2223966,7.46650906 L20.5652337,7.46650906 L20.5652337,10.9485164 L20.2223966,10.9485164 L20.2223966,7.46650906 Z M20.8555699,7.46650906 L21.1984069,7.46650906 L21.1984069,10.9485164 L20.8555699,10.9485164 L20.8555699,7.46650906 Z M21.4887431,7.46650906 L21.831791,7.46650906 L21.831791,10.9485164 L21.4887431,10.9485164 L21.4887431,7.46650906 Z M22.1217055,7.46650906 L22.4518918,7.46650906 L22.4518918,10.9485164 L22.1217055,10.9485164 L22.1217055,7.46650906 Z" id="Shape" fill="#23A3C2"></path>
                            <path d="M18.8002018,12.1181818 L22.8,12.1181818 L22.8,16.1181818 L18.8,16.1181818 L18.8,12.1181818 L18.8002018,12.1181818 Z M19.1336024,12.4516161 L19.4490414,12.4516161 L19.4490414,15.7849494 L19.1336024,15.7849494 L19.1336024,12.4516161 Z M19.7269425,12.4516161 L20.0550959,12.4516161 L20.0550959,15.7849494 L19.7271443,15.7849494 L19.7271443,12.4516161 L19.7269425,12.4516161 Z M20.3327952,12.4516161 L20.6609485,12.4516161 L20.6609485,15.7849494 L20.3327952,15.7849494 L20.3327952,12.4516161 Z M20.9388496,12.4516161 L21.267003,12.4516161 L21.267003,15.7849494 L20.9388496,15.7849494 L20.9388496,12.4516161 Z M21.5449041,12.4516161 L21.8732593,12.4516161 L21.8732593,15.7849494 L21.5449041,15.7849494 L21.5449041,12.4516161 Z M22.1507568,12.4516161 L22.4668012,12.4516161 L22.4668012,15.7849494 L22.1507568,15.7849494 L22.1507568,12.4516161 Z" id="Shape" fill="#34BBDE"></path>
                            <path d="M23.8,12.1181818 L27.8,12.1181818 L27.8,16.1181818 L23.8,16.1181818 L23.8,12.1181818 Z M24.1332324,12.4516161 L24.4487032,12.4516161 L24.4487032,15.7849494 L24.1332324,15.7849494 L24.1332324,12.4516161 Z M24.7266324,12.4516161 L25.0548189,12.4516161 L25.0548189,15.7849494 L24.7266324,15.7849494 L24.7266324,12.4516161 Z M25.332748,12.4516161 L25.6609345,12.4516161 L25.6609345,15.7849494 L25.332748,15.7849494 L25.332748,12.4516161 Z M25.9388637,12.4516161 L26.2670502,12.4516161 L26.2670502,15.7849494 L25.9388637,15.7849494 L25.9388637,12.4516161 Z M26.5447775,12.4516161 L26.8733676,12.4516161 L26.8733676,15.7849494 L26.5447775,15.7849494 L26.5447775,12.4516161 Z M27.1508931,12.4516161 L27.4665657,12.4516161 L27.4665657,15.7849494 L27.1508931,15.7849494 L27.1508931,12.4516161 L27.1508931,12.4516161 Z" id="Shape" fill="#23A3C2"></path>
                            <path d="M23.8,7.11818182 L27.9786618,7.11818182 L27.9786618,11.2966328 L23.8,11.2966328 L23.8,7.11818182 Z M24.1481164,7.46650906 L24.4776778,7.46650906 L24.4776778,10.9485164 L24.1481164,10.9485164 L24.1481164,7.46650906 Z M24.7680208,7.46650906 L25.1108659,7.46650906 L25.1108659,10.9485164 L24.7680208,10.9485164 L24.7680208,7.46650906 Z M25.4012089,7.46650906 L25.744054,7.46650906 L25.744054,10.9485164 L25.4012089,10.9485164 L25.4012089,7.46650906 Z M26.034397,7.46650906 L26.3772421,7.46650906 L26.3772421,10.9485164 L26.034397,10.9485164 L26.034397,7.46650906 Z M26.6673742,7.46650906 L27.010641,7.46650906 L27.010641,10.9485164 L26.6673742,10.9485164 L26.6673742,7.46650906 Z M27.3005623,7.46650906 L27.6303346,7.46650906 L27.6303346,10.9485164 L27.3005623,10.9485164 L27.3005623,7.46650906 L27.3005623,7.46650906 Z M28.6213382,11.93952 L32.8,11.93952 L32.8,16.1181818 L28.6213382,16.1181818 L28.6213382,11.93952 Z M28.9696654,12.2878473 L29.2992269,12.2878473 L29.2992269,15.7700654 L28.9696654,15.7700654 L28.9696654,12.2878473 Z M29.5895699,12.2878473 L29.932415,12.2878473 L29.932415,15.7700654 L29.5895699,15.7700654 L29.5895699,12.2878473 Z M30.2225471,12.2878473 L30.5653922,12.2878473 L30.5653922,15.7700654 L30.2225471,15.7700654 L30.2225471,12.2878473 Z M30.8557352,12.2878473 L31.1987911,12.2878473 L31.1987911,15.7700654 L30.8557352,15.7700654 L30.8557352,12.2878473 Z M31.4889232,12.2878473 L31.8319792,12.2878473 L31.8319792,15.7700654 L31.4889232,15.7700654 L31.4889232,12.2878473 Z M32.1221113,12.2878473 L32.4518836,12.2878473 L32.4518836,15.7700654 L32.1221113,15.7700654 L32.1221113,12.2878473 Z" id="Shape" fill="#34BBDE"></path>
                            <path d="M28.8,7.11818182 L32.8,7.11818182 L32.8,11.1181818 L28.8,11.1181818 L28.8,7.11818182 Z M29.1334343,7.4516329 L29.448905,7.4516329 L29.448905,10.7849326 L29.1334343,10.7849326 L29.1334343,7.4516329 Z M29.7268342,7.4516329 L30.0550207,7.4516329 L30.0550207,10.7849326 L29.7268342,10.7849326 L29.7268342,7.4516329 Z M30.332748,7.4516329 L30.6609345,7.4516329 L30.6609345,10.7849326 L30.332748,10.7849326 L30.332748,7.4516329 Z M30.9388637,7.4516329 L31.267252,7.4516329 L31.267252,10.7849326 L30.9388637,10.7849326 L30.9388637,7.4516329 Z M31.5449793,7.4516329 L31.8733676,7.4516329 L31.8733676,10.7849326 L31.5449793,10.7849326 L31.5449793,7.4516329 Z M32.151095,7.4516329 L32.4667676,7.4516329 L32.4667676,10.7849326 L32.151095,10.7849326 L32.151095,7.4516329 Z" id="Shape" fill="#23A3C2"></path>
                            <path d="M28.8,2.11818182 L32.8,2.11818182 L32.8,6.11818182 L28.8,6.11818182 L28.8,2.11818182 Z M29.1334343,2.45138061 L29.448905,2.45138061 L29.448905,5.7845794 L29.1334343,5.7845794 L29.1334343,2.45117879 L29.1334343,2.45138061 Z M29.7268342,2.45138061 L30.0550207,2.45138061 L30.0550207,5.7845794 L29.7268342,5.7845794 L29.7268342,2.45117879 L29.7268342,2.45138061 Z M30.332748,2.45138061 L30.6609345,2.45138061 L30.6609345,5.7845794 L30.332748,5.7845794 L30.332748,2.45117879 L30.332748,2.45138061 Z M30.9388637,2.45138061 L31.267252,2.45138061 L31.267252,5.7845794 L30.9388637,5.7845794 L30.9388637,2.45117879 L30.9388637,2.45138061 Z M31.5449793,2.45138061 L31.8733676,2.45138061 L31.8733676,5.7845794 L31.5449793,5.7845794 L31.5449793,2.45117879 L31.5449793,2.45138061 Z M32.151095,2.45138061 L32.4667676,2.45138061 L32.4667676,5.7845794 L32.151095,5.7845794 L32.151095,2.45117879 L32.151095,2.45138061 Z" id="Shape" fill="#34BBDE"></path>
                            <path d="M33.8,12.1181818 L37.8,12.1181818 L37.8,16.1181818 L33.8,16.1181818 L33.8,12.1181818 Z M34.1330306,12.4516161 L34.448905,12.4516161 L34.448905,15.7849494 L34.1332324,15.7849494 L34.1332324,12.4516161 L34.1330306,12.4516161 Z M34.7264305,12.4516161 L35.0548189,12.4516161 L35.0548189,15.7849494 L34.7266324,15.7849494 L34.7266324,12.4516161 L34.7264305,12.4516161 Z M35.332748,12.4516161 L35.6611363,12.4516161 L35.6611363,15.7849494 L35.332748,15.7849494 L35.332748,12.4516161 Z M35.9386618,12.4516161 L36.2670502,12.4516161 L36.2670502,15.7849494 L35.9386618,15.7849494 L35.9386618,12.4516161 Z M36.5449793,12.4516161 L36.8731658,12.4516161 L36.8731658,15.7849494 L36.5449793,15.7849494 L36.5449793,12.4516161 Z M37.1508931,12.4516161 L37.4665657,12.4516161 L37.4665657,15.7849494 L37.1508931,15.7849494 L37.1508931,12.4516161 Z" id="Shape" fill="#23A3C2"></path>
                            <path d="M22.786661,23.1182712 C23.1471172,23.1134626 23.4822625,23.3030321 23.6638551,23.6144415 C23.8454476,23.925851 23.8453771,24.310895 23.6636707,24.622238 C23.4819643,24.933581 23.1467496,25.1230279 22.7862953,25.1180875 C22.2393353,25.1105909 21.7999,24.66501 21.8,24.1179989 C21.8001001,23.5709878 22.2396984,23.1255677 22.786661,23.1182712" id="Path" fill="#D3ECEC"></path>
                            <path d="M22.473389,23.3654375 C22.5854494,23.3654375 22.6923551,23.3864794 22.7909683,23.4247577 C22.6510711,23.5058729 22.5829785,23.6705815 22.6248217,23.8266486 C22.6666648,23.9827157 22.8080555,24.0913957 22.9698168,24.0918291 C23.10541,24.0918291 23.2230734,24.0168395 23.2840343,23.9058102 C23.4322269,24.2623659 23.32936,24.6737811 23.0307327,24.9188881 C22.7321054,25.1639951 22.308065,25.1850542 21.9865664,24.9707446 C21.6650677,24.756435 21.5218458,24.3572413 21.6338936,23.9877613 C21.7459415,23.6182812 22.0868641,23.3655529 22.473389,23.3654375 M0.8,20.4820324 L57.8,20.4820324 C56.5590425,20.1677477 53.8734016,19.7428814 54.3162645,18.1181818 C52.0593669,20.726476 46.6170387,19.9481513 45.2434016,18.6621361 C43.7140005,20.8777982 34.8096765,20.0354526 34.1886375,18.3093493 C32.2710589,20.5570219 26.3293893,20.5570219 24.4118108,18.3093493 C23.7903235,20.0354526 14.8862236,20.8777982 13.3565984,18.6619122 C11.9831854,19.9481513 6.54108136,20.726476 4.28418375,18.1184057 C4.72704668,19.7428814 2.04140575,20.1677477 0.8,20.4822562" id="Shape" fill="#364548"></path>
                            <path d="M25.8,32.0896472 C22.7523626,30.5359635 21.0797633,28.4236792 20.149041,26.1181818 C19.0168684,26.4651913 17.6562356,26.6871807 16.0750205,26.7824572 C15.4794482,26.8182463 14.8528144,26.8366245 14.1955691,26.8366245 C13.4374861,26.8366245 12.638663,26.8124427 11.8,26.7648044 C14.5948681,29.7657717 18.0330263,32.0761054 24.3993022,32.1181818 C24.8692776,32.1181818 25.3356517,32.1085091 25.8,32.0896472" id="Path" fill="#BDD9D7"></path>
                            <path d="M20.7997838,28.1181818 C20.3948984,27.5402273 20.0021185,26.8138636 19.713316,26.1181818 C18.6259836,26.4447727 17.3188067,26.6534091 15.8,26.7431818 C16.8432339,27.3384091 18.3350195,27.89 20.8,28.1181818" id="Path" fill="#D3ECEC"></path>
                        </g>
                    </g>
                </g>
            </g>
        </g>
    </g>
</svg>
