<?xml version="1.0" encoding="UTF-8"?>
<svg width="72px" height="72px" viewBox="0 0 72 72" version="1.1" xmlns="http://www.w3.org/2000/svg" xmlns:xlink="http://www.w3.org/1999/xlink">
    <defs>
        <path d="M42.3299621,11.0166294 L24.0388019,0.456287076 C22.9851211,-0.15219294 21.2607216,-0.15219294 20.2070407,0.456287076 L1.91588058,11.0166294 C0.862102499,11.6249149 0,13.1183507 0,14.3351162 L0,35.4558981 C0.0819799669,36.872897 0.805795974,38.0464845 1.91588058,38.7742877 L20.2070407,49.33463 C21.2607216,49.94311 22.9851211,49.94311 24.0388019,49.33463 L42.3299621,38.7742877 C43.5210542,37.9821064 44.1989692,36.7896528 44.2458427,35.4558981 L44.2458427,14.3351162 C44.2030536,13.0548478 43.4364485,11.7635904 42.3299621,11.0166294 Z" id="path-1"></path>
        <linearGradient x1="29.0416049%" y1="28.3520467%" x2="56.0969723%" y2="56.2976242%" id="linearGradient-3">
            <stop stop-color="#A47EDE" offset="0%"></stop>
            <stop stop-color="#9866D3" offset="100%"></stop>
        </linearGradient>
    </defs>
    <g id="Page-1" stroke="none" stroke-width="1" fill="none" fill-rule="evenodd">
        <g id="HOME" transform="translate(-194.000000, -3790.000000)">
            <g id="Group-7" transform="translate(165.000000, 3200.000000)">
                <g id="Group-Copy-14" transform="translate(0.000000, 561.000000)">
                    <g id="Group-64" transform="translate(30.000000, 30.000000)">
                        <rect id="Rectangle-Copy-10" stroke="#E4E8EC" fill="#FFFFFF" stroke-linejoin="round" x="0" y="0" width="70" height="70" rx="10"></rect>
                        <g id="C_Sharp_logo" transform="translate(13.000000, 10.000000)">
                            <g id="Clipped">
                                <mask id="mask-2" fill="white">
                                    <use xlink:href="#path-1"></use>
                                </mask>
                                <g id="Path"></g>
                                <g id="Group" mask="url(#mask-2)" fill-rule="nonzero">
                                    <g transform="translate(-2.917437, -1.458718)" id="Path">
                                        <polygon fill="#7546B0" points="24.5636487 13.5648157 50.573957 13.5648157 50.573957 40.1614315 24.5636487 40.1614315"></polygon>
                                        <polygon fill="#8558BE" points="50.573957 41.1166002 17.1005543 21.7475445 0.00865506175 21.7475445 0.00865506175 53.8124088 50.573957 53.8124088"></polygon>
                                        <polygon fill="url(#linearGradient-3)" points="0.00865506175 40.8531557 50.573957 11.5927259 50.573957 0.0473597199 0.00865506175 0.0473597199"></polygon>
                                    </g>
                                </g>
                            </g>
                            <path d="M7.37430711,24.8955558 C7.28765924,10.4942138 26.5767772,4.13517456 34.8950695,17.5165808 L28.5122046,21.2100554 C24.6590489,14.8370125 15.0918993,17.1158222 14.748517,24.8954585 C14.8515997,32.0654478 24.2548867,35.3960906 28.5125936,28.5804726 L34.8954585,32.27385 C27.5647185,45 7.74404357,40.4213751 7.37430711,24.8955558 L7.37430711,24.8955558 Z M31.7028105,20.7137995 L32.918409,20.7137995 L32.0878148,28.73675 L30.849363,28.73675 L31.7028105,20.7137995 Z M34.3067198,20.7137995 L35.5223184,20.7137995 L34.6917242,28.73675 L33.4532724,28.73675 L34.3067198,20.7137995 Z M30.3413401,22.61908 L36.4193329,22.61908 L36.4193329,23.7930565 L30.3413401,23.7930565 L30.3413401,22.61908 Z M30.0009725,25.4789458 L36.0789653,25.4789458 L36.0789653,26.6529223 L30.0009725,26.6529223 L30.0009725,25.4789458 Z" id="Shape" fill="#FFFFFF" fill-rule="nonzero"></path>
                        </g>
                    </g>
                </g>
            </g>
        </g>
    </g>
</svg>
