<?xml version="1.0" encoding="UTF-8"?>
<svg width="72px" height="72px" viewBox="0 0 72 72" version="1.1" xmlns="http://www.w3.org/2000/svg" xmlns:xlink="http://www.w3.org/1999/xlink">
    <g id="Page-1" stroke="none" stroke-width="1" fill="none" fill-rule="evenodd">
        <g id="HOME" transform="translate(-194.000000, -3383.000000)">
            <g id="Group-7" transform="translate(165.000000, 3200.000000)">
                <g id="Group-Copy-9" transform="translate(0.000000, 154.000000)">
                    <g id="Group-58" transform="translate(30.000000, 30.000000)">
                        <rect id="Rectangle-Copy-10" stroke="#E4E8EC" fill="#FFFFFF" stroke-linejoin="round" x="0" y="0" width="70" height="70" rx="10"></rect>
                        <g id="java-seeklogo.com" transform="translate(16.000000, 10.000000)" fill-rule="nonzero">
                            <path d="M11.7920045,38.3333333 C11.7920045,38.3333333 9.9040778,39.4541642 13.1355777,39.8334387 C17.0504491,40.2893838 19.0512946,40.2239963 23.3655095,39.3904081 C23.3655095,39.3904081 24.4997568,40.1164672 26.083815,40.7453289 C16.4124849,44.9768905 4.19568936,40.5002279 11.7920045,38.3333333" id="Path" fill="#5382A1"></path>
                            <path d="M10.4316281,33.3333333 C10.4316281,33.3333333 8.29646859,34.9657711 11.5573466,35.3141429 C15.7742262,35.7634758 19.1043875,35.8002268 24.8668474,34.6541505 C24.8668474,34.6541505 25.6638735,35.4887448 26.9171484,35.9451506 C15.126374,39.5062531 1.99357237,36.2259837 10.4316281,33.3333333" id="Path" fill="#5382A1"></path>
                            <path d="M20.7323876,23.8367301 C23.0748868,26.6421462 20.1169188,29.1666667 20.1169188,29.1666667 C20.1169188,29.1666667 26.0649243,25.9726533 23.3332738,21.9729885 C20.7819969,18.2430541 18.8255075,16.3897967 29.4171484,10 C29.4171484,10 12.7917656,14.3192296 20.7323876,23.8367301" id="Path" fill="#E76F00"></path>
                            <path d="M34.2772355,42.8976513 C34.2772355,42.8976513 35.7045352,43.993162 32.7053285,44.840678 C27.0022514,46.4500461 8.96851312,46.9360245 3.9588164,44.9047993 C2.15795925,44.175008 5.53507654,43.1622466 6.59738908,42.949734 C7.705274,42.7259431 8.33838997,42.7676347 8.33838997,42.7676347 C6.33565399,41.4534019 -4.60647809,45.3481992 2.7803283,46.4636053 C22.9252241,49.5068316 39.5025508,45.0932348 34.2772355,42.8976513" id="Path" fill="#5382A1"></path>
                            <path d="M13.1553406,27.5077062 C13.1553406,27.5077062 4.1109582,29.5514606 9.95249905,30.2936233 C12.4189781,30.6077918 17.3358408,30.5367147 21.9157741,30.1716309 C25.6587489,29.871244 29.4171484,29.2325707 29.4171484,29.2325707 C29.4171484,29.2325707 28.0973293,29.7703068 27.1424724,30.3906046 C17.9580604,32.6886798 0.215479894,31.619588 5.32334081,29.2689387 C9.64306585,27.2823522 13.1553406,27.5077062 13.1553406,27.5077062" id="Path" fill="#5382A1"></path>
                            <path d="M28.7815368,36.4170138 C38.619287,31.4635346 34.0706983,26.7032865 30.8958447,27.3446053 C30.1176775,27.5015456 29.7707105,27.6375332 29.7707105,27.6375332 C29.7707105,27.6375332 30.0595907,27.1990316 30.6113459,27.0092242 C36.8922254,24.8695776 41.7226273,33.3198397 28.583815,36.6666667 C28.583815,36.6668035 28.7360282,36.5349243 28.7815368,36.4170138" id="Path" fill="#5382A1"></path>
                            <path d="M23.1246297,0 C23.1246297,0 28.162321,5.2101921 18.3465983,13.2219957 C10.4753852,19.6488406 16.5517165,23.3132554 18.3433313,27.5 C13.7487738,23.2140857 10.3769836,19.4411787 12.6390443,15.9297067 C15.9592162,10.7751793 25.1572173,8.27607596 23.1246297,0" id="Path" fill="#E76F00"></path>
                            <path d="M13.9327079,49.8341169 C22.8691768,50.4424351 36.5921372,49.4966049 36.9171484,45 C36.9171484,45 36.2924048,46.7046279 29.5316379,48.058374 C21.9041746,49.5847876 12.4967739,49.4065733 6.91714836,48.4283146 C6.91714836,48.4281724 8.0593686,49.4335969 13.9327079,49.8341169" id="Path" fill="#5382A1"></path>
                        </g>
                    </g>
                </g>
            </g>
        </g>
    </g>
</svg>
