<?xml version="1.0" encoding="UTF-8"?>
<svg width="70px" height="70px" viewBox="0 0 70 70" version="1.1" xmlns="http://www.w3.org/2000/svg" xmlns:xlink="http://www.w3.org/1999/xlink">
    <g id="Page-1" stroke="none" stroke-width="1" fill="none" fill-rule="evenodd">
        <g id="HOME" transform="translate(-575.000000, -3384.000000)" fill-rule="nonzero">
            <g id="Group-7" transform="translate(165.000000, 3200.000000)">
                <g id="Group-Copy-10" transform="translate(380.000000, 154.000000)">
                    <g id="Group-61" transform="translate(30.000000, 30.000000)">
                        <rect id="Rectangle-Copy-10" fill="#F7DF1E" x="0" y="0" width="70" height="70" rx="10"></rect>
                        <path d="M46.0222222,51.6877778 C47.4322222,53.99 49.2666667,55.6822222 52.5111111,55.6822222 C55.2366667,55.6822222 56.9777778,54.32 56.9777778,52.4377778 C56.9777778,50.1822222 55.1888889,49.3833333 52.1888889,48.0711111 L50.5444444,47.3655556 C45.7977778,45.3433333 42.6444444,42.81 42.6444444,37.4544444 C42.6444444,32.5211111 46.4033333,28.7655556 52.2777778,28.7655556 C56.46,28.7655556 59.4666667,30.2211111 61.6333333,34.0322222 L56.5111111,37.3211111 C55.3833333,35.2988889 54.1666667,34.5022222 52.2777778,34.5022222 C50.3511111,34.5022222 49.13,35.7244444 49.13,37.3211111 C49.13,39.2944444 50.3522222,40.0933333 53.1744444,41.3155556 L54.8188889,42.02 C60.4077778,44.4166667 63.5633333,46.86 63.5633333,52.3533333 C63.5633333,58.2755556 58.9111111,61.52 52.6633333,61.52 C46.5544444,61.52 42.6077778,58.6088889 40.6766667,54.7933333 L46.0222222,51.6877778 Z M22.7855556,52.2577778 C23.8188889,54.0911111 24.7588889,55.6411111 27.0188889,55.6411111 C29.18,55.6411111 30.5433333,54.7955556 30.5433333,51.5077778 L30.5433333,29.1411111 L37.1211111,29.1411111 L37.1211111,51.5966667 C37.1211111,58.4077778 33.1277778,61.5077778 27.2988889,61.5077778 C22.0322222,61.5077778 18.9822222,58.7822222 17.4311111,55.4994444 L22.7855556,52.2577778 Z" id="Shape" fill="#000000"></path>
                    </g>
                </g>
            </g>
        </g>
    </g>
</svg>
