<?xml version="1.0" encoding="UTF-8"?>
<svg width="66px" height="85px" viewBox="0 0 66 85" version="1.1" xmlns="http://www.w3.org/2000/svg" xmlns:xlink="http://www.w3.org/1999/xlink">
    <g id="Page-1" stroke="none" stroke-width="1" fill="none" fill-rule="evenodd" opacity="0.110560826">
        <g id="HOME" transform="translate(-1303.000000, -639.000000)" fill="#41485A">
            <g id="Header" transform="translate(34.000000, 43.000000)">
                <g id="Group-16" transform="translate(0.000000, 145.000000)">
                    <g id="Group-2-Copy" transform="translate(1302.000000, 493.500000) rotate(90.000000) translate(-1302.000000, -493.500000) translate(1260.000000, 461.000000)">
                        <circle id="Oval" cx="4.5" cy="4.5" r="4.5"></circle>
                        <circle id="Oval" cx="23.5" cy="4.5" r="4.5"></circle>
                        <circle id="Oval" cx="41.5" cy="4.5" r="4.5"></circle>
                        <circle id="Oval" cx="60.5" cy="4.5" r="4.5"></circle>
                        <circle id="Oval" cx="4.5" cy="23.5" r="4.5"></circle>
                        <circle id="Oval" cx="23.5" cy="23.5" r="4.5"></circle>
                        <circle id="Oval" cx="41.5" cy="23.5" r="4.5"></circle>
                        <circle id="Oval" cx="60.5" cy="23.5" r="4.5"></circle>
                        <circle id="Oval" cx="4.5" cy="41.5" r="4.5"></circle>
                        <circle id="Oval" cx="23.5" cy="41.5" r="4.5"></circle>
                        <circle id="Oval" cx="41.5" cy="41.5" r="4.5"></circle>
                        <circle id="Oval" cx="60.5" cy="41.5" r="4.5"></circle>
                        <circle id="Oval" cx="4.5" cy="60.5" r="4.5"></circle>
                        <circle id="Oval" cx="23.5" cy="60.5" r="4.5"></circle>
                        <circle id="Oval" cx="41.5" cy="60.5" r="4.5"></circle>
                        <circle id="Oval" cx="60.5" cy="60.5" r="4.5"></circle>
                        <circle id="Oval" cx="79.5" cy="4.5" r="4.5"></circle>
                        <circle id="Oval" cx="79.5" cy="23.5" r="4.5"></circle>
                        <circle id="Oval" cx="79.5" cy="41.5" r="4.5"></circle>
                        <circle id="Oval" cx="79.5" cy="60.5" r="4.5"></circle>
                    </g>
                </g>
            </g>
        </g>
    </g>
</svg>
