<?xml version="1.0" encoding="UTF-8"?>
<svg width="65px" height="50px" viewBox="0 0 65 50" version="1.1" xmlns="http://www.w3.org/2000/svg" xmlns:xlink="http://www.w3.org/1999/xlink">
    <g id="Page-1" stroke="none" stroke-width="1" fill="none" fill-rule="evenodd" opacity="0.110560826">
        <g id="HOME" transform="translate(-34.000000, -188.000000)" fill="#41485A">
            <g id="Header" transform="translate(34.000000, 43.000000)">
                <g id="Group-2" transform="translate(0.000000, 145.000000)">
                    <circle id="Oval" cx="2.5" cy="2.5" r="2.5"></circle>
                    <circle id="Oval" cx="17.5" cy="2.5" r="2.5"></circle>
                    <circle id="Oval" cx="32.5" cy="2.5" r="2.5"></circle>
                    <circle id="Oval" cx="47.5" cy="2.5" r="2.5"></circle>
                    <circle id="Oval" cx="2.5" cy="17.5" r="2.5"></circle>
                    <circle id="Oval" cx="17.5" cy="17.5" r="2.5"></circle>
                    <circle id="Oval" cx="32.5" cy="17.5" r="2.5"></circle>
                    <circle id="Oval" cx="47.5" cy="17.5" r="2.5"></circle>
                    <circle id="Oval" cx="2.5" cy="32.5" r="2.5"></circle>
                    <circle id="Oval" cx="17.5" cy="32.5" r="2.5"></circle>
                    <circle id="Oval" cx="32.5" cy="32.5" r="2.5"></circle>
                    <circle id="Oval" cx="47.5" cy="32.5" r="2.5"></circle>
                    <circle id="Oval" cx="2.5" cy="47.5" r="2.5"></circle>
                    <circle id="Oval" cx="17.5" cy="47.5" r="2.5"></circle>
                    <circle id="Oval" cx="32.5" cy="47.5" r="2.5"></circle>
                    <circle id="Oval" cx="47.5" cy="47.5" r="2.5"></circle>
                    <circle id="Oval" cx="62.5" cy="2.5" r="2.5"></circle>
                    <circle id="Oval" cx="62.5" cy="17.5" r="2.5"></circle>
                    <circle id="Oval" cx="62.5" cy="32.5" r="2.5"></circle>
                    <circle id="Oval" cx="62.5" cy="47.5" r="2.5"></circle>
                </g>
            </g>
        </g>
    </g>
</svg>
