<svg id="Layer_1" xmlns="http://www.w3.org/2000/svg" xmlns:xlink="http://www.w3.org/1999/xlink" width="145" height="56.17" viewBox="0 0 145 56.17">
    <defs><style>.cls-1{fill:#fff;}.cls-2{fill:#394447;}.cls-3{fill:#55c1e2;}.cls-4{mask:url(#mask);}.cls-5{fill:#4cadca;}</style>
        <mask id="mask" x="0" y="0" width="56.9" height="56.17" maskUnits="userSpaceOnUse">
            <g transform="translate(0 0)">
                <g id="mask-2"><rect id="path-1" class="cls-1" width="48" height="48" rx="8"/></g>
            </g>
        </mask></defs>
    <g id="Page-1">
        <g id="wqeqwe">
            <path id="SECDIM" class="cls-2" d="M61.3,32.54a10.52,10.52,0,0,0,1.26-.08,8.75,8.75,0,0,0,1.26-.29A5.94,5.94,0,0,0,65,31.66a5.11,5.11,0,0,0,1.07-.76,5,5,0,0,0,.86-1,5,5,0,0,0,.56-1.33,6.24,6.24,0,0,0,.21-1.66A4.86,4.86,0,0,0,67.38,25a4.45,4.45,0,0,0-2.08-2.06c-.47-.25-1.42-.65-2.86-1.21a6,6,0,0,1-1.66-.84,1.14,1.14,0,0,1-.44-.85.94.94,0,0,1,.31-.74,1.3,1.3,0,0,1,.89-.27,3.25,3.25,0,0,1,1.41.35,10.09,10.09,0,0,1,1.84,1.18l2.53-3.25a9.29,9.29,0,0,0-2.8-1.71A8.45,8.45,0,0,0,61.28,15a6.53,6.53,0,0,0-2.92.72,5.17,5.17,0,0,0-2,1.84,4.77,4.77,0,0,0-.73,2.6,5.39,5.39,0,0,0,.16,1.36,4.92,4.92,0,0,0,.41,1.12,4,4,0,0,0,.65.92,5.5,5.5,0,0,0,.83.73,6.87,6.87,0,0,0,1,.6c.37.19.72.35,1,.48s.69.26,1.11.4a6.7,6.7,0,0,1,1.74.78,1.07,1.07,0,0,1,.41.86,1,1,0,0,1-.36.78,1.59,1.59,0,0,1-1.1.32,4.73,4.73,0,0,1-1.91-.46,6.57,6.57,0,0,1-2-1.42L55,29.81a9.12,9.12,0,0,0,3,2.05A8.67,8.67,0,0,0,61.3,32.54Zm20.59-.24V28.24H74.47v-2.4h5.41v-4H74.47V19.31h6.91V15.25H70.05v17Zm10.59.24a8.73,8.73,0,0,0,4-.9,9,9,0,0,0,3-2.35l-3.34-2.88a4.65,4.65,0,0,1-1.62,1.26,4.51,4.51,0,0,1-2,.48,4.23,4.23,0,0,1-1.72-.35,3.67,3.67,0,0,1-1.29-.95,4.44,4.44,0,0,1-.8-1.39,5,5,0,0,1-.28-1.65,5.55,5.55,0,0,1,.22-1.56A4.22,4.22,0,0,1,89.22,21a3.84,3.84,0,0,1,.91-.89,3.77,3.77,0,0,1,1.12-.55,4.26,4.26,0,0,1,1.23-.18,4.34,4.34,0,0,1,1.13.16,4.67,4.67,0,0,1,1,.43,7.63,7.63,0,0,1,.81.56,4.73,4.73,0,0,1,.65.61l3.34-2.86a8.77,8.77,0,0,0-3.23-2.47A9.1,9.1,0,0,0,92.48,15a10.59,10.59,0,0,0-2.63.32,8.15,8.15,0,0,0-3.94,2.26,7.51,7.51,0,0,0-1.28,1.79,9.06,9.06,0,0,0-.77,2.1,10,10,0,0,0-.27,2.34,10.45,10.45,0,0,0,.32,2.62,7.67,7.67,0,0,0,2.34,3.87,7.71,7.71,0,0,0,1.82,1.24,9.89,9.89,0,0,0,2.1.75A10.29,10.29,0,0,0,92.48,32.54Zm15.4-.24a10.6,10.6,0,0,0,3.7-.62,7.39,7.39,0,0,0,4.48-4.44,9.52,9.52,0,0,0,.6-3.44,9.3,9.3,0,0,0-.63-3.46,7.77,7.77,0,0,0-1.77-2.71,7.89,7.89,0,0,0-2.8-1.75,10.17,10.17,0,0,0-3.65-.63h-6.14v17Zm-.29-4.06H106.1V19.31h1.81a3.62,3.62,0,0,1,1.55.35,3.73,3.73,0,0,1,1.27.94,4.7,4.7,0,0,1,.84,1.43,5.23,5.23,0,0,1,.31,1.77,4.78,4.78,0,0,1-.53,2.24,3.94,3.94,0,0,1-1.51,1.6A4.25,4.25,0,0,1,107.59,28.24ZM124,32.3v-17h-4.62v17Zm7.75,0V23.87h.06l2.87,5.34h2.91l2.86-5.32h.07V32.3H145v-17h-4.63l-4.21,8.42h-.09l-4.24-8.42h-4.62v17Z" transform="translate(0 0)"/><g id="Group-4"><g id="Rectangle-_-Rectangle-Copy-Mask" data-name="Rectangle-+-Rectangle-Copy-Mask"><g id="Mask-2-2" data-name="Mask"><rect id="path-1-2" data-name="path-1" class="cls-3" width="48" height="48" rx="8"/></g><g id="Rectangle-Copy-Clipped"><g class="cls-4"><polygon id="Rectangle-Copy" class="cls-5" points="48.41 26.47 56.9 34.96 35.69 56.17 27.2 47.69 48.41 26.47"/></g></g></g><path id="S" class="cls-1" d="M23.46,37.3a13.1,13.1,0,0,0,1.88-.13,12.58,12.58,0,0,0,1.9-.43A10,10,0,0,0,29.05,36a8.1,8.1,0,0,0,1.6-1.14,7.59,7.59,0,0,0,1.29-1.54,7.06,7.06,0,0,0,.84-2,9.36,9.36,0,0,0,.31-2.48A7.21,7.21,0,0,0,32.56,26a6.5,6.5,0,0,0-3.11-3.09,44.45,44.45,0,0,0-4.29-1.81,8.83,8.83,0,0,1-2.49-1.28A1.64,1.64,0,0,1,22,18.51a1.42,1.42,0,0,1,.45-1.11,2,2,0,0,1,1.34-.4,5.1,5.1,0,0,1,2.12.52,16.41,16.41,0,0,1,2.75,1.78l3.79-4.89a14,14,0,0,0-4.19-2.55A12.46,12.46,0,0,0,23.42,11,9.88,9.88,0,0,0,19,12.08a7.67,7.67,0,0,0-3,2.76,7.14,7.14,0,0,0-1.1,3.9,8.92,8.92,0,0,0,.23,2,8.05,8.05,0,0,0,.62,1.68,6.29,6.29,0,0,0,1,1.37A8.33,8.33,0,0,0,18,24.94a11,11,0,0,0,1.47.89,17.15,17.15,0,0,0,1.56.72c.49.19,1,.4,1.67.61a9.4,9.4,0,0,1,2.61,1.17,1.58,1.58,0,0,1,.62,1.29,1.52,1.52,0,0,1-.54,1.17,2.47,2.47,0,0,1-1.66.48,7.08,7.08,0,0,1-2.85-.69,10,10,0,0,1-3-2.14L14,33.2a13.58,13.58,0,0,0,4.45,3.07A12.73,12.73,0,0,0,23.46,37.3Z" transform="translate(0 0)"/>
        </g>
        </g>
    </g>
</svg>
