<?xml version="1.0" encoding="UTF-8"?>
<svg width="442px" height="341px" viewBox="0 0 442 341" version="1.1" xmlns="http://www.w3.org/2000/svg" xmlns:xlink="http://www.w3.org/1999/xlink">
    <defs>
        <rect id="path-1" x="0" y="29" width="380" height="250" rx="6"></rect>
        <filter x="-13.3%" y="-16.2%" width="126.6%" height="140.4%" filterUnits="objectBoundingBox" id="filter-2">
            <feMorphology radius="0.5" operator="dilate" in="SourceAlpha" result="shadowSpreadOuter1"></feMorphology>
            <feOffset dx="0" dy="10" in="shadowSpreadOuter1" result="shadowOffsetOuter1"></feOffset>
            <feGaussianBlur stdDeviation="15" in="shadowOffsetOuter1" result="shadowBlurOuter1"></feGaussianBlur>
            <feComposite in="shadowBlurOuter1" in2="SourceAlpha" operator="out" result="shadowBlurOuter1"></feComposite>
            <feColorMatrix values="0 0 0 0 0   0 0 0 0 0   0 0 0 0 0  0 0 0 0.03 0" type="matrix" in="shadowBlurOuter1"></feColorMatrix>
        </filter>
        <rect id="path-3" x="0" y="0" width="166" height="59" rx="29.5"></rect>
        <filter x="-30.4%" y="-68.6%" width="160.8%" height="271.2%" filterUnits="objectBoundingBox" id="filter-4">
            <feMorphology radius="0.5" operator="dilate" in="SourceAlpha" result="shadowSpreadOuter1"></feMorphology>
            <feOffset dx="0" dy="10" in="shadowSpreadOuter1" result="shadowOffsetOuter1"></feOffset>
            <feGaussianBlur stdDeviation="15" in="shadowOffsetOuter1" result="shadowBlurOuter1"></feGaussianBlur>
            <feComposite in="shadowBlurOuter1" in2="SourceAlpha" operator="out" result="shadowBlurOuter1"></feComposite>
            <feColorMatrix values="0 0 0 0 0   0 0 0 0 0   0 0 0 0 0  0 0 0 0.03 0" type="matrix" in="shadowBlurOuter1"></feColorMatrix>
        </filter>
    </defs>
    <g id="Page-1" stroke="none" stroke-width="1" fill="none" fill-rule="evenodd">
        <g id="PLATFORM" transform="translate(-134.000000, -2168.000000)">
            <g id="Group-22" transform="translate(165.000000, 876.000000)">
                <g id="Group-27" transform="translate(0.000000, 1313.000000)">
                    <g id="Rectangle-Copy-3" stroke-linejoin="round">
                        <use fill="black" fill-opacity="1" filter="url(#filter-2)" xlink:href="#path-1"></use>
                        <use stroke="#E4E8EC" stroke-width="1" fill="#FFFFFF" fill-rule="evenodd" xlink:href="#path-1"></use>
                    </g>
                    <g id="Group-26" transform="translate(40.000000, 89.000000)">
                        <g id="Group-7">
                            <rect id="Rectangle" fill="#D5EDD3" x="0" y="0" width="86" height="36" rx="8"></rect>
                            <g id="check-svgrepo-com-(1)" transform="translate(10.000000, 11.000000)" fill-rule="nonzero">
                                <path d="M7,0 C3.1402,0 0,3.1402 0,7 C0,10.8598 3.1402,14 7,14 C10.8598,14 14,10.8598 14,7 C14,3.1402 10.8598,0 7,0 Z" id="Shape" stroke="#24A71E"></path>
                                <path d="M9.62487273,4.52513939 L6.02500606,8.12496364 L4.37512727,6.47504242 C4.12664848,6.22656364 3.72370303,6.22652121 3.47518182,6.475 C3.22666061,6.72352121 3.22666061,7.12642424 3.47518182,7.37494545 L5.57501212,9.47486061 C5.69435152,9.5942 5.8562,9.66127273 6.02496364,9.66127273 C6.02500606,9.66127273 6.02496364,9.66127273 6.02500606,9.66127273 C6.1937697,9.66127273 6.35561818,9.5942 6.47495758,9.47490303 L10.5248182,5.42512727 C10.7733394,5.17660606 10.7733394,4.77370303 10.5248182,4.52518182 C10.276297,4.27666061 9.87339394,4.27661818 9.62487273,4.52513939 Z" id="Path" fill="#24A71E"></path>
                            </g>
                            <path d="M31.6839844,24.7685547 L31.6839844,20.9882812 L31.7113281,20.9882812 C31.989323,21.3391927 32.3265625,21.6103516 32.7230469,21.8017578 C33.1195313,21.9931641 33.5547526,22.0888672 34.0287109,22.0888672 C34.4935547,22.0888672 34.9310547,22.0056966 35.3412109,21.8393555 C35.7513672,21.6730144 36.1056966,21.4417317 36.4041992,21.1455078 C36.7027019,20.8492839 36.9385417,20.4847005 37.1117188,20.0517578 C37.2848958,19.6188151 37.3714844,19.1471355 37.3714844,18.6367188 C37.3714844,17.9713542 37.229069,17.3697917 36.9442383,16.8320312 C36.6594075,16.2942708 36.2617839,15.871582 35.7513672,15.5639648 C35.2409505,15.2563477 34.6690105,15.1025391 34.0355469,15.1025391 C33.5707031,15.1025391 33.1388997,15.1959636 32.7401367,15.3828125 C32.3413737,15.5696614 32.0007161,15.8385417 31.7181641,16.1894531 L31.6908203,16.1894531 L31.6908203,15.1845703 L30.5560547,15.1845703 L30.5560547,24.7685547 L31.6839844,24.7685547 Z M33.9193359,21.0498047 C33.6185547,21.0498047 33.3314453,20.9916992 33.0580078,20.8754883 C32.7845703,20.7592773 32.5430339,20.5974935 32.3333984,20.3901367 C32.123763,20.18278 31.9574219,19.9275716 31.834375,19.6245117 C31.7113281,19.3214519 31.6498047,18.9944661 31.6498047,18.6435547 C31.6498047,18.1832683 31.7477864,17.7617188 31.94375,17.3789062 C32.1397136,16.9960938 32.4108724,16.6941731 32.7572266,16.4731445 C33.1035808,16.2521159 33.4863933,16.1416016 33.9056641,16.1416016 C34.5664714,16.1416016 35.1167644,16.3717448 35.556543,16.8320312 C35.9963216,17.2923177 36.2162109,17.8961589 36.2162109,18.6435547 C36.2162109,19.3408203 36.0042969,19.9161784 35.5804688,20.3696289 C35.1566406,20.8230794 34.6029297,21.0498047 33.9193359,21.0498047 Z M41.7710938,22.0888672 C42.2678386,22.0888672 42.7201497,21.9863281 43.1280273,21.78125 C43.535905,21.5761719 43.8788411,21.2890625 44.1568359,20.9199219 L44.1773438,20.9199219 L44.1773438,22 L45.2642578,22 L45.2642578,15.1845703 L44.1294922,15.1845703 L44.1294922,16.1962891 L44.1021484,16.1962891 C43.8195964,15.8408203 43.4766602,15.5696614 43.0733398,15.3828125 C42.6700195,15.1959636 42.2336589,15.1025391 41.7642578,15.1025391 C41.1307942,15.1025391 40.5588542,15.2563477 40.0484375,15.5639648 C39.5380208,15.871582 39.1403972,16.2942708 38.8555664,16.8320312 C38.5707356,17.3697917 38.4283203,17.9713542 38.4283203,18.6367188 C38.4283203,19.1471355 38.5149089,19.6188151 38.6880859,20.0517578 C38.861263,20.4847005 39.0971028,20.8492839 39.3956055,21.1455078 C39.6941081,21.4417317 40.0484375,21.6730144 40.4585938,21.8393555 C40.86875,22.0056966 41.30625,22.0888672 41.7710938,22.0888672 Z M41.8804688,21.0498047 C41.196875,21.0498047 40.6431641,20.8230794 40.2193359,20.3696289 C39.7955078,19.9161784 39.5835938,19.3408203 39.5835938,18.6435547 C39.5835938,17.8961589 39.8034831,17.2923177 40.2432617,16.8320312 C40.6830403,16.3717448 41.2333333,16.1416016 41.8941406,16.1416016 C42.2131511,16.1416016 42.5139323,16.206543 42.7964844,16.3364258 C43.0790364,16.4663086 43.320573,16.6429036 43.5210938,16.8662109 C43.7216145,17.0895183 43.8799805,17.3549805 43.9961914,17.6625977 C44.1124023,17.9702148 44.1705078,18.2972005 44.1705078,18.6435547 C44.1705078,18.9944661 44.1089844,19.3214519 43.9859375,19.6245117 C43.8628906,19.9275716 43.6965495,20.18278 43.4869141,20.3901367 C43.2772786,20.5974935 43.0334636,20.7592773 42.7554688,20.8754883 C42.4774739,20.9916992 42.1858073,21.0498047 41.8804688,21.0498047 Z M49.1648438,22.0888672 C49.5613281,22.0888672 49.9179362,22.0375977 50.234668,21.9350586 C50.5513997,21.8325195 50.8088867,21.6912435 51.0071289,21.5112305 C51.2053711,21.3312175 51.3557617,21.1238606 51.4583008,20.8891602 C51.5608398,20.6544597 51.6121094,20.4026692 51.6121094,20.1337891 C51.6121094,19.8466797 51.5665364,19.5983073 51.4753906,19.3886719 C51.3295573,19.0514323 51.0219401,18.7666016 50.5525391,18.5341797 L50.5043485,18.5116945 L50.5043485,18.5116945 L50.364918,18.4511315 C50.3088746,18.4274788 50.2432647,18.400361 50.1680882,18.3697782 L49.9138591,18.2676346 C49.72524,18.1926088 49.4983547,18.1037228 49.2332031,18.0009766 C49.0190105,17.9189453 48.8458333,17.847168 48.7136719,17.7856445 C48.5815105,17.7241211 48.4504883,17.6500651 48.3206055,17.5634766 C48.1907227,17.476888 48.0950195,17.3811849 48.0334961,17.2763672 C47.9719727,17.1715495 47.9412109,17.0553386 47.9412109,16.9277344 C47.9412109,16.6907552 48.047168,16.4982097 48.259082,16.3500977 C48.4709961,16.2019856 48.7136719,16.1279297 48.9871094,16.1279297 C49.6479167,16.1279297 50.2517578,16.3649089 50.7986328,16.8388672 L51.3865234,15.9433594 C50.7029297,15.3828125 49.9213542,15.1025391 49.0417969,15.1025391 C48.3946614,15.1025391 47.8569011,15.2768555 47.4285156,15.6254883 C47.0001302,15.9741211 46.7859375,16.4082031 46.7859375,16.9277344 C46.7859375,17.1692708 46.8235352,17.3902995 46.8987305,17.5908203 C46.9739258,17.7913411 47.0684895,17.9599609 47.1824219,18.0966797 C47.2963542,18.2333984 47.4490234,18.3621419 47.6404297,18.4829102 C47.8318359,18.6036784 48.0152669,18.7027995 48.1907227,18.7802734 C48.3661784,18.8577474 48.5815105,18.9397786 48.8367188,19.0263672 C48.873177,19.0400391 48.9278645,19.0582683 49.0007813,19.0810547 C49.1466145,19.1357422 49.2548503,19.1756185 49.3254883,19.2006836 C49.3961263,19.2257487 49.4884114,19.2599284 49.6023438,19.3032227 C49.7162761,19.3465169 49.8017253,19.3829753 49.8586914,19.4125977 C49.9156575,19.44222 49.9840169,19.4798177 50.0637695,19.5253906 C50.1435222,19.5709636 50.2016276,19.6131185 50.2380859,19.6518555 C50.2745442,19.6905925 50.3132813,19.7361653 50.3542969,19.7885742 C50.3953125,19.8409831 50.4226563,19.8968099 50.4363281,19.9560547 C50.45,20.0152995 50.4568359,20.0791016 50.4568359,20.1474609 C50.4568359,20.4072266 50.340625,20.623698 50.1082031,20.796875 C49.8757813,20.970052 49.5613281,21.0566406 49.1648438,21.0566406 C48.7136719,21.0566406 48.3251628,20.9882812 47.9993164,20.8515625 C47.67347,20.7148438 47.3669922,20.5120442 47.0798828,20.2431641 L46.4919922,21.1044922 C47.2302734,21.7607422 48.1212239,22.0888672 49.1648438,22.0888672 Z M55.0751953,22.0888672 C55.4716797,22.0888672 55.8282878,22.0375977 56.1450195,21.9350586 C56.4617513,21.8325195 56.7192383,21.6912435 56.9174805,21.5112305 C57.1157227,21.3312175 57.2661133,21.1238606 57.3686523,20.8891602 C57.4711914,20.6544597 57.5224609,20.4026692 57.5224609,20.1337891 C57.5224609,19.8466797 57.476888,19.5983073 57.3857422,19.3886719 C57.2399089,19.0514323 56.9322917,18.7666016 56.4628906,18.5341797 C56.3125,18.461263 55.8727214,18.2835286 55.1435547,18.0009766 C54.929362,17.9189453 54.7561849,17.847168 54.6240234,17.7856445 C54.491862,17.7241211 54.3608398,17.6500651 54.230957,17.5634766 C54.1010742,17.476888 54.0053711,17.3811849 53.9438477,17.2763672 C53.8823242,17.1715495 53.8515625,17.0553386 53.8515625,16.9277344 C53.8515625,16.6907552 53.9575195,16.4982097 54.1694336,16.3500977 C54.3813477,16.2019856 54.6240234,16.1279297 54.8974609,16.1279297 C55.5582683,16.1279297 56.1621094,16.3649089 56.7089844,16.8388672 L57.296875,15.9433594 C56.6132813,15.3828125 55.8317058,15.1025391 54.9521484,15.1025391 C54.305013,15.1025391 53.7672526,15.2768555 53.3388672,15.6254883 C52.9104817,15.9741211 52.6962891,16.4082031 52.6962891,16.9277344 C52.6962891,17.1692708 52.7338867,17.3902995 52.809082,17.5908203 C52.8842773,17.7913411 52.9788411,17.9599609 53.0927734,18.0966797 C53.2067058,18.2333984 53.359375,18.3621419 53.5507813,18.4829102 C53.7421875,18.6036784 53.9256185,18.7027995 54.1010742,18.7802734 C54.27653,18.8577474 54.491862,18.9397786 54.7470703,19.0263672 C54.7835286,19.0400391 54.8382161,19.0582683 54.9111328,19.0810547 C55.0569661,19.1357422 55.1652019,19.1756185 55.2358398,19.2006836 C55.3064778,19.2257487 55.398763,19.2599284 55.5126953,19.3032227 C55.6266276,19.3465169 55.7120769,19.3829753 55.769043,19.4125977 C55.8260091,19.44222 55.8943685,19.4798177 55.9741211,19.5253906 C56.0538737,19.5709636 56.1119792,19.6131185 56.1484375,19.6518555 C56.1848958,19.6905925 56.2236328,19.7361653 56.2646484,19.7885742 C56.3056641,19.8409831 56.3330078,19.8968099 56.3466797,19.9560547 C56.3603516,20.0152995 56.3671875,20.0791016 56.3671875,20.1474609 C56.3671875,20.4072266 56.2509766,20.623698 56.0185547,20.796875 C55.7861328,20.970052 55.4716797,21.0566406 55.0751953,21.0566406 C54.6240234,21.0566406 54.2355144,20.9882812 53.909668,20.8515625 C53.5838216,20.7148438 53.2773438,20.5120442 52.9902344,20.2431641 L52.4023438,21.1044922 C53.140625,21.7607422 54.0315755,22.0888672 55.0751953,22.0888672 Z M61.8263672,22.0888672 C62.4233724,22.0888672 62.9554362,21.9737956 63.4225586,21.7436523 C63.889681,21.5135091 64.2759114,21.2001953 64.58125,20.8037109 L63.7882813,20.1269531 C63.5604167,20.404948 63.2847005,20.6271159 62.9611328,20.793457 C62.6375651,20.9597981 62.2729817,21.0429688 61.8673828,21.0429688 C61.2567058,21.0429688 60.7440105,20.8527019 60.3292969,20.472168 C59.9145833,20.0916341 59.6707683,19.5846355 59.5978516,18.9511719 L64.8341797,18.9511719 C64.8569661,18.8144531 64.8683594,18.6595052 64.8683594,18.4863281 C64.8683594,17.8391927 64.7373372,17.2592773 64.475293,16.746582 C64.2132487,16.2338867 63.8406901,15.8317058 63.3576172,15.5400391 C62.8745442,15.2483724 62.3208333,15.1025391 61.6964844,15.1025391 C61.2407552,15.1025391 60.8123698,15.1891276 60.4113281,15.3623047 C60.0102864,15.5354817 59.6650716,15.7736003 59.3756836,16.0766602 C59.0862956,16.37972 58.8572917,16.7488606 58.6886719,17.184082 C58.520052,17.6193034 58.4357422,18.0898438 58.4357422,18.5957031 C58.4357422,19.1061198 58.5223308,19.5800781 58.6955078,20.0175781 C58.8686849,20.4550781 59.1056641,20.8242188 59.4064453,21.125 C59.7072266,21.4257812 60.0661133,21.6616211 60.4831055,21.8325195 C60.9000977,22.003418 61.3478516,22.0888672 61.8263672,22.0888672 Z M63.7404297,18.0078125 L59.6251953,18.0078125 C59.730013,17.4381511 59.9772461,16.9858398 60.3668945,16.6508789 C60.756543,16.315918 61.2202474,16.1484375 61.7580078,16.1484375 C62.2912109,16.1484375 62.7321289,16.3170573 63.0807617,16.6542969 C63.4293945,16.9915364 63.6492839,17.4427083 63.7404297,18.0078125 Z M69.240625,22.0888672 C69.56875,22.0888672 69.8797852,22.042155 70.1737305,21.9487305 C70.4676758,21.855306 70.733138,21.7220052 70.9701172,21.5488281 C71.2070964,21.3756511 71.4167317,21.1660156 71.5990234,20.9199219 L71.6195313,20.9199219 L71.6195313,22 L72.7064453,22 L72.7064453,11.6914062 L71.5716797,11.6914062 L71.5716797,16.1962891 L71.5511719,16.1962891 C71.364323,15.9593099 71.1489909,15.7587891 70.9051758,15.5947266 C70.6613606,15.4306641 70.398177,15.3076172 70.115625,15.2255859 C69.833073,15.1435547 69.5391276,15.1025391 69.2337891,15.1025391 C68.7598308,15.1025391 68.3154948,15.1925456 67.9007813,15.3725586 C67.4860677,15.5525716 67.1328776,15.7986653 66.8412109,16.1108398 C66.5495442,16.4230144 66.3194011,16.7978516 66.1507813,17.2353516 C65.9821614,17.6728516 65.8978516,18.1399739 65.8978516,18.6367188 C65.8978516,19.1471355 65.9844401,19.6188151 66.1576172,20.0517578 C66.3307942,20.4847005 66.5666341,20.8492839 66.8651367,21.1455078 C67.1636394,21.4417317 67.5179688,21.6730144 67.928125,21.8393555 C68.3382813,22.0056966 68.7757813,22.0888672 69.240625,22.0888672 Z M69.35,21.0498047 C68.6664063,21.0498047 68.1126953,20.8230794 67.6888672,20.3696289 C67.2650391,19.9161784 67.053125,19.3408203 67.053125,18.6435547 C67.053125,17.8961589 67.2730144,17.2923177 67.712793,16.8320312 C68.1525716,16.3717448 68.7028645,16.1416016 69.3636719,16.1416016 C69.678125,16.1416016 69.9743489,16.206543 70.2523438,16.3364258 C70.5303386,16.4663086 70.768457,16.6429036 70.9666992,16.8662109 C71.1649414,17.0895183 71.322168,17.3549805 71.4383789,17.6625977 C71.5545898,17.9702148 71.6126953,18.2972005 71.6126953,18.6435547 C71.6126953,18.9944661 71.5511719,19.3214519 71.428125,19.6245117 C71.3050781,19.9275716 71.1398763,20.18278 70.9325195,20.3901367 C70.7251628,20.5974935 70.4836263,20.7592773 70.2079102,20.8754883 C69.932194,20.9916992 69.6462239,21.0498047 69.35,21.0498047 Z" id="passed" fill="#24A71E" fill-rule="nonzero"></path>
                            <path d="M141.666016,22.4921875 L142.110352,19.6347656 L144.291016,19.6347656 L143.853516,22.4921875 L144.714844,22.4921875 L145.145508,19.6347656 L147.155273,19.6347656 L147.162109,18.7529297 L145.282227,18.7529297 L145.624023,16.5039062 L147.476562,16.5039062 L147.476562,15.6289062 L145.760742,15.6289062 L146.191406,12.8193359 L145.330078,12.8193359 L144.899414,15.6289062 L142.71875,15.6289062 L143.149414,12.8193359 L142.28125,12.8193359 L141.850586,15.6289062 L139.888672,15.6289062 L139.888672,16.5039062 L141.713867,16.5039062 L141.37207,18.7529297 L139.581055,18.7529297 L139.581055,19.6347656 L141.242188,19.6347656 L140.791016,22.4921875 L141.666016,22.4921875 Z M144.420898,18.7529297 L142.233398,18.7529297 L142.582031,16.5039062 L144.762695,16.5039062 L144.420898,18.7529297 Z M151.759961,22.0888672 C152.38431,22.0888672 152.950553,21.954427 153.458691,21.6855469 C153.966829,21.4166667 154.364453,21.0452474 154.651563,20.5712891 C154.938672,20.0973308 155.082227,19.5686849 155.082227,18.9853516 C155.082227,18.3610026 154.952344,17.8164062 154.692578,17.3515625 C154.432813,16.8867188 154.077344,16.534668 153.626172,16.2954102 C153.175,16.0561523 152.660026,15.9365234 152.08125,15.9365234 C151.780469,15.9365234 151.487663,15.9707031 151.202832,16.0390625 C150.918001,16.1074219 150.6514,16.2054036 150.403027,16.3330078 C150.154655,16.460612 149.930208,16.6132812 149.729688,16.7910156 L149.716016,16.7841797 C149.820833,16.3740234 149.968945,15.9912109 150.160352,15.6357422 C150.351758,15.2802734 150.570508,14.9658203 150.816602,14.6923828 C151.062695,14.4189453 151.337272,14.1739909 151.640332,13.9575195 C151.943392,13.7410481 152.257845,13.5610352 152.583691,13.4174805 C152.909538,13.2739258 153.252474,13.1565755 153.6125,13.0654297 L153.257031,12.0605469 C152.746615,12.1516927 152.253288,12.3168945 151.777051,12.5561523 C151.300814,12.7954102 150.856478,13.105306 150.444043,13.4858398 C150.031608,13.8663737 149.670443,14.298177 149.360547,14.78125 C149.050651,15.264323 148.807975,15.8146159 148.63252,16.4321289 C148.457064,17.0496419 148.369336,17.695638 148.369336,18.3701172 C148.369336,18.9169922 148.455925,19.4228516 148.629102,19.8876953 C148.802279,20.3525391 149.040397,20.7456055 149.343457,21.0668945 C149.646517,21.3881836 150.006543,21.6388347 150.423535,21.8188477 C150.840527,21.9988606 151.286003,22.0888672 151.759961,22.0888672 Z M151.746289,20.9814453 C151.094596,20.9814453 150.560254,20.7478841 150.143262,20.2807617 C149.72627,19.8136394 149.517773,19.201823 149.517773,18.4453125 L149.517773,18.3496094 C149.754753,17.9713542 150.072624,17.6557617 150.471387,17.402832 C150.87015,17.1499023 151.320182,17.0234375 151.821484,17.0234375 C152.454948,17.0234375 152.960807,17.2023112 153.339063,17.5600586 C153.717318,17.917806 153.906445,18.390625 153.906445,18.9785156 C153.906445,19.5345052 153.703646,20.0073242 153.298047,20.3969727 C152.892448,20.7866211 152.375195,20.9814453 151.746289,20.9814453 Z M161.594141,22 L161.594141,20.3046875 L162.995508,20.3046875 L162.995508,19.2382812 L161.594141,19.2382812 L161.594141,12.3886719 L160.596094,12.3886719 L155.947656,19.4638672 L155.947656,20.3046875 L160.418359,20.3046875 L160.418359,22 L161.594141,22 Z M160.438867,19.265625 L157.369531,19.265625 L160.438867,14.5283203 L160.438867,19.265625 Z M165.385352,22.3349609 C165.891211,22.2438151 166.384538,22.0820312 166.865332,21.8496094 C167.346126,21.6171875 167.800716,21.3141276 168.229102,20.9404297 C168.657487,20.5667317 169.032324,20.1417644 169.353613,19.6655273 C169.674902,19.1892903 169.930111,18.6412761 170.119238,18.0214844 C170.308366,17.4016927 170.40293,16.7522786 170.40293,16.0732422 C170.40293,15.5126953 170.316341,14.9954427 170.143164,14.5214844 C169.969987,14.0475261 169.731868,13.648763 169.428809,13.3251953 C169.125749,13.0016276 168.768001,12.7498372 168.355566,12.5698242 C167.943132,12.3898112 167.499935,12.2998047 167.025977,12.2998047 C166.401628,12.2998047 165.836523,12.4365234 165.330664,12.7099609 C164.824805,12.9833984 164.427181,13.3605144 164.137793,13.8413086 C163.848405,14.3221028 163.703711,14.8564453 163.703711,15.4443359 C163.703711,16.055013 163.832454,16.5916341 164.089941,17.0541992 C164.347428,17.5167644 164.696061,17.8676758 165.13584,18.1069336 C165.575618,18.3461914 166.071224,18.4658203 166.622656,18.4658203 C166.932552,18.4658203 167.234473,18.4316406 167.528418,18.3632812 C167.822363,18.2949219 168.094661,18.1969401 168.345313,18.0693359 C168.595964,17.9417317 168.823828,17.7890625 169.028906,17.6113281 L169.049414,17.625 C168.908138,18.1399739 168.700781,18.609375 168.427344,19.0332031 C168.153906,19.4570312 167.834896,19.8170573 167.470313,20.1132812 C167.105729,20.4095052 166.721777,20.6578776 166.318457,20.8583984 C165.915137,21.0589192 165.487891,21.2161458 165.036719,21.3300781 L165.385352,22.3349609 Z M166.882422,17.3857422 C166.285417,17.3857422 165.803483,17.2068685 165.436621,16.8491211 C165.069759,16.4913737 164.886328,16.0253906 164.886328,15.4511719 C164.886328,15.173177 164.938737,14.9088542 165.043555,14.6582031 C165.148372,14.407552 165.293066,14.188802 165.477637,14.0019531 C165.662207,13.8151042 165.890072,13.6669922 166.16123,13.5576172 C166.432389,13.4482422 166.727474,13.3935547 167.046484,13.3935547 C167.470313,13.3935547 167.848568,13.4995117 168.18125,13.7114258 C168.513932,13.9233398 168.775977,14.2263997 168.967383,14.6206055 C169.158789,15.0148112 169.254492,15.4671224 169.254492,15.9775391 L169.254492,16.0527344 C169.003841,16.4537761 168.665462,16.7762044 168.239355,17.0200195 C167.813249,17.2638347 167.360938,17.3857422 166.882422,17.3857422 Z M174.44707,22.0888672 C175.034961,22.0888672 175.564746,21.9783528 176.036426,21.7573242 C176.508105,21.5362956 176.879525,21.2218425 177.150684,20.8139648 C177.421842,20.4060872 177.557422,19.9423828 177.557422,19.4228516 C177.557422,18.8577474 177.411589,18.3655599 177.119922,17.9462891 C176.828255,17.5270183 176.427214,17.2148438 175.916797,17.0097656 L175.916797,16.9960938 C176.354297,16.7864583 176.694954,16.4902344 176.93877,16.1074219 C177.182585,15.7246094 177.304492,15.2939453 177.304492,14.8154297 C177.304492,14.2958984 177.171191,13.8435872 176.90459,13.4584961 C176.637988,13.073405 176.28252,12.7840169 175.838184,12.590332 C175.393848,12.3966472 174.895964,12.2998047 174.344531,12.2998047 C173.679167,12.2998047 173.100391,12.4376628 172.608203,12.7133789 C172.116016,12.989095 171.742318,13.359375 171.487109,13.8242188 L172.437305,14.34375 C172.870247,13.7148438 173.499154,13.4003906 174.324023,13.4003906 C174.83444,13.4003906 175.261686,13.5462239 175.605762,13.8378906 C175.949837,14.1295573 176.121875,14.5078125 176.121875,14.9726562 C176.121875,15.1822917 176.087695,15.3771159 176.019336,15.5571289 C175.950977,15.7371419 175.849577,15.8989258 175.715137,16.0424805 C175.580697,16.1860352 175.399544,16.2988281 175.17168,16.3808594 C174.943815,16.4628906 174.681771,16.5039062 174.385547,16.5039062 L173.449023,16.5039062 L173.449023,17.5292969 L174.248828,17.5292969 C174.595182,17.5292969 174.905078,17.5748698 175.178516,17.6660156 C175.451953,17.7571614 175.672982,17.882487 175.841602,18.0419922 C176.010221,18.2014974 176.138965,18.3837891 176.227832,18.5888672 C176.316699,18.7939453 176.361133,19.0126953 176.361133,19.2451172 C176.361133,19.5869141 176.272266,19.8911133 176.094531,20.1577148 C175.916797,20.4243164 175.677539,20.6282552 175.376758,20.7695312 C175.075977,20.9108073 174.743294,20.9814453 174.378711,20.9814453 C174.00957,20.9814453 173.678027,20.9290364 173.384082,20.8242188 C173.090137,20.7194011 172.845182,20.5735677 172.649219,20.3867188 C172.453255,20.1998698 172.296029,19.9742839 172.177539,19.7099609 L171.158984,20.1748047 C171.405078,20.7490234 171.816374,21.2115886 172.392871,21.5625 C172.969368,21.9134114 173.654102,22.0888672 174.44707,22.0888672 Z M180.459961,22.1640625 L184.267578,13.2021484 L184.267578,12.3886719 L178.320312,12.3886719 L178.320312,13.46875 L182.961914,13.46875 L179.28418,21.9316406 L180.459961,22.1640625 Z M186.889844,22.3349609 C187.395703,22.2438151 187.88903,22.0820312 188.369824,21.8496094 C188.850618,21.6171875 189.305208,21.3141276 189.733594,20.9404297 C190.161979,20.5667317 190.536816,20.1417644 190.858105,19.6655273 C191.179395,19.1892903 191.434603,18.6412761 191.62373,18.0214844 C191.812858,17.4016927 191.907422,16.7522786 191.907422,16.0732422 C191.907422,15.5126953 191.820833,14.9954427 191.647656,14.5214844 C191.474479,14.0475261 191.236361,13.648763 190.933301,13.3251953 C190.630241,13.0016276 190.272493,12.7498372 189.860059,12.5698242 C189.447624,12.3898112 189.004427,12.2998047 188.530469,12.2998047 C187.90612,12.2998047 187.341016,12.4365234 186.835156,12.7099609 C186.329297,12.9833984 185.931673,13.3605144 185.642285,13.8413086 C185.352897,14.3221028 185.208203,14.8564453 185.208203,15.4443359 C185.208203,16.055013 185.336947,16.5916341 185.594434,17.0541992 C185.851921,17.5167644 186.200553,17.8676758 186.640332,18.1069336 C187.080111,18.3461914 187.575716,18.4658203 188.127148,18.4658203 C188.437044,18.4658203 188.738965,18.4316406 189.03291,18.3632812 C189.326855,18.2949219 189.599154,18.1969401 189.849805,18.0693359 C190.100456,17.9417317 190.32832,17.7890625 190.533398,17.6113281 L190.553906,17.625 C190.41263,18.1399739 190.205273,18.609375 189.931836,19.0332031 C189.658398,19.4570312 189.339388,19.8170573 188.974805,20.1132812 C188.610221,20.4095052 188.22627,20.6578776 187.822949,20.8583984 C187.419629,21.0589192 186.992383,21.2161458 186.541211,21.3300781 L186.889844,22.3349609 Z M188.386914,17.3857422 C187.789909,17.3857422 187.307975,17.2068685 186.941113,16.8491211 C186.574251,16.4913737 186.39082,16.0253906 186.39082,15.4511719 C186.39082,15.173177 186.443229,14.9088542 186.548047,14.6582031 C186.652865,14.407552 186.797559,14.188802 186.982129,14.0019531 C187.166699,13.8151042 187.394564,13.6669922 187.665723,13.5576172 C187.936882,13.4482422 188.231966,13.3935547 188.550977,13.3935547 C188.974805,13.3935547 189.35306,13.4995117 189.685742,13.7114258 C190.018425,13.9233398 190.280469,14.2263997 190.471875,14.6206055 C190.663281,15.0148112 190.758984,15.4671224 190.758984,15.9775391 L190.758984,16.0527344 C190.508333,16.4537761 190.169954,16.7762044 189.743848,17.0200195 C189.317741,17.2638347 188.86543,17.3857422 188.386914,17.3857422 Z M196.402734,22.0820312 C197.036198,22.0820312 197.609277,21.9715169 198.121973,21.7504883 C198.634668,21.5294597 199.042546,21.2104492 199.345605,20.793457 C199.648665,20.3764648 199.800195,19.8968099 199.800195,19.3544922 C199.800195,18.7210286 199.631575,18.1798503 199.294336,17.730957 C198.957096,17.2820638 198.515039,16.9733073 197.968164,16.8046875 L197.968164,16.7841797 C198.100325,16.7386067 198.231348,16.6725261 198.36123,16.5859375 C198.491113,16.4993489 198.61416,16.3922526 198.730371,16.2646484 C198.846582,16.1370442 198.947982,15.9969075 199.03457,15.8442383 C199.121159,15.691569 199.190658,15.5206706 199.243066,15.331543 C199.295475,15.1424153 199.32168,14.9475911 199.32168,14.7470703 C199.32168,14.0179036 199.0528,13.4277344 198.515039,12.9765625 C197.977279,12.5253906 197.273177,12.2998047 196.402734,12.2998047 C195.992578,12.2998047 195.610905,12.3556315 195.257715,12.4672852 C194.904525,12.5789388 194.598047,12.7373047 194.338281,12.9423828 C194.078516,13.1474609 193.874577,13.404948 193.726465,13.7148438 C193.578353,14.0247395 193.504297,14.3688151 193.504297,14.7470703 C193.504297,15.2347005 193.639876,15.6653645 193.911035,16.0390625 C194.182194,16.4127605 194.495508,16.6611328 194.850977,16.7841797 L194.850977,16.8046875 C194.313216,16.9733073 193.875716,17.2832031 193.538477,17.734375 C193.201237,18.1855469 193.032617,18.7255859 193.032617,19.3544922 C193.032617,19.8694661 193.175033,20.3343099 193.459863,20.7490234 C193.744694,21.163737 194.144596,21.4895833 194.65957,21.7265625 C195.174544,21.9635417 195.755599,22.0820312 196.402734,22.0820312 Z M196.40957,16.2851562 C195.885482,16.2851562 195.459375,16.1529948 195.13125,15.8886719 C194.803125,15.6243489 194.639062,15.2734375 194.639062,14.8359375 C194.639062,14.4212239 194.804264,14.0703125 195.134668,13.7832031 C195.465072,13.4960938 195.890039,13.3525391 196.40957,13.3525391 C196.924544,13.3525391 197.350651,13.4915364 197.687891,13.7695312 C198.02513,14.0475261 198.19375,14.4029948 198.19375,14.8359375 C198.19375,15.2734375 198.028548,15.6243489 197.698145,15.8886719 C197.367741,16.1529948 196.938216,16.2851562 196.40957,16.2851562 Z M196.402734,21.015625 C195.7875,21.015625 195.271387,20.8458659 194.854395,20.5063477 C194.437402,20.1668294 194.228906,19.7395833 194.228906,19.2246094 C194.228906,18.6777344 194.428288,18.2333984 194.827051,17.8916016 C195.225814,17.5498047 195.751042,17.3789062 196.402734,17.3789062 C197.058984,17.3789062 197.586491,17.5498047 197.985254,17.8916016 C198.384017,18.2333984 198.583398,18.6777344 198.583398,19.2246094 C198.583398,19.7167969 198.380599,20.1383464 197.975,20.4892578 C197.569401,20.8401692 197.045312,21.015625 196.402734,21.015625 Z M202.613867,22.1640625 L206.421484,13.2021484 L206.421484,12.3886719 L200.474219,12.3886719 L200.474219,13.46875 L205.11582,13.46875 L201.438086,21.9316406 L202.613867,22.1640625 Z" id="#64937987" fill="#000000" fill-rule="nonzero"></path>
                            <line x1="0.5" y1="48.5" x2="280.5" y2="48.5" id="Line-4" stroke="#979797" opacity="0.200000003" stroke-linecap="square"></line>
                            <line x1="0.5" y1="109.5" x2="280.5" y2="109.5" id="Line-4-Copy" stroke="#979797" opacity="0.200000003" stroke-linecap="square"></line>
                            <rect id="Rectangle" stroke="#979FA9" fill-opacity="0.15" fill="#979FA9" x="241.5" y="6.5" width="24" height="24" rx="12"></rect>
                            <rect id="Rectangle" stroke="#979FA9" fill-opacity="0.15" fill="#979FA9" x="241.5" y="67.5" width="24" height="24" rx="12"></rect>
                            <rect id="Rectangle" stroke="#979FA9" fill-opacity="0.15" fill="#979FA9" x="241.5" y="128.5" width="24" height="24" rx="12"></rect>
                        </g>
                        <g id="Group-7-Copy" transform="translate(0.000000, 61.000000)">
                            <rect id="Rectangle" fill-opacity="0.12" fill="#E02020" x="0" y="0" width="76" height="36" rx="8"></rect>
                            <g id="check-svgrepo-com-(1)" transform="translate(10.000000, 11.000000)" stroke="#E02020">
                                <path d="M7,0 C3.1402,0 0,3.1402 0,7 C0,10.8598 3.1402,14 7,14 C10.8598,14 14,10.8598 14,7 C14,3.1402 10.8598,0 7,0 Z" id="Shape" fill-rule="nonzero"></path>
                                <g id="Group-25" transform="translate(7.000000, 7.000000) rotate(45.000000) translate(-7.000000, -7.000000) translate(3.000000, 3.000000)">
                                    <rect id="Rectangle" x="4" y="0.5" width="1" height="7" rx="0.5"></rect>
                                    <rect id="Rectangle-Copy-12" transform="translate(4.000000, 4.000000) rotate(90.000000) translate(-4.000000, -4.000000) " x="4" y="0.5" width="1" height="7" rx="0.5"></rect>
                                </g>
                            </g>
                            <path d="M31.6297852,22 L31.6297852,16.1689453 L33.5643555,16.1689453 L33.5643555,15.1845703 L31.6297852,15.1845703 L31.6297852,13.9130859 C31.6297852,13.0791016 31.939681,12.6621094 32.5594727,12.6621094 C32.8967122,12.6621094 33.2931966,12.7783203 33.7489258,13.0107422 L34.0018555,12.0332031 C33.5233398,11.7460938 32.994694,11.6025391 32.415918,11.6025391 C31.8006836,11.6025391 31.3278645,11.7882487 30.9974609,12.159668 C30.6670573,12.5310872 30.5018555,13.0791016 30.5018555,13.8037109 L30.5018555,15.1845703 L29.6678711,15.1845703 L29.6678711,16.1689453 L30.5018555,16.1689453 L30.5018555,22 L31.6297852,22 Z M37.4102539,22.0888672 C37.9069987,22.0888672 38.3593099,21.9863281 38.7671875,21.78125 C39.1750651,21.5761719 39.5180013,21.2890625 39.7959961,20.9199219 L39.8165039,20.9199219 L39.8165039,22 L40.903418,22 L40.903418,15.1845703 L39.7686523,15.1845703 L39.7686523,16.1962891 L39.7413086,16.1962891 C39.4587565,15.8408203 39.1158203,15.5696614 38.7125,15.3828125 C38.3091797,15.1959636 37.872819,15.1025391 37.403418,15.1025391 C36.7699544,15.1025391 36.1980144,15.2563477 35.6875977,15.5639648 C35.177181,15.871582 34.7795573,16.2942708 34.4947266,16.8320312 C34.2098958,17.3697917 34.0674805,17.9713542 34.0674805,18.6367188 C34.0674805,19.1471355 34.154069,19.6188151 34.3272461,20.0517578 C34.5004231,20.4847005 34.736263,20.8492839 35.0347656,21.1455078 C35.3332683,21.4417317 35.6875977,21.6730144 36.0977539,21.8393555 C36.5079102,22.0056966 36.9454102,22.0888672 37.4102539,22.0888672 Z M37.5196289,21.0498047 C36.8360352,21.0498047 36.2823242,20.8230794 35.8584961,20.3696289 C35.434668,19.9161784 35.2227539,19.3408203 35.2227539,18.6435547 C35.2227539,17.8961589 35.4426433,17.2923177 35.8824219,16.8320312 C36.3222005,16.3717448 36.8724935,16.1416016 37.5333008,16.1416016 C37.8523112,16.1416016 38.1530925,16.206543 38.4356445,16.3364258 C38.7181966,16.4663086 38.9597331,16.6429036 39.1602539,16.8662109 C39.3607747,17.0895183 39.5191406,17.3549805 39.6353516,17.6625977 C39.7515625,17.9702148 39.809668,18.2972005 39.809668,18.6435547 C39.809668,18.9944661 39.7481445,19.3214519 39.6250977,19.6245117 C39.5020508,19.9275716 39.3357097,20.18278 39.1260742,20.3901367 C38.9164388,20.5974935 38.6726237,20.7592773 38.3946289,20.8754883 C38.1166341,20.9916992 37.8249675,21.0498047 37.5196289,21.0498047 Z M43.4026367,13.9199219 C43.625944,13.9199219 43.8162109,13.842448 43.9734375,13.6875 C44.1306641,13.532552 44.2092773,13.3457031 44.2092773,13.1269531 C44.2092773,12.9811198 44.172819,12.8466797 44.0999023,12.7236328 C44.0269856,12.6005859 43.9290039,12.5037435 43.805957,12.4331055 C43.6829102,12.3624675 43.54847,12.3271484 43.4026367,12.3271484 C43.1747722,12.3271484 42.9833659,12.4046224 42.828418,12.5595703 C42.67347,12.7145183 42.5959961,12.9036458 42.5959961,13.1269531 C42.5959961,13.3457031 42.67347,13.532552 42.828418,13.6875 C42.9833659,13.842448 43.1747722,13.9199219 43.4026367,13.9199219 Z M43.9563477,22 L43.9563477,15.1845703 L42.828418,15.1845703 L42.828418,22 L43.9563477,22 Z M47.1938477,22 L47.1938477,11.6914062 L46.065918,11.6914062 L46.065918,22 L47.1938477,22 Z M52.1608398,22.0888672 C52.757845,22.0888672 53.2899089,21.9737956 53.7570313,21.7436523 C54.2241536,21.5135091 54.6103841,21.2001953 54.9157227,20.8037109 L54.1227539,20.1269531 C53.8948894,20.404948 53.6191731,20.6271159 53.2956055,20.793457 C52.9720378,20.9597981 52.6074544,21.0429688 52.2018555,21.0429688 C51.5911784,21.0429688 51.0784831,20.8527019 50.6637695,20.472168 C50.249056,20.0916341 50.0052409,19.5846355 49.9323242,18.9511719 L55.1686523,18.9511719 C55.1914388,18.8144531 55.202832,18.6595052 55.202832,18.4863281 C55.202832,17.8391927 55.0718099,17.2592773 54.8097656,16.746582 C54.5477214,16.2338867 54.1751628,15.8317058 53.6920898,15.5400391 C53.2090169,15.2483724 52.655306,15.1025391 52.030957,15.1025391 C51.5752278,15.1025391 51.1468425,15.1891276 50.7458008,15.3623047 C50.3447591,15.5354817 49.9995442,15.7736003 49.7101563,16.0766602 C49.4207683,16.37972 49.1917644,16.7488606 49.0231445,17.184082 C48.8545247,17.6193034 48.7702148,18.0898438 48.7702148,18.5957031 C48.7702148,19.1061198 48.8568034,19.5800781 49.0299805,20.0175781 C49.2031575,20.4550781 49.4401367,20.8242188 49.740918,21.125 C50.0416992,21.4257812 50.4005859,21.6616211 50.8175781,21.8325195 C51.2345703,22.003418 51.6823242,22.0888672 52.1608398,22.0888672 Z M54.0749023,18.0078125 L49.959668,18.0078125 C50.0644856,17.4381511 50.3117188,16.9858398 50.7013672,16.6508789 C51.0910156,16.315918 51.55472,16.1484375 52.0924805,16.1484375 C52.6256836,16.1484375 53.0666016,16.3170573 53.4152344,16.6542969 C53.7638672,16.9915364 53.9837565,17.4427083 54.0749023,18.0078125 Z M59.5750977,22.0888672 C59.9032227,22.0888672 60.2142578,22.042155 60.5082031,21.9487305 C60.8021484,21.855306 61.0676106,21.7220052 61.3045898,21.5488281 C61.541569,21.3756511 61.7512044,21.1660156 61.9334961,20.9199219 L61.9540039,20.9199219 L61.9540039,22 L63.040918,22 L63.040918,11.6914062 L61.9061523,11.6914062 L61.9061523,16.1962891 L61.8856445,16.1962891 C61.6987956,15.9593099 61.4834636,15.7587891 61.2396484,15.5947266 C60.9958333,15.4306641 60.7326497,15.3076172 60.4500977,15.2255859 C60.1675456,15.1435547 59.8736003,15.1025391 59.5682617,15.1025391 C59.0943034,15.1025391 58.6499675,15.1925456 58.2352539,15.3725586 C57.8205403,15.5525716 57.4673503,15.7986653 57.1756836,16.1108398 C56.8840169,16.4230144 56.6538737,16.7978516 56.4852539,17.2353516 C56.3166341,17.6728516 56.2323242,18.1399739 56.2323242,18.6367188 C56.2323242,19.1471355 56.3189128,19.6188151 56.4920898,20.0517578 C56.6652669,20.4847005 56.9011067,20.8492839 57.1996094,21.1455078 C57.498112,21.4417317 57.8524414,21.6730144 58.2625977,21.8393555 C58.6727539,22.0056966 59.1102539,22.0888672 59.5750977,22.0888672 Z M59.6844727,21.0498047 C59.0008789,21.0498047 58.447168,20.8230794 58.0233398,20.3696289 C57.5995117,19.9161784 57.3875977,19.3408203 57.3875977,18.6435547 C57.3875977,17.8961589 57.607487,17.2923177 58.0472656,16.8320312 C58.4870442,16.3717448 59.0373372,16.1416016 59.6981445,16.1416016 C60.0125977,16.1416016 60.3088216,16.206543 60.5868164,16.3364258 C60.8648112,16.4663086 61.1029297,16.6429036 61.3011719,16.8662109 C61.4994141,17.0895183 61.6566406,17.3549805 61.7728516,17.6625977 C61.8890625,17.9702148 61.947168,18.2972005 61.947168,18.6435547 C61.947168,18.9944661 61.8856445,19.3214519 61.7625977,19.6245117 C61.6395508,19.9275716 61.4743489,20.18278 61.2669922,20.3901367 C61.0596355,20.5974935 60.8180989,20.7592773 60.5423828,20.8754883 C60.2666667,20.9916992 59.9806966,21.0498047 59.6844727,21.0498047 Z" id="failed" fill="#E02020" fill-rule="nonzero"></path>
                            <path d="M141.666016,22.4921875 L142.110352,19.6347656 L144.291016,19.6347656 L143.853516,22.4921875 L144.714844,22.4921875 L145.145508,19.6347656 L147.155273,19.6347656 L147.162109,18.7529297 L145.282227,18.7529297 L145.624023,16.5039062 L147.476562,16.5039062 L147.476562,15.6289062 L145.760742,15.6289062 L146.191406,12.8193359 L145.330078,12.8193359 L144.899414,15.6289062 L142.71875,15.6289062 L143.149414,12.8193359 L142.28125,12.8193359 L141.850586,15.6289062 L139.888672,15.6289062 L139.888672,16.5039062 L141.713867,16.5039062 L141.37207,18.7529297 L139.581055,18.7529297 L139.581055,19.6347656 L141.242188,19.6347656 L140.791016,22.4921875 L141.666016,22.4921875 Z M144.420898,18.7529297 L142.233398,18.7529297 L142.582031,16.5039062 L144.762695,16.5039062 L144.420898,18.7529297 Z M151.759961,22.0888672 C152.38431,22.0888672 152.950553,21.954427 153.458691,21.6855469 C153.966829,21.4166667 154.364453,21.0452474 154.651563,20.5712891 C154.938672,20.0973308 155.082227,19.5686849 155.082227,18.9853516 C155.082227,18.3610026 154.952344,17.8164062 154.692578,17.3515625 C154.432813,16.8867188 154.077344,16.534668 153.626172,16.2954102 C153.175,16.0561523 152.660026,15.9365234 152.08125,15.9365234 C151.780469,15.9365234 151.487663,15.9707031 151.202832,16.0390625 C150.918001,16.1074219 150.6514,16.2054036 150.403027,16.3330078 C150.154655,16.460612 149.930208,16.6132812 149.729688,16.7910156 L149.716016,16.7841797 C149.820833,16.3740234 149.968945,15.9912109 150.160352,15.6357422 C150.351758,15.2802734 150.570508,14.9658203 150.816602,14.6923828 C151.062695,14.4189453 151.337272,14.1739909 151.640332,13.9575195 C151.943392,13.7410481 152.257845,13.5610352 152.583691,13.4174805 C152.909538,13.2739258 153.252474,13.1565755 153.6125,13.0654297 L153.257031,12.0605469 C152.746615,12.1516927 152.253288,12.3168945 151.777051,12.5561523 C151.300814,12.7954102 150.856478,13.105306 150.444043,13.4858398 C150.031608,13.8663737 149.670443,14.298177 149.360547,14.78125 C149.050651,15.264323 148.807975,15.8146159 148.63252,16.4321289 C148.457064,17.0496419 148.369336,17.695638 148.369336,18.3701172 C148.369336,18.9169922 148.455925,19.4228516 148.629102,19.8876953 C148.802279,20.3525391 149.040397,20.7456055 149.343457,21.0668945 C149.646517,21.3881836 150.006543,21.6388347 150.423535,21.8188477 C150.840527,21.9988606 151.286003,22.0888672 151.759961,22.0888672 Z M151.746289,20.9814453 C151.094596,20.9814453 150.560254,20.7478841 150.143262,20.2807617 C149.72627,19.8136394 149.517773,19.201823 149.517773,18.4453125 L149.517773,18.3496094 C149.754753,17.9713542 150.072624,17.6557617 150.471387,17.402832 C150.87015,17.1499023 151.320182,17.0234375 151.821484,17.0234375 C152.454948,17.0234375 152.960807,17.2023112 153.339063,17.5600586 C153.717318,17.917806 153.906445,18.390625 153.906445,18.9785156 C153.906445,19.5345052 153.703646,20.0073242 153.298047,20.3969727 C152.892448,20.7866211 152.375195,20.9814453 151.746289,20.9814453 Z M161.594141,22 L161.594141,20.3046875 L162.995508,20.3046875 L162.995508,19.2382812 L161.594141,19.2382812 L161.594141,12.3886719 L160.596094,12.3886719 L155.947656,19.4638672 L155.947656,20.3046875 L160.418359,20.3046875 L160.418359,22 L161.594141,22 Z M160.438867,19.265625 L157.369531,19.265625 L160.438867,14.5283203 L160.438867,19.265625 Z M165.385352,22.3349609 C165.891211,22.2438151 166.384538,22.0820312 166.865332,21.8496094 C167.346126,21.6171875 167.800716,21.3141276 168.229102,20.9404297 C168.657487,20.5667317 169.032324,20.1417644 169.353613,19.6655273 C169.674902,19.1892903 169.930111,18.6412761 170.119238,18.0214844 C170.308366,17.4016927 170.40293,16.7522786 170.40293,16.0732422 C170.40293,15.5126953 170.316341,14.9954427 170.143164,14.5214844 C169.969987,14.0475261 169.731868,13.648763 169.428809,13.3251953 C169.125749,13.0016276 168.768001,12.7498372 168.355566,12.5698242 C167.943132,12.3898112 167.499935,12.2998047 167.025977,12.2998047 C166.401628,12.2998047 165.836523,12.4365234 165.330664,12.7099609 C164.824805,12.9833984 164.427181,13.3605144 164.137793,13.8413086 C163.848405,14.3221028 163.703711,14.8564453 163.703711,15.4443359 C163.703711,16.055013 163.832454,16.5916341 164.089941,17.0541992 C164.347428,17.5167644 164.696061,17.8676758 165.13584,18.1069336 C165.575618,18.3461914 166.071224,18.4658203 166.622656,18.4658203 C166.932552,18.4658203 167.234473,18.4316406 167.528418,18.3632812 C167.822363,18.2949219 168.094661,18.1969401 168.345313,18.0693359 C168.595964,17.9417317 168.823828,17.7890625 169.028906,17.6113281 L169.049414,17.625 C168.908138,18.1399739 168.700781,18.609375 168.427344,19.0332031 C168.153906,19.4570312 167.834896,19.8170573 167.470313,20.1132812 C167.105729,20.4095052 166.721777,20.6578776 166.318457,20.8583984 C165.915137,21.0589192 165.487891,21.2161458 165.036719,21.3300781 L165.385352,22.3349609 Z M166.882422,17.3857422 C166.285417,17.3857422 165.803483,17.2068685 165.436621,16.8491211 C165.069759,16.4913737 164.886328,16.0253906 164.886328,15.4511719 C164.886328,15.173177 164.938737,14.9088542 165.043555,14.6582031 C165.148372,14.407552 165.293066,14.188802 165.477637,14.0019531 C165.662207,13.8151042 165.890072,13.6669922 166.16123,13.5576172 C166.432389,13.4482422 166.727474,13.3935547 167.046484,13.3935547 C167.470313,13.3935547 167.848568,13.4995117 168.18125,13.7114258 C168.513932,13.9233398 168.775977,14.2263997 168.967383,14.6206055 C169.158789,15.0148112 169.254492,15.4671224 169.254492,15.9775391 L169.254492,16.0527344 C169.003841,16.4537761 168.665462,16.7762044 168.239355,17.0200195 C167.813249,17.2638347 167.360938,17.3857422 166.882422,17.3857422 Z M174.44707,22.0888672 C175.034961,22.0888672 175.564746,21.9783528 176.036426,21.7573242 C176.508105,21.5362956 176.879525,21.2218425 177.150684,20.8139648 C177.421842,20.4060872 177.557422,19.9423828 177.557422,19.4228516 C177.557422,18.8577474 177.411589,18.3655599 177.119922,17.9462891 C176.828255,17.5270183 176.427214,17.2148438 175.916797,17.0097656 L175.916797,16.9960938 C176.354297,16.7864583 176.694954,16.4902344 176.93877,16.1074219 C177.182585,15.7246094 177.304492,15.2939453 177.304492,14.8154297 C177.304492,14.2958984 177.171191,13.8435872 176.90459,13.4584961 C176.637988,13.073405 176.28252,12.7840169 175.838184,12.590332 C175.393848,12.3966472 174.895964,12.2998047 174.344531,12.2998047 C173.679167,12.2998047 173.100391,12.4376628 172.608203,12.7133789 C172.116016,12.989095 171.742318,13.359375 171.487109,13.8242188 L172.437305,14.34375 C172.870247,13.7148438 173.499154,13.4003906 174.324023,13.4003906 C174.83444,13.4003906 175.261686,13.5462239 175.605762,13.8378906 C175.949837,14.1295573 176.121875,14.5078125 176.121875,14.9726562 C176.121875,15.1822917 176.087695,15.3771159 176.019336,15.5571289 C175.950977,15.7371419 175.849577,15.8989258 175.715137,16.0424805 C175.580697,16.1860352 175.399544,16.2988281 175.17168,16.3808594 C174.943815,16.4628906 174.681771,16.5039062 174.385547,16.5039062 L173.449023,16.5039062 L173.449023,17.5292969 L174.248828,17.5292969 C174.595182,17.5292969 174.905078,17.5748698 175.178516,17.6660156 C175.451953,17.7571614 175.672982,17.882487 175.841602,18.0419922 C176.010221,18.2014974 176.138965,18.3837891 176.227832,18.5888672 C176.316699,18.7939453 176.361133,19.0126953 176.361133,19.2451172 C176.361133,19.5869141 176.272266,19.8911133 176.094531,20.1577148 C175.916797,20.4243164 175.677539,20.6282552 175.376758,20.7695312 C175.075977,20.9108073 174.743294,20.9814453 174.378711,20.9814453 C174.00957,20.9814453 173.678027,20.9290364 173.384082,20.8242188 C173.090137,20.7194011 172.845182,20.5735677 172.649219,20.3867188 C172.453255,20.1998698 172.296029,19.9742839 172.177539,19.7099609 L171.158984,20.1748047 C171.405078,20.7490234 171.816374,21.2115886 172.392871,21.5625 C172.969368,21.9134114 173.654102,22.0888672 174.44707,22.0888672 Z M180.459961,22.1640625 L184.267578,13.2021484 L184.267578,12.3886719 L178.320312,12.3886719 L178.320312,13.46875 L182.961914,13.46875 L179.28418,21.9316406 L180.459961,22.1640625 Z M186.889844,22.3349609 C187.395703,22.2438151 187.88903,22.0820312 188.369824,21.8496094 C188.850618,21.6171875 189.305208,21.3141276 189.733594,20.9404297 C190.161979,20.5667317 190.536816,20.1417644 190.858105,19.6655273 C191.179395,19.1892903 191.434603,18.6412761 191.62373,18.0214844 C191.812858,17.4016927 191.907422,16.7522786 191.907422,16.0732422 C191.907422,15.5126953 191.820833,14.9954427 191.647656,14.5214844 C191.474479,14.0475261 191.236361,13.648763 190.933301,13.3251953 C190.630241,13.0016276 190.272493,12.7498372 189.860059,12.5698242 C189.447624,12.3898112 189.004427,12.2998047 188.530469,12.2998047 C187.90612,12.2998047 187.341016,12.4365234 186.835156,12.7099609 C186.329297,12.9833984 185.931673,13.3605144 185.642285,13.8413086 C185.352897,14.3221028 185.208203,14.8564453 185.208203,15.4443359 C185.208203,16.055013 185.336947,16.5916341 185.594434,17.0541992 C185.851921,17.5167644 186.200553,17.8676758 186.640332,18.1069336 C187.080111,18.3461914 187.575716,18.4658203 188.127148,18.4658203 C188.437044,18.4658203 188.738965,18.4316406 189.03291,18.3632812 C189.326855,18.2949219 189.599154,18.1969401 189.849805,18.0693359 C190.100456,17.9417317 190.32832,17.7890625 190.533398,17.6113281 L190.553906,17.625 C190.41263,18.1399739 190.205273,18.609375 189.931836,19.0332031 C189.658398,19.4570312 189.339388,19.8170573 188.974805,20.1132812 C188.610221,20.4095052 188.22627,20.6578776 187.822949,20.8583984 C187.419629,21.0589192 186.992383,21.2161458 186.541211,21.3300781 L186.889844,22.3349609 Z M188.386914,17.3857422 C187.789909,17.3857422 187.307975,17.2068685 186.941113,16.8491211 C186.574251,16.4913737 186.39082,16.0253906 186.39082,15.4511719 C186.39082,15.173177 186.443229,14.9088542 186.548047,14.6582031 C186.652865,14.407552 186.797559,14.188802 186.982129,14.0019531 C187.166699,13.8151042 187.394564,13.6669922 187.665723,13.5576172 C187.936882,13.4482422 188.231966,13.3935547 188.550977,13.3935547 C188.974805,13.3935547 189.35306,13.4995117 189.685742,13.7114258 C190.018425,13.9233398 190.280469,14.2263997 190.471875,14.6206055 C190.663281,15.0148112 190.758984,15.4671224 190.758984,15.9775391 L190.758984,16.0527344 C190.508333,16.4537761 190.169954,16.7762044 189.743848,17.0200195 C189.317741,17.2638347 188.86543,17.3857422 188.386914,17.3857422 Z M194.734766,22.3349609 C195.240625,22.2438151 195.733952,22.0820312 196.214746,21.8496094 C196.69554,21.6171875 197.15013,21.3141276 197.578516,20.9404297 C198.006901,20.5667317 198.381738,20.1417644 198.703027,19.6655273 C199.024316,19.1892903 199.279525,18.6412761 199.468652,18.0214844 C199.65778,17.4016927 199.752344,16.7522786 199.752344,16.0732422 C199.752344,15.5126953 199.665755,14.9954427 199.492578,14.5214844 C199.319401,14.0475261 199.081283,13.648763 198.778223,13.3251953 C198.475163,13.0016276 198.117415,12.7498372 197.70498,12.5698242 C197.292546,12.3898112 196.849349,12.2998047 196.375391,12.2998047 C195.751042,12.2998047 195.185937,12.4365234 194.680078,12.7099609 C194.174219,12.9833984 193.776595,13.3605144 193.487207,13.8413086 C193.197819,14.3221028 193.053125,14.8564453 193.053125,15.4443359 C193.053125,16.055013 193.181868,16.5916341 193.439355,17.0541992 C193.696842,17.5167644 194.045475,17.8676758 194.485254,18.1069336 C194.925033,18.3461914 195.420638,18.4658203 195.97207,18.4658203 C196.281966,18.4658203 196.583887,18.4316406 196.877832,18.3632812 C197.171777,18.2949219 197.444075,18.1969401 197.694727,18.0693359 C197.945378,17.9417317 198.173242,17.7890625 198.37832,17.6113281 L198.398828,17.625 C198.257552,18.1399739 198.050195,18.609375 197.776758,19.0332031 C197.50332,19.4570312 197.18431,19.8170573 196.819727,20.1132812 C196.455143,20.4095052 196.071191,20.6578776 195.667871,20.8583984 C195.264551,21.0589192 194.837305,21.2161458 194.386133,21.3300781 L194.734766,22.3349609 Z M196.231836,17.3857422 C195.634831,17.3857422 195.152897,17.2068685 194.786035,16.8491211 C194.419173,16.4913737 194.235742,16.0253906 194.235742,15.4511719 C194.235742,15.173177 194.288151,14.9088542 194.392969,14.6582031 C194.497786,14.407552 194.64248,14.188802 194.827051,14.0019531 C195.011621,13.8151042 195.239486,13.6669922 195.510645,13.5576172 C195.781803,13.4482422 196.076888,13.3935547 196.395898,13.3935547 C196.819727,13.3935547 197.197982,13.4995117 197.530664,13.7114258 C197.863346,13.9233398 198.125391,14.2263997 198.316797,14.6206055 C198.508203,15.0148112 198.603906,15.4671224 198.603906,15.9775391 L198.603906,16.0527344 C198.353255,16.4537761 198.014876,16.7762044 197.58877,17.0200195 C197.162663,17.2638347 196.710352,17.3857422 196.231836,17.3857422 Z M206.722266,22 L206.722266,20.9199219 L202.456641,20.9199219 L202.456641,20.8994141 L204.958594,18.3632812 C205.546484,17.7662761 205.966895,17.2159831 206.219824,16.7124023 C206.472754,16.2088216 206.599219,15.6813151 206.599219,15.1298828 C206.599219,14.6969401 206.518327,14.3004558 206.356543,13.9404297 C206.194759,13.5804036 205.979427,13.2819011 205.710547,13.0449219 C205.441667,12.8079427 205.131771,12.6245117 204.780859,12.4946289 C204.429948,12.3647461 204.063086,12.2998047 203.680273,12.2998047 C203.192643,12.2998047 202.749447,12.3795573 202.350684,12.5390625 C201.951921,12.6985677 201.619238,12.9116211 201.352637,13.1782227 C201.086035,13.4448242 200.85931,13.7604167 200.672461,14.125 L201.540625,14.7197266 C201.996354,13.8401692 202.684505,13.4003906 203.605078,13.4003906 C204.133724,13.4003906 204.567806,13.574707 204.907324,13.9233398 C205.246842,14.2719727 205.416602,14.7128906 205.416602,15.2460938 C205.416602,15.4785156 205.380143,15.7052409 205.307227,15.9262695 C205.23431,16.1472981 205.124935,16.3683269 204.979102,16.5893555 C204.833268,16.8103841 204.682878,17.0120442 204.52793,17.1943359 C204.372982,17.3766276 204.179297,17.5885417 203.946875,17.8300781 L200.658789,21.1865234 L200.672461,22 L206.722266,22 Z" id="#64937992" fill="#000000" fill-rule="nonzero"></path>
                        </g>
                        <g id="Group-7-Copy-2" transform="translate(0.000000, 122.000000)">
                            <rect id="Rectangle" fill-opacity="0.12" fill="#E02020" x="0" y="0" width="76" height="36" rx="8"></rect>
                            <g id="check-svgrepo-com-(1)" transform="translate(10.000000, 11.000000)" stroke="#E02020">
                                <path d="M7,0 C3.1402,0 0,3.1402 0,7 C0,10.8598 3.1402,14 7,14 C10.8598,14 14,10.8598 14,7 C14,3.1402 10.8598,0 7,0 Z" id="Shape" fill-rule="nonzero"></path>
                                <g id="Group-25" transform="translate(7.000000, 7.000000) rotate(45.000000) translate(-7.000000, -7.000000) translate(3.000000, 3.000000)">
                                    <rect id="Rectangle" x="4" y="0.5" width="1" height="7" rx="0.5"></rect>
                                    <rect id="Rectangle-Copy-12" transform="translate(4.000000, 4.000000) rotate(90.000000) translate(-4.000000, -4.000000) " x="4" y="0.5" width="1" height="7" rx="0.5"></rect>
                                </g>
                            </g>
                            <path d="M31.6297852,22 L31.6297852,16.1689453 L33.5643555,16.1689453 L33.5643555,15.1845703 L31.6297852,15.1845703 L31.6297852,13.9130859 C31.6297852,13.0791016 31.939681,12.6621094 32.5594727,12.6621094 C32.8967122,12.6621094 33.2931966,12.7783203 33.7489258,13.0107422 L34.0018555,12.0332031 C33.5233398,11.7460938 32.994694,11.6025391 32.415918,11.6025391 C31.8006836,11.6025391 31.3278645,11.7882487 30.9974609,12.159668 C30.6670573,12.5310872 30.5018555,13.0791016 30.5018555,13.8037109 L30.5018555,15.1845703 L29.6678711,15.1845703 L29.6678711,16.1689453 L30.5018555,16.1689453 L30.5018555,22 L31.6297852,22 Z M37.4102539,22.0888672 C37.9069987,22.0888672 38.3593099,21.9863281 38.7671875,21.78125 C39.1750651,21.5761719 39.5180013,21.2890625 39.7959961,20.9199219 L39.8165039,20.9199219 L39.8165039,22 L40.903418,22 L40.903418,15.1845703 L39.7686523,15.1845703 L39.7686523,16.1962891 L39.7413086,16.1962891 C39.4587565,15.8408203 39.1158203,15.5696614 38.7125,15.3828125 C38.3091797,15.1959636 37.872819,15.1025391 37.403418,15.1025391 C36.7699544,15.1025391 36.1980144,15.2563477 35.6875977,15.5639648 C35.177181,15.871582 34.7795573,16.2942708 34.4947266,16.8320312 C34.2098958,17.3697917 34.0674805,17.9713542 34.0674805,18.6367188 C34.0674805,19.1471355 34.154069,19.6188151 34.3272461,20.0517578 C34.5004231,20.4847005 34.736263,20.8492839 35.0347656,21.1455078 C35.3332683,21.4417317 35.6875977,21.6730144 36.0977539,21.8393555 C36.5079102,22.0056966 36.9454102,22.0888672 37.4102539,22.0888672 Z M37.5196289,21.0498047 C36.8360352,21.0498047 36.2823242,20.8230794 35.8584961,20.3696289 C35.434668,19.9161784 35.2227539,19.3408203 35.2227539,18.6435547 C35.2227539,17.8961589 35.4426433,17.2923177 35.8824219,16.8320312 C36.3222005,16.3717448 36.8724935,16.1416016 37.5333008,16.1416016 C37.8523112,16.1416016 38.1530925,16.206543 38.4356445,16.3364258 C38.7181966,16.4663086 38.9597331,16.6429036 39.1602539,16.8662109 C39.3607747,17.0895183 39.5191406,17.3549805 39.6353516,17.6625977 C39.7515625,17.9702148 39.809668,18.2972005 39.809668,18.6435547 C39.809668,18.9944661 39.7481445,19.3214519 39.6250977,19.6245117 C39.5020508,19.9275716 39.3357097,20.18278 39.1260742,20.3901367 C38.9164388,20.5974935 38.6726237,20.7592773 38.3946289,20.8754883 C38.1166341,20.9916992 37.8249675,21.0498047 37.5196289,21.0498047 Z M43.4026367,13.9199219 C43.625944,13.9199219 43.8162109,13.842448 43.9734375,13.6875 C44.1306641,13.532552 44.2092773,13.3457031 44.2092773,13.1269531 C44.2092773,12.9811198 44.172819,12.8466797 44.0999023,12.7236328 C44.0269856,12.6005859 43.9290039,12.5037435 43.805957,12.4331055 C43.6829102,12.3624675 43.54847,12.3271484 43.4026367,12.3271484 C43.1747722,12.3271484 42.9833659,12.4046224 42.828418,12.5595703 C42.67347,12.7145183 42.5959961,12.9036458 42.5959961,13.1269531 C42.5959961,13.3457031 42.67347,13.532552 42.828418,13.6875 C42.9833659,13.842448 43.1747722,13.9199219 43.4026367,13.9199219 Z M43.9563477,22 L43.9563477,15.1845703 L42.828418,15.1845703 L42.828418,22 L43.9563477,22 Z M47.1938477,22 L47.1938477,11.6914062 L46.065918,11.6914062 L46.065918,22 L47.1938477,22 Z M52.1608398,22.0888672 C52.757845,22.0888672 53.2899089,21.9737956 53.7570313,21.7436523 C54.2241536,21.5135091 54.6103841,21.2001953 54.9157227,20.8037109 L54.1227539,20.1269531 C53.8948894,20.404948 53.6191731,20.6271159 53.2956055,20.793457 C52.9720378,20.9597981 52.6074544,21.0429688 52.2018555,21.0429688 C51.5911784,21.0429688 51.0784831,20.8527019 50.6637695,20.472168 C50.249056,20.0916341 50.0052409,19.5846355 49.9323242,18.9511719 L55.1686523,18.9511719 C55.1914388,18.8144531 55.202832,18.6595052 55.202832,18.4863281 C55.202832,17.8391927 55.0718099,17.2592773 54.8097656,16.746582 C54.5477214,16.2338867 54.1751628,15.8317058 53.6920898,15.5400391 C53.2090169,15.2483724 52.655306,15.1025391 52.030957,15.1025391 C51.5752278,15.1025391 51.1468425,15.1891276 50.7458008,15.3623047 C50.3447591,15.5354817 49.9995442,15.7736003 49.7101563,16.0766602 C49.4207683,16.37972 49.1917644,16.7488606 49.0231445,17.184082 C48.8545247,17.6193034 48.7702148,18.0898438 48.7702148,18.5957031 C48.7702148,19.1061198 48.8568034,19.5800781 49.0299805,20.0175781 C49.2031575,20.4550781 49.4401367,20.8242188 49.740918,21.125 C50.0416992,21.4257812 50.4005859,21.6616211 50.8175781,21.8325195 C51.2345703,22.003418 51.6823242,22.0888672 52.1608398,22.0888672 Z M54.0749023,18.0078125 L49.959668,18.0078125 C50.0644856,17.4381511 50.3117188,16.9858398 50.7013672,16.6508789 C51.0910156,16.315918 51.55472,16.1484375 52.0924805,16.1484375 C52.6256836,16.1484375 53.0666016,16.3170573 53.4152344,16.6542969 C53.7638672,16.9915364 53.9837565,17.4427083 54.0749023,18.0078125 Z M59.5750977,22.0888672 C59.9032227,22.0888672 60.2142578,22.042155 60.5082031,21.9487305 C60.8021484,21.855306 61.0676106,21.7220052 61.3045898,21.5488281 C61.541569,21.3756511 61.7512044,21.1660156 61.9334961,20.9199219 L61.9540039,20.9199219 L61.9540039,22 L63.040918,22 L63.040918,11.6914062 L61.9061523,11.6914062 L61.9061523,16.1962891 L61.8856445,16.1962891 C61.6987956,15.9593099 61.4834636,15.7587891 61.2396484,15.5947266 C60.9958333,15.4306641 60.7326497,15.3076172 60.4500977,15.2255859 C60.1675456,15.1435547 59.8736003,15.1025391 59.5682617,15.1025391 C59.0943034,15.1025391 58.6499675,15.1925456 58.2352539,15.3725586 C57.8205403,15.5525716 57.4673503,15.7986653 57.1756836,16.1108398 C56.8840169,16.4230144 56.6538737,16.7978516 56.4852539,17.2353516 C56.3166341,17.6728516 56.2323242,18.1399739 56.2323242,18.6367188 C56.2323242,19.1471355 56.3189128,19.6188151 56.4920898,20.0517578 C56.6652669,20.4847005 56.9011067,20.8492839 57.1996094,21.1455078 C57.498112,21.4417317 57.8524414,21.6730144 58.2625977,21.8393555 C58.6727539,22.0056966 59.1102539,22.0888672 59.5750977,22.0888672 Z M59.6844727,21.0498047 C59.0008789,21.0498047 58.447168,20.8230794 58.0233398,20.3696289 C57.5995117,19.9161784 57.3875977,19.3408203 57.3875977,18.6435547 C57.3875977,17.8961589 57.607487,17.2923177 58.0472656,16.8320312 C58.4870442,16.3717448 59.0373372,16.1416016 59.6981445,16.1416016 C60.0125977,16.1416016 60.3088216,16.206543 60.5868164,16.3364258 C60.8648112,16.4663086 61.1029297,16.6429036 61.3011719,16.8662109 C61.4994141,17.0895183 61.6566406,17.3549805 61.7728516,17.6625977 C61.8890625,17.9702148 61.947168,18.2972005 61.947168,18.6435547 C61.947168,18.9944661 61.8856445,19.3214519 61.7625977,19.6245117 C61.6395508,19.9275716 61.4743489,20.18278 61.2669922,20.3901367 C61.0596355,20.5974935 60.8180989,20.7592773 60.5423828,20.8754883 C60.2666667,20.9916992 59.9806966,21.0498047 59.6844727,21.0498047 Z" id="failed" fill="#E02020" fill-rule="nonzero"></path>
                            <path d="M141.666016,22.4921875 L142.110352,19.6347656 L144.291016,19.6347656 L143.853516,22.4921875 L144.714844,22.4921875 L145.145508,19.6347656 L147.155273,19.6347656 L147.162109,18.7529297 L145.282227,18.7529297 L145.624023,16.5039062 L147.476562,16.5039062 L147.476562,15.6289062 L145.760742,15.6289062 L146.191406,12.8193359 L145.330078,12.8193359 L144.899414,15.6289062 L142.71875,15.6289062 L143.149414,12.8193359 L142.28125,12.8193359 L141.850586,15.6289062 L139.888672,15.6289062 L139.888672,16.5039062 L141.713867,16.5039062 L141.37207,18.7529297 L139.581055,18.7529297 L139.581055,19.6347656 L141.242188,19.6347656 L140.791016,22.4921875 L141.666016,22.4921875 Z M144.420898,18.7529297 L142.233398,18.7529297 L142.582031,16.5039062 L144.762695,16.5039062 L144.420898,18.7529297 Z M151.759961,22.0888672 C152.38431,22.0888672 152.950553,21.954427 153.458691,21.6855469 C153.966829,21.4166667 154.364453,21.0452474 154.651563,20.5712891 C154.938672,20.0973308 155.082227,19.5686849 155.082227,18.9853516 C155.082227,18.3610026 154.952344,17.8164062 154.692578,17.3515625 C154.432813,16.8867188 154.077344,16.534668 153.626172,16.2954102 C153.175,16.0561523 152.660026,15.9365234 152.08125,15.9365234 C151.780469,15.9365234 151.487663,15.9707031 151.202832,16.0390625 C150.918001,16.1074219 150.6514,16.2054036 150.403027,16.3330078 C150.154655,16.460612 149.930208,16.6132812 149.729688,16.7910156 L149.716016,16.7841797 C149.820833,16.3740234 149.968945,15.9912109 150.160352,15.6357422 C150.351758,15.2802734 150.570508,14.9658203 150.816602,14.6923828 C151.062695,14.4189453 151.337272,14.1739909 151.640332,13.9575195 C151.943392,13.7410481 152.257845,13.5610352 152.583691,13.4174805 C152.909538,13.2739258 153.252474,13.1565755 153.6125,13.0654297 L153.257031,12.0605469 C152.746615,12.1516927 152.253288,12.3168945 151.777051,12.5561523 C151.300814,12.7954102 150.856478,13.105306 150.444043,13.4858398 C150.031608,13.8663737 149.670443,14.298177 149.360547,14.78125 C149.050651,15.264323 148.807975,15.8146159 148.63252,16.4321289 C148.457064,17.0496419 148.369336,17.695638 148.369336,18.3701172 C148.369336,18.9169922 148.455925,19.4228516 148.629102,19.8876953 C148.802279,20.3525391 149.040397,20.7456055 149.343457,21.0668945 C149.646517,21.3881836 150.006543,21.6388347 150.423535,21.8188477 C150.840527,21.9988606 151.286003,22.0888672 151.759961,22.0888672 Z M151.746289,20.9814453 C151.094596,20.9814453 150.560254,20.7478841 150.143262,20.2807617 C149.72627,19.8136394 149.517773,19.201823 149.517773,18.4453125 L149.517773,18.3496094 C149.754753,17.9713542 150.072624,17.6557617 150.471387,17.402832 C150.87015,17.1499023 151.320182,17.0234375 151.821484,17.0234375 C152.454948,17.0234375 152.960807,17.2023112 153.339063,17.5600586 C153.717318,17.917806 153.906445,18.390625 153.906445,18.9785156 C153.906445,19.5345052 153.703646,20.0073242 153.298047,20.3969727 C152.892448,20.7866211 152.375195,20.9814453 151.746289,20.9814453 Z M161.594141,22 L161.594141,20.3046875 L162.995508,20.3046875 L162.995508,19.2382812 L161.594141,19.2382812 L161.594141,12.3886719 L160.596094,12.3886719 L155.947656,19.4638672 L155.947656,20.3046875 L160.418359,20.3046875 L160.418359,22 L161.594141,22 Z M160.438867,19.265625 L157.369531,19.265625 L160.438867,14.5283203 L160.438867,19.265625 Z M165.385352,22.3349609 C165.891211,22.2438151 166.384538,22.0820312 166.865332,21.8496094 C167.346126,21.6171875 167.800716,21.3141276 168.229102,20.9404297 C168.657487,20.5667317 169.032324,20.1417644 169.353613,19.6655273 C169.674902,19.1892903 169.930111,18.6412761 170.119238,18.0214844 C170.308366,17.4016927 170.40293,16.7522786 170.40293,16.0732422 C170.40293,15.5126953 170.316341,14.9954427 170.143164,14.5214844 C169.969987,14.0475261 169.731868,13.648763 169.428809,13.3251953 C169.125749,13.0016276 168.768001,12.7498372 168.355566,12.5698242 C167.943132,12.3898112 167.499935,12.2998047 167.025977,12.2998047 C166.401628,12.2998047 165.836523,12.4365234 165.330664,12.7099609 C164.824805,12.9833984 164.427181,13.3605144 164.137793,13.8413086 C163.848405,14.3221028 163.703711,14.8564453 163.703711,15.4443359 C163.703711,16.055013 163.832454,16.5916341 164.089941,17.0541992 C164.347428,17.5167644 164.696061,17.8676758 165.13584,18.1069336 C165.575618,18.3461914 166.071224,18.4658203 166.622656,18.4658203 C166.932552,18.4658203 167.234473,18.4316406 167.528418,18.3632812 C167.822363,18.2949219 168.094661,18.1969401 168.345313,18.0693359 C168.595964,17.9417317 168.823828,17.7890625 169.028906,17.6113281 L169.049414,17.625 C168.908138,18.1399739 168.700781,18.609375 168.427344,19.0332031 C168.153906,19.4570312 167.834896,19.8170573 167.470313,20.1132812 C167.105729,20.4095052 166.721777,20.6578776 166.318457,20.8583984 C165.915137,21.0589192 165.487891,21.2161458 165.036719,21.3300781 L165.385352,22.3349609 Z M166.882422,17.3857422 C166.285417,17.3857422 165.803483,17.2068685 165.436621,16.8491211 C165.069759,16.4913737 164.886328,16.0253906 164.886328,15.4511719 C164.886328,15.173177 164.938737,14.9088542 165.043555,14.6582031 C165.148372,14.407552 165.293066,14.188802 165.477637,14.0019531 C165.662207,13.8151042 165.890072,13.6669922 166.16123,13.5576172 C166.432389,13.4482422 166.727474,13.3935547 167.046484,13.3935547 C167.470313,13.3935547 167.848568,13.4995117 168.18125,13.7114258 C168.513932,13.9233398 168.775977,14.2263997 168.967383,14.6206055 C169.158789,15.0148112 169.254492,15.4671224 169.254492,15.9775391 L169.254492,16.0527344 C169.003841,16.4537761 168.665462,16.7762044 168.239355,17.0200195 C167.813249,17.2638347 167.360938,17.3857422 166.882422,17.3857422 Z M174.44707,22.0888672 C175.034961,22.0888672 175.564746,21.9783528 176.036426,21.7573242 C176.508105,21.5362956 176.879525,21.2218425 177.150684,20.8139648 C177.421842,20.4060872 177.557422,19.9423828 177.557422,19.4228516 C177.557422,18.8577474 177.411589,18.3655599 177.119922,17.9462891 C176.828255,17.5270183 176.427214,17.2148438 175.916797,17.0097656 L175.916797,16.9960938 C176.354297,16.7864583 176.694954,16.4902344 176.93877,16.1074219 C177.182585,15.7246094 177.304492,15.2939453 177.304492,14.8154297 C177.304492,14.2958984 177.171191,13.8435872 176.90459,13.4584961 C176.637988,13.073405 176.28252,12.7840169 175.838184,12.590332 C175.393848,12.3966472 174.895964,12.2998047 174.344531,12.2998047 C173.679167,12.2998047 173.100391,12.4376628 172.608203,12.7133789 C172.116016,12.989095 171.742318,13.359375 171.487109,13.8242188 L172.437305,14.34375 C172.870247,13.7148438 173.499154,13.4003906 174.324023,13.4003906 C174.83444,13.4003906 175.261686,13.5462239 175.605762,13.8378906 C175.949837,14.1295573 176.121875,14.5078125 176.121875,14.9726562 C176.121875,15.1822917 176.087695,15.3771159 176.019336,15.5571289 C175.950977,15.7371419 175.849577,15.8989258 175.715137,16.0424805 C175.580697,16.1860352 175.399544,16.2988281 175.17168,16.3808594 C174.943815,16.4628906 174.681771,16.5039062 174.385547,16.5039062 L173.449023,16.5039062 L173.449023,17.5292969 L174.248828,17.5292969 C174.595182,17.5292969 174.905078,17.5748698 175.178516,17.6660156 C175.451953,17.7571614 175.672982,17.882487 175.841602,18.0419922 C176.010221,18.2014974 176.138965,18.3837891 176.227832,18.5888672 C176.316699,18.7939453 176.361133,19.0126953 176.361133,19.2451172 C176.361133,19.5869141 176.272266,19.8911133 176.094531,20.1577148 C175.916797,20.4243164 175.677539,20.6282552 175.376758,20.7695312 C175.075977,20.9108073 174.743294,20.9814453 174.378711,20.9814453 C174.00957,20.9814453 173.678027,20.9290364 173.384082,20.8242188 C173.090137,20.7194011 172.845182,20.5735677 172.649219,20.3867188 C172.453255,20.1998698 172.296029,19.9742839 172.177539,19.7099609 L171.158984,20.1748047 C171.405078,20.7490234 171.816374,21.2115886 172.392871,21.5625 C172.969368,21.9134114 173.654102,22.0888672 174.44707,22.0888672 Z M180.459961,22.1640625 L184.267578,13.2021484 L184.267578,12.3886719 L178.320312,12.3886719 L178.320312,13.46875 L182.961914,13.46875 L179.28418,21.9316406 L180.459961,22.1640625 Z M186.889844,22.3349609 C187.395703,22.2438151 187.88903,22.0820312 188.369824,21.8496094 C188.850618,21.6171875 189.305208,21.3141276 189.733594,20.9404297 C190.161979,20.5667317 190.536816,20.1417644 190.858105,19.6655273 C191.179395,19.1892903 191.434603,18.6412761 191.62373,18.0214844 C191.812858,17.4016927 191.907422,16.7522786 191.907422,16.0732422 C191.907422,15.5126953 191.820833,14.9954427 191.647656,14.5214844 C191.474479,14.0475261 191.236361,13.648763 190.933301,13.3251953 C190.630241,13.0016276 190.272493,12.7498372 189.860059,12.5698242 C189.447624,12.3898112 189.004427,12.2998047 188.530469,12.2998047 C187.90612,12.2998047 187.341016,12.4365234 186.835156,12.7099609 C186.329297,12.9833984 185.931673,13.3605144 185.642285,13.8413086 C185.352897,14.3221028 185.208203,14.8564453 185.208203,15.4443359 C185.208203,16.055013 185.336947,16.5916341 185.594434,17.0541992 C185.851921,17.5167644 186.200553,17.8676758 186.640332,18.1069336 C187.080111,18.3461914 187.575716,18.4658203 188.127148,18.4658203 C188.437044,18.4658203 188.738965,18.4316406 189.03291,18.3632812 C189.326855,18.2949219 189.599154,18.1969401 189.849805,18.0693359 C190.100456,17.9417317 190.32832,17.7890625 190.533398,17.6113281 L190.553906,17.625 C190.41263,18.1399739 190.205273,18.609375 189.931836,19.0332031 C189.658398,19.4570312 189.339388,19.8170573 188.974805,20.1132812 C188.610221,20.4095052 188.22627,20.6578776 187.822949,20.8583984 C187.419629,21.0589192 186.992383,21.2161458 186.541211,21.3300781 L186.889844,22.3349609 Z M188.386914,17.3857422 C187.789909,17.3857422 187.307975,17.2068685 186.941113,16.8491211 C186.574251,16.4913737 186.39082,16.0253906 186.39082,15.4511719 C186.39082,15.173177 186.443229,14.9088542 186.548047,14.6582031 C186.652865,14.407552 186.797559,14.188802 186.982129,14.0019531 C187.166699,13.8151042 187.394564,13.6669922 187.665723,13.5576172 C187.936882,13.4482422 188.231966,13.3935547 188.550977,13.3935547 C188.974805,13.3935547 189.35306,13.4995117 189.685742,13.7114258 C190.018425,13.9233398 190.280469,14.2263997 190.471875,14.6206055 C190.663281,15.0148112 190.758984,15.4671224 190.758984,15.9775391 L190.758984,16.0527344 C190.508333,16.4537761 190.169954,16.7762044 189.743848,17.0200195 C189.317741,17.2638347 188.86543,17.3857422 188.386914,17.3857422 Z M196.402734,22.0820312 C197.036198,22.0820312 197.609277,21.9715169 198.121973,21.7504883 C198.634668,21.5294597 199.042546,21.2104492 199.345605,20.793457 C199.648665,20.3764648 199.800195,19.8968099 199.800195,19.3544922 C199.800195,18.7210286 199.631575,18.1798503 199.294336,17.730957 C198.957096,17.2820638 198.515039,16.9733073 197.968164,16.8046875 L197.968164,16.7841797 C198.100325,16.7386067 198.231348,16.6725261 198.36123,16.5859375 C198.491113,16.4993489 198.61416,16.3922526 198.730371,16.2646484 C198.846582,16.1370442 198.947982,15.9969075 199.03457,15.8442383 C199.121159,15.691569 199.190658,15.5206706 199.243066,15.331543 C199.295475,15.1424153 199.32168,14.9475911 199.32168,14.7470703 C199.32168,14.0179036 199.0528,13.4277344 198.515039,12.9765625 C197.977279,12.5253906 197.273177,12.2998047 196.402734,12.2998047 C195.992578,12.2998047 195.610905,12.3556315 195.257715,12.4672852 C194.904525,12.5789388 194.598047,12.7373047 194.338281,12.9423828 C194.078516,13.1474609 193.874577,13.404948 193.726465,13.7148438 C193.578353,14.0247395 193.504297,14.3688151 193.504297,14.7470703 C193.504297,15.2347005 193.639876,15.6653645 193.911035,16.0390625 C194.182194,16.4127605 194.495508,16.6611328 194.850977,16.7841797 L194.850977,16.8046875 C194.313216,16.9733073 193.875716,17.2832031 193.538477,17.734375 C193.201237,18.1855469 193.032617,18.7255859 193.032617,19.3544922 C193.032617,19.8694661 193.175033,20.3343099 193.459863,20.7490234 C193.744694,21.163737 194.144596,21.4895833 194.65957,21.7265625 C195.174544,21.9635417 195.755599,22.0820312 196.402734,22.0820312 Z M196.40957,16.2851562 C195.885482,16.2851562 195.459375,16.1529948 195.13125,15.8886719 C194.803125,15.6243489 194.639062,15.2734375 194.639062,14.8359375 C194.639062,14.4212239 194.804264,14.0703125 195.134668,13.7832031 C195.465072,13.4960938 195.890039,13.3525391 196.40957,13.3525391 C196.924544,13.3525391 197.350651,13.4915364 197.687891,13.7695312 C198.02513,14.0475261 198.19375,14.4029948 198.19375,14.8359375 C198.19375,15.2734375 198.028548,15.6243489 197.698145,15.8886719 C197.367741,16.1529948 196.938216,16.2851562 196.40957,16.2851562 Z M196.402734,21.015625 C195.7875,21.015625 195.271387,20.8458659 194.854395,20.5063477 C194.437402,20.1668294 194.228906,19.7395833 194.228906,19.2246094 C194.228906,18.6777344 194.428288,18.2333984 194.827051,17.8916016 C195.225814,17.5498047 195.751042,17.3789062 196.402734,17.3789062 C197.058984,17.3789062 197.586491,17.5498047 197.985254,17.8916016 C198.384017,18.2333984 198.583398,18.6777344 198.583398,19.2246094 C198.583398,19.7167969 198.380599,20.1383464 197.975,20.4892578 C197.569401,20.8401692 197.045312,21.015625 196.402734,21.015625 Z M204.028906,22 L204.028906,12.3886719 L203.058203,12.3886719 L200.358008,14.3710938 L200.932227,15.2460938 L202.853125,13.8037109 L202.853125,22 L204.028906,22 Z" id="#64937981" fill="#000000" fill-rule="nonzero"></path>
                        </g>
                    </g>
                    <g id="Group-26" transform="translate(107.000000, 0.000000)">
                        <g id="Rectangle-Copy-12" stroke-linejoin="round">
                            <use fill="black" fill-opacity="1" filter="url(#filter-4)" xlink:href="#path-3"></use>
                            <use stroke="#E4E8EC" stroke-width="1" fill="#FFFFFF" fill-rule="evenodd" xlink:href="#path-3"></use>
                        </g>
                        <g id="Group-25" transform="translate(40.000000, 20.000000)" fill-rule="nonzero">
                            <path d="M33.2910156,16.1494141 C34.1289062,16.1494141 34.8862305,15.9780273 35.5629883,15.6352539 C36.2397461,15.2924805 36.7729493,14.809082 37.1625977,14.1850586 C37.552246,13.5610352 37.7470703,12.8535156 37.7470703,12.0625 C37.7470703,11.4414062 37.647461,10.8759766 37.4482422,10.3662109 C37.2490234,9.85644531 36.9765625,9.43749996 36.6308594,9.109375 C36.2851563,8.78125004 35.8837891,8.52783199 35.4267578,8.34912109 C34.9697266,8.1704102 34.4804687,8.08105469 33.9589844,8.08105469 C33.1269531,8.08105469 32.3710937,8.26855464 31.6914062,8.64355469 L31.65625,8.63476562 C32.0019531,7.7734375 32.5424804,7.06298833 33.277832,6.50341797 C34.0131836,5.94384761 34.9492188,5.50292973 36.0859375,5.18066406 L35.3740234,3.21191406 C34.4189453,3.38769531 33.5356445,3.71728516 32.7241211,4.20068359 C31.9125977,4.68408203 31.2226563,5.27294922 30.6542969,5.96728516 C30.0859375,6.66162109 29.6435547,7.45996089 29.3271484,8.36230469 C29.0107422,9.26464848 28.8525391,10.2109375 28.8525391,11.2011719 C28.8525391,11.9277344 28.965332,12.6015625 29.190918,13.2226562 C29.416504,13.84375 29.7270508,14.3666993 30.1225586,14.7915039 C30.5180664,15.2163085 30.9882812,15.5488282 31.5332031,15.7890625 C32.078125,16.0292968 32.6640625,16.1494141 33.2910156,16.1494141 Z M33.3613281,13.9521484 C32.7519532,13.9521484 32.2363281,13.7163086 31.8144531,13.2446289 C31.3925781,12.7729492 31.1816406,12.1591797 31.1816406,11.4033203 L31.1816406,11.2363281 C31.4453125,10.9140625 31.7675782,10.6503906 32.1484375,10.4453125 C32.5292968,10.2402344 32.9248046,10.1376953 33.3349609,10.1376953 C33.9443359,10.1376953 34.4350586,10.3120117 34.8071289,10.6606445 C35.1791992,11.0092774 35.3652344,11.4560547 35.3652344,12.0009766 C35.3652344,12.540039 35.1762695,13 34.7983398,13.3808594 C34.4204102,13.7617187 33.9414062,13.9521484 33.3613281,13.9521484 Z M44.0927734,16.1494141 C45.0771484,16.1494141 45.9355469,15.8842773 46.6679688,15.3540039 C47.4003906,14.8237305 47.958496,14.0839844 48.3422852,13.1347656 C48.7260743,12.1855469 48.9179688,11.0810546 48.9179688,9.82128906 C48.9179688,8.83691406 48.8007813,7.94628911 48.5664062,7.14941406 C48.3320312,6.35253902 48.0039062,5.68750004 47.5820312,5.15429688 C47.1601562,4.62109371 46.6518555,4.21093754 46.0571289,3.92382812 C45.4624023,3.63671871 44.8076171,3.49316406 44.0927734,3.49316406 C43.3544922,3.49316406 42.6835938,3.64550777 42.0800781,3.95019531 C41.4765625,4.25488286 40.9697266,4.68408203 40.5595703,5.23779297 C40.149414,5.79150391 39.8330078,6.45947266 39.6103516,7.24169922 C39.3876954,8.02392578 39.2763672,8.88378902 39.2763672,9.82128906 C39.2763672,10.8056641 39.3935546,11.696289 39.6279297,12.4931641 C39.8623047,13.2900391 40.1904297,13.9550781 40.6123047,14.4882812 C41.0341797,15.0214844 41.5410157,15.4316406 42.1328125,15.71875 C42.7246093,16.0058594 43.3779297,16.1494141 44.0927734,16.1494141 Z M44.1015625,13.8730469 C43.6210937,13.8730469 43.2050781,13.7089843 42.8535156,13.3808594 C42.5019531,13.0527344 42.2353516,12.5839843 42.0537109,11.9746094 C41.8720703,11.3652344 41.78125,10.6474609 41.78125,9.82128906 C41.78125,8.52636723 41.987793,7.52734375 42.4008789,6.82421875 C42.8139648,6.12109375 43.3808594,5.76953125 44.1015625,5.76953125 C44.828125,5.76953125 45.3950196,6.12988281 45.8022461,6.85058594 C46.2094726,7.57128906 46.4130859,8.56152348 46.4130859,9.82128906 C46.4130859,11.1162109 46.2094726,12.1152344 45.8022461,12.8183594 C45.3950196,13.5214844 44.828125,13.8730469 44.1015625,13.8730469 Z M63.8242188,16.0087891 L63.8242188,11.6054688 C63.8242188,11.0957031 63.9047852,10.6547851 64.065918,10.2827148 C64.2270507,9.91064458 64.4423828,9.63378911 64.7119141,9.45214844 C64.9814454,9.27050777 65.2832031,9.1796875 65.6171875,9.1796875 C66.6425782,9.1796875 67.1552734,9.94140629 67.1552734,11.4648438 L67.1552734,16.0087891 L69.5107422,16.0087891 L69.5107422,10.8935547 C69.5107422,9.59277344 69.2397461,8.62890621 68.6977539,8.00195312 C68.1557617,7.37500004 67.3925781,7.06152344 66.4082031,7.06152344 C65.7753906,7.06152344 65.1967774,7.18310542 64.6723633,7.42626953 C64.1479492,7.66943364 63.7070313,8.01953125 63.3496094,8.4765625 L63.3232422,8.4765625 C62.8076171,7.53320317 61.9375,7.06152344 60.7128906,7.06152344 C60.2207031,7.06152344 59.7460938,7.17431636 59.2890625,7.39990234 C58.8320312,7.62548833 58.430664,7.94921875 58.0849609,8.37109375 L58.0585938,8.37109375 L58.0585938,7.2109375 L55.703125,7.2109375 L55.703125,16 L58.0585938,16 L58.0585938,11.6054688 C58.0585938,11.0957031 58.140625,10.6547851 58.3046875,10.2827148 C58.46875,9.91064458 58.6884766,9.63378911 58.9638672,9.45214844 C59.2392578,9.27050777 59.555664,9.1796875 59.9130859,9.1796875 C60.9501953,9.1796875 61.46875,9.94140629 61.46875,11.4648438 L61.46875,16.0087891 L63.8242188,16.0087891 Z M73.0527344,5.97167969 C73.4511718,5.97167969 73.7939453,5.83105469 74.0810547,5.54980469 C74.3681641,5.26855469 74.5117188,4.92871089 74.5117188,4.53027344 C74.5117188,4.13769527 74.3681641,3.80078125 74.0810547,3.51953125 C73.7939453,3.23828125 73.4511718,3.09765625 73.0527344,3.09765625 C72.6484375,3.09765625 72.3041992,3.23828125 72.0200195,3.51953125 C71.7358399,3.80078125 71.59375,4.13769527 71.59375,4.53027344 C71.59375,4.79394531 71.6582031,5.03564453 71.7871094,5.25537109 C71.9160157,5.47509766 72.0932617,5.64941402 72.3188477,5.77832031 C72.5444336,5.90722661 72.7890625,5.97167969 73.0527344,5.97167969 Z M74.2304688,16 L74.2304688,7.2109375 L71.875,7.2109375 L71.875,16 L74.2304688,16 Z M85.1201172,16.0087891 L85.1201172,10.7880859 C85.1201172,10.1259766 85.0439453,9.55175777 84.8916016,9.06542969 C84.7392579,8.57910161 84.5180664,8.19238286 84.2280273,7.90527344 C83.9379883,7.61816402 83.6040039,7.40576176 83.2260742,7.26806641 C82.8481445,7.13037105 82.4160156,7.06152344 81.9296875,7.06152344 C81.3847656,7.06152344 80.8676758,7.17138672 80.378418,7.39111328 C79.8891601,7.61083984 79.4658204,7.92871098 79.1083984,8.34472656 L79.0820312,8.34472656 L79.0820312,7.2109375 L76.7265625,7.2109375 L76.7265625,16 L79.0820312,16 L79.0820312,11.5791016 C79.0820312,10.8115235 79.262207,10.2197265 79.6225586,9.80371094 C79.9829102,9.38769536 80.4677735,9.1796875 81.0771484,9.1796875 C81.6513671,9.1796875 82.0761719,9.34375004 82.3515625,9.671875 C82.6269531,9.99999996 82.7646484,10.5683594 82.7646484,11.3769531 L82.7646484,16.0087891 L85.1201172,16.0087891 Z" id="60min" fill="#2C2C2C"></path>
                            <g id="clock" fill="#000000">
                                <path d="M10,0 C4.47580645,0 0,4.47580645 0,10 C0,15.5241935 4.47580645,20 10,20 C15.5241935,20 20,15.5241935 20,10 C20,4.47580645 15.5241935,0 10,0 Z M10,18.0645161 C5.54435484,18.0645161 1.93548387,14.4556452 1.93548387,10 C1.93548387,5.54435484 5.54435484,1.93548387 10,1.93548387 C14.4556452,1.93548387 18.0645161,5.54435484 18.0645161,10 C18.0645161,14.4556452 14.4556452,18.0645161 10,18.0645161 Z M12.4919355,13.8548387 L9.06854839,11.3669355 C8.94354839,11.2741935 8.87096774,11.1290323 8.87096774,10.9758065 L8.87096774,4.35483871 C8.87096774,4.08870968 9.08870968,3.87096774 9.35483871,3.87096774 L10.6451613,3.87096774 C10.9112903,3.87096774 11.1290323,4.08870968 11.1290323,4.35483871 L11.1290323,10.0685484 L13.8225806,12.0282258 C14.0403226,12.1854839 14.0846774,12.4879032 13.9274194,12.7056452 L13.1693548,13.75 C13.0120968,13.9637097 12.7096774,14.0120968 12.4919355,13.8548387 Z" id="Shape"></path>
                            </g>
                        </g>
                    </g>
                </g>
            </g>
        </g>
    </g>
</svg>
