<?xml version="1.0" encoding="UTF-8"?>
<svg width="481px" height="305px" viewBox="0 0 481 305" version="1.1" xmlns="http://www.w3.org/2000/svg" xmlns:xlink="http://www.w3.org/1999/xlink">
    <defs>
        <polygon id="path-1" points="0.537151982 0.238804846 474.790791 0.238804846 474.790791 0.94511909 0.537151982 0.94511909"></polygon>
        <polygon id="path-3" points="0.251094714 0.264867841 193.776253 0.264867841 193.776253 249.185758 0.251094714 249.185758"></polygon>
        <polygon id="path-5" points="0.36841351 0.316781938 37.0564943 0.316781938 37.0564943 48.7356828 0.36841351 48.7356828"></polygon>
    </defs>
    <g id="Page-1" stroke="none" stroke-width="1" fill="none" fill-rule="evenodd">
        <g id="WORKSHOP" transform="translate(-165.000000, -3653.000000)">
            <g id="Group-22" transform="translate(165.000000, 905.000000)">
                <g id="Group-257" transform="translate(0.000000, 2748.000000)">
                    <polygon id="Fill-1" fill="#F5F5F5" points="3.73195257 250.397511 3.73195257 279.321079 46.0288747 279.321079 92.6809305 279.321079 92.6809305 250.397511"></polygon>
                    <polygon id="Fill-2" fill="#E0E0E0" points="46.0291573 242.31099 7.06314244e-05 242.31099 7.06314244e-05 250.397581 95.7911147 250.397581 95.7911147 242.31099"></polygon>
                    <polygon id="Fill-3" fill="#E0E0E0" points="47.8952395 279.32122 92.6805068 279.32122 92.6805068 250.397652 95.7911147 250.397652 95.7911147 242.31106 46.0291573 242.31106 46.0291573 249.648959"></polygon>
                    <polygon id="Fill-4" fill="#E0E0E0" points="16.1717709 259.415802 34.2103304 259.415802 34.2103304 255.062081 16.1717709 255.062081"></polygon>
                    <polygon id="Fill-5" fill="#FFFFFF" points="13.8508223 274.052046 37.0129853 274.052046 37.0129853 264.857953 13.8508223 264.857953"></polygon>
                    <polygon id="Fill-6" fill="#F5F5F5" points="17.416791 213.425704 17.416791 242.349272 59.7137132 242.349272 106.365769 242.349272 106.365769 213.425704"></polygon>
                    <polygon id="Fill-7" fill="#E0E0E0" points="13.6848385 205.339677 13.6848385 213.425562 109.475883 213.425562 109.475883 205.339677 59.7132188 205.339677"></polygon>
                    <polygon id="Fill-8" fill="#E0E0E0" points="61.580078 242.349413 106.365345 242.349413 106.365345 213.425845 109.475953 213.425845 109.475953 205.339959 59.7132894 205.339959 59.7132894 212.677152"></polygon>
                    <polygon id="Fill-9" fill="#E0E0E0" points="29.8566094 222.443783 47.8951689 222.443783 47.8951689 218.090062 29.8566094 218.090062"></polygon>
                    <polygon id="Fill-10" fill="#FFFFFF" points="27.5356608 237.080733 50.6978238 237.080733 50.6978238 227.88664 27.5356608 227.88664"></polygon>
                    <polygon id="Fill-11" fill="#E0E0E0" points="460.874494 227.447172 460.874494 279.636025 385.916895 279.636025 383.216655 227.812336"></polygon>
                    <polygon id="Fill-12" fill="#FFFFFF" points="383.216443 279.525981 458.174043 279.525981 458.174043 227.811771 383.216443 227.811771"></polygon>
                    <path d="M383.57172,279.169999 L457.818767,279.169999 L457.818767,228.167047 L383.57172,228.167047 L383.57172,279.169999 Z M382.861167,279.881257 L458.530025,279.881257 L458.530025,227.455789 L382.861167,227.455789 L382.861167,279.881257 Z" id="Fill-13" fill="#E0E0E0"></path>
                    <polygon id="Fill-14" fill="#FFFFFF" points="391.334819 273.10064 450.055667 273.10064 450.055667 234.237112 391.334819 234.237112"></polygon>
                    <g id="Group-29" transform="translate(383.000000, 227.441446)">
                        <path d="M67.0556667,6.79573583 C67.0556667,6.79573583 66.9539574,6.80209266 66.7660778,6.80562423 C66.5676035,6.80844949 66.2907283,6.81056843 65.9312144,6.81551263 C65.1867592,6.82045683 64.1068047,6.82751997 62.7061836,6.83670206 C59.8858708,6.84659046 55.7850103,6.86212937 50.6056079,6.88190617 C40.2503348,6.90168297 25.5929016,6.93064185 8.33481938,6.96525125 L8.50504112,6.79573583 C8.509279,18.6702909 8.5142232,31.8261 8.51987372,45.6550266 L8.51987372,45.6592645 L8.33481938,45.4742101 C30.4862467,45.4883364 50.9086167,45.5017564 67.0556667,45.5116448 L66.908047,45.6592645 C66.9405374,33.8320325 66.9673774,24.1357505 66.9850352,17.38268 C67.0019868,14.0079106 67.0139941,11.3712395 67.0231762,9.56307504 C67.0302394,8.67029383 67.0358899,7.98516902 67.0401278,7.5084069 C67.045072,7.04294581 67.0556667,6.79573583 67.0556667,6.79573583 C67.0556667,6.79573583 67.0662614,7.02175639 67.0712056,7.47732907 C67.0747372,7.94702805 67.081094,8.62367709 67.0881571,9.50445095 C67.0973392,11.304846 67.1093465,13.930216 67.1255918,17.2908592 C67.1439559,24.0651191 67.1707959,33.7945978 67.2032863,45.6592645 L67.2032863,45.8068841 L67.0556667,45.8068841 C50.9086167,45.8174789 30.4862467,45.8308988 8.33481938,45.8443188 L8.14976505,45.8450251 L8.14976505,45.6592645 L8.14976505,45.6550266 C8.15470925,31.8261 8.16035977,18.6702909 8.16530396,6.79573583 L8.16530396,6.6255141 L8.33481938,6.6255141 C25.6381057,6.66012349 40.3343862,6.68908238 50.7164993,6.70885918 C55.8796564,6.72863598 59.9678032,6.74417489 62.7789339,6.7547696 C64.1654288,6.76395169 65.2340822,6.77101483 65.9700617,6.77595903 C66.3218062,6.78019692 66.5916182,6.78302217 66.7858546,6.78514112 C66.9680837,6.78867269 67.0556667,6.79573583 67.0556667,6.79573583" id="Fill-15" fill="#E0E0E0"></path>
                        <path d="M0.216514097,0.225035683 C0.247591924,0.184775771 0.737774009,0.506148752 1.50483128,1.05989912 C2.27188855,1.61364949 3.31652731,2.39907093 4.44309853,3.30103421 C5.57108238,4.20441013 6.56274758,5.05763774 7.26129236,5.69685213 C7.95983715,6.33606652 8.36808678,6.75773612 8.33489001,6.79587709 C8.26567122,6.87427797 6.46315727,5.3881928 4.21213377,3.59062305 C1.95969765,1.79517225 0.150120558,0.309793392 0.216514097,0.225035683" id="Fill-17" fill="#E0E0E0"></path>
                        <path d="M75.1741132,0.370607048 C75.2376815,0.450420558 73.4711896,1.95416358 71.2300545,3.72771865 C68.9875068,5.50268634 67.1193056,6.87576123 67.0557373,6.79594772 C66.992169,6.71472159 68.7579546,5.21168488 71.0005023,3.43742349 C73.2416374,1.66386843 75.1105449,0.290087225 75.1741132,0.370607048" id="Fill-19" fill="#E0E0E0"></path>
                        <path d="M75.1147828,52.0922333 C72.3290794,49.8341467 69.5426698,47.5760601 66.7569664,45.3179734" id="Fill-21" fill="#FFFFFF"></path>
                        <path d="M66.7569664,45.3181147 C66.8219473,45.2390075 68.7445347,46.6904833 71.0520633,48.5615097 C73.3610046,50.4318298 75.1790574,52.0132674 75.1147828,52.0923746 C75.0498019,52.1714818 73.1279209,50.7192997 70.8189796,48.8489796 C68.511451,46.9786595 66.6926918,45.3972219 66.7569664,45.3181147" id="Fill-23" fill="#E0E0E0"></path>
                        <path d="M0.216514097,52.0846758 C0.152945815,52.0041559 1.90036725,50.5166581 4.11890029,48.7621736 C6.33813965,47.0069827 8.18868297,45.6494467 8.25225125,45.7292602 C8.31581953,45.8090737 6.56839809,47.2972778 4.34915874,49.0524687 C2.1306257,50.8069533 0.280082379,52.1644893 0.216514097,52.0846758" id="Fill-25" fill="#E0E0E0"></path>
                        <polygon id="Fill-27" fill="#E0E0E0" points="20.2574038 31.9164376 57.2061145 31.9164376 57.2061145 18.903304 20.2574038 18.903304"></polygon>
                    </g>
                    <g id="Group-32" transform="translate(5.650514, 278.729258)">
                        <mask id="mask-2" fill="white">
                            <use xlink:href="#path-1"></use>
                        </mask>
                        <g id="Clip-31"></g>
                        <path d="M474.791145,0.591961968 C474.791145,0.693671219 368.617281,0.776309985 237.675802,0.776309985 C106.688413,0.776309985 0.537151982,0.693671219 0.537151982,0.591961968 C0.537151982,0.490252717 106.688413,0.40761395 237.675802,0.40761395 C368.617281,0.40761395 474.791145,0.490252717 474.791145,0.591961968" id="Fill-30" fill="#263238" mask="url(#mask-2)"></path>
                    </g>
                    <g id="Group-41" transform="translate(43.000000, 258.441446)">
                        <path d="M391.308391,21.6764965 L10.2758708,21.6764965 C4.92342144,21.6764965 0.58453304,17.3369018 0.58453304,11.9844524 L0.58453304,0.292126432 L401.000435,0.292126432 L401.000435,11.9844524 C401.000435,17.3369018 396.66084,21.6764965 391.308391,21.6764965" id="Fill-35" fill="#455A64"></path>
                        <polygon id="Fill-39" fill="#263238" points="164.398089 0.291843906 169.367009 8.19479398 239.28435 8.19479398 243.898701 0.291843906"></polygon>
                        <polygon id="Fill-40" fill="#263238" points="16.0987254 1.39743759 385.682598 1.39743759 385.682598 0.218599119 16.0987254 0.218599119"></polygon>
                    </g>
                    <g id="Group-110" transform="translate(129.000000, 0.441446)">
                        <path d="M38.6920683,31.9653812 L0.297532305,31.9653812 L0.297532305,18.445114 C0.297532305,8.90068957 8.02955433,0.827517768 17.574685,0.827517768 L38.6920683,1.16301703 L38.6920683,31.9653812 Z" id="Fill-42" fill="#E0E0E0" opacity="0.300000012"></path>
                        <path d="M16.7518289,0.808235389 C16.7518289,0.808235389 38.6030727,-1.17509501 38.6030727,27.3204468 L38.6030727,249.00141 L210.093346,249.00141 L210.093346,19.2387993 C210.093346,8.82419574 201.636645,0.3872721 191.221336,0.412642088 L16.7518289,0.808235389 Z" id="Fill-44" fill="#FFFFFF"></path>
                        <g id="Group-48" transform="translate(16.500734, 0.000000)">
                            <mask id="mask-4" fill="white">
                                <use xlink:href="#path-3"></use>
                            </mask>
                            <g id="Clip-47"></g>
                            <path d="M0.251094714,0.808235389 C1.2667746,0.805410132 48.772058,0.651433627 127.12491,0.398573128 C136.910187,0.370320558 147.162338,0.34065536 157.844635,0.309577533 C163.185783,0.295451248 168.634998,0.280618649 174.186628,0.264834178 C176.973037,0.233295595 179.835729,0.695931424 182.434259,1.89030881 C185.03844,3.05290206 187.398236,4.81444978 189.281269,7.02309442 C191.160065,9.23809589 192.501356,11.9270342 193.20202,14.7911385 C193.420271,15.4988653 193.471126,16.2426142 193.600381,16.9715305 C193.703503,17.705391 193.693615,18.4512589 193.746588,19.1935952 C193.747294,20.6697919 193.748707,22.1516392 193.75012,23.6398433 C193.751532,29.5912471 193.752239,35.6372971 193.753651,41.7723426 C193.756477,54.0424336 193.759302,66.670626 193.761421,79.6208977 C193.766365,131.422691 193.771309,188.372808 193.776253,248.150301 L193.776253,249.00141 L193.776253,249.185758 L193.592612,249.185758 C132.56918,249.180108 74.5186248,249.175163 22.1023385,249.170219 L21.9328231,249.170219 L21.9328231,249.00141 C21.9603693,172.246948 21.9836777,107.076039 21.9999229,61.0893308 C22.0083987,49.5933602 22.0161681,39.2967112 22.022525,30.3180445 C22.0232313,28.0733778 22.0493649,25.9106436 21.8982137,23.8418492 C21.7943855,21.7674043 21.453942,19.8003191 21.0774765,17.9363558 C20.640268,16.0822809 20.0865176,14.3461605 19.3985675,12.7583661 C18.6851902,11.1832853 17.8559772,9.75864949 16.9363561,8.50917959 C15.0603855,6.03001659 12.8467966,4.29742775 10.7469244,3.20052173 C8.65129001,2.0781884 6.69833113,1.5329138 5.12325037,1.21012819 C3.53969383,0.899349927 2.31141336,0.81671116 1.49138253,0.797640675 C0.669232746,0.777863877 0.251094714,0.808235389 0.251094714,0.808235389 C0.251094714,0.808235389 0.668526432,0.758793392 1.49138253,0.769388106 C2.31353231,0.779276505 3.54463803,0.852733186 5.1345514,1.155742 C6.71528267,1.47005184 8.67671733,2.0089696 10.7857717,3.12777137 C12.8976512,4.22185213 15.1296043,5.95655991 17.0225264,8.44419868 C17.952036,9.69790646 18.7890184,11.1274865 19.5101652,12.7096304 C20.2044721,14.3037816 20.7652856,16.0462589 21.2081446,17.9066906 C21.5895543,19.7770107 21.9356483,21.751159 22.0437144,23.8312545 C22.1998098,25.9078184 22.1779141,28.0754968 22.1807394,30.3180445 C22.1878025,39.2967112 22.195572,49.5933602 22.2040477,61.0893308 C22.220293,107.076039 22.2436013,172.246948 22.2704413,249.00141 L22.1023385,248.833307 C74.5186248,248.828363 132.56918,248.822713 193.592612,248.817768 L193.408264,249.00141 L193.408264,248.150301 C193.413914,188.372808 193.418858,131.422691 193.423096,79.6208977 C193.425921,66.670626 193.42804,54.0424336 193.430159,41.7723426 C193.431572,35.6372971 193.433691,29.5912471 193.435104,23.6398433 C193.389899,20.6669667 193.64841,17.6863206 192.900424,14.8638888 C192.21318,12.0464013 190.895904,9.39984185 189.048186,7.21944978 C187.19623,5.04541454 184.874575,3.31000044 182.312773,2.16506505 C179.752384,0.987639207 176.948316,0.530653891 174.186628,0.561025404 C168.624403,0.571620117 163.166007,0.582214831 157.81497,0.592103231 C147.111484,0.609761087 136.839556,0.626712628 127.035208,0.642957856 C48.7374486,0.745373421 1.26606828,0.806822761 0.251094714,0.808235389" id="Fill-46" fill="#263238" mask="url(#mask-4)"></path>
                        </g>
                        <path d="M112.006286,68.080853 C112.006286,68.1825623 101.577556,68.2644947 88.7162802,68.2644947 C75.8507662,68.2644947 65.4241554,68.1825623 65.4241554,68.080853 C65.4241554,67.9791438 75.8507662,67.8972113 88.7162802,67.8972113 C101.577556,67.8972113 112.006286,67.9791438 112.006286,68.080853" id="Fill-49" fill="#263238"></path>
                        <path d="M122.448224,73.6509884 C122.448224,73.7526977 109.6823,73.8346301 93.9378495,73.8346301 C78.1877482,73.8346301 65.4246498,73.7526977 65.4246498,73.6509884 C65.4246498,73.5492791 78.1877482,73.4673467 93.9378495,73.4673467 C109.6823,73.4673467 122.448224,73.5492791 122.448224,73.6509884" id="Fill-51" fill="#263238"></path>
                        <path d="M126.190842,95.5791498 C126.190842,95.680859 113.008899,95.7627915 96.7523705,95.7627915 C80.4901913,95.7627915 67.3110739,95.680859 67.3110739,95.5791498 C67.3110739,95.4774405 80.4901913,95.3955081 96.7523705,95.3955081 C113.008899,95.3955081 126.190842,95.4774405 126.190842,95.5791498" id="Fill-53" fill="#263238"></path>
                        <path d="M164.653961,116.950029 C164.653961,117.051738 142.61625,117.133671 115.437278,117.133671 C88.2498302,117.133671 66.2163574,117.051738 66.2163574,116.950029 C66.2163574,116.84832 88.2498302,116.766388 115.437278,116.766388 C142.61625,116.766388 164.653961,116.84832 164.653961,116.950029" id="Fill-55" fill="#263238"></path>
                        <path d="M164.653961,123.326846 C164.653961,123.428555 142.61625,123.510488 115.437278,123.510488 C88.2498302,123.510488 66.2163574,123.428555 66.2163574,123.326846 C66.2163574,123.225137 88.2498302,123.143204 115.437278,123.143204 C142.61625,123.143204 164.653961,123.225137 164.653961,123.326846" id="Fill-57" fill="#263238"></path>
                        <path d="M164.653961,129.703663 C164.653961,129.805372 142.61625,129.887305 115.437278,129.887305 C88.2498302,129.887305 66.2163574,129.805372 66.2163574,129.703663 C66.2163574,129.601954 88.2498302,129.520021 115.437278,129.520021 C142.61625,129.520021 164.653961,129.601954 164.653961,129.703663" id="Fill-59" fill="#263238"></path>
                        <path d="M164.653961,136.08048 C164.653961,136.182189 142.61625,136.264122 115.437278,136.264122 C88.2498302,136.264122 66.2163574,136.182189 66.2163574,136.08048 C66.2163574,135.978771 88.2498302,135.896838 115.437278,135.896838 C142.61625,135.896838 164.653961,135.978771 164.653961,136.08048" id="Fill-61" fill="#263238"></path>
                        <path d="M164.653961,142.457367 C164.653961,142.559077 142.61625,142.641009 115.437278,142.641009 C88.2498302,142.641009 66.2163574,142.559077 66.2163574,142.457367 C66.2163574,142.355658 88.2498302,142.273019 115.437278,142.273019 C142.61625,142.273019 164.653961,142.355658 164.653961,142.457367" id="Fill-63" fill="#263238"></path>
                        <path d="M103.544995,148.833831 C103.544995,148.936247 95.1878844,149.018179 84.881347,149.018179 C74.571278,149.018179 66.2162868,148.936247 66.2162868,148.833831 C66.2162868,148.732122 74.571278,148.650189 84.881347,148.650189 C95.1878844,148.650189 103.544995,148.732122 103.544995,148.833831" id="Fill-65" fill="#263238"></path>
                        <path d="M182.252487,116.058166 L164.740838,156.747517 C164.371435,157.606395 165.245852,158.472337 166.101199,158.095165 L179.598158,152.137404 C180.152614,151.892313 180.797479,152.177664 180.989597,152.75331 L185.543205,166.42261 C185.849745,167.342231 187.141594,167.366246 187.482037,166.458632 L203.940572,122.568971 L182.252487,116.058166 Z" id="Fill-67" fill="#FF725E"></path>
                        <path d="M205.071098,122.82953 L213.45858,166.32648 C213.635865,167.243276 214.846488,167.469297 215.340907,166.676106 L223.155568,154.16163 C223.476941,153.646727 224.170542,153.521003 224.652954,153.888993 L236.102308,162.635282 C236.872191,163.223642 237.954971,162.517328 237.725419,161.575104 L226.668069,116.024193 L205.071098,122.82953 Z" id="Fill-69" fill="#FF725E"></path>
                        <path d="M182.252487,116.058166 L164.740838,156.747517 C164.371435,157.606395 165.245852,158.472337 166.101199,158.095165 L179.598158,152.137404 C180.152614,151.892313 180.797479,152.177664 180.989597,152.75331 L185.543205,166.42261 C185.849745,167.342231 187.141594,167.366246 187.482037,166.458632 L203.940572,122.568971 L182.252487,116.058166 Z" id="Fill-71" fill="#D85600"></path>
                        <path d="M205.071098,122.82953 L213.45858,166.32648 C213.635865,167.243276 214.846488,167.469297 215.340907,166.676106 L223.155568,154.16163 C223.476941,153.646727 224.170542,153.521003 224.652954,153.888993 L236.102308,162.635282 C236.872191,163.223642 237.954971,162.517328 237.725419,161.575104 L226.668069,116.024193 L205.071098,122.82953 Z" id="Fill-73" fill="#D85600"></path>
                        <polygon id="Fill-75" fill="#FA6400" points="205.924326 44.7317993 211.673018 40.5066275 216.189897 46.0285922 222.808768 43.3657875 225.81131 49.8377449 232.884341 48.9047038 234.183253 55.9198169 241.266172 56.7751634 240.778815 63.8933984 247.426645 66.4834527 245.184803 73.2563 250.979405 77.4179035 247.123636 83.4208683 251.701965 88.8926847 246.473827 93.7478888 249.547 100.186649 243.276342 103.589672 244.651536 110.589952 237.731775 112.326779 237.322819 119.449252 230.189046 119.409698 228.020661 126.207266 221.120677 124.394864 217.330595 130.439501 211.098078 126.968673 205.924326 131.881089 200.750574 126.968673 194.517351 130.439501 190.727269 124.394864 183.827285 126.207266 181.659606 119.409698 174.525126 119.449252 174.11617 112.326779 167.19641 110.589952 168.571604 103.589672 162.300946 100.186649 165.374119 93.7478888 160.145981 88.8926847 164.72431 83.4208683 160.86854 77.4179035 166.663142 73.2563 164.421301 66.4834527 171.069131 63.8933984 170.58248 56.7751634 177.664693 55.9198169 178.963605 48.9047038 186.036636 49.8377449 189.039178 43.3657875 195.658048 46.0285922 200.174928 40.5066275"></polygon>
                        <path d="M238.235448,86.1936461 C238.235448,104.038675 223.769426,118.505404 205.924397,118.505404 C188.078661,118.505404 173.612639,104.038675 173.612639,86.1936461 C173.612639,68.3486167 188.078661,53.8818884 205.924397,53.8818884 C223.769426,53.8818884 238.235448,68.3486167 238.235448,86.1936461" id="Fill-77" fill="#FFFFFF"></path>
                        <path d="M212.973695,78.540025 L221.645115,79.809978 C223.069751,80.0183407 223.636921,81.77 222.60429,82.7736725 L216.321625,88.8847034 C215.911963,89.2830646 215.724789,89.8572981 215.820142,90.4209369 L217.292101,99.0605727 C217.534366,100.480264 216.044043,101.560219 214.769852,100.88922 L207.016641,96.8017797 C206.511626,96.5354993 205.907021,96.534793 205.400594,96.8003671 L197.638907,100.87015 C196.363303,101.539029 194.875805,100.454837 195.120896,99.036558 L196.611926,90.3997474 C196.709397,89.836815 196.52293,89.2611689 196.113974,88.8621013 L189.844729,82.7369442 C188.814923,81.7311527 189.385625,79.980906 190.810261,79.7760749 L199.484506,78.5251924 C200.05097,78.4432599 200.539739,78.0886902 200.794012,77.575906 L204.681566,69.7216916 C205.320074,68.4312555 207.161435,68.4333744 207.796412,69.7252232 L211.666308,77.5886197 C211.919168,78.1014038 212.407938,78.4573862 212.973695,78.540025" id="Fill-79" fill="#FA6400"></path>
                        <path d="M81.7406501,35.138286 C81.7406501,32.8060364 83.5247999,31.1518485 85.9566398,31.1518485 C87.3692683,31.1518485 88.5071405,31.6667515 89.2523021,32.5976737 L87.8728703,33.845731 C87.3904577,33.265847 86.7992727,32.9480056 86.0654122,32.9480056 C84.8067602,32.9480056 83.9309305,33.8245416 83.9309305,35.138286 C83.9309305,36.4520305 84.8067602,37.3285665 86.0654122,37.3285665 C86.7992727,37.3285665 87.3904577,37.0107251 87.8728703,36.4301348 L89.2523021,37.6788984 C88.5071405,38.6091142 87.3692683,39.1240173 85.9566398,39.1240173 C83.5247999,39.1240173 81.7406501,37.4705357 81.7406501,35.138286" id="Fill-81" fill="#263238"></path>
                        <polygon id="Fill-83" fill="#263238" points="96.3704664 37.2951579 96.3704664 38.9705352 90.2163504 38.9705352 90.2163504 31.3056131 96.2284972 31.3056131 96.2284972 32.9809905 92.3628394 32.9809905 92.3628394 34.2728392 95.7679803 34.2728392 95.7679803 35.8938304 92.3628394 35.8938304 92.3628394 37.2951579"></polygon>
                        <path d="M100.949078,33.0138341 L99.744812,33.0138341 L99.744812,35.2585007 L100.949078,35.2585007 C101.846803,35.2585007 102.295313,34.8424816 102.295313,34.1418179 C102.295313,33.4298532 101.846803,33.0138341 100.949078,33.0138341 L100.949078,33.0138341 Z M100.927182,36.9338781 L99.744812,36.9338781 L99.744812,38.9708884 L97.5764273,38.9708884 L97.5764273,31.3059662 L101.080452,31.3059662 C103.171142,31.3059662 104.485593,32.3894523 104.485593,34.1418179 C104.485593,35.2690954 103.9382,36.1018399 102.985382,36.5616505 L104.63957,38.9708884 L102.317209,38.9708884 L100.927182,36.9338781 Z" id="Fill-85" fill="#263238"></path>
                        <polygon id="Fill-87" fill="#263238" points="107.202431 33.0248526 104.847579 33.0248526 104.847579 31.3056837 111.71366 31.3056837 111.71366 33.0248526 109.370109 33.0248526 109.370109 38.9706059 107.202431 38.9706059"></polygon>
                        <polygon id="Fill-89" fill="#263238" points="112.524862 38.9708884 114.693247 38.9708884 114.693247 31.3059662 112.524862 31.3059662"></polygon>
                        <polygon id="Fill-91" fill="#263238" points="118.405564 32.9810611 118.405564 34.6670332 121.789515 34.6670332 121.789515 36.3424106 118.405564 36.3424106 118.405564 38.9706059 116.237885 38.9706059 116.237885 31.3056837 122.249326 31.3056837 122.249326 32.9810611"></polygon>
                        <polygon id="Fill-92" fill="#263238" points="123.268608 38.9708884 125.436993 38.9708884 125.436993 31.3059662 123.268608 31.3059662"></polygon>
                        <path d="M126.586802,35.138286 C126.586802,32.8060364 128.370951,31.1518485 130.802791,31.1518485 C132.214714,31.1518485 133.353998,31.6667515 134.098454,32.5976737 L132.719022,33.845731 C132.236609,33.265847 131.645424,32.9480056 130.911564,32.9480056 C129.652912,32.9480056 128.777082,33.8245416 128.777082,35.138286 C128.777082,36.4520305 129.652912,37.3285665 130.911564,37.3285665 C131.645424,37.3285665 132.236609,37.0107251 132.719022,36.4301348 L134.098454,37.6788984 C133.353998,38.6091142 132.214714,39.1240173 130.802791,39.1240173 C128.370951,39.1240173 126.586802,37.4705357 126.586802,35.138286" id="Fill-93" fill="#263238"></path>
                        <path d="M139.432186,35.8825294 L138.446171,33.4295 L137.460863,35.8825294 L139.432186,35.8825294 Z M140.067162,37.4816248 L136.826592,37.4816248 L136.2234,38.9705352 L134.01193,38.9705352 L137.395175,31.3056131 L139.53107,31.3056131 L142.92491,38.9705352 L140.669648,38.9705352 L140.067162,37.4816248 Z" id="Fill-94" fill="#263238"></path>
                        <polygon id="Fill-95" fill="#263238" points="144.788167 33.0248526 142.434021 33.0248526 142.434021 31.3056837 149.299396 31.3056837 149.299396 33.0248526 146.955845 33.0248526 146.955845 38.9706059 144.788167 38.9706059"></polygon>
                        <polygon id="Fill-96" fill="#263238" points="150.110668 38.9708884 152.278347 38.9708884 152.278347 31.3059662 150.110668 31.3059662"></polygon>
                        <path d="M159.758002,35.138286 C159.758002,33.8132405 158.848976,32.9480056 157.687795,32.9480056 C156.527321,32.9480056 155.619001,33.8132405 155.619001,35.138286 C155.619001,36.4626253 156.527321,37.3285665 157.687795,37.3285665 C158.848976,37.3285665 159.758002,36.4626253 159.758002,35.138286 M153.428721,35.138286 C153.428721,32.8385269 155.235472,31.1518485 157.687795,31.1518485 C160.140825,31.1518485 161.947577,32.8385269 161.947577,35.138286 C161.947577,37.4373389 160.140825,39.1240173 157.687795,39.1240173 C155.235472,39.1240173 153.428721,37.4373389 153.428721,35.138286" id="Fill-97" fill="#263238"></path>
                        <polygon id="Fill-98" fill="#263238" points="170.380333 31.3056131 170.380333 38.9705352 168.595477 38.9705352 165.212232 34.88592 165.212232 38.9705352 163.087638 38.9705352 163.087638 31.3056131 164.872495 31.3056131 168.25574 35.3902283 168.25574 31.3056131"></polygon>
                        <path d="M179.07266,175.753798 C179.07266,175.855507 169.29939,175.93744 157.246137,175.93744 C145.188647,175.93744 135.417495,175.855507 135.417495,175.753798 C135.417495,175.651382 145.188647,175.56945 157.246137,175.56945 C169.29939,175.56945 179.07266,175.651382 179.07266,175.753798" id="Fill-99" fill="#263238"></path>
                        <path d="M179.07266,181.913352 C179.07266,182.015062 169.29939,182.0977 157.246137,182.0977 C145.188647,182.0977 135.417495,182.015062 135.417495,181.913352 C135.417495,181.811643 145.188647,181.729711 157.246137,181.729711 C169.29939,181.729711 179.07266,181.811643 179.07266,181.913352" id="Fill-100" fill="#263238"></path>
                        <path d="M176.170838,208.673268 C176.164482,208.673268 176.153181,208.570146 176.136935,208.366728 C176.121396,208.148477 176.099501,207.850412 176.072661,207.469709 C176.060653,207.270528 176.045821,207.050158 176.030988,206.808599 C176.004855,206.567039 175.951175,206.30429 175.90809,206.018939 C175.816269,205.44965 175.729392,204.78854 175.509022,204.069512 C175.173523,202.610973 174.486985,200.887566 173.407737,199.061744 C172.319307,197.242985 170.750583,195.343706 168.617514,193.733309 C166.490095,192.137039 163.806808,190.78021 160.70962,190.232816 C157.634327,189.705199 154.162087,189.800552 150.85583,191.057791 C150.014609,191.32619 149.224244,191.742916 148.41057,192.133508 C147.639981,192.598969 146.829132,193.028408 146.111517,193.611117 C145.349404,194.134496 144.683349,194.789249 143.986217,195.419281 C143.355479,196.117826 142.692956,196.800126 142.149094,197.59261 C141.033824,199.142264 140.059816,200.863552 139.470044,202.75718 C138.859082,204.638801 138.52994,206.636964 138.5031,208.670443 C138.52994,210.704628 138.858376,212.703497 139.468631,214.585825 C140.057698,216.48016 141.032411,218.201447 142.147681,219.752514 C142.691543,220.544292 143.354066,221.227298 143.984805,221.926549 C144.682643,222.556581 145.348698,223.211334 146.110811,223.734713 C146.828426,224.317422 147.639275,224.747568 148.409863,225.213029 C149.223537,225.603621 150.014609,226.020346 150.85583,226.288746 C154.162793,227.545985 157.635034,227.641337 160.711032,227.113721 C163.80822,226.565621 166.491508,225.208791 168.61822,223.612521 C170.751996,222.001418 172.320013,220.102845 173.408443,218.284086 C174.486985,216.458264 175.173523,214.734857 175.509728,213.276318 C175.729392,212.557997 175.816269,211.896886 175.90809,211.326891 C175.951175,211.042246 176.004855,210.779497 176.030988,210.537938 C176.046527,210.296378 176.060653,210.075302 176.072661,209.876828 C176.099501,209.496124 176.121396,209.19806 176.136935,208.979809 C176.153181,208.777096 176.164482,208.673268 176.170838,208.673268 C176.177195,208.673268 176.178608,208.777096 176.17437,208.980515 C176.167307,209.200179 176.158125,209.49895 176.14753,209.881772 C176.139761,210.081659 176.131285,210.303442 176.122809,210.546414 C176.10162,210.790092 176.054297,211.054254 176.016156,211.341723 C175.935636,211.91737 175.859354,212.58413 175.648872,213.310928 C175.331737,214.786418 174.65862,216.53384 173.585022,218.390033 C172.501536,220.237751 170.928574,222.172346 168.775728,223.819471 C166.629946,225.451057 163.912755,226.843909 160.766831,227.413198 C157.64351,227.964123 154.111938,227.877953 150.739994,226.608 C149.883235,226.335362 149.076624,225.914399 148.247411,225.518157 C147.461283,225.046339 146.634189,224.60913 145.902448,224.017239 C145.124796,223.485384 144.443909,222.81933 143.732651,222.177997 C143.088492,221.468151 142.412549,220.771725 141.857386,219.965114 C140.718808,218.387208 139.723611,216.632017 139.121831,214.70166 C138.497449,212.782605 138.16195,210.744182 138.13511,208.670443 C138.16195,206.598117 138.498156,204.559694 139.123244,202.641345 C139.72573,200.7124 140.719514,198.95721 141.858799,197.38001 C142.413962,196.573399 143.089198,195.877679 143.733357,195.167834 C144.445322,194.525794 145.126209,193.860446 145.902448,193.328591 C146.634896,192.737406 147.46199,192.300198 148.247411,191.82838 C149.076624,191.432138 149.883235,191.011174 150.739994,190.738537 C154.111232,189.46929 157.642803,189.382414 160.765419,189.933339 C163.911342,190.502628 166.628533,191.894773 168.774316,193.526359 C170.927868,195.172778 172.50083,197.108079 173.584316,198.955797 C174.65862,200.811991 175.331031,202.559412 175.648872,204.034903 C175.858648,204.7617 175.935636,205.428461 176.016156,206.004107 C176.054297,206.291577 176.10162,206.555738 176.122809,206.800123 C176.131285,207.042389 176.139761,207.264878 176.14753,207.464765 C176.158125,207.847587 176.167307,208.146358 176.17437,208.366022 C176.178608,208.570146 176.177195,208.673268 176.170838,208.673268" id="Fill-101" fill="#FF725E"></path>
                        <path d="M169.410493,208.673268 C169.410493,215.392436 163.964104,220.839531 157.244936,220.839531 C150.526475,220.839531 145.07938,215.392436 145.07938,208.673268 C145.07938,201.954101 150.526475,196.507005 157.244936,196.507005 C163.964104,196.507005 169.410493,201.954101 169.410493,208.673268" id="Fill-102" fill="#FF725E"></path>
                        <path d="M184.296913,198.198557 C184.296913,198.198557 184.126691,198.301679 183.784835,198.485321 C183.430972,198.672494 182.925251,198.940187 182.26626,199.289107 C180.916493,199.993302 178.947995,201.019577 176.424335,202.33544 C173.88231,203.649184 170.783003,205.250399 167.195633,207.103767 C166.283781,207.54027 165.289997,207.953463 164.188853,208.065061 C163.09901,208.209149 161.886269,207.882126 161.002669,207.093879 C160.566167,206.699049 160.195352,206.184853 160.059034,205.574597 C159.907882,204.98765 160.00606,204.260853 160.463045,203.787622 C160.888247,203.304503 161.511922,203.014914 162.163144,202.965472 C162.805183,202.880008 163.573653,203.221158 163.828633,203.898513 L163.837109,203.922528 L163.837815,203.946543 C163.875956,205.89597 163.159753,207.924505 161.795154,209.51018 C160.463752,211.112101 158.403433,212.242204 156.167242,212.339675 C153.952241,212.45551 151.602333,211.696929 149.888815,210.0717 C149.039825,209.274977 148.305965,208.252234 148.079944,207.029604 C147.974703,206.427118 148.022026,205.762477 148.317972,205.193187 C148.604736,204.630255 149.079379,204.148549 149.690341,203.909108 C150.300596,203.65766 151.04717,203.766433 151.574787,204.1655 C152.110879,204.561742 152.435784,205.152221 152.64344,205.747644 C152.854628,206.35013 152.93091,206.991463 152.934442,207.621496 C152.959163,207.937925 152.940092,208.253647 152.909721,208.570782 C152.894182,208.887917 152.858866,209.20364 152.788941,209.515124 C152.333368,212.024659 150.903788,214.374566 148.851239,216.018866 C146.819879,217.671641 144.064548,218.603976 141.362896,218.171005 C138.671132,217.765581 136.194088,216.194738 134.515885,214.003751 C133.560242,212.75075 132.84404,211.303512 132.547388,209.763041 C132.268393,208.23387 132.257092,206.610054 132.897013,205.159991 C133.212736,204.446613 133.721282,203.786916 134.408526,203.380785 C135.083056,202.973948 135.904499,202.781831 136.694158,202.945695 C137.496531,203.094728 138.141396,203.698626 138.505854,204.368212 C138.886558,205.044155 139.077263,205.776603 139.248897,206.494218 C139.913539,209.38375 139.727778,212.413132 138.726225,215.087237 C137.755749,217.772644 135.896023,220.077347 133.539053,221.470199 C131.201859,222.88424 128.45359,223.458474 125.884725,223.138513 C124.600646,222.974648 123.361771,222.581938 122.262746,221.964619 C121.163015,221.348713 120.215847,220.518794 119.450909,219.575158 C117.91962,217.688593 117.08405,215.34928 117.115834,213.086955 C117.126429,211.95544 117.372932,210.857828 117.792483,209.855568 C118.230398,208.878029 118.9466,207.944281 119.985589,207.603132 C120.496254,207.453393 121.040116,207.417371 121.547956,207.560046 C122.051558,207.71261 122.483116,208.005024 122.847574,208.344055 C123.568721,209.041187 124.022881,209.914192 124.335778,210.785784 C124.65362,211.659494 124.802652,212.568521 124.809715,213.4387 C124.82031,213.872377 124.83373,214.300403 124.807596,214.72066 C124.79912,215.140917 124.775106,215.554111 124.728489,215.958829 C124.417004,219.20293 123.413332,221.87633 122.347504,223.888619 C121.2732,225.909384 120.131089,227.290228 119.323772,228.173828 C118.921879,228.620925 118.587793,228.934528 118.361066,229.143597 C118.137164,229.353372 118.015678,229.454375 118.015678,229.454375 C118.015678,229.454375 118.120213,229.335008 118.334932,229.115344 C118.552477,228.899212 118.877382,228.577839 119.269386,228.124386 C120.055514,227.228073 121.172903,225.840165 122.220367,223.822226 C123.260062,221.813468 124.234775,219.153488 124.524364,215.939759 C124.567449,215.539278 124.588639,215.131029 124.594995,214.714303 C124.617598,214.298284 124.602765,213.875202 124.590758,213.445763 C124.577338,212.58971 124.429012,211.715999 124.116114,210.864891 C123.808161,210.018726 123.360358,209.176093 122.677352,208.523459 C122.333377,208.206324 121.932897,207.940043 121.478737,207.804431 C121.021045,207.678001 120.532276,207.714023 120.067521,207.850342 C119.133067,208.157588 118.457831,209.024236 118.040399,209.966459 C117.642744,210.929872 117.405423,211.994994 117.399772,213.089781 C117.375051,215.280061 118.194376,217.554393 119.687524,219.382334 C120.432686,220.296305 121.353719,221.098678 122.416722,221.691275 C123.478313,222.283873 124.680459,222.662458 125.924985,222.81714 C128.417568,223.122268 131.093793,222.560042 133.364593,221.179198 C135.651639,219.821662 137.452034,217.586177 138.397788,214.965751 C139.371089,212.357333 139.549081,209.394344 138.898565,206.575444 C138.729756,205.872662 138.54117,205.163522 138.191545,204.54691 C137.851101,203.932416 137.30512,203.429521 136.618583,203.301678 C135.941227,203.159002 135.201716,203.325693 134.597111,203.693682 C133.984031,204.055315 133.525633,204.645794 133.230393,205.309729 C132.634264,206.652433 132.637089,208.224688 132.907608,209.690996 C133.192252,211.170019 133.883734,212.567814 134.807593,213.780556 C136.430703,215.900205 138.832878,217.420193 141.417282,217.809372 C144.008042,218.224685 146.654602,217.335436 148.624512,215.737046 C150.612787,214.147839 151.999282,211.868563 152.439316,209.452969 C152.507828,209.152079 152.541731,208.848364 152.556564,208.543236 C152.586935,208.238814 152.606006,207.934393 152.581285,207.630678 C152.579166,207.020422 152.507122,206.42288 152.311473,205.862067 C152.120062,205.306198 151.820584,204.777875 151.369249,204.44732 C150.922859,204.113233 150.325317,204.024237 149.814652,204.231894 C149.299042,204.429662 148.874548,204.854157 148.623806,205.34787 C148.365295,205.841584 148.320797,206.420055 148.414737,206.972393 C148.61533,208.083425 149.303987,209.066615 150.118367,209.829434 C151.753484,211.389682 154.020047,212.128487 156.149584,212.021127 C158.298192,211.931425 160.271634,210.857828 161.564896,209.313118 C162.887822,207.786773 163.584954,205.828164 163.554583,203.9529 L163.563765,204.000929 C163.356815,203.459892 162.762098,203.175248 162.181508,203.242347 C161.607274,203.281195 161.03516,203.545356 160.665758,203.967026 C160.269515,204.375275 160.186877,204.977762 160.315426,205.515267 C160.434086,206.059835 160.769586,206.533065 161.173598,206.902468 C162.004223,207.641979 163.118787,207.955582 164.166251,207.823502 C165.219365,207.722499 166.193373,207.326963 167.097455,206.899643 C170.694714,205.070289 173.802496,203.490264 176.350878,202.194177 C178.890784,200.907273 180.869877,199.9036 182.228119,199.214944 C182.895586,198.88227 183.407664,198.626584 183.765765,198.447886 C184.113272,198.276252 184.296913,198.198557 184.296913,198.198557" id="Fill-103" fill="#263238"></path>
                        <path d="M121.023164,23.9631233 C121.023164,24.0648326 106.081793,24.1474714 87.6540542,24.1474714 C69.2206651,24.1474714 54.2821188,24.0648326 54.2821188,23.9631233 C54.2821188,23.8614141 69.2206651,23.7794816 87.6540542,23.7794816 C106.081793,23.7794816 121.023164,23.8614141 121.023164,23.9631233" id="Fill-104" fill="#E0E0E0"></path>
                        <path d="M132.146907,23.9631233 C132.146907,24.0648326 131.108625,24.1474714 129.82949,24.1474714 C128.548943,24.1474714 127.512073,24.0648326 127.512073,23.9631233 C127.512073,23.8614141 128.548943,23.7794816 129.82949,23.7794816 C131.108625,23.7794816 132.146907,23.8614141 132.146907,23.9631233" id="Fill-105" fill="#E0E0E0"></path>
                        <path d="M198.579082,23.9631233 C198.579082,24.0648326 184.951455,24.1474714 168.145414,24.1474714 C151.333016,24.1474714 137.708214,24.0648326 137.708214,23.9631233 C137.708214,23.8614141 151.333016,23.7794816 168.145414,23.7794816 C184.951455,23.7794816 198.579082,23.8614141 198.579082,23.9631233" id="Fill-106" fill="#E0E0E0"></path>
                        <path d="M121.023164,42.5314891 C121.023164,42.6331984 106.081793,42.7158372 87.6540542,42.7158372 C69.2206651,42.7158372 54.2821188,42.6331984 54.2821188,42.5314891 C54.2821188,42.4297799 69.2206651,42.3478474 87.6540542,42.3478474 C106.081793,42.3478474 121.023164,42.4297799 121.023164,42.5314891" id="Fill-107" fill="#E0E0E0"></path>
                        <path d="M132.146907,42.5314891 C132.146907,42.6331984 131.108625,42.7158372 129.82949,42.7158372 C128.548943,42.7158372 127.512073,42.6331984 127.512073,42.5314891 C127.512073,42.4297799 128.548943,42.3478474 129.82949,42.3478474 C131.108625,42.3478474 132.146907,42.4297799 132.146907,42.5314891" id="Fill-108" fill="#E0E0E0"></path>
                        <path d="M198.579082,42.5314891 C198.579082,42.6331984 184.951455,42.7158372 168.145414,42.7158372 C151.333016,42.7158372 137.708214,42.6331984 137.708214,42.5314891 C137.708214,42.4297799 151.333016,42.3478474 168.145414,42.3478474 C184.951455,42.3478474 198.579082,42.4297799 198.579082,42.5314891" id="Fill-109" fill="#E0E0E0"></path>
                    </g>
                    <g id="Group-256" transform="translate(84.051395, 81.667584)">
                        <path d="M71.5501979,1.59973113 C76.6978162,2.26649178 77.4641671,7.54830969 79.3712156,11.9719558 C81.278264,16.3956019 84.9292023,20.3431922 87.7360952,24.3056151 C89.2200614,26.4005432 91.2422391,28.281458 91.7783316,30.7690968 C92.3391451,33.3704521 91.1532435,36.0600968 90.5959615,38.7108941 C90.0379733,41.3623978 90.4271524,44.6001423 92.9698837,45.7697987 C92.4231965,46.4273772 91.5092258,46.8130248 90.6383404,46.7529881 C90.6581172,47.9727928 89.4609145,49.0301452 88.1782479,49.3783581 C86.8948749,49.7265711 85.5486399,49.5344536 84.2553786,49.3402172 C84.6021789,50.1517722 83.8661994,51.1293112 82.955054,51.4499778 C82.044615,51.7706445 81.0508308,51.614549 80.1241465,51.4245505 C79.1974623,51.234552 78.2368749,51.0141819 77.2939454,51.2197194 C75.2011363,51.6752921 73.9354211,54.035088 71.8185974,54.3402157 C68.9121142,54.7590601 66.8150673,51.0396093 63.9467251,51.6894184 C62.5969586,51.9952524 61.694289,53.1740909 60.5867883,53.9771702 C59.4785812,54.7795432 57.6096737,54.5754184 57.0848822,53.4234198 C55.5451172,55.3643714 53.1620129,57.2452862 50.6553037,57.7623082 C51.0218808,56.8970733 50.8255254,55.8736239 50.1693595,55.2188706 C48.8231245,56.3256651 47.1350335,57.0665887 45.3854931,57.3180366 C46.4703918,56.3101261 47.0700526,54.873483 46.9831759,53.4919323 C45.83259,54.417204 44.1868778,54.7717737 42.773543,54.3988398 C45.362891,52.9275872 45.6157515,49.4899558 44.697543,46.9140278 C43.7793345,44.3380997 42.0283815,42.0256269 41.6844065,39.3091423 C41.3107662,36.3518046 44.7900702,32.6076327 44.1098896,29.7018559 C43.0624256,25.2252363 43.1457706,22.4974507 43.3265871,18.3188956 C43.4445416,15.5833405 44.6516326,13.1550322 45.8537794,10.6052377 C47.3737677,7.38091322 49.4453874,5.02323627 52.7050276,3.18540661 C55.4377574,1.64422893 59.3782846,0.232306755 62.5122009,0.164500587 C68.0864329,0.0423082232 70.3593521,-0.134270338 74.7738162,2.81882952" id="Fill-111" fill="#263238"></path>
                        <path d="M54.3551896,38.0656054 C52.623307,34.4605775 50.9027256,30.8251781 49.8171206,26.9757655 C48.7308093,23.1270592 48.3006639,19.0205482 49.1821441,15.1188683 C49.3156374,14.5276833 50.5919473,10.5094615 51.1979649,10.4882229 C51.6316419,10.4727332 51.0058474,14.1455673 51.2714216,14.4874233 C53.8106213,17.7520078 54.9435493,21.9369197 55.1632131,26.0660327 C55.3828768,30.1958521 55.0268944,33.985228 54.3551896,38.0656054" id="Fill-113" fill="#263238"></path>
                        <path d="M78.7519899,71.8979871 C72.5901044,72.5944129 57.756799,66.1217492 56.9268797,59.9768153 L51.9318254,22.9949078 C50.2741059,13.1029768 54.6490163,3.89263906 64.5826198,2.50896946 L65.5085978,2.43410015 C74.825589,1.68611336 83.1530339,8.2188138 84.6468885,17.4453968 C86.0362087,26.0264085 87.4608445,35.5228035 87.7751543,40.1597565 C88.4263761,49.762805 78.9504642,52.0244232 78.9504642,52.0244232 C78.9292747,52.0272485 79.1941426,54.2415436 79.5416492,57.0449048 C80.3214201,63.3424026 79.3219855,70.248037 78.7519899,71.8979871" id="Fill-115" fill="#FFBE9D"></path>
                        <path d="M78.9506054,52.0246351 C78.9506054,52.0246351 72.9321018,52.8644427 66.1634924,49.3335778 C66.1634924,49.3335778 69.7466245,56.3056057 79.250789,54.6733135 L78.9506054,52.0246351 Z" id="Fill-117" fill="#EB996E"></path>
                        <path d="M81.0737154,25.7930423 C81.1577668,26.5141891 80.6160238,27.1802435 79.8637991,27.2812464 C79.1136934,27.3822493 78.436338,26.8807662 78.3522866,26.1596194 C78.2689416,25.4384725 78.8106846,24.7717119 79.5607903,24.670709 C80.3123087,24.569706 80.9903703,25.0718954 81.0737154,25.7930423" id="Fill-119" fill="#263238"></path>
                        <path d="M82.9457307,21.8390245 C82.7903416,22.031142 81.6913166,21.3467235 80.2165325,21.4689159 C78.7424546,21.5692125 77.7218305,22.4146706 77.5473709,22.2472742 C77.4619069,22.1731112 77.6095266,21.8369056 78.0530919,21.4562022 C78.4888878,21.0776178 79.2531198,20.6813755 80.172741,20.6121567 C81.0909495,20.5436442 81.8904972,20.8191068 82.3623151,21.129885 C82.8433151,21.4413696 83.0234253,21.7521479 82.9457307,21.8390245" id="Fill-121" fill="#263238"></path>
                        <path d="M67.2139935,26.8783648 C67.2980449,27.5995116 66.7555956,28.2655659 66.0040772,28.3665689 C65.2539715,28.4675718 64.5766162,27.966795 64.4925648,27.2449419 C64.4092197,26.5230887 64.9509627,25.8570344 65.7010684,25.7553251 C66.4532931,25.6543222 67.1306485,26.1572179 67.2139935,26.8783648" id="Fill-123" fill="#263238"></path>
                        <path d="M68.521805,23.3399423 C68.3657095,23.5320598 67.265272,22.8476413 65.7919004,22.9698336 C64.3185289,23.0708366 63.2971985,23.9162947 63.1220326,23.7481919 C63.0379812,23.6747352 63.1827756,23.3385297 63.6284599,22.9578263 C64.0649621,22.5785355 64.8291941,22.1829996 65.7474026,22.1130744 C66.6670238,22.0452683 67.4658652,22.3207308 67.9383894,22.6308028 C68.4179768,22.9429937 68.5980869,23.253772 68.521805,23.3399423" id="Fill-125" fill="#263238"></path>
                        <path d="M74.7192887,34.2443747 C74.7051624,34.1610297 75.6092446,33.9293586 77.0790846,33.619993 C77.4527248,33.5514805 77.8030567,33.4476523 77.8454355,33.1856097 C77.9125354,32.9066156 77.7218305,32.5131985 77.5042858,32.0901163 C77.077672,31.2072235 76.630575,30.2819518 76.1615824,29.3128887 C74.2877307,25.35541 72.8991169,22.0894129 73.0594502,22.0152499 C73.2197836,21.9410869 74.8676147,25.0884232 76.7414664,29.0459019 C77.1942138,30.0227345 77.6271844,30.9529504 78.0389656,31.8443189 C78.2155442,32.260338 78.5001888,32.7265054 78.3532755,33.3056831 C78.2741683,33.595272 78.0142446,33.8219988 77.7783357,33.9060502 C77.543133,33.9985774 77.3312388,34.0204731 77.1461844,34.0459004 C75.6579803,34.2464937 74.731296,34.3277198 74.7192887,34.2443747" id="Fill-127" fill="#263238"></path>
                        <path d="M67.9479247,17.8404383 C67.7777029,18.233149 66.3156325,17.952036 64.5710363,18.0544515 C62.8236148,18.1215514 61.3961537,18.5425147 61.1884974,18.1688744 C61.0966765,17.9901769 61.362957,17.6278377 61.9520231,17.2739743 C62.5354386,16.9201109 63.4508219,16.6065073 64.4982859,16.5542401 C65.5450436,16.5047981 66.4865605,16.7279934 67.1017602,17.0239391 C67.7219041,17.3184721 68.0220877,17.6539714 67.9479247,17.8404383" id="Fill-129" fill="#263238"></path>
                        <path d="M82.3207838,18.4198985 C82.0467339,18.7836504 80.8149219,18.5505667 79.3712156,18.6713464 C77.9253903,18.7497473 76.7303066,19.1495211 76.4167031,18.8267355 C76.2775592,18.6692275 76.4371862,18.315364 76.9407883,17.9480806 C77.4359145,17.5822098 78.2905548,17.2410601 79.2836326,17.1718413 C80.2767104,17.1040351 81.1638411,17.3258178 81.698521,17.6203508 C82.240264,17.9155902 82.440151,18.2440263 82.3207838,18.4198985" id="Fill-131" fill="#263238"></path>
                        <path d="M53.2853354,30.0360838 C53.11582,29.9781661 46.5372091,28.6149796 47.2724822,35.1568621 C48.0084617,41.699451 54.4246203,39.6108797 54.4147433,39.4222938 C54.4048435,39.2330016 53.2853354,30.0360838 53.2853354,30.0360838" id="Fill-133" fill="#FFBE9D"></path>
                        <path d="M52.1375747,37.1685863 C52.1072032,37.1509285 52.0330402,37.2611135 51.8501048,37.3712985 C51.6721137,37.477952 51.3556849,37.5740107 51.0004088,37.4843088 C50.2806746,37.3084366 49.5750667,36.2765115 49.4112018,35.1012046 C49.3271504,34.5079006 49.3878934,33.926604 49.5461078,33.4335966 C49.6923148,32.9321135 49.9642458,32.5634175 50.3053956,32.4624145 C50.6423075,32.3430474 50.9121195,32.5238639 51.0131225,32.6990298 C51.1211885,32.8720768 51.0943486,33.0076891 51.1303706,33.0147523 C51.1501474,33.0288786 51.2582135,32.8890283 51.1755747,32.6248668 C51.1339022,32.4984366 51.0392561,32.3529358 50.8718596,32.2441634 C50.7002253,32.1339784 50.4621974,32.0951311 50.2227568,32.148811 C49.7226863,32.2399256 49.3200872,32.7548286 49.1463339,33.2965717 C48.9450344,33.8432589 48.8623956,34.4980122 48.9563354,35.1647728 C49.1463339,36.477811 49.9600079,37.6361664 50.9361342,37.8028565 C51.4100711,37.871369 51.7787671,37.6891399 51.9595836,37.5125614 C52.1439316,37.3282134 52.1615894,37.1777684 52.1375747,37.1685863" id="Fill-135" fill="#EB996E"></path>
                        <path d="M79.1033812,7.12572188 C80.0901022,6.41375712 76.5006132,3.37378062 73.757995,2.5099583 C69.613343,1.20468957 63.4811228,0.835287225 59.9841609,2.30230191 C55.7738217,4.06808752 52.4138849,6.67721233 50.706017,10.9122725 C48.9988555,15.1466264 48.7368129,19.8711624 49.4141683,24.3866294 C49.6211184,25.7646485 49.9389598,27.188578 50.8197336,28.2678261 C51.9081639,29.6020537 53.7700082,30.2998922 53.9352858,32.3022931 C53.9953225,33.0333283 54.2926808,33.7438805 54.8563195,34.2142858 C56.206086,35.3415633 57.5240684,33.9684884 58.0509789,32.688647 C59.1768438,29.9545046 58.9656558,26.8792123 58.7361037,23.9310567 C58.5729451,21.8361286 58.3991918,19.6967028 57.5685662,17.766346 C57.1165251,16.7160567 56.478017,15.7484062 56.0846,14.6748085 C55.6918893,13.6005046 55.5732285,12.3425589 56.1516999,11.3558379 C56.246346,11.1955046 56.4080919,10.9878482 56.6171609,10.7547645 C58.2706426,8.90775272 60.8027791,8.10749868 63.2226117,8.64641645 C67.0607233,9.501763 73.5814164,10.6834267 75.0717395,9.23548253 C77.2146969,7.15185551 77.6370728,5.91156769 77.6370728,5.91156769 L79.1033812,7.12572188 Z" id="Fill-137" fill="#263238"></path>
                        <path d="M70.7814455,35.5242162 C70.6938626,35.5482308 70.6839742,35.91057 70.8789169,36.4600825 C71.0618523,37.0039445 71.5407333,37.7370987 72.292958,38.2350502 C73.0338816,38.7421838 73.7931695,38.9773865 74.3334999,39.1059357 C74.8787744,39.2323659 75.2276937,39.2471985 75.2573589,39.1582029 C75.2877304,39.0656758 74.9875468,38.884153 74.4980711,38.6447125 C74.0107142,38.403153 73.329121,38.1072073 72.686375,37.6650546 C71.3726305,36.8054702 70.9862767,35.4521721 70.7814455,35.5242162" id="Fill-139" fill="#263238"></path>
                        <path d="M53.4970884,30.8883226 C53.5507683,31.0027455 53.6037419,31.1235253 53.658128,31.255606 C53.658128,31.255606 53.597385,31.1242316 53.4970884,30.8883226" id="Fill-141" fill="#FF725E"></path>
                        <path d="M51.2553883,29.8843675 C51.2553883,29.8843675 52.3544132,28.437836 53.4972297,30.8880401 C52.1340432,27.6792545 43.0699125,4.4930768 67.9201665,1.43402981 C67.9201665,1.43402981 58.9450314,-0.149526725 53.5297201,4.31508561 C53.5297201,4.31508561 42.5302884,10.8951091 51.2553883,29.8843675" id="Fill-143" fill="#455A64"></path>
                        <path d="M98.7746567,146.947336 L41.0151031,147.73417 C41.0151031,147.73417 24.8624026,140.975449 20.4253366,140.79322 C15.9875642,140.611698 7.17841292,141.176043 3.10368605,147.73417 C-1.10735947,154.513375 -1.69642555,166.473394 11.282805,175.163884 C23.9215921,183.627648 81.719993,191.448665 89.6434261,190.728225 L104.248592,171.123767 C104.248592,171.123767 104.401156,155.057237 104.248592,154.292298 C104.095322,153.526654 101.647237,146.641502 101.647237,146.641502 L98.7746567,146.947336 Z" id="Fill-145" fill="#263238"></path>
                        <g id="Group-149" transform="translate(33.903084, 173.753304)">
                            <mask id="mask-6" fill="white">
                                <use xlink:href="#path-5"></use>
                            </mask>
                            <g id="Clip-148"></g>
                            <path d="M30.294948,0.316781938 L0.36841351,11.4320492 L14.0080479,48.736036 C17.4915897,47.2139288 17.5897674,25.2998231 17.5897674,25.2998231 L37.0564943,18.9648906 L30.294948,0.316781938 Z" id="Fill-147" fill="#6A7981" mask="url(#mask-6)"></path>
                        </g>
                        <path d="M48.8919195,186.927901 C48.4306963,186.278092 47.4362059,186.076086 46.7680326,186.509763 C46.0998593,186.944146 45.8858461,187.953469 46.3357683,188.611754 C46.7856905,189.268626 47.9715921,189.548327 48.5867918,189.0419 C49.2019915,188.535472 49.3891648,187.336857 48.7944482,186.805709" id="Fill-150" fill="#FFFFFF"></path>
                        <path d="M34.2717797,185.185565 L37.2926858,184.063938 L49.2654185,220.323992 C49.2654185,220.323992 49.149583,222.249405 47.9114141,222.488846 L34.2717797,185.185565 Z" id="Fill-152" fill="#263238"></path>
                        <path d="M51.9037847,199.588443 C51.7194367,199.649186 51.3041239,198.769118 50.3901533,198.086819 C49.4952532,197.380504 48.5367847,197.207457 48.5480858,197.013221 C48.5219521,196.832404 49.710679,196.705974 50.8012282,197.550726 C51.9002532,198.386296 52.0853075,199.567253 51.9037847,199.588443" id="Fill-154" fill="#263238"></path>
                        <path d="M51.716117,204.092538 C51.5550774,204.198485 50.9568292,203.523249 49.9602198,203.187043 C48.9734988,202.820466 48.0828366,202.968792 48.0249188,202.784444 C47.9338043,202.624111 48.9544283,202.107089 50.1855341,202.549948 C51.4201714,202.982212 51.8884577,204.025438 51.716117,204.092538" id="Fill-156" fill="#263238"></path>
                        <path d="M47.8462213,208.027626 C47.746631,207.875769 48.5645429,207.289528 49.7327866,207.393356 C50.902443,207.487296 51.6101699,208.202086 51.4865649,208.335579 C51.3742609,208.492381 50.6368689,208.134986 49.6755752,208.065767 C48.7171068,207.97324 47.9302727,208.20138 47.8462213,208.027626" id="Fill-158" fill="#263238"></path>
                        <path d="M56.1802349,197.653 C55.9867048,197.637461 55.9316123,196.709364 55.485928,195.705692 C55.0593142,194.692837 54.4208062,194.017601 54.5422922,193.865743 C54.6355257,193.712473 55.5954068,194.247859 56.1053656,195.437293 C56.623094,196.623194 56.3561072,197.690435 56.1802349,197.653" id="Fill-160" fill="#263238"></path>
                        <path d="M60.2812367,195.145726 C60.2070737,195.175391 59.8306082,194.496623 59.6074129,193.2747 C59.4979342,192.66515 59.4386038,191.922814 59.4936963,191.099958 C59.5219489,190.688883 59.5777477,190.258738 59.6702749,189.818704 C59.7183043,189.60681 59.7550326,189.362425 59.9033586,189.094732 C60.0199004,188.822801 60.4606405,188.531799 60.8420502,188.656111 C61.1987389,188.742987 61.4459489,189.035401 61.5504834,189.302388 C61.6599621,189.573613 61.6860957,189.817291 61.7094041,190.039074 C61.7609651,190.490409 61.7659093,190.930443 61.7362441,191.345755 C61.6726758,192.177087 61.4742015,192.906004 61.2354673,193.482356 C60.7502294,194.640005 60.1781148,195.184573 60.1194907,195.135131 C60.0297888,195.074388 60.4458079,194.445062 60.7855451,193.322023 C60.9536479,192.762622 61.0892602,192.076791 61.1153938,191.312559 C61.1252822,190.930443 61.1083307,190.529256 61.0532382,190.119594 C61.0129783,189.686623 60.8929048,189.349005 60.6795979,189.312277 C60.5990781,189.299563 60.5708256,189.304507 60.4860678,189.429525 C60.4104922,189.553836 60.3645818,189.751604 60.3165524,189.961379 C60.2219063,190.369629 60.1562191,190.770816 60.1131339,191.155051 C60.0283762,191.92352 60.0354394,192.626303 60.0813498,193.213957 C60.1738769,194.392089 60.380827,195.113236 60.2812367,195.145726" id="Fill-162" fill="#263238"></path>
                        <path d="M59.9332357,195.004322 C59.8816747,194.949936 60.4022283,194.349569 61.5577584,193.851617 C62.1312856,193.606526 62.8623209,193.408052 63.696478,193.35861 C64.1124971,193.336714 64.5532372,193.352253 65.004572,193.420059 C65.4530815,193.503404 66.0442665,193.589574 66.3832974,194.26693 C66.5323297,194.631388 66.3564574,195.043169 66.1473884,195.237406 C65.9404383,195.453538 65.7327819,195.55666 65.532895,195.679558 C65.1225264,195.906991 64.6923811,196.055317 64.2749493,196.140781 C63.437967,196.313828 62.6589023,196.229777 62.053591,196.048961 C60.8203664,195.673201 60.3245338,194.992315 60.3810389,194.95488 C60.4502577,194.860234 61.0343796,195.367367 62.1666013,195.584912 C62.7252959,195.692978 63.4188965,195.716287 64.1386307,195.534058 C64.4974383,195.444356 64.8618965,195.305212 65.2051652,195.105325 C65.5809244,194.9012 65.8457922,194.636332 65.7511461,194.502132 C65.6861652,194.315665 65.2722651,194.109422 64.9000374,194.0734 C64.4953194,194.003475 64.0976645,193.976635 63.7183737,193.980166 C62.9583796,193.99288 62.27608,194.12708 61.7216233,194.300127 C60.6084721,194.649046 59.9975103,195.093317 59.9332357,195.004322" id="Fill-164" fill="#263238"></path>
                        <path d="M88.8838558,169.460397 L117.844152,182.893787 L101.315693,219.009047 C97.9628191,217.219247 99.5866355,195.365178 99.5866355,195.365178 L80.6778969,187.519439 L88.8838558,169.460397 Z" id="Fill-166" fill="#6A7981"></path>
                        <path d="M103.132192,183.481158 C103.643563,182.870196 104.650061,182.746591 105.282212,183.231829 C105.914364,183.717067 106.048563,184.73981 105.548493,185.36066 C105.047716,185.980804 103.84345,186.165859 103.269923,185.613521 C102.696396,185.05977 102.604575,183.849854 103.238845,183.368148" id="Fill-168" fill="#FFFFFF"></path>
                        <path d="M117.844082,182.893505 L114.920647,181.537381 L100.135965,216.745027 C100.135965,216.745027 100.100055,218.673265 101.315622,219.009471 L117.844082,182.893505 Z" id="Fill-170" fill="#263238"></path>
                        <path d="M99.1350888,195.86652 C99.3137863,195.940683 99.7969053,195.095931 100.761731,194.487794 C101.710311,193.85423 102.678667,193.756759 102.682905,193.562523 C102.723165,193.383825 101.548565,193.164868 100.393741,193.92133 C99.2332665,194.667904 98.955685,195.830498 99.1350888,195.86652" id="Fill-172" fill="#263238"></path>
                        <path d="M98.9681162,200.371321 C99.12068,200.489982 99.7697828,199.863481 100.790407,199.605677 C101.802555,199.318207 102.677679,199.535752 102.750429,199.357054 C102.854257,199.20449 101.877425,198.609774 100.615241,198.953749 C99.3502322,199.287129 98.801426,200.290801 98.9681162,200.371321" id="Fill-174" fill="#263238"></path>
                        <path d="M102.516992,204.597482 C102.627883,204.454806 101.859414,203.80641 100.686226,203.817005 C99.5130376,203.819124 98.7509245,204.476702 98.8639348,204.617965 C98.9635251,204.784655 99.7270508,204.486591 100.690463,204.492241 C101.65317,204.47529 102.419521,204.764878 102.516992,204.597482" id="Fill-176" fill="#263238"></path>
                        <path d="M95.024128,193.600664 C95.2183645,193.599957 95.345501,192.67963 95.8695862,191.713392 C96.3738946,190.737266 97.0632573,190.114296 96.9537786,189.953963 C96.8732587,189.792923 95.8745304,190.252028 95.2727507,191.398376 C94.6632015,192.539073 94.8461369,193.623266 95.024128,193.600664" id="Fill-178" fill="#263238"></path>
                        <path d="M91.1324778,190.779503 C91.2045219,190.814819 91.6325483,190.167835 91.951096,188.966395 C92.1086041,188.368146 92.2265586,187.632167 92.2357407,186.807898 C92.2399786,186.396117 92.2173765,185.96244 92.1601651,185.516756 C92.1290872,185.30133 92.1114294,185.054826 91.9842928,184.775832 C91.8896467,184.496132 91.4729213,184.171933 91.0830358,184.265873 C90.7206966,184.323085 90.4515909,184.595722 90.3265733,184.853527 C90.1959051,185.116276 90.150701,185.356422 90.1097348,185.57538 C90.0228581,186.022477 89.9840109,186.460392 89.9811856,186.876411 C89.9790667,187.709862 90.1189169,188.452198 90.312447,189.045502 C90.7051577,190.23776 91.2327744,190.825414 91.2942238,190.780916 C91.3888699,190.727942 91.0237054,190.067538 90.7736702,188.92119 C90.6493589,188.350489 90.5681327,187.656182 90.6027421,186.89195 C90.6218126,186.51054 90.6705483,186.112179 90.7581313,185.706754 C90.8322943,185.278728 90.9785013,184.952411 91.1939272,184.931928 C91.2751533,184.926277 91.3026996,184.93334 91.3782752,185.064008 C91.4432561,185.19397 91.4736276,185.39527 91.5047054,185.60787 C91.5668611,186.023183 91.6007642,186.427195 91.6134778,186.813549 C91.6374925,187.586257 91.5753369,188.28692 91.483516,188.868923 C91.2984617,190.035048 91.0357128,190.738537 91.1324778,190.779503" id="Fill-180" fill="#263238"></path>
                        <path d="M91.4904379,190.66501 C91.5462367,190.615568 91.0744188,189.975647 89.9612675,189.387994 C89.4089298,189.099111 88.6955524,188.844132 87.8684584,188.729002 C87.4552646,188.674616 87.0152308,188.655546 86.5596581,188.68733 C86.1054981,188.736065 85.5100752,188.774913 85.1180708,189.423309 C84.9414922,189.774347 85.084874,190.198842 85.2769915,190.409324 C85.46699,190.640995 85.6654643,190.760362 85.8547565,190.8988 C86.2467609,191.158017 86.6641927,191.338833 87.0731486,191.457494 C87.8931794,191.695522 88.6771883,191.673626 89.2952132,191.539427 C90.5538652,191.262552 91.1012587,190.622631 91.0482852,190.580958 C90.9868358,190.481368 90.364573,190.940472 89.218225,191.068315 C88.6531736,191.131883 87.959573,191.100806 87.2567903,190.862778 C86.9057521,190.74553 86.5540076,190.578133 86.2269841,190.352112 C85.8688828,190.119735 85.6252044,189.833678 85.7304452,189.707954 C85.8095524,189.527137 86.2382852,189.354797 86.6119254,189.346321 C87.0208814,189.308886 87.4192426,189.313124 87.797827,189.347027 C88.5535833,189.419071 89.2238755,189.606951 89.7627932,189.823083 C90.845573,190.258173 91.4198065,190.749061 91.4904379,190.66501" id="Fill-182" fill="#263238"></path>
                        <path d="M101.647166,146.641785 C101.647166,146.641785 126.589241,137.326206 135.769914,138.531885 C140.903405,139.205709 148.929254,143.122221 149.541629,149.701538 C150.153297,156.281562 148.547844,165.082943 139.6723,169.368152 C130.797461,173.651948 95.3758019,189.54755 86.9600677,191.996341 C78.5443335,194.444427 57.5611499,200.177579 57.5611499,200.177579 L49.5882747,177.459688 C49.5882747,177.459688 93.0781617,162.401775 95.373683,160.719334 C97.6684979,159.036187 103.483583,156.740666 103.483583,156.740666 L101.647166,146.641785 Z" id="Fill-184" fill="#263238"></path>
                        <path d="M14.9426167,149.730497 C14.9440555,149.735441 15.0026796,149.719196 15.1156899,149.685999 C15.2421201,149.647152 15.4073977,149.59771 15.6164667,149.534142 C16.0572068,149.401355 16.7077222,149.21065 17.5567119,149.00935 C18.4057016,148.809463 19.4524593,148.584149 20.6828587,148.464782 C21.9139645,148.34259 23.3287119,148.336233 24.879778,148.470432 C26.4294314,148.606045 28.1224667,148.886452 29.8713007,149.421838 C30.7443051,149.689531 31.6342611,150.015848 32.5037339,150.448819 C33.3845078,150.878258 34.290709,151.32041 35.2195122,151.773864 C38.950264,153.557308 43.1175181,155.38313 47.5559968,157.136202 C56.4435489,160.697438 64.9751186,162.386942 71.0571906,163.769199 C74.1091744,164.444435 76.5763301,165.000305 78.2764285,165.404316 C79.1141172,165.602791 79.7709894,165.75818 80.2350379,165.868365 C80.4483448,165.916394 80.6171539,165.954535 80.7457031,165.983494 C80.8615386,166.008215 80.920869,166.01881 80.9223069,166.014572 C80.9236943,166.009628 80.8657765,165.990557 80.7527662,165.95736 C80.6256297,165.921338 80.4589395,165.874015 80.2484579,165.815391 C79.8041862,165.696024 79.1494329,165.514501 78.3018558,165.302607 C76.6081142,164.866811 74.1459028,164.282689 71.0995695,163.583438 C65.0245606,162.153858 56.515593,160.436808 47.6548808,156.886167 C43.2220526,155.134507 39.0576238,153.318573 35.3254593,151.549963 C34.3959498,151.10004 33.4897486,150.662126 32.6089747,150.236924 C31.7225504,149.801128 30.8198808,149.474811 29.9362816,149.207825 C28.1655518,148.676676 26.457684,148.405452 24.8960232,148.280434 C23.3322435,148.158242 21.9076076,148.178018 20.6680261,148.315043 C19.427032,148.450656 18.379568,148.691509 17.5319909,148.906935 C16.6837075,149.125892 16.035311,149.332842 15.6002214,149.481874 C15.3939777,149.556037 15.2315254,149.614662 15.1065078,149.659159 C14.9970291,149.702244 14.9412302,149.726259 14.9426167,149.730497" id="Fill-186" fill="#455A64"></path>
                        <path d="M16.2541478,146.442463 C16.2626736,146.486254 17.0134856,146.349936 18.2347029,146.218561 C19.4559203,146.085774 21.1524871,145.986184 23.0228072,146.079417 C24.8931273,146.178301 26.5706236,146.451645 27.7713579,146.708743 C28.9727984,146.964429 29.7052463,147.17703 29.7187967,147.133945 C29.7243167,147.116993 29.5463256,147.045655 29.2193021,146.933351 C28.8936912,146.817516 28.4133975,146.675547 27.814443,146.522983 C26.6165341,146.216442 24.9256178,145.909902 23.0362272,145.811018 C21.1475429,145.716372 19.4340245,145.84704 18.2113946,146.029975 C17.5997264,146.119677 17.1074254,146.212205 16.7712198,146.293431 C16.4343079,146.371832 16.2506662,146.424805 16.2541478,146.442463" id="Fill-188" fill="#455A64"></path>
                        <path d="M112.139464,153.238619 C112.168423,153.27676 112.859905,152.740667 114.054282,152.00045 C115.247247,151.25882 116.97136,150.349087 118.991419,149.633591 C121.013596,148.923039 122.927002,148.548692 124.321266,148.377764 C125.716237,148.204011 126.589947,148.187765 126.589241,148.139736 C126.589241,148.121372 126.370284,148.110777 125.974748,148.107246 C125.579212,148.100183 125.005684,148.12561 124.300077,148.189178 C122.890273,148.312783 120.947203,148.660996 118.901717,149.379318 C116.85835,150.103996 115.12788,151.05187 113.951867,151.840823 C113.3628,152.233533 112.900871,152.573977 112.597156,152.82825 C112.291322,153.078992 112.127457,153.223786 112.139464,153.238619" id="Fill-190" fill="#455A64"></path>
                        <path d="M99.6227282,187.121007 C99.6227282,187.121007 99.5556283,187.142903 99.4284918,187.19517 C99.2942921,187.252382 99.1064125,187.330783 98.8620278,187.432492 C98.359132,187.63591 97.6337473,187.980592 96.6583273,188.354232 C94.7159631,189.125527 91.8447957,190.182173 88.1627796,191.392796 C80.7952157,193.800621 70.2040336,196.868144 57.5313435,200.059272 L57.6747253,200.13626 C55.3128104,193.579545 52.7065109,186.344062 49.964599,178.732819 L49.8897297,178.901628 C52.9480703,177.646508 56.168157,176.324288 59.4383919,174.981584 C80.4872627,166.31864 99.4037708,158.532938 112.277054,153.235581 L112.294712,153.228518 L112.307426,153.214392 C114.458153,150.937235 116.437245,148.932009 118.292026,147.31243 C120.147514,145.694971 121.853263,144.444794 123.308976,143.532236 C124.756921,142.605552 125.952004,142.020724 126.750846,141.611768 C127.152738,141.425301 127.459985,141.281919 127.675411,141.180916 C127.882361,141.082739 127.986189,141.026233 127.986189,141.026233 C127.986189,141.026233 127.876004,141.0672 127.664816,141.157608 C127.447272,141.25296 127.135787,141.388573 126.72895,141.566564 C125.922339,141.960687 124.716661,142.532095 123.256709,143.448891 C121.788988,144.350855 120.069113,145.593261 118.199499,147.205777 C116.329885,148.818999 114.336667,150.820693 112.177464,153.090081 L112.208542,153.068891 C99.3274888,158.347178 80.3989734,166.102508 59.3359764,174.732962 C56.0657414,176.076372 52.8463611,177.398592 49.7880204,178.655125 L49.6700659,178.70386 L49.7131511,178.823934 C52.4635388,186.431645 55.0776078,193.665009 57.4465858,200.218899 L57.4840204,200.322021 L57.5899675,200.295181 C70.2647767,197.080744 80.8488956,193.980025 88.20869,191.530527 C91.885762,190.299421 94.7519852,189.22088 96.6872862,188.426276 C97.6591746,188.040628 98.3810278,187.683233 98.878273,187.468514 C99.1191261,187.358329 99.3041805,187.274278 99.4362612,187.213535 C99.5612789,187.155617 99.6227282,187.121007 99.6227282,187.121007" id="Fill-192" fill="#455A64"></path>
                        <path d="M37.9744203,67.1517673 C37.9744203,67.1517673 30.7933233,71.2886498 29.3376097,76.1495044 C28.4540106,79.1004853 21.75462,116.856513 20.6951486,124.301772 C19.6250825,131.819074 21.8711618,137.261932 25.0460443,139.731206 C28.2209269,142.200481 37.8451648,145.491199 37.8451648,145.491199 L51.3852088,149.876704 L55.2656993,139.999606 L42.3768769,121.484284 L43.6242279,109.012187 L37.9744203,67.1517673 Z" id="Fill-194" fill="#55C1E2" fill-rule="nonzero"></path>
                        <path d="M52.0906755,60.6283195 L56.5687078,57.3255941 C56.5687078,57.3255941 62.4035698,63.2974811 69.1057856,62.5918731 C75.8087078,61.8862652 79.7781938,56.7563048 79.7781938,56.7563048 L99.7661806,60.8260875 C101.106765,61.0951932 103.552731,61.942064 105.891338,65.2836367 C108.501169,69.0122696 120.868731,85.5442608 120.868731,85.5442608 L129.531675,85.5442608 C131.919018,85.5442608 134.111417,86.8636558 135.221743,88.9776543 C136.700765,91.7930229 138.475733,95.5576778 138.302686,97.117926 C138.009565,99.7545971 138.518112,106.995731 134.98089,109.255936 C133.859263,109.973552 129.845985,112.124278 126.731846,111.977365 C122.136565,111.761233 116.798949,109.367534 113.724363,107.217513 C111.120888,105.396635 105.064244,99.102669 102.734819,96.6468144 L102.738351,96.684249 L101.242377,149.121019 L48.8352731,147.62787 L37.974279,67.1518379 C37.974279,67.1518379 51.5616461,60.6283195 52.0906755,60.6283195" id="Fill-196" fill="#55C1E2" fill-rule="nonzero"></path>
                        <path d="M102.921145,74.6783931 C102.846982,74.6776868 102.709957,81.1764841 102.615311,89.1938571 C102.520665,97.2126427 102.50442,103.71144 102.578583,103.712853 C102.653452,103.713559 102.789771,97.215468 102.884417,89.1966824 C102.979063,81.1800157 102.995308,74.6790994 102.921145,74.6783931" id="Fill-198" fill="#263238"></path>
                        <path d="M31.6293036,117.066924 C31.6264916,117.093764 32.0735885,117.138262 32.8653668,117.288707 C33.659264,117.434208 34.7907794,117.747105 36.1108808,118.321338 C37.4338073,118.891334 38.9163609,119.776346 40.431405,120.931876 C41.9457427,122.090231 43.4798573,123.5297 44.982894,125.141509 C46.4831054,126.758968 47.8505298,128.360183 49.1374344,129.781993 C50.4215137,131.205216 51.6264858,132.446917 52.7071465,133.418099 C53.7849821,134.390694 54.7173169,135.111134 55.3904344,135.565294 C55.7195768,135.802616 55.9950394,135.957299 56.1744432,136.073134 C56.3566722,136.184026 56.4548499,136.239118 56.4599909,136.231349 C56.4647383,136.223579 56.376449,136.152948 56.2041084,136.02793 C56.0352993,135.897968 55.7697251,135.729865 55.4511774,135.47983 C54.7999557,135.002362 53.8916355,134.264263 52.8356957,133.278249 C51.777637,132.295059 50.593148,131.044883 49.3217824,129.616009 C48.0475915,128.189255 46.6858176,126.581683 45.180662,124.957867 C43.6691495,123.338288 42.1180834,121.892463 40.5818499,120.734108 C39.0442038,119.579284 37.534104,118.700629 36.1857501,118.146879 C34.8409278,117.587478 33.6889292,117.300008 32.8844373,117.185585 C32.4853698,117.106478 32.166822,117.104359 31.9549278,117.078932 C31.7423272,117.06187 31.6300232,117.057036 31.6293036,117.066924" id="Fill-200" fill="#263238"></path>
                        <path d="M30.4435808,113.514658 C30.436564,113.563394 31.2368181,113.673579 32.4855816,114.019673 C33.7329326,114.362941 35.4203173,114.992974 37.1197094,116.00159 C38.8155699,117.015151 40.1731059,118.198934 41.0687123,119.132681 C41.9678504,120.065723 42.4453188,120.716944 42.4848724,120.687985 C42.499705,120.677391 42.3916389,120.506463 42.1811573,120.207692 C41.9756198,119.905389 41.6443584,119.490783 41.2078562,119.003426 C40.3383834,118.025887 38.9787285,116.799019 37.2567344,115.769213 C35.5326213,114.745764 33.8063893,114.134802 32.533611,113.835325 C31.8965156,113.684173 31.3745493,113.590234 31.0107975,113.553505 C30.647752,113.511126 30.4457461,113.497 30.4435808,113.514658" id="Fill-202" fill="#263238"></path>
                        <path d="M127.981881,104.311172 C125.208185,105.066928 121.875794,101.075546 119.357078,98.5780188 C118.046158,97.2784006 116.682972,95.8919057 116.200559,94.1112875 C115.801492,92.6393286 116.062122,91.0515342 116.636355,89.6389057 C117.210589,88.2262772 117.616719,87.3116003 118.480542,86.0550673 C118.248164,88.2086194 117.718428,91.5092258 118.443107,94.215822 C119.047712,96.4732023 120.477998,98.2700658 121.995161,99.9736957 C123.60132,101.776916 125.499893,103.669838 127.981881,104.311172" id="Fill-204" fill="#000000"></path>
                        <path d="M116.121805,102.027508 C116.174072,102.01113 115.852699,101.112698 115.592069,99.6089551 C115.457163,98.858143 115.368168,97.9519419 115.337796,96.9461504 C115.325789,95.9396526 115.382294,94.8314455 115.55746,93.6822722 C115.74534,92.5345116 116.03281,91.4623266 116.354889,90.508096 C116.693213,89.5602223 117.056965,88.7260652 117.417185,88.053654 C118.128444,86.7031812 118.710447,85.947425 118.666655,85.9156408 C118.651823,85.9050461 118.500672,86.0886878 118.240042,86.4312502 C118.106548,86.6007656 117.950453,86.8133662 117.790119,87.0739962 C117.626961,87.3325072 117.427074,87.6206834 117.249789,87.9632458 C116.864141,88.6314191 116.477081,89.4684015 116.121099,90.4254573 C115.781362,91.3881636 115.481884,92.4758875 115.291886,93.6398934 C115.113895,94.8060182 115.063746,95.9318831 115.08988,96.9525072 C115.134378,97.9731313 115.244563,98.8892209 115.404896,99.6435645 C115.467758,100.024268 115.570174,100.359061 115.645043,100.655713 C115.717087,100.953071 115.800432,101.203106 115.874595,101.405819 C116.017271,101.811949 116.104147,102.033732 116.121805,102.027508" id="Fill-206" fill="#263238"></path>
                        <path d="M77.595259,58.7818728 C77.5599433,58.8525043 78.1737304,59.209193 78.8164764,59.7862517 C79.4641665,60.3576599 79.8893677,60.9262429 79.9550549,60.8824514 C80.0165043,60.8485483 79.6746482,60.1860256 78.9951739,59.5849521 C78.3192311,58.9803471 77.622099,58.7175982 77.595259,58.7818728" id="Fill-208" fill="#263238"></path>
                        <path d="M72.1416655,61.9502573 C72.0851604,62.0067624 72.6127771,62.5739327 73.0365656,63.4087962 C73.4695363,64.2408344 73.6228065,64.9994159 73.7019137,64.9867022 C73.7711325,64.9838769 73.7322852,64.1659651 73.2760062,63.2866038 C72.8267903,62.403711 72.1840443,61.8965774 72.1416655,61.9502573" id="Fill-210" fill="#263238"></path>
                        <path d="M62.8044031,65.2376557 C62.8792724,65.2539009 63.091873,64.5369919 63.4047702,63.6745822 C63.7141358,62.8107599 64.0079626,62.1228098 63.9394501,62.0874941 C63.8765881,62.0528847 63.4676322,62.6998686 63.1512034,63.5834677 C62.8319493,64.4656542 62.7337717,65.2235294 62.8044031,65.2376557" id="Fill-212" fill="#263238"></path>
                        <path d="M56.7962116,62.3979192 C56.8760251,62.4155771 57.0808562,61.5009001 57.6727476,60.5353686 C58.2533379,59.5634802 58.9688342,58.9574626 58.9151543,58.8953069 C58.8819576,58.8366828 58.0548636,59.374188 57.4424891,60.396931 C56.8216389,61.4126109 56.7291117,62.395094 56.7962116,62.3979192" id="Fill-214" fill="#263238"></path>
                        <path d="M39.5408134,79.3784097 C39.4673567,79.3883084 40.3544874,86.5503348 41.5220248,95.3736123 C42.6902686,104.200421 43.6967664,111.345496 43.7702231,111.335618 C43.844386,111.32572 42.9572554,104.165106 41.7890116,95.3390029 C40.6207678,86.5150191 39.61427,79.3685316 39.5408134,79.3784097" id="Fill-216" fill="#263238"></path>
                        <path d="M118.075541,90.9753711 C118.057177,90.9760999 118.063534,91.2388488 118.09108,91.7156109 C118.095318,91.9557577 118.137697,92.2439339 118.19844,92.5780206 C118.227399,92.7482423 118.25777,92.9269398 118.289554,93.1141131 C118.329108,93.302699 118.386319,93.4976417 118.439293,93.7045918 C118.632823,94.5387489 119.007169,95.4901542 119.471924,96.519254 C119.977645,97.5285771 120.600614,98.6106505 121.397337,99.6461072 C122.203948,100.672382 123.074127,101.570814 123.95702,102.282778 C124.856864,102.967903 125.724218,103.523772 126.526591,103.832432 C126.725065,103.913658 126.910826,103.999828 127.091642,104.064809 C127.27599,104.11637 127.451156,104.165106 127.617846,104.211016 C127.778886,104.255514 127.930744,104.29648 128.074832,104.336034 C128.216095,104.367112 128.351001,104.374175 128.468955,104.39042 C128.945011,104.446219 129.205641,104.468115 129.207053,104.449044 C129.220473,104.377 128.139813,104.356517 126.603579,103.657972 C125.826633,103.33448 124.987532,102.771548 124.113115,102.089248 C123.254943,101.380109 122.404541,100.492978 121.609937,99.4822423 C120.825929,98.4623245 120.206491,97.4007342 119.694413,96.4104816 C119.224714,95.4018649 118.836241,94.4702364 118.622228,93.6544435 C118.151117,92.0313333 118.136284,90.969743 118.075541,90.9753711" id="Fill-218" fill="#263238"></path>
                        <path d="M41.2269267,150.914138 C39.0048621,149.839835 38.4998474,146.957366 38.2724142,144.500099 C37.6084789,137.297106 36.9445435,130.093407 36.2799018,122.890415 C35.9677109,119.504344 35.815147,115.63798 38.2039018,113.216735 C40.3857065,111.005971 43.8508841,110.873184 46.9572542,110.881319 C66.1343922,110.937459 83.0703952,111.497566 102.247533,111.552658 L101.270701,145.09976 L41.2269267,150.914138 Z" id="Fill-220" fill="#000000"></path>
                        <path d="M110.512681,116.749648 L108.470727,155.657674 C108.392326,157.157179 107.138618,158.333193 105.61863,158.332486 L43.6409675,158.439846 C42.118154,158.43914 40.8637399,157.258182 40.7895769,155.755146 L38.4241305,117.507523 C38.346436,115.919022 39.4765388,113.806436 41.0855226,113.774652 L107.604079,113.781009 C109.261092,113.748519 110.598852,115.113824 110.512681,116.749648" id="Fill-222" fill="#E0E0E0"></path>
                        <path d="M110.512681,116.749648 C110.512681,116.749648 110.516919,116.700912 110.519744,116.604147 C110.526807,116.505969 110.518332,116.361881 110.496436,116.171177 C110.441343,115.797536 110.280304,115.210589 109.761869,114.65472 C109.504771,114.381376 109.160796,114.117921 108.725,113.949112 C108.293442,113.766177 107.769357,113.726623 107.227614,113.740749 C106.135652,113.737218 104.876294,113.73298 103.459427,113.728742 C97.7834859,113.717441 89.5803523,113.702608 79.4454492,113.682831 C69.3056019,113.674356 57.2339852,113.663055 43.8309661,113.651047 C42.9925711,113.650341 42.1499382,113.649635 41.3016548,113.649635 C40.8785725,113.630564 40.3947473,113.733686 40.021107,113.975952 C39.6375784,114.211154 39.3253875,114.541003 39.0753523,114.905461 C38.5823449,115.638616 38.2913435,116.51162 38.2969132,117.41429 C38.3485549,118.281643 38.4001159,119.153942 38.4516768,120.031184 C38.6671026,123.53309 38.8874727,127.107746 39.1113743,130.747384 C39.5605902,138.027364 40.0253449,145.564444 40.502107,153.283752 L40.5911026,154.728871 C40.6320689,155.214815 40.6250057,155.680276 40.7104698,156.185997 C40.8948178,157.184019 41.6413919,158.033009 42.5793772,158.379809 C43.0427194,158.564864 43.5710424,158.589585 44.0343846,158.574046 L45.4597267,158.571221 C46.4090131,158.569808 47.3540615,158.567689 48.2962847,158.566276 C52.0630586,158.558507 55.7754463,158.55215 59.422853,158.545087 C66.7176665,158.528842 73.7546753,158.514715 80.4575975,158.499883 C87.1605197,158.484344 93.5307678,158.468805 99.4920601,158.454679 C100.982383,158.450441 102.447279,158.446909 103.885335,158.442671 C104.244849,158.441965 104.602244,158.441259 104.958932,158.439846 C105.314208,158.434196 105.667365,158.455385 106.035355,158.406649 C106.76074,158.307765 107.433857,157.929887 107.893668,157.378962 C108.361954,156.835806 108.591506,156.105478 108.58515,155.421059 C108.619759,154.74441 108.654368,154.074824 108.688272,153.412301 C108.756078,152.087256 108.822471,150.791875 108.887452,149.52616 C109.400943,139.403971 109.816255,131.212845 110.103725,125.544673 C110.24075,122.717297 110.34811,120.52066 110.42086,119.02398 C110.454057,118.28235 110.478778,117.715886 110.496436,117.327413 C110.511975,116.945297 110.512681,116.749648 110.512681,116.749648 C110.512681,116.749648 110.493611,116.944591 110.46889,117.326 C110.444875,117.713767 110.410972,118.280231 110.366474,119.021154 C110.281716,120.517128 110.158111,122.712353 109.998484,125.539022 C109.691238,131.206488 109.246966,139.396201 108.697454,149.516272 C108.629647,150.781987 108.560429,152.077367 108.489091,153.402413 C108.453775,154.064229 108.417753,154.733815 108.381731,155.410464 C108.384556,156.081463 108.171249,156.733391 107.734747,157.245469 C107.306015,157.75684 106.68022,158.106466 106.00569,158.196874 C105.673722,158.241372 105.314208,158.221595 104.958932,158.226539 C104.602244,158.227246 104.244142,158.227246 103.885335,158.227952 C102.447279,158.229364 100.982383,158.230071 99.4920601,158.230777 C93.5307678,158.23784 87.1605197,158.244903 80.4575975,158.252673 C73.7546753,158.261149 66.7176665,158.271037 59.422853,158.280925 C55.7747399,158.287282 52.0630586,158.292226 48.2955784,158.298583 C47.3540615,158.299996 46.4083068,158.301409 45.4597267,158.302821 L44.0343846,158.305646 C43.5491467,158.319773 43.106994,158.296464 42.6747297,158.128362 C41.8207957,157.812639 41.1406151,157.039225 40.9746313,156.134436 C40.897643,155.69299 40.8990557,155.189388 40.8602084,154.714745 L40.7705065,153.26892 C40.2923317,145.548905 39.825458,138.012532 39.3748295,130.733257 C39.1481026,127.09362 38.9256137,123.518257 38.7080689,120.016351 C38.6558016,119.142641 38.6035344,118.273168 38.5519734,117.408639 C38.544204,116.574482 38.8210791,115.734674 39.283715,115.048137 C39.7428192,114.360187 40.4696166,113.836808 41.30448,113.900376 C42.1520571,113.89967 42.9953963,113.89967 43.833085,113.898964 C57.2361041,113.889075 69.3077209,113.880599 79.4475681,113.873536 C89.5824712,113.855878 97.7848985,113.842458 103.46084,113.83257 C104.877,113.828332 106.136358,113.824094 107.22832,113.821269 C107.775714,113.802199 108.274371,113.837514 108.700985,114.011974 C109.127599,114.173014 109.46663,114.427287 109.722316,114.692154 C110.237925,115.231779 110.406028,115.806718 110.46889,116.175414 C110.526807,116.55188 110.497849,116.749648 110.512681,116.749648" id="Fill-224" fill="#263238"></path>
                        <path d="M70.358999,135.726334 C70.358999,137.742155 71.9934101,139.377272 74.009231,139.377272 C76.0257581,139.377272 77.6601693,137.742155 77.6601693,135.726334 C77.6601693,133.710513 76.0257581,132.075396 74.009231,132.075396 C71.9934101,132.075396 70.358999,133.710513 70.358999,135.726334" id="Fill-226" fill="#FFFFFF"></path>
                        <path d="M70.358999,135.726334 C70.3886642,135.727747 70.3745379,135.400723 70.5235702,134.847679 C70.6711899,134.304523 71.0405922,133.510626 71.8585041,132.900371 C72.2639285,132.6016 72.7717684,132.350152 73.3565966,132.249855 C73.9364806,132.153796 74.5905276,132.175692 75.2106715,132.414426 C75.8315217,132.639034 76.4227068,133.062117 76.8429637,133.646945 C77.275228,134.223297 77.5182001,134.962808 77.5252633,135.725628 C77.5182001,136.488447 77.275228,137.228664 76.84367,137.805723 C76.4227068,138.389845 75.8315217,138.813633 75.2106715,139.038241 C74.5905276,139.276976 73.9364806,139.298871 73.3558903,139.202813 C72.7717684,139.102516 72.2632222,138.850362 71.8585041,138.552297 C71.0405922,137.942042 70.6711899,137.147438 70.5235702,136.604283 C70.3745379,136.051945 70.3886642,135.724215 70.358999,135.726334 C70.3498169,135.726334 70.3441664,135.806147 70.3434601,135.96083 C70.3399285,136.114807 70.3582927,136.343653 70.4218609,136.630416 C70.5426407,137.196174 70.8965041,138.039513 71.7426686,138.703448 C72.1615129,139.027647 72.6954865,139.305228 73.3149241,139.42177 C73.9301238,139.534074 74.6272559,139.519948 75.2954292,139.272031 C75.9621899,139.036829 76.6006979,138.588319 77.0555643,137.961819 C77.5231443,137.3445 77.7880122,136.546365 77.794369,135.725628 C77.7880122,134.905597 77.522438,134.107462 77.0555643,133.490143 C76.6006979,132.864349 75.9621899,132.415839 75.2954292,132.180636 C74.6279623,131.93272 73.9308301,131.918594 73.3156304,132.030898 C72.6954865,132.146733 72.1622192,132.424315 71.7426686,132.748513 C70.8972104,133.413155 70.5426407,134.256494 70.4225673,134.822252 C70.3582927,135.109015 70.3399285,135.337861 70.3434601,135.491838 C70.3441664,135.64652 70.3498169,135.726334 70.358999,135.726334" id="Fill-228" fill="#263238"></path>
                        <path d="M108.425099,121.056469 C108.350936,121.053644 108.045102,127.591995 107.742799,135.658104 C107.43979,143.727744 107.255442,150.26892 107.329605,150.271747 C107.403768,150.274571 107.708896,143.737633 108.011905,135.667992 C108.314207,127.60259 108.499262,121.059295 108.425099,121.056469" id="Fill-230" fill="#263238"></path>
                        <path d="M127.053431,70.291546 C127.41577,69.9842993 125.828682,63.8739747 125.828682,63.8739747 C125.828682,63.8739747 130.032664,57.0142508 130.143556,54.8013683 C130.254447,52.5884858 128.483717,48.0518294 128.483717,48.0518294 L116.423401,44.9532288 C116.423401,44.9532288 112.549268,52.1456267 111.775147,54.6904769 C111.001733,57.2353272 113.103724,65.8657809 113.103724,65.8657809 L115.147091,70.291546 C115.147091,70.291546 121.307564,75.1608764 127.053431,70.291546" id="Fill-232" fill="#FFBE9D"></path>
                        <path d="M130.120459,56.1242242 C130.120459,56.1242242 130.643838,55.2180231 131.390412,53.4458806 C132.153938,51.6355972 133.091923,49.8592169 131.390412,48.8463623 C130.389565,48.2509394 129.573772,48.560305 129.573772,48.560305 C129.573772,48.560305 129.834402,47.0360789 128.923963,46.463258 C128.013524,45.8911435 127.135575,46.3085752 127.135575,46.3085752 C127.135575,46.3085752 127.423045,44.1585546 126.112126,43.2467029 C124.467826,42.1024739 122.771966,43.1513505 122.771966,43.1513505 C122.771966,43.1513505 123.809541,33.7397132 123.899949,33.2410554 C124.230505,31.4109952 123.553149,29.7914166 121.732271,30.2434577 C121.06551,30.4087352 120.694695,31.1122242 119.912099,34.1769217 C119.129503,37.2416192 117.872264,42.4718762 117.872264,42.4718762 C117.872264,42.4718762 115.754027,46.1524797 114.753886,48.1492301 C113.753039,50.1452742 111.775359,54.6904063 111.610788,55.8946721 C111.18488,59.0081053 113.007878,63.1301552 113.007878,63.1301552 L125.828187,63.8739041 C125.828187,63.8739041 129.632396,57.0177117 130.120459,56.1242242" id="Fill-234" fill="#FFBE9D"></path>
                        <path d="M129.320699,48.9658706 C129.289622,48.9460938 128.91245,49.4765358 128.328328,50.3502465 C128.026025,50.8114698 127.684876,51.3299044 127.314767,51.8935432 C127.126887,52.1845446 126.919937,52.4946166 126.763136,52.8569558 C126.607746,53.2136445 126.510275,53.6501467 126.612691,54.0795858 C126.698155,54.500549 126.999044,54.9102113 127.422127,55.0288721 C127.840971,55.1595402 128.247808,55.0345226 128.570594,54.8876093 C128.89903,54.7357517 129.177318,54.5379837 129.426647,54.3578736 C129.678801,54.1763508 129.909765,54.0033038 130.117422,53.8401452 C130.532735,53.5152407 130.856933,53.2369529 131.073771,53.0377722 C131.291316,52.8378853 131.402207,52.7185182 131.390906,52.7043919 C131.364773,52.6740204 130.856933,53.0801511 130.003705,53.6882877 C129.572147,53.9764639 129.07137,54.3797693 128.468884,54.6608824 C128.167995,54.7929631 127.817663,54.8826651 127.502647,54.7781305 C127.182686,54.6848971 126.951721,54.3783567 126.874733,54.0202554 C126.789975,53.6607414 126.865551,53.2927517 127.006108,52.9593714 C127.145958,52.6252847 127.340901,52.3215696 127.523836,52.0263302 C127.876287,51.4513905 128.200485,50.9230674 128.489368,50.4526621 C129.031817,49.5528178 129.351777,48.9856474 129.320699,48.9658706" id="Fill-236" fill="#EB996E"></path>
                        <path d="M118.806011,50.0836194 C118.87523,50.0864382 118.939505,49.1654044 118.671811,48.0692047 C118.409769,46.970886 117.9323,46.1805204 117.872264,46.2144235 C117.800926,46.2490329 118.157615,47.0690637 118.409769,48.1320667 C118.669693,49.1929507 118.726904,50.0850256 118.806011,50.0836194" id="Fill-238" fill="#EB996E"></path>
                        <path d="M113.724504,52.8347775 C114.870146,51.6679464 116.414855,50.943268 118.012538,50.5964677 C119.610927,50.2496674 121.26794,50.2602621 122.896701,50.4085881 C124.200557,50.5272489 125.689467,50.8641608 126.283478,52.0316982 C126.895146,53.2324325 126.159166,54.7806733 125.002223,55.4721549 C123.845281,56.1629302 122.414994,56.1897702 121.072291,56.0682841 C119.730294,55.9467981 118.37629,55.6960565 117.044887,55.9037129" id="Fill-240" fill="#FFBE9D"></path>
                        <path d="M117.045028,55.9038542 C117.04856,55.9264562 117.406661,55.8699511 118.057177,55.8770142 C118.707692,55.8777206 119.64144,55.9963814 120.804033,56.1383505 C121.386036,56.2026251 122.032313,56.256305 122.728739,56.2195767 C123.420927,56.1800231 124.180215,56.0507675 124.888648,55.6771273 C125.600613,55.3098439 126.210868,54.6459085 126.492688,53.8110451 C126.638895,53.3964386 126.67633,52.9302712 126.583802,52.4768175 C126.477149,52.0268953 126.232058,51.6009878 125.876782,51.2909159 C125.161285,50.6587646 124.24449,50.4567587 123.412451,50.3345664 C122.566287,50.2321508 121.756144,50.1904783 120.976374,50.187653 C119.420363,50.1812962 118.014092,50.4122609 116.90094,50.8042653 C115.783551,51.1920319 114.964933,51.7111728 114.454974,52.1243667 C114.197876,52.3299041 114.013528,52.5078953 113.893454,52.6322066 C113.776206,52.7586369 113.717582,52.828562 113.724645,52.8349188 C113.742303,52.853283 113.992338,52.5891214 114.517836,52.2077117 C115.040509,51.8255957 115.858421,51.3424768 116.960977,50.9850818 C118.060708,50.6227426 119.440846,50.4164988 120.975667,50.4355693 C121.740606,50.4447514 122.552867,50.4927808 123.376429,50.5951963 C124.185865,50.7152698 125.05887,50.9229261 125.696672,51.4908028 C126.014513,51.767678 126.22782,52.1427308 126.322466,52.5347352 C126.403692,52.9316838 126.374733,53.3491156 126.242653,53.7277 C125.988379,54.491932 125.428272,55.1134885 124.772106,55.4581699 C124.110996,55.8148586 123.387024,55.948352 122.715319,55.9963814 C122.03867,56.0422918 121.402987,56.0006192 120.82381,55.948352 C119.664042,55.8318101 118.714049,55.7406956 118.055764,55.7724797 C117.726622,55.7837808 117.473055,55.8162712 117.302127,55.8424048 C117.131905,55.8734827 117.043616,55.8946721 117.045028,55.9038542" id="Fill-242" fill="#EB996E"></path>
                        <path d="M129.227537,49.112784 C127.878476,51.1610953 126.687631,53.4121188 125.550465,55.586154 C125.220616,56.2183053 124.870284,56.8864786 124.262854,57.2608251 C123.77691,57.5603023 122.569819,57.0164404 122.029488,56.831386 L125.7334,48.4036445" id="Fill-244" fill="#FFBE9D"></path>
                        <path d="M125.733259,48.4037151 C125.71772,48.396652 125.601884,48.6198473 125.404116,49.0316285 C125.192222,49.4879075 124.917466,50.0805051 124.584792,50.7967078 C123.898254,52.2990382 122.957444,54.3996167 121.907154,56.7777768 L121.849237,56.9091512 L121.986262,56.9578869 C122.386742,57.1005624 122.816181,57.2806725 123.278817,57.3965081 C123.461752,57.4410059 123.648219,57.4770279 123.845281,57.4819721 C123.943458,57.4833847 124.044461,57.4798532 124.148996,57.4494816 C124.254237,57.4268796 124.358065,57.360486 124.42799,57.3117504 C124.740181,57.0956182 124.978915,56.807442 125.173858,56.5143216 C125.554561,55.9167797 125.822961,55.3164126 126.124557,54.759837 C126.705853,53.6396226 127.239827,52.6359501 127.702463,51.8010866 C128.16298,50.9655169 128.552865,50.2987562 128.823384,49.8382394 C129.093196,49.3777225 129.244347,49.1241557 129.227395,49.1121483 C129.213269,49.1029662 129.032453,49.3381689 128.735094,49.7831468 C128.436323,50.2274185 128.020304,50.8807592 127.536479,51.7064405 C127.051947,52.5321219 126.49961,53.5287313 125.904893,54.6440015 C125.599765,55.1956329 125.31724,55.807301 124.954194,56.3674082 C124.76914,56.6442834 124.549476,56.9035007 124.276132,57.0920866 C124.043049,57.2813789 123.682828,57.2121601 123.343798,57.1358781 C122.905883,57.0263994 122.489157,56.8519398 122.073138,56.7050264 L122.151539,56.8851366 C123.194059,54.5034449 124.105204,52.3901527 124.747244,50.8680455 C125.050253,50.1384229 125.300288,49.5352305 125.493112,49.0704758 C125.663334,48.6466872 125.748798,48.4107783 125.733259,48.4037151" id="Fill-246" fill="#EB996E"></path>
                        <path d="M126.731705,45.8999018 L123.159873,54.8566727 C122.907719,55.4909429 122.647089,56.1379267 122.199992,56.6528298 C121.752895,57.1684392 121.076953,57.5378416 120.401716,57.4368386 C119.4715,57.2976947 118.862658,56.3109737 118.815335,55.3715758 C118.768718,54.4321778 119.140239,53.5288019 119.484214,52.6529722 C120.552868,49.9308372 121.409627,47.125357 122.04531,44.2704348" id="Fill-248" fill="#FFBE9D"></path>
                        <path d="M122.045451,44.2707015 C122.036269,44.2693047 122.005191,44.3625382 121.955749,44.5433546 C121.899244,44.7538363 121.829319,45.0151725 121.743855,45.3351329 C121.5588,46.0223767 121.290401,47.0154545 120.912523,48.2289023 C120.535351,49.4430565 120.0487,50.8761681 119.434207,52.4385352 C119.135436,53.2175999 118.749789,54.0461065 118.68622,55.0010433 C118.651611,55.4728612 118.73425,55.9792885 118.956032,56.4242665 C119.173577,56.8664192 119.531678,57.2803194 120.02963,57.4752621 C120.528288,57.675149 121.091927,57.5889787 121.529841,57.3537761 C121.976232,57.1235176 122.329389,56.7576468 122.584369,56.3606982 C123.09009,55.5540874 123.336593,54.7001535 123.664323,53.9267394 C124.274579,52.3679038 124.82621,50.9588069 125.294496,49.7623106 C125.738768,48.5997173 126.103226,47.6468994 126.370919,46.9462357 C126.48393,46.6347511 126.577163,46.3797717 126.651326,46.1756468 C126.712069,45.998362 126.740322,45.9037159 126.731846,45.9001843 C126.72337,45.8966527 126.678166,45.9842357 126.600471,46.1551637 C126.514301,46.3550507 126.405529,46.6036733 126.273448,46.9073884 C125.985978,47.6002827 125.59468,48.5425059 125.117211,49.6916791 C124.634093,50.8818186 124.064097,52.2838524 123.434065,53.8349185 C123.102097,54.6055073 122.840054,55.4686233 122.363999,56.2159038 C122.123145,56.5867188 121.804598,56.910917 121.406943,57.1164545 C121.015645,57.3241109 120.541708,57.3897981 120.127101,57.2245206 C119.711789,57.0627746 119.392535,56.7046733 119.196179,56.3056057 C118.996292,55.901594 118.92001,55.4580286 118.949675,55.0165822 C119.002649,54.1287452 119.369226,53.3143649 119.665172,52.5289435 C120.269777,50.9538627 120.740182,49.5087438 121.094752,48.2839949 C121.450028,47.059246 121.691587,46.0555734 121.845564,45.3598539 C121.920433,45.011641 121.976232,44.7404163 122.008016,44.555362 C122.041213,44.371014 122.054633,44.2728363 122.045451,44.2707015" id="Fill-250" fill="#EB996E"></path>
                        <path d="M134.946351,92.1893358 C134.623565,91.0055532 126.444447,66.899048 126.444447,66.899048 L112.967264,65.2837073 L118.480753,86.0549966 C118.480753,86.0549966 117.619756,91.3283388 118.480753,94.4495414 C119.341751,97.5700377 126.229021,106.071942 129.781075,104.027869 C133.331717,101.982383 135.269137,93.3731185 134.946351,92.1893358" id="Fill-252" fill="#FFBE9D"></path>
                        <path d="M118.4804,63.1525454 C118.483932,63.1829169 118.785528,63.1871548 119.250283,63.0508361 C119.712919,62.9187554 120.328825,62.6171592 120.876925,62.1163824 C121.423612,61.6127803 121.777475,61.0258332 121.949816,60.575911 C122.124982,60.1245762 122.146878,59.8243927 122.116506,59.8180358 C122.039518,59.7855454 121.755579,60.9650902 120.695402,61.9179081 C119.655001,62.8912091 118.454973,63.0727319 118.4804,63.1525454" id="Fill-254" fill="#EB996E"></path>
                    </g>
                </g>
            </g>
        </g>
    </g>
</svg>
