<?xml version="1.0" encoding="UTF-8"?>
<svg width="288px" height="167px" viewBox="0 0 288 167" version="1.1" xmlns="http://www.w3.org/2000/svg" xmlns:xlink="http://www.w3.org/1999/xlink">
    <g id="Page-1" stroke="none" stroke-width="1" fill="none" fill-rule="evenodd">
        <g id="PLATFORM" transform="translate(-165.000000, -1471.000000)">
            <g id="Group-22" transform="translate(165.000000, 876.000000)">
                <g id="Group-23" transform="translate(0.000000, 596.000000)">
                    <g id="Group-20" transform="translate(58.000000, 10.000000)" fill="#FA6400">
                        <rect id="Rectangle" x="2" y="3" width="2" height="140" rx="1"></rect>
                        <circle id="Oval" stroke="#FFFFFF" stroke-width="2" cx="3" cy="3" r="4"></circle>
                        <circle id="Oval-Copy" stroke="#FFFFFF" stroke-width="2" cx="3" cy="38" r="4"></circle>
                        <circle id="Oval-Copy-4" stroke="#FFFFFF" stroke-width="2" cx="3" cy="73" r="4"></circle>
                        <circle id="Oval-Copy-2" stroke="#FFFFFF" stroke-width="2" cx="3" cy="108" r="4"></circle>
                        <circle id="Oval-Copy-5" stroke="#FFFFFF" stroke-width="2" cx="3" cy="143" r="4"></circle>
                    </g>
                    <g id="Group-10-Copy-2" transform="translate(83.000000, 0.000000)">
                        <g id="Group" transform="translate(33.000000, 5.000000)" fill="#000000" font-family="Averta-Regular" font-size="16" font-weight="normal">
                            <text id="added-patch">
                                <tspan x="0" y="13">added patch</tspan>
                            </text>
                        </g>
                        <g id="Group-7" fill="#FFFFFF" stroke="#FA6400" stroke-width="2">
                            <rect id="Rectangle" x="0" y="0" width="25" height="25" rx="4"></rect>
                        </g>
                    </g>
                    <g id="Group-19" transform="translate(4.000000, 3.000000)">
                        <path d="M40.3236055,0 C42.5327445,-4.05812251e-16 44.3236055,1.790861 44.3236055,4 L44.323,6.929 L46.7023477,9.29030724 C47.0943001,9.67939809 47.09662,10.3125588 46.7075291,10.7045113 L46.7023477,10.7096928 L44.323,13.07 L44.3236055,16 C44.3236055,18.209139 42.5327445,20 40.3236055,20 L4,20 C1.790861,20 2.705415e-16,18.209139 0,16 L0,4 C-2.705415e-16,1.790861 1.790861,4.05812251e-16 4,0 L40.3236055,0 Z" id="Combined-Shape" fill="#7F7F7F"></path>
                        <path d="M6.40039062,15.4375 L6.40039062,12.4257812 C6.47460938,12.5078125 6.5546875,12.5839844 6.640625,12.6542969 C6.7265625,12.7246094 6.81640625,12.7871094 6.91015625,12.8417969 C7.0703125,12.9316406 7.24511719,13 7.43457031,13.046875 C7.62402344,13.09375 7.83203125,13.1171875 8.05859375,13.1171875 C8.45703125,13.1171875 8.81054688,13.0351562 9.11914062,12.8710938 C9.42773438,12.7070312 9.6875,12.4804688 9.8984375,12.1914062 C10.109375,11.90625 10.2685547,11.5664062 10.3759766,11.171875 C10.4833984,10.7773438 10.5371094,10.3515625 10.5371094,9.89453125 L10.5371094,9.77148438 C10.5371094,9.29492188 10.4824219,8.85839844 10.3730469,8.46191406 C10.2636719,8.06542969 10.1054688,7.72460938 9.8984375,7.43945312 C9.6875,7.15429688 9.42675781,6.93359375 9.11621094,6.77734375 C8.80566406,6.62109375 8.44726562,6.54296875 8.04101562,6.54296875 C7.83398438,6.54296875 7.63867188,6.56542969 7.45507812,6.61035156 C7.27148438,6.65527344 7.10351562,6.71875 6.95117188,6.80078125 C6.83398438,6.86328125 6.72460938,6.9375 6.62304688,7.0234375 C6.52148438,7.109375 6.42773438,7.20507812 6.34179688,7.31054688 L6.2890625,6.66015625 L5,6.66015625 L5,15.4375 L6.40039062,15.4375 Z M7.66601562,11.9863281 C7.50585938,11.9863281 7.359375,11.9677734 7.2265625,11.9306641 C7.09375,11.8935547 6.97460938,11.84375 6.86914062,11.78125 C6.76757812,11.7148438 6.67773438,11.6367188 6.59960938,11.546875 C6.52148438,11.4570312 6.45507812,11.3574219 6.40039062,11.2480469 L6.40039062,8.4296875 C6.46289062,8.3125 6.53613281,8.20703125 6.62011719,8.11328125 C6.70410156,8.01953125 6.80273438,7.94140625 6.91601562,7.87890625 C7.01367188,7.8203125 7.125,7.77539062 7.25,7.74414062 C7.375,7.71289062 7.50976562,7.69726562 7.65429688,7.69726562 C7.91601562,7.69726562 8.140625,7.75195312 8.328125,7.86132812 C8.515625,7.97070312 8.66992188,8.11914062 8.79101562,8.30664062 C8.90820312,8.49414062 8.99511719,8.71386719 9.05175781,8.96582031 C9.10839844,9.21777344 9.13671875,9.48632812 9.13671875,9.77148438 L9.13671875,9.89453125 C9.13671875,10.1757812 9.109375,10.4423828 9.0546875,10.6943359 C9,10.9462891 8.91210938,11.1699219 8.79101562,11.3652344 C8.67382812,11.5566406 8.52246094,11.7080078 8.33691406,11.8193359 C8.15136719,11.9306641 7.92773438,11.9863281 7.66601562,11.9863281 Z M14.2636719,13.1171875 C14.4667969,13.1171875 14.65625,13.0976562 14.8320312,13.0585938 C15.0078125,13.0195312 15.171875,12.9648438 15.3242188,12.8945312 C15.4765625,12.828125 15.6142578,12.7490234 15.7373047,12.6572266 C15.8603516,12.5654297 15.9707031,12.46875 16.0683594,12.3671875 C16.0878906,12.4882812 16.1103516,12.6044922 16.1357422,12.7158203 C16.1611328,12.8271484 16.1953125,12.921875 16.2382812,13 L17.6679688,13 L17.6679688,12.9003906 C17.5898438,12.7363281 17.5302734,12.5400391 17.4892578,12.3115234 C17.4482422,12.0830078 17.4277344,11.8261719 17.4277344,11.5410156 L17.4277344,8.72265625 C17.4277344,8.36328125 17.3613281,8.04589844 17.2285156,7.77050781 C17.0957031,7.49511719 16.9121094,7.26757812 16.6777344,7.08789062 C16.4433594,6.90820312 16.1650391,6.77246094 15.8427734,6.68066406 C15.5205078,6.58886719 15.1738281,6.54296875 14.8027344,6.54296875 C14.3886719,6.54296875 14.0205078,6.59667969 13.6982422,6.70410156 C13.3759766,6.81152344 13.1054688,6.95703125 12.8867188,7.140625 C12.6601562,7.3203125 12.4882812,7.52734375 12.3710938,7.76171875 C12.2539062,7.99609375 12.1933594,8.24023438 12.1894531,8.49414062 L13.5957031,8.49414062 C13.5957031,8.37304688 13.6181641,8.25878906 13.6630859,8.15136719 C13.7080078,8.04394531 13.7773438,7.953125 13.8710938,7.87890625 C13.9648438,7.796875 14.0830078,7.73242188 14.2255859,7.68554688 C14.3681641,7.63867188 14.5351562,7.61523438 14.7265625,7.61523438 C14.9375,7.61523438 15.1240234,7.64160156 15.2861328,7.69433594 C15.4482422,7.74707031 15.5859375,7.82226562 15.6992188,7.91992188 C15.8046875,8.01757812 15.8857422,8.1328125 15.9423828,8.265625 C15.9990234,8.3984375 16.0273438,8.546875 16.0273438,8.7109375 L16.0273438,9.13867188 L15.0078125,9.13867188 C14.5507812,9.13867188 14.1416016,9.18164062 13.7802734,9.26757812 C13.4189453,9.35351562 13.1152344,9.47851562 12.8691406,9.64257812 C12.6035156,9.81835938 12.4013672,10.0400391 12.2626953,10.3076172 C12.1240234,10.5751953 12.0546875,10.8828125 12.0546875,11.2304688 C12.0546875,11.5 12.1083984,11.7509766 12.2158203,11.9833984 C12.3232422,12.2158203 12.4746094,12.4140625 12.6699219,12.578125 C12.8613281,12.7460938 13.0927734,12.8779297 13.3642578,12.9736328 C13.6357422,13.0693359 13.9355469,13.1171875 14.2636719,13.1171875 Z M14.5332031,11.9921875 C14.3535156,11.9921875 14.1972656,11.9697266 14.0644531,11.9248047 C13.9316406,11.8798828 13.8203125,11.8183594 13.7304688,11.7402344 C13.640625,11.6621094 13.5722656,11.5673828 13.5253906,11.4560547 C13.4785156,11.3447266 13.4550781,11.2246094 13.4550781,11.0957031 C13.4550781,10.9394531 13.4833984,10.7988281 13.5400391,10.6738281 C13.5966797,10.5488281 13.6835938,10.4414062 13.8007812,10.3515625 C13.9335938,10.2460938 14.1113281,10.1650391 14.3339844,10.1083984 C14.5566406,10.0517578 14.8203125,10.0234375 15.125,10.0234375 L16.0273438,10.0234375 L16.0273438,11.1953125 C15.9765625,11.296875 15.9042969,11.3945312 15.8105469,11.4882812 C15.7167969,11.5820312 15.6054688,11.6660156 15.4765625,11.7402344 C15.3476562,11.8144531 15.2041016,11.875 15.0458984,11.921875 C14.8876953,11.96875 14.7167969,11.9921875 14.5332031,11.9921875 Z M22.9765625,13.1230469 C23.1523438,13.1230469 23.3291016,13.1142578 23.5068359,13.0966797 C23.6845703,13.0791016 23.8554688,13.0546875 24.0195312,13.0234375 C24.1835938,12.9921875 24.3369141,12.9541016 24.4794922,12.9091797 C24.6220703,12.8642578 24.7441406,12.8105469 24.8457031,12.7480469 L24.6933594,11.78125 C24.6230469,11.796875 24.5361328,11.8154297 24.4326172,11.8369141 C24.3291016,11.8583984 24.21875,11.8769531 24.1015625,11.8925781 C23.9804688,11.9121094 23.8554688,11.9277344 23.7265625,11.9394531 C23.5976562,11.9511719 23.4726562,11.9570312 23.3515625,11.9570312 C23.1835938,11.9570312 23.0292969,11.9375 22.8886719,11.8984375 C22.7480469,11.859375 22.6269531,11.7929688 22.5253906,11.6992188 C22.4238281,11.609375 22.3447266,11.4853516 22.2880859,11.3271484 C22.2314453,11.1689453 22.203125,10.9726562 22.203125,10.7382812 L22.203125,7.70898438 L24.5878906,7.70898438 L24.5878906,6.66015625 L22.203125,6.66015625 L22.203125,5.11328125 L20.796875,5.11328125 L20.796875,6.66015625 L19.2617188,6.66015625 L19.2617188,7.70898438 L20.796875,7.70898438 L20.796875,10.8261719 C20.796875,11.2324219 20.8505859,11.5800781 20.9580078,11.8691406 C21.0654297,12.1582031 21.2148438,12.3945312 21.40625,12.578125 C21.5976562,12.765625 21.8271484,12.9033203 22.0947266,12.9912109 C22.3623047,13.0791016 22.65625,13.1230469 22.9765625,13.1230469 Z M29.3691406,13.1230469 C29.7207031,13.1230469 30.0556641,13.0654297 30.3740234,12.9501953 C30.6923828,12.8349609 30.9746094,12.6757812 31.2207031,12.4726562 C31.4628906,12.2773438 31.6552734,12.0439453 31.7978516,11.7724609 C31.9404297,11.5009766 32.0097656,11.2109375 32.0058594,10.9023438 L30.6875,10.9023438 C30.6875,11.0625 30.6513672,11.2089844 30.5791016,11.3417969 C30.5068359,11.4746094 30.4101562,11.5898438 30.2890625,11.6875 C30.1640625,11.7851562 30.0205078,11.8603516 29.8583984,11.9130859 C29.6962891,11.9658203 29.5273438,11.9921875 29.3515625,11.9921875 C29.0585938,11.9921875 28.8144531,11.9335938 28.6191406,11.8164062 C28.4238281,11.6992188 28.2695312,11.5429688 28.15625,11.3476562 C28.0390625,11.1601562 27.9560547,10.9423828 27.9072266,10.6943359 C27.8583984,10.4462891 27.8339844,10.1933594 27.8339844,9.93554688 L27.8339844,9.73046875 C27.8339844,9.4765625 27.8583984,9.2265625 27.9072266,8.98046875 C27.9560547,8.734375 28.0410156,8.515625 28.1621094,8.32421875 C28.2753906,8.1328125 28.4287109,7.97753906 28.6220703,7.85839844 C28.8154297,7.73925781 29.0585938,7.6796875 29.3515625,7.6796875 C29.5429688,7.6796875 29.7216797,7.71289062 29.8876953,7.77929688 C30.0537109,7.84570312 30.1972656,7.93554688 30.3183594,8.04882812 C30.4355469,8.16210938 30.5263672,8.29492188 30.5908203,8.44726562 C30.6552734,8.59960938 30.6875,8.76171875 30.6875,8.93359375 L32.0058594,8.93359375 C32.0097656,8.58203125 31.9462891,8.25976562 31.8154297,7.96679688 C31.6845703,7.67382812 31.5019531,7.421875 31.2675781,7.2109375 C31.0332031,7 30.7529297,6.8359375 30.4267578,6.71875 C30.1005859,6.6015625 29.7460938,6.54296875 29.3632812,6.54296875 C28.8789062,6.54296875 28.4541016,6.62792969 28.0888672,6.79785156 C27.7236328,6.96777344 27.4179688,7.19726562 27.171875,7.48632812 C26.9257812,7.77539062 26.7412109,8.11328125 26.6181641,8.5 C26.4951172,8.88671875 26.4335938,9.296875 26.4335938,9.73046875 L26.4335938,9.93554688 C26.4335938,10.3730469 26.4960938,10.7841797 26.6210938,11.1689453 C26.7460938,11.5537109 26.9316406,11.890625 27.1777344,12.1796875 C27.4199219,12.46875 27.7236328,12.6982422 28.0888672,12.8681641 C28.4541016,13.0380859 28.8808594,13.1230469 29.3691406,13.1230469 Z M35.1933594,13 L35.1933594,8.41210938 C35.2597656,8.31054688 35.3369141,8.21875 35.4248047,8.13671875 C35.5126953,8.0546875 35.6074219,7.984375 35.7089844,7.92578125 C35.8300781,7.8515625 35.9638672,7.79492188 36.1103516,7.75585938 C36.2568359,7.71679688 36.4121094,7.69726562 36.5761719,7.69726562 C36.7871094,7.69726562 36.9736328,7.72558594 37.1357422,7.78222656 C37.2978516,7.83886719 37.4355469,7.92578125 37.5488281,8.04296875 C37.6582031,8.15234375 37.7412109,8.29492188 37.7978516,8.47070312 C37.8544922,8.64648438 37.8828125,8.8515625 37.8828125,9.0859375 L37.8828125,13 L39.2832031,13 L39.2832031,9.09765625 C39.2832031,8.6484375 39.2294922,8.26269531 39.1220703,7.94042969 C39.0146484,7.61816406 38.8632812,7.35351562 38.6679688,7.14648438 C38.4726562,6.93945312 38.2373047,6.78710938 37.9619141,6.68945312 C37.6865234,6.59179688 37.3828125,6.54296875 37.0507812,6.54296875 C36.8125,6.54296875 36.5869141,6.57714844 36.3740234,6.64550781 C36.1611328,6.71386719 35.9667969,6.8125 35.7910156,6.94140625 C35.6777344,7.01953125 35.5703125,7.11132812 35.46875,7.21679688 C35.3671875,7.32226562 35.2753906,7.4375 35.1933594,7.5625 L35.1933594,4 L33.7929688,4 L33.7929688,13 L35.1933594,13 Z" id="patch" fill="#FFFFFF" fill-rule="nonzero"></path>
                    </g>
                    <g id="Group-19-Copy" transform="translate(0.000000, 38.000000)">
                        <path d="M47,0 C49.209139,-4.05812251e-16 51,1.790861 51,4 L51,6.929 L53.3787422,9.29030724 C53.7706947,9.67939809 53.7730145,10.3125588 53.3839236,10.7045113 C53.3822028,10.7062448 53.3804757,10.7079719 53.3787422,10.7096928 L51,13.07 L51,16 C51,18.209139 49.209139,20 47,20 L4,20 C1.790861,20 2.705415e-16,18.209139 0,16 L0,4 C-2.705415e-16,1.790861 1.790861,4.05812251e-16 4,0 L47,0 Z" id="Combined-Shape" fill="#7F7F7F"></path>
                        <path d="M6.2890625,13.8867188 L6.2890625,9.01757812 C6.3125,8.95898438 6.33886719,8.90625 6.36816406,8.859375 C6.39746094,8.8125 6.43164062,8.77148438 6.47070312,8.73632812 C6.52148438,8.68554688 6.58300781,8.64746094 6.65527344,8.62207031 C6.72753906,8.59667969 6.81054688,8.58398438 6.90429688,8.58398438 C6.99023438,8.58398438 7.06738281,8.59570312 7.13574219,8.61914062 C7.20410156,8.64257812 7.26367188,8.6796875 7.31445312,8.73046875 C7.36523438,8.78125 7.40332031,8.85058594 7.42871094,8.93847656 C7.45410156,9.02636719 7.46679688,9.1328125 7.46679688,9.2578125 L7.46679688,13.8867188 L8.73242188,13.8867188 L8.73242188,9.03515625 L8.73242188,9.03515625 C8.74804688,8.96875 8.77148438,8.90917969 8.80273438,8.85644531 C8.83398438,8.80371094 8.87304688,8.7578125 8.91992188,8.71875 C8.97070312,8.67578125 9.02929688,8.64257812 9.09570312,8.61914062 C9.16210938,8.59570312 9.24023438,8.58398438 9.33007812,8.58398438 C9.41601562,8.58398438 9.49511719,8.59570312 9.56738281,8.61914062 C9.63964844,8.64257812 9.70117188,8.6796875 9.75195312,8.73046875 C9.80273438,8.78515625 9.84179688,8.85644531 9.86914062,8.94433594 C9.89648438,9.03222656 9.91015625,9.13867188 9.91015625,9.26367188 L9.91015625,13.8867188 L11.1992188,13.8867188 L11.1992188,9.27539062 C11.1992188,8.94335938 11.1650391,8.65917969 11.0966797,8.42285156 C11.0283203,8.18652344 10.9316406,7.99414062 10.8066406,7.84570312 C10.6816406,7.70507812 10.5341797,7.60058594 10.3642578,7.53222656 C10.1943359,7.46386719 10.0078125,7.4296875 9.8046875,7.4296875 C9.6484375,7.4296875 9.50488281,7.44921875 9.37402344,7.48828125 C9.24316406,7.52734375 9.125,7.58203125 9.01953125,7.65234375 C8.9375,7.70703125 8.86132812,7.7734375 8.79101562,7.8515625 C8.72070312,7.9296875 8.65820312,8.01367188 8.60351562,8.10351562 C8.56445312,8.00585938 8.51757812,7.91894531 8.46289062,7.84277344 C8.40820312,7.76660156 8.34570312,7.70117188 8.27539062,7.64648438 C8.18554688,7.57226562 8.078125,7.51757812 7.953125,7.48242188 C7.828125,7.44726562 7.6875,7.4296875 7.53125,7.4296875 C7.23046875,7.4296875 6.97363281,7.50195312 6.76074219,7.64648438 C6.54785156,7.79101562 6.38085938,7.99023438 6.25976562,8.24414062 L6.21875,7.546875 L5,7.546875 L5,13.8867188 L6.2890625,13.8867188 Z M14.6972656,14.0039062 C14.9003906,14.0039062 15.0898438,13.984375 15.265625,13.9453125 C15.4414062,13.90625 15.6054688,13.8515625 15.7578125,13.78125 C15.9101562,13.7148438 16.0478516,13.6357422 16.1708984,13.5439453 C16.2939453,13.4521484 16.4042969,13.3554688 16.5019531,13.2539062 C16.5214844,13.375 16.5439453,13.4912109 16.5693359,13.6025391 C16.5947266,13.7138672 16.6289062,13.8085938 16.671875,13.8867188 L18.1015625,13.8867188 L18.1015625,13.7871094 C18.0234375,13.6230469 17.9638672,13.4267578 17.9228516,13.1982422 C17.8818359,12.9697266 17.8613281,12.7128906 17.8613281,12.4277344 L17.8613281,9.609375 C17.8613281,9.25 17.7949219,8.93261719 17.6621094,8.65722656 C17.5292969,8.38183594 17.3457031,8.15429688 17.1113281,7.97460938 C16.8769531,7.79492188 16.5986328,7.65917969 16.2763672,7.56738281 C15.9541016,7.47558594 15.6074219,7.4296875 15.2363281,7.4296875 C14.8222656,7.4296875 14.4541016,7.48339844 14.1318359,7.59082031 C13.8095703,7.69824219 13.5390625,7.84375 13.3203125,8.02734375 C13.09375,8.20703125 12.921875,8.4140625 12.8046875,8.6484375 C12.6875,8.8828125 12.6269531,9.12695312 12.6230469,9.38085938 L14.0292969,9.38085938 C14.0292969,9.25976562 14.0517578,9.14550781 14.0966797,9.03808594 C14.1416016,8.93066406 14.2109375,8.83984375 14.3046875,8.765625 C14.3984375,8.68359375 14.5166016,8.61914062 14.6591797,8.57226562 C14.8017578,8.52539062 14.96875,8.50195312 15.1601562,8.50195312 C15.3710938,8.50195312 15.5576172,8.52832031 15.7197266,8.58105469 C15.8818359,8.63378906 16.0195312,8.70898438 16.1328125,8.80664062 C16.2382812,8.90429688 16.3193359,9.01953125 16.3759766,9.15234375 C16.4326172,9.28515625 16.4609375,9.43359375 16.4609375,9.59765625 L16.4609375,10.0253906 L15.4414062,10.0253906 C14.984375,10.0253906 14.5751953,10.0683594 14.2138672,10.1542969 C13.8525391,10.2402344 13.5488281,10.3652344 13.3027344,10.5292969 C13.0371094,10.7050781 12.8349609,10.9267578 12.6962891,11.1943359 C12.5576172,11.4619141 12.4882812,11.7695312 12.4882812,12.1171875 C12.4882812,12.3867188 12.5419922,12.6376953 12.6494141,12.8701172 C12.7568359,13.1025391 12.9082031,13.3007812 13.1035156,13.4648438 C13.2949219,13.6328125 13.5263672,13.7646484 13.7978516,13.8603516 C14.0693359,13.9560547 14.3691406,14.0039062 14.6972656,14.0039062 Z M14.9667969,12.8789062 C14.7871094,12.8789062 14.6308594,12.8564453 14.4980469,12.8115234 C14.3652344,12.7666016 14.2539062,12.7050781 14.1640625,12.6269531 C14.0742188,12.5488281 14.0058594,12.4541016 13.9589844,12.3427734 C13.9121094,12.2314453 13.8886719,12.1113281 13.8886719,11.9824219 C13.8886719,11.8261719 13.9169922,11.6855469 13.9736328,11.5605469 C14.0302734,11.4355469 14.1171875,11.328125 14.234375,11.2382812 C14.3671875,11.1328125 14.5449219,11.0517578 14.7675781,10.9951172 C14.9902344,10.9384766 15.2539062,10.9101562 15.5585938,10.9101562 L16.4609375,10.9101562 L16.4609375,12.0820312 C16.4101562,12.1835938 16.3378906,12.28125 16.2441406,12.375 C16.1503906,12.46875 16.0390625,12.5527344 15.9101562,12.6269531 C15.78125,12.7011719 15.6376953,12.7617188 15.4794922,12.8085938 C15.3212891,12.8554688 15.1503906,12.8789062 14.9667969,12.8789062 Z M22.6015625,14.0097656 C23.0117188,14.0097656 23.3847656,13.9628906 23.7207031,13.8691406 C24.0566406,13.7753906 24.3457031,13.6445312 24.5878906,13.4765625 C24.8261719,13.3085938 25.0107422,13.1074219 25.1416016,12.8730469 C25.2724609,12.6386719 25.3378906,12.3808594 25.3378906,12.0996094 C25.3378906,11.8105469 25.2753906,11.5605469 25.1503906,11.3496094 C25.0253906,11.1386719 24.8496094,10.9550781 24.6230469,10.7988281 C24.3964844,10.6503906 24.1230469,10.5253906 23.8027344,10.4238281 C23.4824219,10.3222656 23.1289062,10.2363281 22.7421875,10.1660156 C22.4648438,10.1191406 22.2353516,10.0664062 22.0537109,10.0078125 C21.8720703,9.94921875 21.7304688,9.88476562 21.6289062,9.81445312 C21.5195312,9.74804688 21.4433594,9.67089844 21.4003906,9.58300781 C21.3574219,9.49511719 21.3359375,9.39648438 21.3359375,9.28710938 C21.3359375,9.18164062 21.3613281,9.08105469 21.4121094,8.98535156 C21.4628906,8.88964844 21.5390625,8.80664062 21.640625,8.73632812 C21.7421875,8.65820312 21.8720703,8.59667969 22.0302734,8.55175781 C22.1884766,8.50683594 22.3730469,8.484375 22.5839844,8.484375 C22.8144531,8.484375 23.015625,8.51464844 23.1875,8.57519531 C23.359375,8.63574219 23.5,8.71679688 23.609375,8.81835938 C23.703125,8.90429688 23.7744141,9.00097656 23.8232422,9.10839844 C23.8720703,9.21582031 23.8964844,9.328125 23.8964844,9.4453125 L25.296875,9.4453125 C25.296875,9.16015625 25.234375,8.89453125 25.109375,8.6484375 C24.984375,8.40234375 24.8066406,8.18945312 24.5761719,8.00976562 C24.3417969,7.83007812 24.0566406,7.68847656 23.7207031,7.58496094 C23.3847656,7.48144531 23.0058594,7.4296875 22.5839844,7.4296875 C22.1894531,7.4296875 21.8310547,7.48046875 21.5087891,7.58203125 C21.1865234,7.68359375 20.9121094,7.82226562 20.6855469,7.99804688 C20.4550781,8.17382812 20.2783203,8.37792969 20.1552734,8.61035156 C20.0322266,8.84277344 19.9707031,9.08789062 19.9707031,9.34570312 C19.9707031,9.61523438 20.03125,9.8515625 20.1523438,10.0546875 C20.2734375,10.2578125 20.4414062,10.4335938 20.65625,10.5820312 C20.875,10.7382812 21.1357422,10.8710938 21.4384766,10.9804688 C21.7412109,11.0898438 22.0761719,11.1816406 22.4433594,11.2558594 C22.7363281,11.3105469 22.9804688,11.3691406 23.1757812,11.4316406 C23.3710938,11.4941406 23.5292969,11.5605469 23.6503906,11.6308594 C23.7636719,11.7089844 23.8447266,11.7910156 23.8935547,11.8769531 C23.9423828,11.9628906 23.9667969,12.0605469 23.9667969,12.1699219 C23.9667969,12.2714844 23.9443359,12.3642578 23.8994141,12.4482422 C23.8544922,12.5322266 23.7871094,12.609375 23.6972656,12.6796875 C23.5878906,12.765625 23.4423828,12.8339844 23.2607422,12.8847656 C23.0791016,12.9355469 22.8671875,12.9609375 22.625,12.9609375 C22.4453125,12.9609375 22.2675781,12.9423828 22.0917969,12.9052734 C21.9160156,12.8681641 21.7597656,12.8066406 21.6230469,12.7207031 C21.4824219,12.6386719 21.3662109,12.5302734 21.2744141,12.3955078 C21.1826172,12.2607422 21.1308594,12.0957031 21.1191406,11.9003906 L19.7597656,11.9003906 C19.7597656,12.1621094 19.8222656,12.4199219 19.9472656,12.6738281 C20.0722656,12.9277344 20.2558594,13.1523438 20.4980469,13.3476562 C20.7363281,13.546875 21.0322266,13.7070312 21.3857422,13.828125 C21.7392578,13.9492188 22.1445312,14.0097656 22.6015625,14.0097656 Z M30.6113281,14.0097656 C30.7871094,14.0097656 30.9638672,14.0009766 31.1416016,13.9833984 C31.3193359,13.9658203 31.4902344,13.9414062 31.6542969,13.9101562 C31.8183594,13.8789062 31.9716797,13.8408203 32.1142578,13.7958984 C32.2568359,13.7509766 32.3789062,13.6972656 32.4804688,13.6347656 L32.328125,12.6679688 C32.2578125,12.6835938 32.1708984,12.7021484 32.0673828,12.7236328 C31.9638672,12.7451172 31.8535156,12.7636719 31.7363281,12.7792969 C31.6152344,12.7988281 31.4902344,12.8144531 31.3613281,12.8261719 C31.2324219,12.8378906 31.1074219,12.84375 30.9863281,12.84375 C30.8183594,12.84375 30.6640625,12.8242188 30.5234375,12.7851562 C30.3828125,12.7460938 30.2617188,12.6796875 30.1601562,12.5859375 C30.0585938,12.4960938 29.9794922,12.3720703 29.9228516,12.2138672 C29.8662109,12.0556641 29.8378906,11.859375 29.8378906,11.625 L29.8378906,8.59570312 L32.2226562,8.59570312 L32.2226562,7.546875 L29.8378906,7.546875 L29.8378906,6 L28.4316406,6 L28.4316406,7.546875 L26.8964844,7.546875 L26.8964844,8.59570312 L28.4316406,8.59570312 L28.4316406,11.7128906 C28.4316406,12.1191406 28.4853516,12.4667969 28.5927734,12.7558594 C28.7001953,13.0449219 28.8496094,13.28125 29.0410156,13.4648438 C29.2324219,13.6523438 29.4619141,13.7900391 29.7294922,13.8779297 C29.9970703,13.9658203 30.2910156,14.0097656 30.6113281,14.0097656 Z M37.1855469,14.0039062 C37.8027344,14.0039062 38.3291016,13.8828125 38.7646484,13.640625 C39.2001953,13.3984375 39.5234375,13.125 39.734375,12.8203125 L38.984375,12.09375 C38.7890625,12.34375 38.5410156,12.5361328 38.2402344,12.6708984 C37.9394531,12.8056641 37.6152344,12.8730469 37.2675781,12.8730469 C37.0136719,12.8730469 36.7802734,12.8300781 36.5673828,12.7441406 C36.3544922,12.6582031 36.1699219,12.5371094 36.0136719,12.3808594 C35.8574219,12.2324219 35.734375,12.0644531 35.6445312,11.8769531 C35.5546875,11.6894531 35.4882812,11.4570312 35.4453125,11.1796875 L35.4453125,11.1503906 L39.8398438,11.1503906 L39.8398438,10.546875 C39.8398438,10.09375 39.7792969,9.67578125 39.6582031,9.29296875 C39.5371094,8.91015625 39.3574219,8.58007812 39.1191406,8.30273438 C38.8808594,8.02929688 38.5859375,7.81542969 38.234375,7.66113281 C37.8828125,7.50683594 37.4785156,7.4296875 37.0214844,7.4296875 C36.6113281,7.4296875 36.2255859,7.50683594 35.8642578,7.66113281 C35.5029297,7.81542969 35.1855469,8.03515625 34.9121094,8.3203125 C34.6386719,8.60546875 34.4238281,8.94921875 34.2675781,9.3515625 C34.1113281,9.75390625 34.0332031,10.203125 34.0332031,10.6992188 L34.0332031,10.9394531 C34.0332031,11.3730469 34.1083984,11.7763672 34.2587891,12.1494141 C34.4091797,12.5224609 34.6230469,12.8457031 34.9003906,13.1191406 C35.1777344,13.3964844 35.5107422,13.6132812 35.8994141,13.7695312 C36.2880859,13.9257812 36.7167969,14.0039062 37.1855469,14.0039062 Z M38.4570312,10.125 L35.4746094,10.125 C35.5175781,9.8828125 35.5839844,9.66601562 35.6738281,9.47460938 C35.7636719,9.28320312 35.875,9.11914062 36.0078125,8.98242188 C36.140625,8.84960938 36.2919922,8.74707031 36.4619141,8.67480469 C36.6318359,8.60253906 36.8164062,8.56640625 37.015625,8.56640625 C37.25,8.56640625 37.4560547,8.60644531 37.6337891,8.68652344 C37.8115234,8.76660156 37.9589844,8.87304688 38.0761719,9.00585938 C38.1972656,9.14257812 38.2910156,9.30175781 38.3574219,9.48339844 C38.4238281,9.66503906 38.4570312,9.84765625 38.4570312,10.03125 L38.4570312,10.125 Z M43.7070312,13.8867188 L43.7070312,9.97265625 C43.78125,9.78515625 43.8730469,9.61914062 43.9824219,9.47460938 C44.0917969,9.33007812 44.2246094,9.2109375 44.3808594,9.1171875 C44.5253906,9.01953125 44.6914062,8.94726562 44.8789062,8.90039062 C45.0664062,8.85351562 45.2773438,8.83007812 45.5117188,8.83007812 C45.71875,8.83007812 45.9267578,8.84179688 46.1357422,8.86523438 C46.3447266,8.88867188 46.5566406,8.92382812 46.7714844,8.97070312 L46.9707031,7.58789062 C46.8496094,7.54492188 46.6826172,7.5078125 46.4697266,7.4765625 C46.2568359,7.4453125 46.0371094,7.4296875 45.8105469,7.4296875 C45.3730469,7.4296875 44.9736328,7.53125 44.6123047,7.734375 C44.2509766,7.9375 43.9414062,8.21679688 43.6835938,8.57226562 L43.6777344,8.42578125 L43.6191406,7.546875 L42.3066406,7.546875 L42.3066406,13.8867188 L43.7070312,13.8867188 Z" id="master" fill="#FFFFFF" fill-rule="nonzero"></path>
                    </g>
                    <g id="Group-10-Copy-4" transform="translate(69.000000, 35.000000)">
                        <g id="Group" transform="translate(47.000000, 5.000000)" fill="#000000" font-family="Averta-Regular" font-size="16" font-weight="normal">
                            <text id="fixed-security-test">
                                <tspan x="0" y="13">fixed security test</tspan>
                            </text>
                        </g>
                        <g id="Group-7">
                            <rect id="Rectangle" stroke="#FA6400" stroke-width="2" fill="#FFFFFF" x="14" y="0" width="25" height="25" rx="4"></rect>
                            <polygon id="Triangle" fill="#7F7F7F" transform="translate(5.000000, 12.500000) scale(-1, 1) rotate(90.000000) translate(-5.000000, -12.500000) " points="5 7.5 8.5 17.5 1.5 17.5"></polygon>
                        </g>
                    </g>
                    <g id="Group-10-Copy-6" transform="translate(83.000000, 70.000000)">
                        <g id="Group" transform="translate(33.000000, 5.000000)" fill="#000000" font-family="Averta-Regular" font-size="16" font-weight="normal">
                            <text id="updated-docker-host">
                                <tspan x="0" y="13">updated docker host ip</tspan>
                            </text>
                        </g>
                        <g id="Group-7" fill="#FFFFFF" stroke="#FA6400" stroke-width="2">
                            <rect id="Rectangle" x="0" y="0" width="25" height="25" rx="4"></rect>
                        </g>
                    </g>
                    <g id="Group-10-Copy-7" transform="translate(83.000000, 105.000000)">
                        <g id="Group" transform="translate(33.000000, 5.000000)" fill="#000000" font-family="Averta-Regular" font-size="16" font-weight="normal">
                            <text id="updated-instructions">
                                <tspan x="0" y="13">updated instructions</tspan>
                            </text>
                        </g>
                        <g id="Group-7" fill="#FFFFFF" stroke="#FA6400" stroke-width="2">
                            <rect id="Rectangle" x="0" y="0" width="25" height="25" rx="4"></rect>
                        </g>
                    </g>
                    <g id="Group-10-Copy-8" transform="translate(83.000000, 140.000000)">
                        <g id="Group" transform="translate(33.000000, 5.000000)" fill="#000000" font-family="Averta-Regular" font-size="16" font-weight="normal">
                            <text id="initial-commit">
                                <tspan x="0" y="13">initial commit</tspan>
                            </text>
                        </g>
                        <g id="Group-7" fill="#FFFFFF" stroke="#FA6400" stroke-width="2">
                            <rect id="Rectangle" x="0" y="0" width="25" height="25" rx="4"></rect>
                        </g>
                    </g>
                </g>
            </g>
        </g>
    </g>
</svg>
