<?xml version="1.0" encoding="UTF-8"?>
<svg width="503px" height="292px" viewBox="0 0 503 292" version="1.1" xmlns="http://www.w3.org/2000/svg" xmlns:xlink="http://www.w3.org/1999/xlink">
    <g id="Page-1" stroke="none" stroke-width="1" fill="none" fill-rule="evenodd">
        <g id="HOME" transform="translate(-161.000000, -1517.000000)">
            <g id="Group-22" transform="translate(161.000000, 905.000000)">
                <g id="Group-178" transform="translate(0.000000, 612.060137)">
                    <path d="M371.922578,32.9735169 C370.507049,33.1081287 369.287569,33.8815038 369.652895,35.3245086 C369.906809,36.3268095 371.034741,37.4191375 372.040035,37.8418359 C373.177467,38.3202653 374.742408,36.5111506 374.576586,35.1890393 C374.38831,33.6877313 373.472837,32.9872353 371.922578,32.9735169 M383.895413,36.0764486 C384.068144,34.1661607 382.449656,32.3321814 381.298406,32.7677408 C380.330249,33.1329933 379.343957,34.2596174 379.002813,35.2627757 C378.488075,36.7769447 379.940741,37.8358341 381.072128,37.7629551 C382.170696,37.6926483 383.198444,36.5274412 383.895413,36.0764486 M360.14061,35.8620986 C360.734804,36.3893998 361.515547,37.3805545 362.538977,37.9044261 C363.533043,38.4145793 365.682677,36.7855187 365.593721,35.6134525 C365.496128,34.3196354 364.9883,33.1415673 363.341311,32.9803761 C361.755643,32.826044 360.367751,33.7648974 360.14061,35.8620986 M150.416916,38.0381806 C154.725686,38.0381806 159.033592,38.039038 163.342362,38.0381806 C165.783912,38.0381806 168.225462,38.0510416 170.666148,38.0287492 C172.374456,38.013316 173.28302,37.1576305 173.434159,35.4342558 C173.595662,33.5754119 172.396047,32.8740584 170.92179,32.5482463 C169.961406,32.335611 168.927612,32.4222085 167.925774,32.4222085 C156.580815,32.4153493 145.235856,32.4119197 133.890897,32.4273529 C132.753464,32.4290677 131.597032,32.4582193 130.482918,32.6597083 C128.884294,32.9495097 127.789181,34.1198611 127.949821,35.6185969 C128.108733,37.1027568 129.375713,38.0141734 131.030475,38.0338936 C131.891538,38.0441824 132.753464,38.0381806 133.615391,38.0381806 C139.216187,38.0381806 144.816983,38.0381806 150.416916,38.0381806 M390.859055,46 C389.134338,45.9622744 387.409621,45.892825 385.684904,45.892825 C296.477218,45.8851084 207.269532,45.8833936 118.06271,45.8816788 C118.048028,42.3114638 118.085165,38.7403915 118,35.1710339 C117.949571,32.8877768 118.823589,31.0863788 120.296119,29.3895835 C122.55371,26.7873735 125.333813,26.0671573 128.718473,26.0731591 C173.304611,26.1460381 217.890749,26.1220309 262.476887,26.1220309 C301.741189,26.1220309 341.007219,26.2437817 380.269794,26.00028 C386.811973,25.9599822 390.756281,30.2727058 390.966149,36.5831722 C391.070651,39.7178278 390.903965,42.8610574 390.859055,46" id="Fill-4" fill="#DADCE3"></path>
                    <g id="Group-10" fill="#E9E9EA" fill-rule="nonzero" opacity="0.340000004">
                        <path d="M165,23.7806327 C165.678087,22.9734295 166.192915,21.8611686 167.058447,21.4052959 C178.605794,15.3127114 190.388958,9.77540045 203.217327,6.78137931 C210.207238,5.14983488 217.139273,3.24151059 224.174102,1.83875942 C227.910059,1.0932533 231.896519,1.55855195 235.616064,0.768486841 C241.324088,-0.444031735 247.026929,0.193504534 252.727178,0.0375480813 C259.997825,-0.162110455 267.225282,0.440292767 274.391409,1.70593937 C280.359438,2.75993078 286.379296,3.58598584 292.284267,4.91332949 C306.321963,8.0684485 319.600375,13.3032725 332.322496,19.9537013 C333.458399,20.5475354 334.704006,20.9836994 335.722432,21.7300624 C336.326232,22.1739385 336.586237,23.0813994 337,23.7806327 C335.571266,23.8534695 334.142533,23.991431 332.712072,23.9922879 C278.237933,24.0025707 223.762931,24.0025707 169.287065,23.9922879 C167.858331,23.991431 166.429597,23.8534695 165,23.7806327" id="Fill-6"></path>
                        <path d="M51.0089413,101.064348 C50.0564144,100.276992 49.1341951,99.4484218 48.144433,98.7091484 C46.1086231,97.1876707 43.8545979,95.9057484 42.0084275,94.1885049 C32.0423976,84.9171073 34.0279834,64.1315922 51.3250071,59.2065378 C54.548012,58.2886712 58.0654343,58.0929054 61.4503687,58.0722985 C79.58908,57.9615363 97.7286571,58.012195 115.868234,58.0079019 C115.916727,70.2252307 115.986001,82.4425595 116,94.6598883 C116.005052,98.7735451 115.868234,102.887202 115.796362,107 C115.051659,106.654834 114.294833,106.334568 113.565717,105.961068 C110.822439,104.558938 108.225504,102.607291 105.314235,101.866301 C101.953547,101.011113 98.3200897,101.061772 94.8018015,101.018841 C92.5850115,100.992224 90.9388717,100.495082 89.9196679,98.4258033 C89.4286835,97.429802 88.7316069,96.5334009 88.1271853,95.5914929 C87.8249745,94.4065949 87.7704206,93.078307 87.1746583,92.0616989 C85.2289055,88.7448431 82.8952145,85.64436 81.0568374,82.2751282 C76.4093718,73.7533074 68.0799564,73.2561654 62.8912823,82.3403835 C59.230115,88.7499948 54.9905041,94.8350471 51.0089413,101.064348" id="Fill-10"></path>
                        <path d="M416.153454,212.178129 C418.817176,203.911715 417.952869,195.386274 418.003812,186.92818 C423.025597,186.916955 428.048246,186.96099 433.068304,186.853062 C434.27367,186.828023 435.469539,186.297881 436.669725,186 C436.721531,192.309897 436.749162,198.620657 436.836369,204.930554 C436.889903,208.719255 437.635054,209.523102 441.358221,209.531737 C456.857888,209.568 472.356691,209.569727 487.855495,209.530873 C491.609745,209.521376 492.308271,208.742568 492.386844,204.934008 C492.480096,200.348367 492.530175,195.761 492.598387,191.174495 C498.259984,193.957308 500.615457,199.22678 501.645544,204.814856 C502.63246,210.172397 501.566107,215.431508 498.350645,220.277902 C493.914275,226.966842 487.582647,229.888666 480.021475,229.998321 C463.24564,230.240079 446.46376,230.057034 429.685334,230.106249 C428.240793,230.110566 426.436197,229.35248 425.507133,231.321949 C424.67391,230.076892 423.777656,229.966374 422.800238,231.166532 C422.054224,232.081761 421.311663,232.373598 420.338562,231.372027 C418.046121,229.011428 415.622436,226.773435 413.428427,224.326494 C412.944036,223.787718 412.890502,222.478768 413.166804,221.716365 C413.844607,219.846191 414.986942,218.142656 415.637115,216.265574 C416.077471,214.996342 415.999761,213.546655 416.153454,212.178129" id="Fill-12"></path>
                        <path d="M92.7622008,230 C100.457756,230.005206 108.152448,230.010412 115.848003,230.015618 C115.902343,245.09749 115.967895,260.181098 116,275.263838 C116.005847,277.842558 115.866979,280.421279 115.795388,283 C114.772419,282.312804 113.44325,281.845129 112.777371,280.901969 C108.745011,275.190086 103.110919,272.692058 96.3874437,272.600953 C86.4829317,272.465596 76.5749695,272.506377 66.6695949,272.587938 C61.1252073,272.633924 56.2113341,270.792725 52.3514812,267.031367 C48.5295799,263.30732 45.9540445,258.655731 46,252.986363 C53.4408654,252.934303 60.8819718,252.911743 68.3222158,252.800681 C69.6470725,252.780725 71.2470786,253.46445 72.1906941,251.801991 L88.3132351,251.539954 C89.0964187,251.451451 90.0546973,251.61978 90.6300094,251.224121 C92.311094,250.067515 92.592281,248.231521 92.5983188,246.285333 C92.6138445,240.85631 92.7026858,235.428155 92.7622008,230" id="Fill-16"></path>
                        <path d="M59.0908086,173.123447 C59.4263105,173.763064 59.6447768,174.830232 60.1198544,174.956787 C61.2000491,175.243246 62.4068155,175.080776 63.5615661,175.079921 C81.3275608,175.072225 99.0935554,175.058544 116.85955,175.058544 C117.572166,175.058544 118.286517,175.181679 119,175.246666 C117.107492,175.632317 116.173808,176.525044 116.369735,178.678192 C116.571729,180.906588 116.254433,183.18116 116.163405,185.43521 C113.77328,185.616491 111.382287,185.952547 108.991294,185.955112 C79.9994241,185.991881 51.0075541,186.036347 22.0156841,185.950836 C10.3537429,185.916632 2.75596919,179.168165 0.492415196,168.906083 C-1.29259349,160.809975 1.70264935,151.672352 10.6693054,146.526347 C14.7880894,144.162844 19.0291105,143.896907 23.4929326,144.026883 C23.2519261,144.529683 23.0568669,145.060701 22.7629776,145.531008 C19.0776586,151.444895 15.1452645,157.223676 11.7460324,163.293192 C8.21242604,169.602991 11.3342406,174.824246 18.5470975,175.030325 C24.5843974,175.203056 30.6303666,175.118401 36.6711342,175.034601 C37.5293948,175.02263 38.379853,174.369331 39.233779,174.012754 C44.5064467,174.011044 49.7799814,174.06748 55.0509152,173.967433 C56.4024589,173.94178 57.7444664,173.418458 59.0908086,173.123447" id="Fill-18"></path>
                        <path d="M395.272546,151 C394.547497,150.224387 393.668702,149.534376 393.155926,148.640303 C392.844068,148.096422 393.096525,147.235206 393.095651,146.515797 C393.075559,109.867424 393.055468,73.2181863 393.044985,36.5689486 C393.044112,35.7120559 393.158547,34.856028 393.218822,34 C393.389165,35.3860736 393.70015,36.7721471 393.705391,38.1590854 C393.745575,49.1119199 393.767414,60.0656192 393.689667,71.0184538 C393.676564,72.9804007 394.175363,74.5281684 395.309235,76.1632683 C398.702116,81.0547332 401.865252,86.1009748 405.118365,91.0875539 C405.147192,93.3754831 405.212708,95.6634124 405.189122,97.9513417 C405.176893,99.1411341 405.634635,99.8562201 406.830529,100.06893 C406.816552,105.681534 406.822667,111.295867 406.779863,116.90847 C406.758898,119.572533 407.678749,121.613165 410.314259,122.645587 C409.647738,122.971569 408.284122,122.932659 409.12448,124.191625 C409.826817,125.242205 410.836644,126.095639 411.734657,127.013923 C416.81961,132.216671 421.910679,137.411637 427,142.609197 C426.5772,144.202792 425.250273,143.799854 424.173182,143.806771 C419.275169,143.83617 414.375408,143.856058 409.478269,143.812824 C403.462108,143.759214 398.78423,146.233913 395.272546,151" id="Fill-26"></path>
                    </g>
                    <path d="M404.106975,211.522443 C404.758008,211.117118 405.803633,210.846322 405.993589,210.2839 C406.906245,207.576812 407.994178,204.833271 408.28602,202.02637 C410.085427,184.69632 404.259804,170.660949 389.913762,160.534755 C383.673687,156.131723 376.545134,154.197096 369.058253,153.456748 C367.694883,153.32135 366.054348,152.986328 365.693431,155.098881 C363.54174,155.106692 361.28471,154.690083 359.253038,155.19175 C342.388345,159.355232 331.042754,169.498784 326.771321,186.712532 C326.14101,189.252108 324.747419,192.136255 326.405223,194.940552 C324.270801,194.754814 324.613586,196.308417 324.650714,197.552167 C324.972777,208.265952 328.926465,217.525947 336.31405,225.132526 C343.33381,232.359818 351.868906,236.574508 362.032449,237.8009 C368.363184,238.565551 374.25443,237.499727 380.194891,235.831556 C381.410613,235.490458 382.871552,235.276078 382.362987,233.36315 C386.094771,232.068192 389.774748,230.692515 392.128484,227.193003 C392.540344,227.105342 393.070496,227.15221 393.348523,226.909188 C398.187236,222.670196 402.080483,217.753346 404.106975,211.522443 M407.426898,164.568915 C408.640894,166.084329 410.07852,167.471289 411.02744,169.138591 C413.91478,174.216877 416.429115,179.468749 417.136272,185.397611 C417.176853,185.737841 417.639657,186.028599 417.904732,186.341924 C417.854653,194.844211 418.718956,203.414198 416.055246,211.723804 C413.961406,211.627463 414.077107,213.459673 413.584946,214.676518 C410.669112,221.880375 406.376093,228.179845 400.642857,233.324961 C391.592288,241.447094 381.051423,246.203375 368.723239,246.366547 C367.40563,246.383906 366.061256,246.26847 365.669254,248 C358.117616,247.499202 350.841414,245.931712 343.994341,242.551106 C342.494548,241.80989 340.823793,241.418452 339.231611,240.865577 C339.429339,240.282325 339.962944,239.378805 339.76608,239.171369 C338.887962,238.239207 337.806073,237.499727 336.789805,236.699491 C320.008865,223.488658 312.903625,206.165551 317.249314,185.244854 C322.90484,158.017745 348.25714,141.162454 375.524549,145.750357 C387.289771,147.729248 397.274581,153.577391 405.063665,162.897273 C405.662892,163.613319 406.630807,164.018645 407.426898,164.568915" id="Fill-8" fill="#DADCE3"></path>
                    <path d="M115.219962,107.221944 C115.291741,103.08365 115.427515,98.945356 115.422326,94.8079259 C115.408489,82.5174265 115.339305,70.2260634 115.291741,57.935564 C115.344494,51.2085692 115.408489,44.4807106 115.445676,37.7537158 C115.494105,28.8664469 120.053345,24.2487641 128.90979,24.2237149 C138.801404,24.1960745 148.693883,24.2288975 158.586362,24.2073034 C160.589245,24.2029846 162.592128,24.0725562 164.595011,24 C166.02626,24.0742837 167.456643,24.212486 168.887892,24.2133497 C223.425813,24.2245787 277.963734,24.2245787 332.501655,24.2133497 C333.932904,24.212486 335.363288,24.0742837 336.793672,24 C347.271622,24.0725562 357.747842,24.1520225 368.224928,24.2133497 C372.245396,24.2366714 376.282295,24.4482936 380.282008,24.1641152 C386.23531,23.7417345 392.689333,27.9923177 393.376851,34.64071 C393.31718,35.4958364 393.203891,36.3518266 393.204755,37.2069531 C393.215133,73.8175945 393.235024,110.428236 393.254049,147.038877 C393.254914,147.756665 393.004986,148.616974 393.314585,149.160282 C393.822225,150.053414 394.692216,150.742698 395.410002,151.517494 C399.139897,154.79807 402.890546,158.057052 406.588443,161.373043 C407.672906,162.345641 408.587867,163.490128 407.533672,165.069953 C406.736324,164.522327 405.76688,164.118949 405.167572,163.40548 C397.365321,154.131244 387.365607,148.311202 375.581805,146.34182 C348.271334,141.775963 322.878995,158.550262 317.214537,185.645678 C312.861985,206.465847 319.977582,223.705715 336.785888,236.853932 C337.802896,237.650323 338.886494,238.38625 339.766863,239.313932 C339.963174,239.520372 339.428726,240.419551 339.23155,241 C332.580352,237.761748 327.648382,232.603349 323.471385,226.678791 C309.68124,207.119717 310.527017,181.758739 325.53394,162.858717 C339.854208,144.820731 365.012186,138.399509 386.84932,147.209903 C388.161226,147.73939 389.460159,148.298245 391.005562,148.944341 C391.078205,147.642648 391.180252,146.667459 391.181117,145.692269 C391.192359,113.447091 391.194089,81.2027776 391.191495,48.9575999 C391.191495,48.239812 391.128364,47.522024 391.094637,46.8033723 C391.139606,43.6411319 391.307378,40.4745727 391.201872,37.3166511 C390.991725,30.9593474 387.043036,26.6146139 380.492155,26.6560746 C341.177357,26.9013836 301.859099,26.7778653 262.542572,26.7778653 C217.897129,26.7778653 173.251687,26.8020507 128.606244,26.7286308 C125.217082,26.7225844 122.432417,27.4490101 120.172688,30.0696703 C118.697334,31.7790595 117.823019,33.5946916 117.875772,35.8948954 C117.958793,39.4898816 117.921606,43.0874591 117.935443,46.6841728 C117.878366,47.8321153 117.770266,48.979194 117.770266,50.1262728 C117.763347,79.5046174 117.792751,108.882098 117.726161,138.259579 C117.720972,140.821503 118.286553,142.974003 119.696182,145.11873 C123.247062,150.524165 126.612009,156.052256 130.052195,161.530248 C130.282232,161.89562 130.526107,162.252354 130.750955,162.621182 C134.441933,168.650255 132.925069,174.807166 124.827056,175.825544 C123.976955,175.837636 123.126854,175.849729 122.275888,175.861822 C121.104945,175.861822 119.933138,175.860958 118.762195,175.860958 C118.050462,175.794448 117.338729,175.67093 116.626997,175.67093 C98.9045937,175.67093 81.1821907,175.683886 63.4597878,175.692524 C62.3078705,175.692524 61.1040651,175.857503 60.0265209,175.567278 C59.552609,175.439441 59.3346787,174.361463 59,173.715368 C60.5817242,173.669588 62.1625837,173.584939 63.7443079,173.584076 C83.0467055,173.574574 102.349968,173.581484 121.652365,173.569392 C123.087938,173.568528 124.566751,173.647994 125.950435,173.348268 C129.650926,172.545831 131.192869,169.723914 129.830805,166.184209 C129.218525,164.593155 128.237838,163.130803 127.326336,161.671041 C117.507366,145.945352 107.653803,130.240393 97.8694248,114.493974 C97.2926013,113.566291 95.5015948,112.314697 97.2182283,111.277316 C98.7644956,110.34186 99.2332187,112.357021 99.8316622,113.295069 C104.076114,119.960737 108.224573,126.686868 112.427514,133.378448 C113.150489,134.529846 113.988483,135.610415 115.219962,137.357809 L115.219962,107.221944 Z" id="Fill-14" fill="#404B50"></path>
                    <g id="Group-46" transform="translate(138.000000, 81.939863)">
                        <rect id="Rectangle" fill="#E3E5E8" x="0" y="0" width="13" height="5" rx="1"></rect>
                        <rect id="Rectangle-Copy-5" fill="#E3E5E8" x="0" y="20" width="13" height="5" rx="1"></rect>
                        <rect id="Rectangle-Copy-7" fill="#E3E5E8" x="0" y="40" width="13" height="5" rx="1"></rect>
                        <rect id="Rectangle-Copy-6" fill="#E3E5E8" x="0" y="60" width="13" height="5" rx="1"></rect>
                        <rect id="Rectangle-Copy-16" fill="#E3E5E8" x="0" y="80" width="13" height="5" rx="1"></rect>
                        <rect id="Rectangle-Copy-15" fill="#E3E5E8" x="0" y="100" width="13" height="5" rx="1"></rect>
                        <rect id="Rectangle-Copy-14" fill="#E3E5E8" x="0" y="120" width="13" height="5" rx="1"></rect>
                        <rect id="Rectangle-Copy-11" fill="#E3E5E8" x="0" y="140" width="13" height="5" rx="1"></rect>
                        <rect id="Rectangle-Copy-17" fill="#E3E5E8" x="0" y="160" width="13" height="5" rx="1"></rect>
                        <rect id="Rectangle-Copy-26" fill="#55C1E2" x="28" y="0" width="34" height="5" rx="1"></rect>
                        <rect id="Rectangle-Copy-27" fill="#E3E5E8" x="72" y="0" width="16" height="5" rx="1"></rect>
                        <rect id="Rectangle-Copy-28" fill="#E3E5E8" x="98" y="0" width="16" height="5" rx="1"></rect>
                        <rect id="Rectangle-Copy-25" fill="#E3E5E8" x="43" y="20" width="23" height="5" rx="1"></rect>
                        <rect id="Rectangle-Copy-30" fill="#55C1E2" x="76" y="20" width="23" height="5" rx="1"></rect>
                        <rect id="Rectangle-Copy-31" fill="#E3E5E8" x="109" y="20" width="12" height="5" rx="1"></rect>
                        <rect id="Rectangle-Copy-32" fill="#55C1E2" x="131" y="20" width="31" height="5" rx="1"></rect>
                        <rect id="Rectangle-Copy-33" fill="#E3E5E8" x="172" y="20" width="10" height="5" rx="1"></rect>
                        <rect id="Rectangle-Copy-24" fill="#E3E5E8" transform="translate(69.500000, 42.500000) scale(-1, 1) translate(-69.500000, -42.500000) " x="62" y="40" width="15" height="5" rx="1"></rect>
                        <rect id="Rectangle-Copy-34" fill="#F64242" fill-rule="nonzero" transform="translate(100.000000, 42.500000) scale(-1, 1) translate(-100.000000, -42.500000) " x="87" y="40" width="26" height="5" rx="1"></rect>
                        <rect id="Rectangle-Copy-35" fill="#F64242" fill-rule="nonzero" x="123" y="40" width="14" height="5" rx="1"></rect>
                        <rect id="Rectangle-Copy-36" fill="#E3E5E8" x="147" y="40" width="27" height="5" rx="1"></rect>
                        <rect id="Rectangle-Copy-37" fill="#E3E5E8" x="184" y="40" width="29" height="5" rx="1"></rect>
                        <rect id="Rectangle-Copy-23" fill="#E3E5E8" x="43" y="60" width="34" height="5" rx="1"></rect>
                        <rect id="Rectangle-Copy-38" fill="#E3E5E8" x="87" y="60" width="34" height="5" rx="1"></rect>
                        <rect id="Rectangle-Copy-39" fill="#E3E5E8" x="131" y="60" width="22" height="5" rx="1"></rect>
                        <rect id="Rectangle-Copy-40" fill="#E3E5E8" x="163" y="60" width="22" height="5" rx="1"></rect>
                        <rect id="Rectangle-Copy-22" fill="#E3E5E8" x="87" y="80" width="22" height="5" rx="1"></rect>
                        <rect id="Rectangle-Copy-41" fill="#E3E5E8" x="119" y="80" width="22" height="5" rx="1"></rect>
                        <rect id="Rectangle-Copy-21" fill="#55C1E2" x="43" y="100" width="34" height="5" rx="1"></rect>
                        <rect id="Rectangle-Copy-20" fill="#E3E5E8" x="59" y="120" width="34" height="5" rx="1"></rect>
                        <rect id="Rectangle-Copy-42" fill="#F64242" fill-rule="nonzero" x="103" y="120" width="34" height="5" rx="1"></rect>
                        <rect id="Rectangle-Copy-43" fill="#E3E5E8" x="147" y="120" width="20" height="5" rx="1"></rect>
                        <rect id="Rectangle-Copy-19" fill="#E3E5E8" x="43" y="140" width="17" height="5" rx="1"></rect>
                        <rect id="Rectangle-Copy-44" fill="#E3E5E8" x="70" y="140" width="17" height="5" rx="1"></rect>
                        <rect id="Rectangle-Copy-45" fill="#E3E5E8" x="97" y="140" width="44" height="5" rx="1"></rect>
                        <rect id="Rectangle-Copy-18" fill="#E3E5E8" x="59" y="160" width="34" height="5" rx="1"></rect>
                    </g>
                    <path d="M71,226.228602 C70.7472361,225.914639 70.3313986,224.958188 69.8793226,224.940898 C69.2070973,224.914506 68.0764543,225.396827 67.8880138,225.9292 C66.1838956,230.741484 64.6066124,235.601091 63.0972765,240.478898 C62.8925286,241.144136 63.0148337,242.419101 63.4279533,242.666631 C64.4643761,243.287277 65.4165442,242.822248 65.848689,241.559114 C66.9648366,238.294805 68.1208466,235.045057 69.2315584,231.779838 C69.8104693,230.077156 70.3259628,228.353543 71,226.228602 M56.8969455,224.939863 C56.5157189,225.066239 56.1643579,225.075331 55.9807718,225.260805 C53.3692814,227.902899 50.7577911,230.546811 48.2218433,233.264367 C47.950417,233.555306 47.9196729,234.557229 48.1761664,234.833621 C50.6998165,237.562087 53.2735356,240.246913 55.9394869,242.826273 C56.2557118,243.13085 57.2043864,242.734445 57.860553,242.662619 C57.7832535,241.972547 57.9431228,241.077908 57.5838562,240.62968 C56.4674067,239.236807 55.160344,238.009407 53.9165261,236.728364 C51.3656455,234.104454 51.095976,234.337206 53.8752412,231.493273 C55.2253457,230.11222 56.5719366,228.721166 57.8043352,227.23192 C58.0871808,226.889157 58.022179,226.082709 57.8675802,225.569019 C57.7771047,225.265351 57.1964807,225.119881 56.8969455,224.939863 M76.2804258,224.939863 C75.7700559,225.257747 75.1905279,225.414913 75.107363,225.714151 C74.9672958,226.222056 74.9270264,227.010552 75.2185413,227.343531 C76.6656106,228.99955 78.1459459,230.648465 79.7873584,232.09848 C81.4480302,233.565366 81.247559,234.669082 79.6849342,236.01432 C78.3551712,237.157105 77.0866876,238.414436 76.0029176,239.792528 C75.4759148,240.463815 74.9375315,241.934253 75.259686,242.336492 C76.3259476,243.66397 77.2880342,242.504314 78.1083028,241.687404 C80.0823749,239.71794 81.9689051,237.653467 84.0077583,235.756815 C85.472336,234.394707 85.2175888,233.396656 83.8843241,232.144653 C81.8533496,230.238234 79.9641932,228.1782 77.9813669,226.218504 C77.4823775,225.725694 76.8547013,225.366076 76.2804258,224.939863 M88.1169363,251.66867 L71.9509263,251.939863 C71.0168248,250.210334 69.4106892,250.898194 68.0830542,250.883826 C61.6334294,250.818273 55.1829397,250.866765 48.73245,250.850601 C44.0930793,250.838029 42.5578662,249.334794 42.5232698,244.545813 C42.4860787,239.341063 42.61668,234.135415 42.6002467,228.929767 C42.5985169,228.118882 42.2093079,227.309793 42,226.499807 C42.0925452,223.89833 42.1850905,221.297751 42.2776357,218.695376 C44.1596772,218.12156 46.0373942,217.070912 47.9254901,217.047564 C60.3049295,216.8976 72.6869636,216.927233 85.067268,216.998175 C88.7379408,217.019726 89.9185413,218.355037 89.9531377,222.179577 C90.0076269,228.458323 89.9764902,234.738865 89.9661113,241.018508 C89.959192,244.679614 90.4236481,248.435906 88.1169363,251.66867" id="Fill-20" fill="#FA6400"></path>
                    <path d="M496.950757,101.603011 C496.950757,97.513504 496.816888,93.4188876 496.986524,89.3365336 C497.171488,84.9353575 495.442428,81.4855385 492.41555,78.4832967 C486.730701,72.8436192 481.037677,67.2121166 475.443777,61.4825149 C472.414855,58.3811521 468.786076,56.9760866 464.542111,56.9679117 C456.706155,56.9525837 448.869177,56.9035341 441.034244,56.988349 C437.017141,57.0312674 433.485443,58.3699116 430.578127,61.3333225 C424.612255,67.4124023 418.597331,73.44652 412.505765,79.4009322 C409.537135,82.3020093 408.129974,85.8090528 408.073769,89.8239636 C407.966469,97.4900011 407.987929,105.158082 408.06355,112.825142 C408.107492,117.405144 409.821224,121.442536 412.979928,124.701266 C418.669886,130.572907 424.463057,136.347471 430.323673,142.051526 C432.936681,144.59495 436.067793,146.003081 439.911172,145.937682 C448.425671,145.794621 456.945281,145.872282 465.461824,145.90396 C469.203013,145.917245 472.272811,144.686918 474.932825,141.929924 C480.847603,135.801795 486.874789,129.776874 492.999057,123.858227 C495.752065,121.197288 497.004918,118.130669 496.961998,114.382465 C496.914991,110.122306 496.950757,105.862148 496.950757,101.603011 M452.866407,52.0171182 C457.282415,52.0171182 461.70658,52.185283 466.112391,51.9732934 C471.191157,51.7276708 475.351238,53.5886952 478.84958,57.0162007 C485.279353,63.3147389 491.679556,69.6489485 497.930894,76.1217667 C501.184526,79.4901598 502.958678,83.6667633 502.977031,88.4324534 C503.010679,97.0944722 503.003542,105.755472 502.98009,114.416472 C502.965815,119.364595 501.134564,123.667577 497.737164,127.162349 C491.345118,133.738104 484.854168,140.220095 478.283687,146.617494 C474.651773,150.154052 470.202118,151.962079 465.049939,151.939863 C457.067273,151.902966 449.083588,151.906024 441.100923,151.937618 C435.257437,151.961059 430.243927,149.95633 426.103219,145.861261 C420.187339,140.008105 414.224556,134.197755 408.477934,128.18051 C405.033632,124.573629 402.887315,120.334855 403.004573,115.035114 C403.201361,106.209007 403.116732,97.3737278 403.034142,88.5435441 C402.987239,83.5454807 404.591113,79.3923184 408.222008,75.8690098 C414.558994,69.7182528 420.790958,63.4584435 426.962765,57.14156 C430.476402,53.5448704 434.499853,51.6889419 439.621443,51.9671783 C444.024196,52.2056666 448.4504,52.016099 452.866407,52.0171182" id="Fill-22" fill="#DADCE3"></path>
                    <path d="M432.078605,277.994081 C427.271343,278.163407 424.386131,274.664278 421.036003,272.088279 C419.613054,270.994103 418.329408,269.718567 416.98252,268.525545 C418.08584,267.37464 417.410687,266.571843 416.521877,265.701144 C413.055521,262.304298 409.669499,258.824079 406.16383,255.46935 C404.743444,254.10958 404.525515,253.11253 406.056147,251.616096 C412.687178,245.130115 419.223345,238.547007 425.794552,232 L430.752228,236.804749 C431.000923,237.698655 430.994086,238.823775 431.547028,239.442633 C433.152868,241.240761 435.021931,242.797362 436.716651,244.519852 C440.001827,247.859109 443.763884,250.880342 446.388435,254.6889 C452.992118,264.267455 446.194436,276.755504 435.800494,277.3056 C434.551888,277.371784 433.318665,277.757711 432.078605,277.994081" id="Fill-24" fill="#55C1E2"></path>
                    <path d="M393.635392,271.703666 C393.554266,276.161151 393.542183,280.621228 393.364397,285.074395 C393.284997,287.0436 394.134231,287.62918 395.916414,287.47458 C396.771689,287.400303 397.63991,287.463352 398.502953,287.463352 C410.579509,287.463352 422.656066,287.459034 434.733485,287.471989 C435.87529,287.472853 437.036083,287.483217 438.148545,287.696547 C438.514475,287.76737 438.869185,288.46091 438.996916,288.933346 C439.046109,289.119903 438.495488,289.534472 438.154586,289.736575 C437.932784,289.868719 437.597061,289.822943 437.31053,289.827262 C436.591616,289.837626 435.872701,289.829853 435.153787,289.830716 C353.207883,289.898948 271.262843,289.972361 189.316076,290 C187.877384,290.000863 186.438692,289.450694 185,289.157905 C185.798314,286.730946 187.86185,287.740595 189.348009,287.738868 C254.621654,287.684456 319.894435,287.692229 385.166354,287.692229 C386.029397,287.692229 386.893303,287.703457 387.755482,287.689638 C391.021236,287.634362 391.063525,287.630907 391.07647,284.405902 C391.103225,277.784882 391.038497,271.163862 391.11876,264.544569 C391.133431,263.360455 391.658161,262.182387 391.947281,261 C393.715655,261.643446 393.404097,263.182536 393.449838,264.54716 C393.530101,266.932662 393.575842,269.3173 393.635392,271.703666" id="Fill-28" fill="#404B50"></path>
                    <path d="M115.886732,282.907014 C115.958807,280.327132 116.098615,277.74725 116.093404,275.167368 C116.061275,260.077837 115.995279,244.987438 115.940571,229.898775 C116.002226,217.465515 116.06388,205.033991 116.127271,192.6016 C116.133349,191.44534 116.055196,190.274324 116.221055,189.139766 C116.282709,188.716152 116.929644,188.377607 117.30999,188 C117.6721,188.400177 118.295589,188.769103 118.347691,189.205739 C118.500524,190.490471 118.43887,191.802114 118.43887,193.102472 C118.442343,223.328409 118.438001,253.554347 118.447554,283.779417 C118.44929,289.145779 118.028131,288.490392 122.998677,288.496469 C138.618904,288.519906 154.239131,288.476503 169.857622,288.552893 C171.353822,288.560705 174.030136,287.605836 174,289.947001 C173.978902,291.59198 171.341665,290.8168 169.903645,290.822008 C153.271768,290.885377 136.639022,290.889717 120.007145,290.854995 C104.39126,290.822008 88.7753743,290.724785 73.159489,290.657076 C72.4361374,290.653604 71.6658938,290.815932 71.003328,290.615409 C70.2825815,290.397526 69.6634342,289.84457 69,289.438316 C69.6894852,289.051161 70.3711551,288.34803 71.0710608,288.328064 C74.9726441,288.219557 78.8794376,288.276849 82.7844944,288.276849 C92.6196452,288.276849 102.453928,288.292474 112.28821,288.268168 C115.844182,288.258619 116.31918,289.206544 116.05867,284.194351 C116.036092,283.762924 115.944913,283.335837 115.886732,282.907014" id="Fill-30" fill="#404B50"></path>
                    <path d="M426.977573,143.14122 C421.934226,137.920804 416.889147,132.702124 411.849262,127.477365 C410.960227,126.555042 409.959521,125.697855 409.263529,124.642656 C408.429896,123.377284 409.782061,123.417234 410.441695,123.089818 C416.498733,129.084917 422.712456,134.9289 428.552213,141.129827 C432.319574,145.130033 436.555259,146.832249 442.004602,146.634236 C449.641474,146.357192 457.296524,146.482252 464.941186,146.596891 C469.259109,146.662027 472.742533,145.205591 475.753306,142.098179 C481.486587,136.182981 487.293448,130.334655 493.204189,124.598363 C496.209768,121.681148 497.586171,118.327958 497.533366,114.153188 C497.427755,105.75675 497.409576,97.3559699 497.542022,88.9604006 C497.607813,84.7552339 496.166485,81.3759891 493.202458,78.498724 C490.298161,75.6805155 487.474372,72.78067 484.62288,69.9086159 C483.911306,69.1921222 483.145195,68.5042882 482.571261,67.6853142 C482.31416,67.3170798 482.469113,66.6587741 482.436218,66.1324769 C482.953018,66.1055541 483.597937,65.8719337 483.959783,66.0968693 C484.679149,66.5458721 485.255679,67.233706 485.867703,67.8459825 C488.933878,70.911707 491.920412,74.0616739 495.073154,77.0344714 C498.326312,80.101933 499.914802,83.8442013 499.9451,88.2334852 C500.008294,97.2100657 500.029935,106.188383 499.939041,115.164095 C499.895758,119.386631 498.232821,123.032499 495.247152,126.033088 C489.130383,132.179301 483.036122,138.3507 476.869145,144.446542 C473.873954,147.40718 470.246829,148.927016 465.964399,148.893145 C458.318005,148.832352 450.656895,148.595257 443.028681,148.961755 C436.722332,149.265722 431.353495,147.797127 426.977573,143.14122" id="Fill-32" fill="#404B50"></path>
                    <path d="M493,190.75524 C492.931701,195.306871 492.881557,199.859358 492.788187,204.410131 C492.709513,208.188876 492.009232,208.962619 488.251058,208.971187 C472.732485,209.009746 457.213048,209.008889 441.694476,208.972901 C437.966561,208.963475 437.219594,208.166597 437.166857,204.406704 C437.078674,198.144785 437.051873,191.882009 437,185.619233 C437.005187,181.914178 437.010375,178.208267 437.016426,174.502355 C437.045821,174.213594 437.074351,173.923976 437.10461,173.635215 C437.807484,171.796397 439.181246,171.040648 441.129929,171.044933 C451.359218,171.063783 461.589372,171.049217 471.818662,171.059499 C472.237966,171.059499 472.721246,171.080064 473.059283,171.281425 C473.380029,171.474218 473.744002,171.924926 473.72844,172.245391 C473.712879,172.564999 473.280606,173.086825 472.976287,173.129668 C471.847192,173.28733 470.694754,173.332744 469.551826,173.334457 C460.907247,173.349024 452.261803,173.329316 443.617223,173.348167 C439.489888,173.357593 439.454442,173.385012 439.444932,177.265723 C439.420724,185.836874 439.416402,194.40717 439.44839,202.977465 C439.461358,206.639676 439.513231,206.714223 442.944607,206.721935 C457.640998,206.752782 472.337388,206.751925 487.033779,206.722791 C490.402044,206.715937 490.480718,206.642247 490.497144,203.388756 C490.5421,194.533128 490.535184,185.675785 490.501467,176.820156 C490.489363,173.536676 490.428845,173.533249 487.181616,173.345597 C486.750208,173.320748 486.249637,173.483551 485.899497,173.316463 C485.235527,173.001997 484.656282,172.51016 484.041591,172.092013 C484.594035,171.744129 485.107574,171.279712 485.710161,171.083491 C486.230617,170.91469 486.852225,171.054358 487.428011,171.052644 C491.921913,171.042362 492.763115,171.831528 492.826227,176.198077 C492.896255,181.049608 492.943805,185.902853 493,190.75524" id="Fill-34" fill="#404B50"></path>
                    <path d="M462.860656,198 L462.860656,196.283582 L462.508197,196.283582 C462.31694,196.283582 462.15847,196.258706 462.032787,196.208955 C461.907104,196.159204 461.814208,196.080431 461.754098,195.972637 C461.693989,195.864842 461.654372,195.748756 461.635246,195.624378 C461.61612,195.5 461.606557,195.343836 461.606557,195.155887 L461.606557,192.411277 C461.606557,192.063018 461.590164,191.778331 461.557377,191.557214 C461.52459,191.336097 461.465847,191.159204 461.381148,191.026534 C461.296448,190.893864 461.209016,190.795744 461.118852,190.732172 C461.028689,190.668601 460.898907,190.59812 460.729508,190.52073 L460.729508,190.487562 C460.931694,190.393588 461.095628,190.26921 461.221311,190.114428 C461.346994,189.959646 461.442623,189.759259 461.508197,189.513267 C461.57377,189.267275 461.606557,188.970149 461.606557,188.621891 L461.606557,185.794362 C461.606557,185.689331 461.617486,185.582919 461.639344,185.475124 C461.661202,185.36733 461.702186,185.252626 461.762295,185.131012 C461.822404,185.009397 461.916667,184.909895 462.045082,184.832504 C462.173497,184.755113 462.327869,184.716418 462.508197,184.716418 L462.860656,184.716418 L462.860656,183 L461.47541,183 C460.868852,183 460.375683,183.219735 459.995902,183.659204 C459.61612,184.098673 459.42623,184.641791 459.42623,185.288557 L459.42623,188.215589 C459.42623,188.326147 459.424863,188.413212 459.422131,188.476783 C459.419399,188.540354 459.40847,188.624654 459.389344,188.729685 C459.370219,188.834715 459.342896,188.919016 459.307377,188.982587 C459.271858,189.046158 459.219945,189.116639 459.151639,189.19403 C459.083333,189.271421 459,189.332228 458.901639,189.376451 C458.803279,189.420674 458.677596,189.45937 458.52459,189.492537 C458.371585,189.525705 458.196721,189.545052 458,189.55058 L458,191.482587 C458.196721,191.482587 458.370219,191.496407 458.520492,191.524046 C458.670765,191.551686 458.796448,191.584853 458.897541,191.623549 C458.998634,191.662244 459.083333,191.718905 459.151639,191.793532 C459.219945,191.868159 459.271858,191.934494 459.307377,191.992537 C459.342896,192.05058 459.370219,192.134881 459.389344,192.245439 C459.40847,192.355998 459.419399,192.447208 459.422131,192.519071 C459.42418,192.572969 459.425461,192.643968 459.425973,192.732069 L459.42623,195.719735 C459.42623,196.399668 459.622951,196.949696 460.016393,197.369818 C460.409836,197.789939 460.896175,198 461.47541,198 L462.860656,198 Z M469.52459,198 C469.901639,198 470.244535,197.907407 470.553279,197.722222 C470.862022,197.537037 471.10929,197.268933 471.295082,196.91791 C471.480874,196.566888 471.57377,196.167496 471.57377,195.719735 L471.57377,192.825871 C471.57377,192.693201 471.575137,192.590934 471.577869,192.519071 C471.580601,192.447208 471.59153,192.355998 471.610656,192.245439 C471.629781,192.134881 471.657104,192.05058 471.692623,191.992537 C471.728142,191.934494 471.780055,191.868159 471.848361,191.793532 C471.916667,191.718905 472.001366,191.662244 472.102459,191.623549 C472.203552,191.584853 472.329235,191.551686 472.479508,191.524046 C472.629781,191.496407 472.803279,191.482587 473,191.482587 L473,189.55058 C472.846994,189.55058 472.70765,189.539525 472.581967,189.517413 C472.456284,189.495301 472.346994,189.469044 472.254098,189.43864 C472.161202,189.408237 472.077869,189.368159 472.004098,189.318408 C471.930328,189.268657 471.870219,189.221669 471.82377,189.177446 C471.777322,189.133223 471.737705,189.07518 471.704918,189.003317 C471.672131,188.931454 471.647541,188.869265 471.631148,188.81675 C471.614754,188.764234 471.602459,188.696517 471.594262,188.613599 C471.586066,188.53068 471.580601,188.464345 471.577869,188.414594 C471.576047,188.381426 471.574833,188.340888 471.574226,188.29298 L471.57377,185.288557 C471.57377,184.641791 471.38388,184.098673 471.004098,183.659204 C470.624317,183.219735 470.131148,183 469.52459,183 L468.139344,183 L468.139344,184.716418 L468.491803,184.716418 C468.672131,184.716418 468.826503,184.755113 468.954918,184.832504 C469.083333,184.909895 469.177596,185.009397 469.237705,185.131012 C469.297814,185.252626 469.338798,185.36733 469.360656,185.475124 C469.382514,185.582919 469.393443,185.689331 469.393443,185.794362 L469.393443,188.621891 C469.393443,189.135987 469.464481,189.540907 469.606557,189.83665 C469.748634,190.132394 469.969945,190.349364 470.270492,190.487562 L470.270492,190.52073 C470.101093,190.59812 469.971311,190.668601 469.881148,190.732172 C469.790984,190.795744 469.703552,190.893864 469.618852,191.026534 C469.534153,191.159204 469.47541,191.336097 469.442623,191.557214 C469.409836,191.778331 469.393443,192.063018 469.393443,192.411277 L469.393443,195.155887 C469.393443,195.343836 469.38388,195.5 469.364754,195.624378 C469.345628,195.748756 469.306011,195.864842 469.245902,195.972637 C469.185792,196.080431 469.092896,196.159204 468.967213,196.208955 C468.84153,196.258706 468.68306,196.283582 468.491803,196.283582 L468.139344,196.283582 L468.139344,198 L469.52459,198 Z" id="{}" fill="#55C1E2" fill-rule="nonzero"></path>
                    <path d="M39.7743311,174.870568 C38.9254849,175.230741 38.0809475,175.890626 37.2269306,175.902718 C31.2229594,175.987363 25.2120939,176.072872 19.2115698,175.898399 C12.0407581,175.690242 8.93837596,170.416346 12.4501002,164.042931 C15.8291114,157.912221 19.738113,152.075178 23.4015092,146.101666 C23.6936502,145.626618 23.8875491,145.090246 24.1279837,144.582376 C28.2929318,138.050035 32.5078627,131.547061 36.6116248,124.975853 C41.4771942,117.185067 46.2479685,109.335548 51.060108,101.510213 C55.0216776,95.2438987 59.2417791,89.123554 62.8853546,82.6749943 C68.0490974,73.5367996 76.3384902,74.0377593 80.9636249,82.6093513 C82.7923068,85.9986023 85.1156464,89.1175079 87.0511881,92.4549355 C87.6449496,93.4767204 87.6992413,94.8129007 88,96.0048391 C87.1287477,95.4157797 85.9825898,95.0124208 85.4353641,94.2031119 C83.2731761,90.9986977 81.2997163,87.664725 79.2521441,84.3808482 C78.721292,83.5300806 78.228358,82.6482189 77.6268405,81.8484109 C74.0849542,77.1393904 70.0104923,77.1298894 66.3858758,81.8233629 C65.7748789,82.6145337 65.2750507,83.4929405 64.7433368,84.3428444 C50.4715171,107.19265 36.1979739,130.040727 21.9356337,152.895715 C19.3563476,157.029496 16.6296984,161.087269 14.3261796,165.371337 C11.9907753,169.71673 13.8297985,172.994561 18.6712382,173.732181 C19.6536592,173.881605 20.6714129,173.828054 21.6736547,173.829782 C26.5452565,173.838419 31.4194436,173.769321 36.2893218,173.881605 C37.4578857,173.90838 38.6126613,174.525079 39.7743311,174.870568" id="Fill-36" fill="#404B50"></path>
                    <path d="M425.710354,232.161506 C419.042435,238.764607 412.409204,245.403252 405.68058,251.944804 C404.127421,253.45406 404.348558,254.460519 405.789848,255.83194 C409.347979,259.215412 412.783835,262.72545 416.300341,266.151399 C417.202232,267.029559 417.887322,267.838367 416.767763,269 C415.655143,268.208529 414.441926,267.526287 413.44898,266.604783 C410.554258,263.920024 407.748858,261.139908 404.907903,258.3962 C404.739666,258.175143 404.593976,257.932414 404.40059,257.736497 C400.686362,253.975928 400.684627,253.976795 403.960051,250.017708 C408.660288,245.382446 413.390877,240.776659 418.04602,236.097187 C419.988553,234.14495 419.96774,233.829402 418.118865,231.885835 C416.060126,229.722077 413.903394,227.653677 412.061456,225.815003 C407.760999,230.031557 403.735445,234.008848 399.671735,237.945396 C398.467191,239.11223 397.154246,240.167236 395.8916,241.273387 C394.746893,241.80219 393.601318,242.330993 392.455744,242.86153 C385.192924,246.384571 377.649997,248.911556 369.488755,249.047658 C368.33104,249.067596 367.163786,248.520589 366,248.235382 C366.39371,246.505936 367.743944,246.621232 369.067295,246.603895 C381.449211,246.441786 392.036018,241.690362 401.126033,233.578004 C406.884257,228.43908 411.195988,222.147191 414.12453,214.952004 C414.618836,213.736624 414.502631,211.906619 416.605596,212.00371 C416.451234,213.377731 416.529283,214.83324 416.087009,216.106701 C415.434006,217.99132 414.286697,219.702561 413.605943,221.580245 C413.328438,222.345709 413.382205,223.659048 413.868706,224.199987 C416.072267,226.656754 418.506504,228.903733 420.808926,231.274677 C421.786264,232.28027 422.532058,231.987261 423.28132,231.06749 C424.262994,229.86338 425.16315,229.974342 426,231.224398 L425.710354,232.161506 Z" id="Fill-38" fill="#404B50"></path>
                    <path d="M407.68644,100 C406.508513,99.7877531 406.056788,99.074224 406.068834,97.8870219 C406.092066,95.6049365 406.027534,93.3211255 406,91.0381773 C406.038719,90.1779734 406.14025,89.3151812 406.105833,88.4575657 C405.915678,83.6984039 407.744088,79.7925435 411.042111,76.4863238 C416.823329,70.6918112 422.605408,64.8990243 428.378883,59.0976095 C431.778436,55.6809523 435.74329,53.8975608 440.687312,54.004547 C448.855359,54.1814194 457.030289,54.0157633 465.201778,54.100317 C466.185248,54.1098077 468.016239,54.8233368 468,55.1296281 C467.907825,56.7861891 466.41068,56.3409883 465.354934,56.3444395 C457.326277,56.3729117 449.295038,56.4704072 441.268961,56.3176929 C436.651042,56.2305509 432.995942,57.7904793 429.803752,61.1337991 C424.450167,66.7410857 418.982144,72.2474256 413.376453,77.6010513 C409.922693,80.8995059 408.134723,84.6526521 408.424687,89.4592675 C408.580425,92.0381534 408.520195,94.6368836 408.419525,97.2218091 C408.382526,98.156213 407.942847,99.074224 407.68644,100" id="Fill-50" fill="#404B50"></path>
                    <path d="M404.08904,249.694239 C400.941103,253.630651 400.94277,253.629789 404.512432,257.368821 C404.698291,257.563616 404.838311,257.804955 405,258.024746 C403.122239,260.929433 401.226976,263.822916 399.375052,266.74398 C398.551604,268.041178 397.939019,269.503003 396.989721,270.682978 C396.458814,271.341489 395.432838,271.575071 394.630226,272 C394.572718,269.618501 394.528546,267.237864 394.451868,264.858088 C394.407696,263.496246 394.707737,261.959434 393,261.318162 C393.010835,255.07179 393.022503,248.825418 393.032505,242.579047 C394.133491,242.052411 395.234477,241.525774 396.33463,241 C398.919989,243.897792 401.503681,246.796447 404.08904,249.694239" id="Fill-58" fill="#E9E9EA" fill-rule="nonzero" opacity="0.340000004"></path>
                    <path d="M87.5766114,251 C89.8637726,247.847633 89.4032531,244.18665 89.4101137,240.617586 C89.4204046,234.494938 89.4512774,228.373166 89.39725,222.252269 C89.3629469,218.523879 88.1923526,217.222138 84.5527905,217.201128 C72.2774154,217.13197 60.0003252,217.103082 47.7258077,217.249276 C45.8537143,217.272037 43.991912,218.296271 42.1258217,218.855661 C41.4929289,216.389619 43.3744556,215.847737 44.9395359,215.322489 C45.9840662,214.972323 47.1975395,215.095757 48.3355458,215.094006 C60.1864196,215.08175 72.0407238,215.276092 83.884737,215.003838 C89.5164534,214.874277 92.3284525,218.033647 91.857642,223.163575 C91.6732627,225.176153 91.9391119,227.231625 92,229.267839 C91.9408271,234.744431 91.8524965,240.221023 91.8370601,245.697615 C91.8310571,247.662045 91.5514866,249.514422 89.8800666,250.681349 C89.3089194,251.080538 88.3552924,250.909832 87.5766114,251" id="Fill-72" fill="#404B50"></path>
                    <path d="M432.344261,278.14104 C433.601042,277.904947 434.850893,277.519473 436.116335,277.453367 C446.650423,276.903915 453.539762,264.430508 446.847039,254.863184 C444.187099,251.05909 440.374317,248.0414 437.044845,244.706057 C435.327274,242.985587 433.433009,241.430811 431.805517,239.634792 C431.24512,239.016659 431.252049,237.892859 431,237 C431.771738,237.218922 432.772138,237.203469 433.279701,237.691965 C438.13879,242.361445 443.15032,246.908156 447.650824,251.903014 C452.511645,257.29794 453.197634,263.694758 450.21029,270.27444 C447.40657,276.451477 442.267716,279.439119 435.570662,279.937918 C434.142384,280.044374 432.556467,280.259004 432.344261,278.14104" id="Fill-74" fill="#404B50"></path>
                    <path d="M42.4205357,227 C42.6281019,227.789763 43.0116296,228.57865 43.0141921,229.369288 C43.0295674,234.444957 42.9005859,239.520626 42.9373157,244.596296 C42.9723372,249.265701 44.4876558,250.731403 49.0703416,250.742785 C55.4399759,250.758545 61.8104644,250.711265 68.1800986,250.775181 C69.4912678,250.78919 71.0783378,250.118505 72,251.804849 C71.065525,253.482438 69.4801635,252.79249 68.1681401,252.812628 C60.8008214,252.924701 53.4317943,252.947466 46.0627672,253 C42.3838059,251.914295 40.918884,249.347129 41.003448,245.50426 C41.1162,240.429466 41.0418861,235.349419 41.0256567,230.271999 C41.0205316,228.951642 40.8607996,227.601515 42.4205357,227" id="Fill-94" fill="#404B50"></path>
                    <path d="M123,175.521 C124.000339,175.507 124.999661,175.493 126,175.479 C124.999661,175.493 124.000339,175.507 123,175.521" id="Fill-122" fill="#D6DEF2"></path>
                    <path d="M234.508,89 C234.503,88.666906 234.498,88.3338119 234.492,88 C234.498,88.3338119 234.503,88.666906 234.508,89" id="Fill-124" fill="#F59FAB"></path>
                    <path d="M436.693168,174 C436.659168,174.333004 436.626168,174.666996 436.591168,175 C436.490168,174.751976 436.360168,174.509881 436.307168,174.252964 C436.296168,174.19664 436.557168,174.085968 436.693168,174" id="Fill-126" fill="#D6DEF2"></path>
                    <path d="M150.7233,38.9959269 L133.74176,38.9959269 C132.870643,38.9959269 132.000399,39.0023156 131.129282,38.9922762 C129.456877,38.970372 128.177261,38.0001971 128.015781,36.4212671 C127.853429,34.8249962 128.960219,33.5791931 130.575887,33.2716212 C131.70188,33.0571422 132.870643,33.0251986 134.020203,33.0242859 C145.486125,33.006945 156.95292,33.0105958 168.418842,33.0178972 C169.43049,33.0188098 170.475306,32.9266295 171.446802,33.1520606 C172.936779,33.4997902 174.149185,34.2454468 173.985086,36.224129 C173.833208,38.0586083 172.914957,38.970372 171.188435,38.9868001 C168.720853,39.009617 166.25327,38.9959269 163.785688,38.9959269 C159.43185,38.9968396 155.078011,38.9959269 150.7233,38.9959269" id="Fill-128" fill="#FCFDFE"></path>
                    <path d="M361,35.8762112 C361.208196,33.7951553 362.479538,32.8622975 363.933744,33.0163552 C365.442572,33.1755198 365.908045,34.3458478 365.997498,35.6293784 C366.079826,36.7937484 364.109484,38.4109289 363.197537,37.904496 C362.260259,37.3835937 361.543843,36.399667 361,35.8762112" id="Fill-130" fill="#FCFDFE"></path>
                    <path d="M383.987274,36.3305261 C383.291175,36.7758029 382.266842,37.9262426 381.170142,37.9965049 C380.042427,38.0684603 378.592509,37.0221443 379.10683,35.5271654 C379.446264,34.5367207 380.430968,33.424375 381.396718,33.0637516 C382.545109,32.6345589 384.159575,34.4444485 383.987274,36.3305261" id="Fill-132" fill="#F25877"></path>
                    <path d="M372.334532,33 C373.884381,33.0138657 374.799613,33.7218831 374.987839,35.2393107 C375.153617,36.5756177 373.58909,38.4041571 372.451958,37.9205907 C371.44693,37.4933538 370.319296,36.3892973 370.065449,35.3762345 C369.70022,33.9177361 370.919377,33.1360572 372.334532,33" id="Fill-134" fill="#FCFDFE"></path>
                    <path d="M385.279585,191.519359 C384.429978,192.018492 383.633255,192.745452 382.71776,192.958496 C381.641013,193.209802 380.331058,193.322846 379.370482,192.912409 C378.662188,192.609799 378.350954,191.371533 377.746693,190.352397 C379.529133,189.788047 381.084434,189.448915 382.480217,188.777608 C383.053268,188.502824 383.282142,187.508906 383.667933,186.842816 C382.951835,186.569771 382.190657,185.988029 381.531778,186.086291 C380.126459,186.297596 378.79483,186.961947 377.393846,187.255861 C375.514308,187.650646 375.060895,187.101948 375.558522,185.144547 C375.842013,184.02976 376.467081,182.964537 376.549441,181.84801 C376.610127,181.037572 376.033608,180.179307 375.741447,179.342781 C375.114646,179.81061 374.316189,180.164524 373.908724,180.77844 C373.45011,181.469748 373.483921,182.481057 373.04698,183.194104 C372.670725,183.805411 371.743094,184.706284 371.393714,184.575849 C370.584854,184.274109 369.44482,183.4628 369.400606,182.792363 C369.309577,181.447139 369.751719,180.020176 370.193861,178.701909 C370.404529,178.07408 371.354702,177.687991 371.540228,177.062771 C371.744827,176.376681 371.454401,175.541894 371.379843,174.772326 C370.753041,174.867978 369.958052,174.751456 369.530648,175.095805 C367.697925,176.570595 366.147826,178.221037 366.534483,180.933224 C366.730413,182.31236 366.391437,183.538453 364.586456,183.661932 C360.014184,183.975846 357.61968,186.799338 356.738863,190.9924 C356.324463,192.968931 355.406368,193.649804 353.535499,193.411542 C350.771675,193.059366 349.403635,195.124593 347.927226,196.855906 C347.599521,197.240255 347.870008,198.137651 347.864806,198.798523 C348.495943,198.756784 349.442648,198.965481 349.707066,198.631566 C351.117587,196.84634 353.108961,196.799384 355.061323,196.307207 C357.001548,195.81851 357.347459,197.024602 357.797404,198.182868 C358.329709,199.556788 357.220885,199.890702 356.236035,200.211573 C355.279793,200.522879 354.251596,200.699402 353.388985,201.176795 C352.847144,201.476797 352.552382,202.222887 352.146651,202.769846 C352.835873,203.108108 353.592717,203.825503 354.203047,203.716807 C356.249906,203.352457 358.242147,202.693324 360.84992,201.985495 C360.226586,204.43681 359.801783,206.351602 359.238268,208.223784 C358.914897,209.298572 358.685156,210.455968 360.017652,210.597708 C360.664394,210.666404 361.715999,209.708139 362.086185,208.964657 C362.704317,207.720304 362.923654,206.276819 363.350192,204.776812 C365.05374,205.388989 365.968368,205.962904 365.999578,207.849 C366.03599,210.033358 364.828334,211.269885 363.646687,212.725544 C363.335454,213.108155 363.383136,214.245551 363.716043,214.567292 C364.057619,214.896858 365.157773,214.922946 365.566972,214.609901 C367.417034,213.191633 369.161329,211.575104 369.055562,208.956831 C368.97927,207.071605 369.799401,206.621168 371.588777,206.445515 C376.567647,205.955948 379.20663,203.412458 379.600223,198.474174 C379.774479,196.278512 380.579005,195.745466 382.481951,195.872423 C384.63371,196.015902 385.984412,194.923723 386.666698,192.921974 L387.298701,190.897617 L385.279585,191.519359 Z M392.776065,227.325611 C390.413638,230.831715 386.717848,232.209982 382.971775,233.506509 C381.59073,233.72738 380.163738,233.790859 378.837311,234.193469 C354.167502,241.68046 329.102366,224.230815 327.365874,198.349826 C327.290449,197.228951 326.985285,196.123728 326.785887,195.011549 C325.121351,192.201971 326.521469,189.312393 327.153472,186.768033 C331.442253,169.521867 342.83392,159.360081 359.767105,155.187887 C361.807895,154.685276 364.073224,155.103539 366.233653,155.094844 C367.739538,155.391367 369.231552,155.821803 370.751308,155.963543 C388.83753,157.650507 401.484535,170.891438 405,183.499322 C403.966601,185.649767 402.478922,184.518457 401.452458,183.734976 C398.462362,181.454096 395.629183,178.965388 392.776065,176.594073 L392.776065,227.325611 Z" id="Fill-136" fill="#FFFFFF"></path>
                    <rect id="Rectangle" fill="#FFFFFF" x="337" y="165.939863" width="58" height="58" rx="15"></rect>
                    <path d="M366,153.939863 L368,153.939863 C390.09139,153.939863 408,171.848473 408,193.939863 L408,195.939863 C408,218.031253 390.09139,235.939863 368,235.939863 L366,235.939863 C343.90861,235.939863 326,218.031253 326,195.939863 L326,193.939863 C326,171.848473 343.90861,153.939863 366,153.939863 Z" id="Rectangle-Copy-47" fill="#E02020"></path>
                    <g id="poo-svgrepo-com" transform="translate(348.000000, 180.939863)" fill="#FFFFFF" fill-rule="nonzero" stroke="#FFFFFF">
                        <path d="M37.4112227,26.852085 L33.0394414,26.852085 C34.1729844,25.9358512 34.8962461,24.5533607 34.8962461,23.0090839 C34.8962461,20.2569821 32.5996211,18.0180955 29.7767109,18.0180955 L29.5051445,18.0180955 C30.1308086,17.1784859 30.4738477,16.1636321 30.4738477,15.0934989 C30.4738477,15.0359765 30.4728086,14.9785265 30.4708789,14.9213659 C30.4598203,14.6045225 30.1842461,14.3560548 29.8625078,14.3671975 C29.5374297,14.3779061 29.2830078,14.6434496 29.2939922,14.960293 C29.2955508,15.004502 29.2963672,15.0488557 29.2963672,15.0934265 C29.2963672,16.2932202 28.7360156,17.402787 27.7589258,18.1376263 C27.5594258,18.2876186 27.4799375,18.5448413 27.5612813,18.7773185 C27.6425508,19.0097957 27.8666172,19.1660829 28.1185898,19.1660829 L29.7767109,19.1660829 C31.9503555,19.1660829 33.7186914,20.8900899 33.7186914,23.0090839 C33.7186914,25.1282226 31.9504297,26.852085 29.7767109,26.852085 L8.22336328,26.852085 C6.04971875,26.852085 4.28130859,25.1280779 4.28130859,23.0090839 C4.28130859,20.8900176 6.04971875,19.1660829 8.22336328,19.1660829 L9.88141016,19.1660829 L13.7107266,19.1660829 C14.0359531,19.1660829 14.2995039,18.9090773 14.2995039,18.5920892 C14.2995039,18.2751011 14.0359531,18.0180955 13.7107266,18.0180955 L10.0910781,18.0180955 C9.20728125,17.2853545 8.70363281,16.2301989 8.70363281,15.0934989 C8.70363281,12.9743602 10.472043,11.2504978 12.6456875,11.2504978 L14.0116094,11.2504978 C14.2171953,11.2504978 14.4080117,11.1459446 14.5147383,10.9746799 C14.6215391,10.8034151 14.6288867,10.5901844 14.5341836,10.412263 C14.0513906,9.50478425 13.806543,8.52299672 13.806543,7.49396126 C13.806543,4.38478653 16.1494805,1.76125982 19.2037305,1.24080896 C18.8292227,2.13584262 18.6341758,3.09874545 18.6341758,4.07409336 C18.6341758,5.70042089 19.1595703,7.24751949 20.1537305,8.54810397 C20.6117344,9.14727728 21.1498203,9.66808991 21.7513633,10.1025104 L20.098957,10.1025104 C19.7737305,10.1025104 19.5101797,10.3595161 19.5101797,10.6765041 C19.5101797,10.9934922 19.7737305,11.2504978 20.098957,11.2504978 L24.1866289,11.2504978 L25.3541641,11.2504978 C26.8268125,11.2504978 28.1660898,12.0414124 28.8494961,13.3146466 C29.0003086,13.5955294 29.3561133,13.7041346 29.6441563,13.5571088 C29.9322734,13.4101555 30.0436016,13.063357 29.8928633,12.7824742 C29.0055781,11.1294476 27.2664844,10.1025104 25.3541641,10.1025104 L24.2791797,10.1025104 C21.6032969,9.24213492 19.8117305,6.83053655 19.8117305,4.07409336 C19.8117305,2.9439777 20.1204805,1.83419385 20.704582,0.864706703 C20.8124219,0.685772327 20.812793,0.46400368 20.7054727,0.284707527 C20.5982266,0.10548373 20.4035508,-0.00297669501 20.1871289,0 C18.1608086,0.0329838328 16.2612539,0.827082006 14.8382578,2.23605456 C13.4135547,3.64676363 12.6289141,5.51403393 12.6289141,7.4938889 C12.6289141,8.38429183 12.7933086,9.27143878 13.1086641,10.1024381 L12.6455391,10.1024381 C9.82255469,10.1024381 7.52592969,12.341397 7.52592969,15.0934265 C7.52592969,16.1635597 7.86896875,17.1784136 8.49463281,18.0180232 L8.22314062,18.0180232 C5.40015625,18.0180232 3.10353125,20.2569821 3.10353125,23.0090116 C3.10353125,24.5532883 3.82686719,25.9358512 4.96033594,26.8520126 L0.588777344,26.8520126 C0.263625,26.8520126 0,27.1090182 0,27.4260063 C0,27.7429944 0.263625,28 0.588777344,28 L8.22336328,28 L29.7767109,28 L37.4112227,28 C37.7364492,28 38,27.7429944 38,27.4260063 C38,27.1090906 37.736375,26.852085 37.4112227,26.852085 Z" id="Path"></path>
                        <path d="M19.2577426,18 L17.7422574,18 C17.3322521,18 17,18.223875 17,18.5 C17,18.776125 17.3322521,19 17.7422574,19 L19.2577426,19 C19.6677479,19 20,18.776125 20,18.5 C20,18.223875 19.6677479,18 19.2577426,18 Z" id="Path"></path>
                    </g>
                    <path d="M326.801038,195.015151 C326.999248,196.12195 327.304786,197.221826 327.380088,198.337279 C329.113777,224.093077 354.138436,241.45745 378.768406,234.007541 C380.091825,233.606878 381.517379,233.543706 382.896194,233.323904 C383.405135,235.231164 381.940631,235.444909 380.721943,235.785862 C374.766988,237.449089 368.861369,238.51089 362.516053,237.748505 C352.326848,236.525747 343.770929,232.32441 336.734907,225.118532 C329.328432,217.534491 325.365098,208.301934 325.042249,197.619893 C325.005031,196.379828 324.661409,194.829963 326.801038,195.015151" id="Fill-140" fill="#404B50"></path>
                    <path d="M404.494462,212 C404.722025,210.500274 404.811146,208.963335 405.199647,207.506013 C407.307416,199.614493 407.52373,191.784415 404.690876,184.009723 C401.182255,171.462387 388.559871,158.284179 370.508859,156.605316 C368.992062,156.465123 367.502088,156.036753 366,155.741654 C366.361678,153.635287 368.005668,153.969329 369.37191,154.10433 C376.874562,154.84251 384.018132,156.771472 390.271351,161.161611 C404.647613,171.258154 410.485508,185.252427 408.682311,202.531733 C408.389853,205.330415 407.299628,208.065923 406.385051,210.765084 C406.194694,211.325859 405.146867,211.595861 404.494462,212" id="Fill-142" fill="#404B50"></path>
                    <path d="M74.2290323,141.974409 L75.4483871,111 L67.9,111 L69.0903226,141.974409 L74.2290323,141.974409 Z M71.5290323,156 C72.7483871,156 73.7983872,155.562008 74.6790323,154.686024 C75.5596773,153.810039 76,152.751969 76,151.511811 C76,150.271654 75.5596773,149.208661 74.6790323,148.322835 C73.7983872,147.437008 72.7483871,146.994094 71.5290323,146.994094 C70.696774,146.994094 69.9322581,147.195866 69.2354839,147.599409 C68.5387097,148.002953 67.9919356,148.554134 67.5951613,149.252953 C67.1983869,149.951772 67,150.704725 67,151.511811 C67,152.751969 67.4403227,153.810039 68.3209677,154.686024 C69.2016128,155.562008 70.2709679,156 71.5290323,156 Z" id="!" fill="#F64242" fill-rule="nonzero"></path>
                    <path d="M489.958503,101.577375 C489.958503,105.166537 489.928363,108.756561 489.967976,112.346585 C490.004145,115.505186 488.948369,118.089418 486.628419,120.331784 C481.467519,125.319411 476.388429,130.396595 471.404066,135.560753 C469.162481,137.884064 466.575572,138.920857 463.422024,138.908801 C456.245162,138.882106 449.066577,138.817522 441.891437,138.938079 C438.652634,138.99233 436.014057,137.806563 433.812084,135.663227 C428.873363,130.856435 423.991477,125.990226 419.196568,121.042211 C416.534739,118.296088 415.089722,114.893789 415.053554,111.034233 C414.989828,104.573223 414.971744,98.1104914 415.062165,91.6503427 C415.109529,88.2678496 416.295339,85.3124737 418.796993,82.867744 C423.930335,77.8499773 428.999091,72.7650429 434.026512,67.6422191 C436.475636,65.1449609 439.452647,64.0168891 442.837846,63.9807219 C449.440318,63.9092487 456.044513,63.9505826 462.647846,63.9634995 C466.224221,63.9695273 469.282181,65.1535722 471.834644,67.7679432 C476.548604,72.5954016 481.346096,77.3419144 486.135838,82.093594 C488.687439,84.624436 490.144513,87.531589 489.988644,91.2404479 C489.845692,94.6797753 489.958503,98.1311583 489.958503,101.577375" id="Fill-152" fill="#FCFDFE"></path>
                    <g id="padlock-svgrepo-com-(1)" transform="translate(443.000000, 77.939863)" fill="#000000" fill-rule="nonzero">
                        <path d="M16.2514286,8.54607143 L16.0360714,8.54607143 L16.0360714,6.13107143 C16.0364286,2.75035714 13.2864286,0 9.90571429,0 C6.525,0 3.77464286,2.75035714 3.77464286,6.13107143 L3.77464286,8.54607143 L3.55892857,8.54607143 C1.63,8.54607143 0.0603571429,10.1157143 0.0603571429,12.045 L0.0603571429,19.8828571 C0.0603571429,21.8121429 1.63,23.3817857 3.55892857,23.3817857 L16.2517857,23.3817857 C18.1807143,23.3817857 19.7503571,21.8121429 19.7503571,19.8828571 L19.7503571,12.045 C19.75,10.1157143 18.1803571,8.54607143 16.2514286,8.54607143 Z M5.9175,6.13107143 C5.9175,3.93214286 7.70607143,2.14285714 9.90571429,2.14285714 C12.1046429,2.14285714 13.8935714,3.93178571 13.8935714,6.13107143 L13.8935714,8.54607143 L5.9175,8.54607143 L5.9175,6.13107143 Z M17.6071429,19.8832143 C17.6071429,20.6310714 16.9989286,21.2392857 16.2514286,21.2392857 L3.55892857,21.2392857 C2.81142857,21.2392857 2.20321429,20.6310714 2.20321429,19.8832143 L2.20321429,12.045 C2.20321429,11.2971429 2.81142857,10.6889286 3.55892857,10.6889286 L16.2517857,10.6889286 C16.9992857,10.6889286 17.6075,11.2971429 17.6075,12.045 L17.6071429,19.8832143 L17.6071429,19.8832143 Z" id="Shape"></path>
                        <path d="M9.905,13.2725 C8.71892857,13.2725 7.75714286,14.2339286 7.75714286,15.4203571 C7.75714286,16.2157143 8.19071429,16.9085714 8.83357143,17.28 L8.83357143,19.6678571 L10.9764286,19.6678571 L10.9764286,17.28 C11.6192857,16.9085714 12.0528571,16.2157143 12.0528571,15.4203571 C12.0528571,14.2339286 11.0910714,13.2725 9.905,13.2725 Z" id="Path"></path>
                    </g>
                    <g id="pin-code-svgrepo-com" transform="translate(434.000000, 107.939863)" fill-rule="nonzero">
                        <path d="M30.0833086,0 L7.91669141,0 C3.54461328,0 0,3.5819306 0,7.9999625 C0,12.4179944 3.54461328,16 7.91669141,16 L30.0833828,16 C34.4553867,16 38,12.4180694 38,7.9999625 C38,3.5818556 34.4553867,0 30.0833086,0 Z M30.0833086,12.79997 L7.91669141,12.79997 C5.29357812,12.79997 3.16669141,10.6506916 3.16669141,7.9999625 C3.16669141,5.34923336 5.29357812,3.199955 7.91669141,3.199955 L30.0833828,3.199955 C32.7064961,3.199955 34.8333828,5.34923336 34.8333828,7.9999625 C34.8333828,10.6506916 32.7064961,12.79997 30.0833086,12.79997 Z" id="Shape" fill="#000000" opacity="0.100000001"></path>
                        <path d="M9.5,5 C8.67156518,5 8,5.67155731 8,6.49998242 L8,9.50001758 C8,10.3284427 8.67156518,11 9.5,11 C10.3284348,11 11,10.3284427 11,9.50001758 L11,6.49998242 C11,5.67155731 10.3284348,5 9.5,5 Z" id="Path" fill="#6DD400"></path>
                        <path d="M15.5,5 C14.6715652,5 14,5.67155731 14,6.49998242 L14,9.50001758 C14,10.3284427 14.6715652,11 15.5,11 C16.3284348,11 17,10.3284427 17,9.50001758 L17,6.49998242 C17.0000703,5.67155731 16.3284348,5 15.5,5 Z" id="Path" fill="#000000" opacity="0.119999997"></path>
                        <path d="M21.5,5 C20.6715652,5 20,5.67155731 20,6.49998242 L20,9.50001758 C20,10.3284427 20.6715652,11 21.5,11 C22.3284348,11 23,10.3284427 23,9.50001758 L23,6.49998242 C23,5.67155731 22.3284348,5 21.5,5 Z" id="Path" fill="#000000" opacity="0.119999997"></path>
                        <path d="M30.4999648,8 L27.4999648,8 C26.6715494,8 26,8.67154944 26,9.49996484 C26,10.3283802 26.6716198,11 27.5000352,11 L30.5000352,11 C31.3284506,11 32,10.3284506 32,9.50003516 C32,8.67161975 31.3283802,8 30.4999648,8 Z" id="Path" fill="#000000" opacity="0.119999997"></path>
                    </g>
                    <path d="M404.200796,250 C401.46661,247.109925 398.734186,244.218991 396,241.328916 C397.283358,240.232888 398.617838,239.185859 399.84214,238.028798 C403.972506,234.125219 408.06409,230.181239 412.435086,226 C414.307236,227.823274 416.499345,229.874351 418.591853,232.019986 C420.471055,233.947276 420.492209,234.260181 418.517813,236.196067 C413.786313,240.837208 408.978129,245.40356 404.200796,250" id="Fill-154" fill="#55C1E2"></path>
                </g>
            </g>
        </g>
    </g>
</svg>
