<?xml version="1.0" encoding="UTF-8"?>
<svg width="425px" height="269px" viewBox="0 0 425 269" version="1.1" xmlns="http://www.w3.org/2000/svg" xmlns:xlink="http://www.w3.org/1999/xlink">
    <defs>
        <path d="M165.282227,114.609375 L165.282227,110.110352 L156.18457,107.072266 L155.055664,106.673828 L156.18457,106.258789 L165.282227,103.170898 L165.282227,98.6884766 L150.589844,104.78125 L150.589844,108.516602 L165.282227,114.609375 Z M175.355469,119.075195 L184.40332,92.828125 L180.103516,92.828125 L171.055664,119.075195 L175.355469,119.075195 Z M189.479492,114.625977 L204.420898,108.533203 L204.420898,104.764648 L189.479492,98.6884766 L189.479492,103.154297 L199.008789,106.291992 L200.004883,106.624023 L198.992188,106.956055 L189.479492,110.143555 L189.479492,114.625977 Z" id="path-1"></path>
        <circle id="path-2" cx="33.5" cy="33.5" r="23.5"></circle>
        <mask id="mask-3" maskContentUnits="userSpaceOnUse" maskUnits="objectBoundingBox" x="0" y="0" width="47" height="47" fill="white">
            <use xlink:href="#path-2"></use>
        </mask>
        <circle id="path-4" cx="33.5" cy="33.5" r="23.5"></circle>
        <mask id="mask-5" maskContentUnits="userSpaceOnUse" maskUnits="objectBoundingBox" x="0" y="0" width="47" height="47" fill="white">
            <use xlink:href="#path-4"></use>
        </mask>
        <circle id="path-6" cx="33.5" cy="33.5" r="23.5"></circle>
        <mask id="mask-7" maskContentUnits="userSpaceOnUse" maskUnits="objectBoundingBox" x="0" y="0" width="47" height="47" fill="white">
            <use xlink:href="#path-6"></use>
        </mask>
        <circle id="path-8" cx="33.5" cy="33.5" r="23.5"></circle>
        <mask id="mask-9" maskContentUnits="userSpaceOnUse" maskUnits="objectBoundingBox" x="0" y="0" width="47" height="47" fill="white">
            <use xlink:href="#path-8"></use>
        </mask>
    </defs>
    <g id="Page-1" stroke="none" stroke-width="1" fill="none" fill-rule="evenodd">
        <g id="HOME" transform="translate(-720.000000, -1064.000000)">
            <g id="Group-55" transform="translate(720.000000, 1050.437378)">
                <g id="Group-19" transform="translate(49.000000, 13.562622)" fill="#E9E9EA" fill-rule="nonzero" opacity="0.340000004">
                    <rect id="Rectangle" x="0" y="142" width="102" height="54" rx="27"></rect>
                    <rect id="Rectangle-Copy" x="189" y="163" width="102" height="45" rx="20"></rect>
                    <rect id="Rectangle-Copy-46" x="242" y="115" width="134" height="45" rx="20"></rect>
                    <rect id="Rectangle-Copy-60" x="70" y="0" width="172" height="82" rx="41"></rect>
                </g>
                <g id="Group-4" transform="translate(30.000000, 48.562622)">
                    <path d="M65.5,0 L171.629163,226.429377 C173.035509,229.429852 176.607944,230.72215 179.608419,229.315804 C180.875802,228.721773 181.895622,227.703339 182.491378,226.436766 L289,0 L289,0 L65.5,0 Z" id="Path-3" fill="#E2F5FA"></path>
                    <path d="M182.576331,228.935349 L343.781216,68.1923692 C348.86531,63.1228425 348.87712,54.8917062 343.807593,49.8076118 C343.803203,49.8032094 343.79881,49.79881 343.794414,49.7944139 L301.482097,7.48209707 C299.18037,5.18036962 296.474579,3.3220352 293.5,2 L290.783188,0.792527992 C289.791341,0.351707039 288.628926,0.782446196 288.16383,1.76314501 L180.966699,227.798726 C180.730043,228.297737 180.942724,228.894114 181.441736,229.130769 C181.823262,229.311707 182.277322,229.233501 182.576331,228.935349 Z" id="Path-3-Copy" fill="#C5EAF5"></path>
                    <path d="M5.57633057,228.935349 L166.781216,68.1923692 C171.86531,63.1228425 171.87712,54.8917062 166.807593,49.8076118 C166.803203,49.8032094 166.79881,49.79881 166.794414,49.7944139 L124.482097,7.48209707 C122.18037,5.18036962 119.474579,3.3220352 116.5,2 L113.783188,0.792527992 C112.791341,0.351707039 111.628926,0.782446196 111.16383,1.76314501 L3.96669868,227.798726 C3.73004298,228.297737 3.94272443,228.894114 4.44173598,229.130769 C4.82326178,229.311707 5.27732205,229.233501 5.57633057,228.935349 Z" id="Path-3-Copy-2" fill="#C5EAF5" transform="translate(88.750000, 116.500000) scale(-1, 1) translate(-88.750000, -116.500000) "></path>
                    <path d="M70.7076331,0 L285.058875,0 C291.42407,-6.86708274e-14 297.528564,2.52856417 302.029437,7.02943725 L344.100505,49.1005051 C349.567845,54.5678451 349.567845,63.4321549 344.100505,68.8994949 L186.899495,226.100505 C181.432155,231.567845 172.567845,231.567845 167.100505,226.100505 L10.0658614,69.0658614 C4.59852127,63.5985213 4.59852127,54.7342116 10.0658614,49.2668715 C10.1208538,49.2118791 10.1763035,49.1573458 10.2322047,49.1032775 L54.0222303,6.74899035 C58.4979428,2.42002257 64.4809194,1.53546835e-14 70.7076331,0 Z" id="Path-2" stroke="#404B50" stroke-width="2"></path>
                    <path d="M92.2983368,45 L263.095562,45 C269.439046,45 275.52454,47.5113916 280.021757,51.9851857 L311.022727,82.8246916 C316.504323,88.2777381 316.527467,97.1420176 311.074421,102.623614 C311.057235,102.64089 311.040003,102.658122 311.022727,102.675308 L186.873614,226.177811 C181.412247,231.610733 172.587753,231.610733 167.126386,226.177811 L43.1449395,102.842101 C37.663343,97.3890548 37.6401987,88.5247753 43.0932452,83.0431789 C43.1652751,82.9707718 43.2380952,82.8991551 43.3116925,82.8283417 L75.6580035,51.7055122 C80.1293866,47.4032567 86.0932849,45 92.2983368,45 Z" id="Path-2-Copy" fill="#FFFFFF" opacity="0.400000006"></path>
                    <g id="&lt;/&gt;" fill-rule="nonzero">
                        <use fill="#000000" xlink:href="#path-1"></use>
                        <use fill="#55C1E2" xlink:href="#path-1"></use>
                    </g>
                </g>
                <g id="Group-49" transform="translate(278.437378, 0.000000)">
                    <g id="Group-10-Copy" transform="translate(43.500000, 43.500000) rotate(200.000000) translate(-43.500000, -43.500000) translate(10.000000, 10.000000)">
                        <use id="Oval-Copy-5" stroke="#404B50" mask="url(#mask-3)" stroke-width="4" stroke-dasharray="29,30" transform="translate(33.500000, 33.500000) rotate(-40.000000) translate(-33.500000, -33.500000) " xlink:href="#path-2"></use>
                        <use id="Oval" stroke="#404B50" mask="url(#mask-5)" stroke-width="4" stroke-dasharray="12,48" transform="translate(33.500000, 33.500000) rotate(-96.000000) translate(-33.500000, -33.500000) " xlink:href="#path-4"></use>
                        <path d="M34,55 C45.5979797,55 55,45.5979797 55,34 C55,22.4020203 45.5979797,13 34,13 C22.4020203,13 13,22.4020203 13,34 C13,45.5979797 22.4020203,55 34,55 Z" id="Oval-Copy-6" fill="#FFFFFF" transform="translate(34.000000, 34.000000) rotate(-96.000000) translate(-34.000000, -34.000000) "></path>
                    </g>
                    <path d="M40.5860599,49.5294193 L41.1524662,45.9356693 L43.6231693,45.9356693 L43.0762943,49.5294193 L45.166138,49.5294193 L45.7227787,45.9356693 L48.3302005,45.9356693 L48.3497318,43.650513 L46.0743412,43.650513 L46.4649662,41.0919193 L48.8673099,41.0919193 L48.8770755,38.8165287 L46.8262943,38.8165287 L47.3438724,35.447388 L45.2540287,35.447388 L44.7266849,38.8165287 L42.2462162,38.8165287 L42.7735599,35.447388 L40.6739505,35.447388 L40.1563724,38.8165287 L37.5782474,38.8165287 L37.5782474,41.0919193 L39.8048099,41.0919193 L39.4044193,43.650513 L37.0606693,43.650513 L37.0606693,45.9356693 L39.0528568,45.9356693 L38.4864505,49.5294193 L40.5860599,49.5294193 Z M43.9844974,43.650513 L41.494263,43.650513 L41.9044193,41.0919193 L44.3751224,41.0919193 L43.9844974,43.650513 Z" id="#" fill="#000000" fill-rule="nonzero"></path>
                </g>
                <g id="Group-49-Copy" transform="translate(56.437378, 127.000000)">
                    <g id="Group-10-Copy" transform="translate(45.500000, 45.500000) rotate(-62.000000) translate(-45.500000, -45.500000) translate(12.000000, 12.000000)">
                        <use id="Oval-Copy-5" stroke="#404B50" mask="url(#mask-7)" stroke-width="4" stroke-dasharray="29,30" transform="translate(33.500000, 33.500000) rotate(-40.000000) translate(-33.500000, -33.500000) " xlink:href="#path-6"></use>
                        <use id="Oval" stroke="#404B50" mask="url(#mask-9)" stroke-width="4" stroke-dasharray="12,48" transform="translate(33.500000, 33.500000) rotate(-96.000000) translate(-33.500000, -33.500000) " xlink:href="#path-8"></use>
                        <path d="M34,55 C45.5979797,55 55,45.5979797 55,34 C55,22.4020203 45.5979797,13 34,13 C22.4020203,13 13,22.4020203 13,34 C13,45.5979797 22.4020203,55 34,55 Z" id="Oval-Copy-6" fill="#FFFFFF" transform="translate(34.000000, 34.000000) rotate(-96.000000) translate(-34.000000, -34.000000) "></path>
                    </g>
                    <g id="padlock-svgrepo-com-(1)" transform="translate(36.000000, 34.000000)" fill="#000000" fill-rule="nonzero">
                        <path d="M16.2514286,8.54607143 L16.0360714,8.54607143 L16.0360714,6.13107143 C16.0364286,2.75035714 13.2864286,0 9.90571429,0 C6.525,0 3.77464286,2.75035714 3.77464286,6.13107143 L3.77464286,8.54607143 L3.55892857,8.54607143 C1.63,8.54607143 0.0603571429,10.1157143 0.0603571429,12.045 L0.0603571429,19.8828571 C0.0603571429,21.8121429 1.63,23.3817857 3.55892857,23.3817857 L16.2517857,23.3817857 C18.1807143,23.3817857 19.7503571,21.8121429 19.7503571,19.8828571 L19.7503571,12.045 C19.75,10.1157143 18.1803571,8.54607143 16.2514286,8.54607143 Z M5.9175,6.13107143 C5.9175,3.93214286 7.70607143,2.14285714 9.90571429,2.14285714 C12.1046429,2.14285714 13.8935714,3.93178571 13.8935714,6.13107143 L13.8935714,8.54607143 L5.9175,8.54607143 L5.9175,6.13107143 Z M17.6071429,19.8832143 C17.6071429,20.6310714 16.9989286,21.2392857 16.2514286,21.2392857 L3.55892857,21.2392857 C2.81142857,21.2392857 2.20321429,20.6310714 2.20321429,19.8832143 L2.20321429,12.045 C2.20321429,11.2971429 2.81142857,10.6889286 3.55892857,10.6889286 L16.2517857,10.6889286 C16.9992857,10.6889286 17.6075,11.2971429 17.6075,12.045 L17.6071429,19.8832143 L17.6071429,19.8832143 Z" id="Shape"></path>
                        <path d="M9.905,13.2725 C8.71892857,13.2725 7.75714286,14.2339286 7.75714286,15.4203571 C7.75714286,16.2157143 8.19071429,16.9085714 8.83357143,17.28 L8.83357143,19.6678571 L10.9764286,19.6678571 L10.9764286,17.28 C11.6192857,16.9085714 12.0528571,16.2157143 12.0528571,15.4203571 C12.0528571,14.2339286 11.0910714,13.2725 9.905,13.2725 Z" id="Path"></path>
                    </g>
                </g>
                <rect id="Rectangle-Copy-51" stroke="#404B50" stroke-width="2" fill="#FFFFFF" transform="translate(207.000000, 281.062622) scale(1, -1) translate(-207.000000, -281.062622) " x="1" y="280.562622" width="412" height="1" rx="0.5"></rect>
            </g>
        </g>
    </g>
</svg>
