<?xml version="1.0" encoding="UTF-8"?>
<svg width="468px" height="438px" viewBox="0 0 468 438" version="1.1" xmlns="http://www.w3.org/2000/svg" xmlns:xlink="http://www.w3.org/1999/xlink">
    <defs>
        <polygon id="path-1" points="0 0.0447052704 73.0913 0.0447052704 73.0913 92.45325 0 92.45325"></polygon>
        <polygon id="path-3" points="0.0652735425 0.138517176 32.287 0.138517176 32.287 40.8767 0.0652735425 40.8767"></polygon>
    </defs>
    <g id="Page-1" stroke="none" stroke-width="1" fill="none" fill-rule="evenodd">
        <g id="WORKSHOP" transform="translate(-720.000000, -1932.000000)">
            <g id="Group-22" transform="translate(165.000000, 905.000000)">
                <g id="Group-215" transform="translate(555.000000, 1027.635000)">
                    <g id="Group-27">
                        <g id="Group-3">
                            <mask id="mask-2" fill="white">
                                <use xlink:href="#path-1"></use>
                            </mask>
                            <g id="Clip-2"></g>
                        </g>
                        <g id="Group-6" transform="translate(435.000000, 242.000000)">
                            <mask id="mask-4" fill="white">
                                <use xlink:href="#path-3"></use>
                            </mask>
                            <g id="Clip-5"></g>
                            <path d="M16.1762,23.2642 C12.2602,23.2642 9.0862,20.0892 9.0862,16.1742 C9.0862,12.2582 12.2602,9.0832 16.1762,9.0832 C20.0922,9.0832 23.2672,12.2582 23.2672,16.1742 C23.2672,20.0892 20.0922,23.2642 16.1762,23.2642 M32.2872,16.2492 C32.2872,6.3302 23.3222,-1.4958 13.0532,0.4322 C6.5942,1.6442 1.4472,6.9192 0.3152,13.3942 C-0.3918,17.4402 0.4432,21.2462 2.2892,24.3892 L2.2802,24.3892 L2.3252,24.4502 C2.9442,25.4912 3.7182,26.2352 4.4992,27.3282 L13.8542,39.7202 C15.0182,41.2622 17.3342,41.2622 18.4982,39.7202 L27.6972,27.5332 C27.6972,27.5332 29.4132,25.4862 30.0362,24.4332 L30.0702,24.3892 L30.0642,24.3892 C31.4682,21.9982 32.2872,19.2222 32.2872,16.2492" id="Fill-4" fill="#F5F5F5" mask="url(#mask-4)"></path>
                        </g>
                        <path d="M423.5512,356.7994 C423.5512,379.0784 405.4902,397.1404 383.2112,397.1404 C360.9322,397.1404 342.8702,379.0784 342.8702,356.7994 C342.8702,334.5204 360.9322,316.4594 383.2112,316.4594 C405.4902,316.4594 423.5512,334.5204 423.5512,356.7994" id="Fill-7" fill="#F5F5F5"></path>
                        <path d="M383.2104,328.9703 C367.8654,328.9703 355.3814,341.4543 355.3814,356.8003 C355.3814,372.1453 367.8654,384.6293 383.2104,384.6293 C398.5564,384.6293 411.0404,372.1453 411.0404,356.8003 C411.0404,341.4543 398.5564,328.9703 383.2104,328.9703 M383.2104,390.3753 C364.6964,390.3753 349.6354,375.3143 349.6354,356.8003 C349.6354,338.2863 364.6964,323.2243 383.2104,323.2243 C401.7244,323.2243 416.7864,338.2863 416.7864,356.8003 C416.7864,375.3143 401.7244,390.3753 383.2104,390.3753" id="Fill-9" fill="#FFFFFF"></path>
                        <path d="M382.9857,349.2935 C379.3357,349.2935 376.3667,352.2635 376.3667,355.9135 C376.3667,359.5635 379.3357,362.5325 382.9857,362.5325 C386.6357,362.5325 389.6057,359.5635 389.6057,355.9135 C389.6057,352.2635 386.6357,349.2935 382.9857,349.2935 M382.9857,368.2785 C376.1677,368.2785 370.6207,362.7315 370.6207,355.9135 C370.6207,349.0955 376.1677,343.5475 382.9857,343.5475 C389.8037,343.5475 395.3517,349.0955 395.3517,355.9135 C395.3517,362.7315 389.8037,368.2785 382.9857,368.2785" id="Fill-11" fill="#FFFFFF"></path>
                        <polygon id="Fill-13" fill="#E0E0E0" points="382.9857 355.9126 367.3547 355.9126 370.0807 360.7346 333.2917 377.5966 334.5327 379.6656 371.4447 362.9996 373.9747 367.7896"></polygon>
                        <path d="M333.2914,377.5962 L332.9004,377.2162 C330.9724,375.3372 328.1824,374.6412 325.5964,375.3932 L310.9214,379.6652 L319.0934,383.2552 L315.8114,391.9872 L329.5784,387.0762 C332.6834,385.9692 334.6964,382.9582 334.5324,379.6652 L333.2914,377.5962 Z" id="Fill-15" fill="#E0E0E0"></path>
                        <path d="M155.2694,386.0582 C155.2734,386.0512 155.3754,386.0182 155.5714,385.9582 C155.7884,385.8952 156.0744,385.8112 156.4394,385.7042 C157.2244,385.4812 158.3424,385.1622 159.7844,384.7502 C162.7104,383.9292 166.9454,382.7412 172.2884,381.2412 L172.1764,381.4412 C171.5354,379.2982 170.8174,376.8962 170.0484,374.3202 L170.0124,374.2022 L170.1124,374.1192 C173.2454,371.5042 176.3284,368.0652 178.8314,363.8562 C180.0784,361.7472 181.0704,359.3892 181.7504,356.8672 C182.4624,354.3422 182.5594,351.5982 182.2234,348.8662 C181.3724,343.4162 178.6004,337.8692 174.0054,333.8672 C169.4704,329.8352 163.4144,327.1632 156.9824,326.5392 C152.1864,326.0732 147.4124,327.1752 143.3104,329.2752 C139.1534,331.2862 135.6654,334.3282 133.1264,337.8442 C130.5634,341.3702 129.2144,345.4952 128.7464,349.4862 C128.6864,350.4932 128.5284,351.4852 128.5514,352.4722 C128.5794,353.4592 128.6074,354.4362 128.6354,355.4002 C128.8174,357.3212 129.1254,359.1832 129.6354,360.9432 C130.1614,362.6972 130.8454,364.3472 131.6694,365.8642 C132.5094,367.3722 133.4964,368.7322 134.5534,369.9532 C136.6844,372.3882 139.1334,374.2092 141.5174,375.5732 C146.3204,378.2882 150.7664,379.3892 153.9214,379.8612 L153.9924,379.8712 L154.0064,379.9372 C154.4224,381.9192 154.7404,383.4332 154.9604,384.4782 C155.0614,384.9772 155.1394,385.3642 155.1974,385.6492 C155.2494,385.9122 155.2734,386.0502 155.2694,386.0582 C155.2654,386.0652 155.2314,385.9432 155.1684,385.6912 C155.1014,385.4142 155.0104,385.0382 154.8924,384.5532 C154.6444,383.5002 154.2854,381.9762 153.8154,379.9792 L153.9004,380.0552 C150.7034,379.6292 146.2294,378.5742 141.3514,375.8662 C138.9314,374.5062 136.4354,372.6792 134.2554,370.2152 C133.1734,368.9812 132.1624,367.6022 131.2994,366.0702 C130.4524,364.5302 129.7484,362.8522 129.2054,361.0702 C128.6784,359.2812 128.3584,357.3882 128.1664,355.4392 C128.1354,354.4592 128.1024,353.4692 128.0704,352.4672 C128.0444,351.4642 128.2014,350.4542 128.2594,349.4302 C128.7224,345.3682 130.0904,341.1502 132.7014,337.5432 C135.2864,333.9472 138.8404,330.8422 143.0694,328.7902 C147.2334,326.6522 152.1304,325.5162 157.0314,325.9952 C163.5874,326.6322 169.7384,329.3502 174.3614,333.4682 C176.6774,335.5212 178.6034,337.9412 179.9734,340.5802 C180.3704,341.2122 180.6294,341.9072 180.9274,342.5792 C181.2214,343.2512 181.5284,343.9152 181.7134,344.6202 C181.9244,345.3132 182.1514,345.9982 182.3444,346.6872 C182.4704,347.3952 182.5954,348.0982 182.7194,348.7962 C183.0574,351.5992 182.9464,354.4122 182.2124,356.9862 C181.5104,359.5572 180.4904,361.9502 179.2174,364.0822 C176.6574,368.3402 173.5444,371.7782 170.3444,374.4142 L170.4084,374.2132 C171.1594,376.7942 171.8604,379.2032 172.4854,381.3502 L172.5314,381.5092 L172.3734,381.5512 C166.9694,382.9882 162.6864,384.1262 159.7274,384.9132 C158.2914,385.2872 157.1784,385.5792 156.3974,385.7832 C156.0404,385.8732 155.7604,385.9442 155.5484,385.9972 C155.3594,386.0432 155.2654,386.0642 155.2694,386.0582" id="Fill-17" fill="#E0E0E0"></path>
                        <path d="M173.8734,386.0708 C173.9134,386.2168 170.0214,387.4088 165.1814,388.7338 C160.3404,390.0588 156.3844,391.0148 156.3444,390.8688 C156.3044,390.7228 160.1954,389.5318 165.0374,388.2058 C169.8764,386.8818 173.8334,385.9248 173.8734,386.0708" id="Fill-19" fill="#E0E0E0"></path>
                        <path d="M170.0087,394.2486 C170.0657,394.3836 168.7547,395.0446 167.0037,395.4616 C165.2537,395.8846 163.7857,395.8906 163.7757,395.7446 C163.7607,395.5896 165.1707,395.3426 166.8757,394.9296 C168.5827,394.5236 169.9517,394.1036 170.0087,394.2486" id="Fill-21" fill="#E0E0E0"></path>
                        <path d="M158.8432,385.08163 C158.8342,385.0836 158.8012,384.9866 158.7462,384.7966 C158.6852,384.5756 158.6092,384.2966 158.5132,383.9476 C158.3112,383.1606 158.0302,382.0656 157.6732,380.6746 C156.9562,377.7856 155.9352,373.6746 154.6782,368.6106 C154.0532,366.0596 153.3702,363.2686 152.6372,360.2746 C152.4582,359.5496 152.2012,358.8096 151.7592,358.2116 C151.3492,357.5996 150.5732,357.2816 149.9352,357.6056 C149.3062,357.9146 149.0032,358.7466 148.9952,359.5126 C148.9772,360.2956 149.3552,361.0496 149.8872,361.6656 C150.9722,362.9036 152.8082,363.4346 154.5152,363.2006 C156.2502,362.9916 157.7782,361.7636 158.5722,360.1296 C159.3922,358.5066 159.5842,356.5356 159.1512,354.7046 C158.9332,353.7936 158.5722,352.8756 157.9072,352.2596 C157.2802,351.6506 156.2022,351.4316 155.5102,351.9266 C154.8172,352.4236 154.7012,353.5176 155.0592,354.3116 C155.4232,355.1486 156.1612,355.7936 156.9262,356.3586 C158.4552,357.4916 160.2182,358.3326 162.0402,358.4696 C162.9452,358.5336 163.8582,358.4196 164.6632,358.0766 C165.4662,357.7196 166.1812,357.1686 166.7082,356.4826 C167.2392,355.8076 167.5912,354.9886 167.6322,354.1626 C167.6832,353.3356 167.4242,352.5096 166.8752,351.9216 C166.3462,351.3266 165.5422,350.9916 164.8242,351.2156 C164.1052,351.4266 163.5632,352.0886 163.3052,352.7976 C162.8092,354.2696 163.2472,355.9076 163.4232,357.4126 C163.9072,360.4526 164.4522,363.2746 164.9502,365.8496 C165.9832,370.9616 166.8212,375.1116 167.4102,378.0286 C167.6952,379.4356 167.9192,380.5446 168.0802,381.3406 C168.1472,381.6946 168.2002,381.9786 168.2432,382.2046 C168.2772,382.3996 168.2902,382.5006 168.2802,382.5026 C168.2712,382.5046 168.2402,382.4076 168.1882,382.2166 C168.1322,381.9946 168.0612,381.7136 167.9722,381.3636 C167.7872,380.5726 167.5292,379.4726 167.2022,378.0736 C166.5522,375.2116 165.6262,371.0666 164.5712,365.9246 C164.0482,363.3526 163.4812,360.5336 162.9752,357.4826 C162.8642,356.7146 162.7312,355.9446 162.6502,355.1386 C162.5732,354.3346 162.5592,353.4716 162.8532,352.6336 C163.1492,351.8196 163.7582,351.0286 164.6842,350.7426 C165.6212,350.4476 166.6372,350.8916 167.2482,351.5806 C167.8942,352.2686 168.2032,353.2466 168.1452,354.1896 C168.1002,355.1416 167.7032,356.0566 167.1212,356.8036 C166.5412,357.5596 165.7632,358.1646 164.8742,358.5616 C163.9712,358.9496 162.9762,359.0716 162.0022,359.0036 C160.0352,358.8566 158.1912,357.9696 156.6022,356.7956 C155.8162,356.2116 154.9972,355.5246 154.5582,354.5286 C154.1322,353.5586 154.2162,352.2166 155.1912,351.4816 C156.1932,350.7966 157.5022,351.1226 158.2782,351.8576 C159.0732,352.6046 159.4462,353.6136 159.6802,354.5776 C160.1392,356.5346 159.9362,358.6206 159.0502,360.3706 C158.2042,362.1246 156.4972,363.4956 154.5882,363.7186 C152.7232,363.9636 150.7362,363.3956 149.5092,361.9986 C148.9172,361.3166 148.4792,360.4336 148.5022,359.5086 C148.5242,358.6286 148.8372,357.6306 149.7232,357.1746 C150.1572,356.9546 150.6602,356.9526 151.0982,357.1096 C151.5432,357.2676 151.8812,357.5906 152.1332,357.9306 C152.6372,358.6246 152.8922,359.4056 153.0782,360.1706 C153.7882,363.1706 154.4502,365.9666 155.0552,368.5226 C156.2412,373.6026 157.2032,377.7276 157.8802,380.6266 C158.1952,382.0266 158.4432,383.1306 158.6212,383.9236 C158.6952,384.2756 158.7542,384.5596 158.8012,384.7836 C158.8382,384.9776 158.8522,385.0786 158.8432,385.08163" id="Fill-23" fill="#E0E0E0"></path>
                        <path d="M173.2357,389.8082 C173.2757,389.9542 170.1237,390.9432 166.1957,392.0152 C162.2677,393.0882 159.0517,393.8402 159.0117,393.6952 C158.9727,393.5492 162.1237,392.5612 166.0517,391.4882 C169.9797,390.4142 173.1957,389.6622 173.2357,389.8082" id="Fill-25" fill="#E0E0E0"></path>
                    </g>
                    <path d="M445.0658,435.983 C445.0658,436.127 349.6298,436.244 231.9328,436.244 C114.1938,436.244 18.7798,436.127 18.7798,435.983 C18.7798,435.839 114.1938,435.722 231.9328,435.722 C349.6298,435.722 445.0658,435.839 445.0658,435.983" id="Fill-28" fill="#263238"></path>
                    <polygon id="Fill-30" fill="#E0E0E0" points="36.603 58.769 427.455 58.769 427.455 33.73 36.603 33.73"></polygon>
                    <polygon id="Fill-31" fill="#FFFFFF" points="36.545 300.969 427.398 300.969 427.398 81.77 36.545 81.77"></polygon>
                    <polygon id="Fill-32" fill="#EBEBEB" points="36.6034 58.5816 90.2684 58.5816 95.5864 43.0946 182.5794 43.0946 187.8964 58.5816 427.4554 58.5816 427.4554 82.2926 36.6034 82.2926"></polygon>
                    <g id="Group-99" transform="translate(36.000000, 33.000000)">
                        <path d="M13.5029,14.713 C13.5029,16.335 12.1879,17.651 10.5649,17.651 C8.9429,17.651 7.6279,16.335 7.6279,14.713 C7.6279,13.09 8.9429,11.775 10.5649,11.775 C12.1879,11.775 13.5029,13.09 13.5029,14.713" id="Fill-33" fill="#263238" opacity="0.100000001"></path>
                        <path d="M22.5932,14.713 C22.5932,16.335 21.2782,17.651 19.6552,17.651 C18.0332,17.651 16.7182,16.335 16.7182,14.713 C16.7182,13.09 18.0332,11.775 19.6552,11.775 C21.2782,11.775 22.5932,13.09 22.5932,14.713" id="Fill-35" fill="#263238" opacity="0.100000001"></path>
                        <path d="M31.6835,14.713 C31.6835,16.335 30.3685,17.651 28.7455,17.651 C27.1235,17.651 25.8085,16.335 25.8085,14.713 C25.8085,13.09 27.1235,11.775 28.7455,11.775 C30.3685,11.775 31.6835,13.09 31.6835,14.713" id="Fill-37" fill="#263238" opacity="0.100000001"></path>
                        <path d="M348.2543,44.5777 L80.1033,44.5777 C75.9933,44.5777 72.6613,41.2457 72.6613,37.1357 C72.6613,33.0257 75.9933,29.6937 80.1033,29.6937 L348.2543,29.6937 C352.3643,29.6937 355.6953,33.0257 355.6953,37.1357 C355.6953,41.2457 352.3643,44.5777 348.2543,44.5777" id="Fill-39" fill="#FAFAFA"></path>
                        <path d="M73.9921,111.15 C73.9921,111.294 64.6161,111.41 53.0511,111.41 C41.4831,111.41 32.1081,111.294 32.1081,111.15 C32.1081,111.006 41.4831,110.89 53.0511,110.89 C64.6161,110.89 73.9921,111.006 73.9921,111.15" id="Fill-77" fill="#000000"></path>
                        <polygon id="Fill-79" fill="#55C1E2" points="32.108 138.116 47.108 138.116 47.108 123.116 32.108 123.116"></polygon>
                        <polygon id="Fill-79-Copy" fill="#55C1E2" points="52.108 138.116 67.108 138.116 67.108 123.116 52.108 123.116"></polygon>
                        <polygon id="Fill-79-Copy-3" fill="#55C1E2" points="32.108 158.116 47.108 158.116 47.108 143.116 32.108 143.116"></polygon>
                        <polygon id="Fill-79-Copy-2" fill="#55C1E2" points="52.108 158.116 67.108 158.116 67.108 143.116 52.108 143.116"></polygon>
                        <path d="M340.0775,133.3741 C340.0775,133.5181 286.0565,133.6341 219.4345,133.6341 C152.7895,133.6341 98.7805,133.5181 98.7805,133.3741 C98.7805,133.2301 152.7895,133.1131 219.4345,133.1131 C286.0565,133.1131 340.0775,133.2301 340.0775,133.3741" id="Fill-81" fill="#000000"></path>
                        <path d="M164.7777,149.7588 C164.7777,149.9028 150.5427,150.0198 132.9877,150.0198 C115.4267,150.0198 101.1947,149.9028 101.1947,149.7588 C101.1947,149.6148 115.4267,149.4988 132.9877,149.4988 C150.5427,149.4988 164.7777,149.6148 164.7777,149.7588" id="Fill-82" fill="#000000"></path>
                        <path d="M301.5092,164.9512 C301.5092,165.0952 256.6632,165.2112 201.3572,165.2112 C146.0302,165.2112 101.1952,165.0952 101.1952,164.9512 C101.1952,164.8072 146.0302,164.6912 201.3572,164.6912 C256.6632,164.6912 301.5092,164.8072 301.5092,164.9512" id="Fill-83" fill="#E0E0E0"></path>
                        <path d="M73.9921,189.0962 C73.9921,189.2402 64.6161,189.3572 53.0511,189.3572 C41.4831,189.3572 32.1081,189.2402 32.1081,189.0962 C32.1081,188.9522 41.4831,188.8352 53.0511,188.8352 C64.6161,188.8352 73.9921,188.9522 73.9921,189.0962" id="Fill-84" fill="#000000"></path>
                        <polygon id="Fill-85" fill="#55C1E2" opacity="0.100000001" points="32.108 244.581 75.626 244.581 75.626 201.063 32.108 201.063"></polygon>
                        <path d="M354.4135,211.3199 C354.4135,211.4649 297.1835,211.5809 226.6025,211.5809 C155.9975,211.5809 98.7805,211.4649 98.7805,211.3199 C98.7805,211.1759 155.9975,211.0599 226.6025,211.0599 C297.1835,211.0599 354.4135,211.1759 354.4135,211.3199" id="Fill-86" fill="#000000"></path>
                        <path d="M164.7777,227.7056 C164.7777,227.8496 150.5427,227.9656 132.9877,227.9656 C115.4267,227.9656 101.1947,227.8496 101.1947,227.7056 C101.1947,227.5606 115.4267,227.4446 132.9877,227.4446 C150.5427,227.4446 164.7777,227.5606 164.7777,227.7056" id="Fill-87" fill="#000000"></path>
                        <path d="M336.3949,242.898 C336.3949,243.042 283.7399,243.158 218.8009,243.158 C153.8389,243.158 101.1949,243.042 101.1949,242.898 C101.1949,242.753 153.8389,242.637 218.8009,242.637 C283.7399,242.637 336.3949,242.753 336.3949,242.898" id="Fill-88" fill="#E0E0E0"></path>
                        <path d="M391.4565,268.4917 C391.4545,266.7777 391.3745,163.6987 391.2465,0.7297 L391.4555,0.9397 C283.2685,0.9527 147.5665,0.9707 0.6355,0.9907 L0.6035,0.9907 L0.8645,0.7297 C0.8555,96.3047 0.8485,187.1167 0.8415,268.4917 L0.6035,268.2537 C231.1545,268.3937 389.3355,268.4907 391.4565,268.4917 C389.3365,268.4927 231.1545,268.5897 0.6035,268.7297 L0.3655,268.7297 L0.3655,268.4917 C0.3585,187.1167 0.3515,96.3047 0.3435,0.7297 L0.3435,0.4697 L0.6035,0.4697 L0.6355,0.4697 C147.5665,0.4887 283.2685,0.5067 391.4555,0.5207 L391.6655,0.5207 L391.6655,0.7297 C391.5375,163.6987 391.4575,266.7787 391.4565,268.4917" id="Fill-89" fill="#263238"></path>
                        <path d="M136.0268,20.1299 C136.0268,20.2739 122.2268,20.3899 105.2068,20.3899 C88.1808,20.3899 74.3828,20.2739 74.3828,20.1299 C74.3828,19.9859 88.1808,19.8689 105.2068,19.8689 C122.2268,19.8689 136.0268,19.9859 136.0268,20.1299" id="Fill-90" fill="#000000"></path>
                        <polygon id="Fill-91" fill="#455A64" points="25.679 85.84 80.421 85.84 80.421 69.35 25.679 69.35"></polygon>
                        <path d="M177.3534,112.5391 C177.3534,112.6831 160.3314,112.7991 139.3384,112.7991 C118.3394,112.7991 101.3214,112.6831 101.3214,112.5391 C101.3214,112.3951 118.3394,112.2791 139.3384,112.2791 C160.3314,112.2791 177.3534,112.3951 177.3534,112.5391" id="Fill-92" fill="#FF725E"></path>
                        <path d="M177.3534,189.0962 C177.3534,189.2402 160.3314,189.3572 139.3384,189.3572 C118.3394,189.3572 101.3214,189.2402 101.3214,189.0962 C101.3214,188.9522 118.3394,188.8352 139.3384,188.8352 C160.3314,188.8352 177.3534,188.9522 177.3534,189.0962" id="Fill-93" fill="#FF725E"></path>
                        <path d="M245.8041,148.6338 C245.8041,148.7778 229.4271,148.8938 209.2311,148.8938 C189.0281,148.8938 172.6551,148.7778 172.6551,148.6338 C172.6551,148.4898 189.0281,148.3728 209.2311,148.3728 C229.4271,148.3728 245.8041,148.4898 245.8041,148.6338" id="Fill-96" fill="#000000"></path>
                        <path d="M293.0688,147.5084 C293.0688,147.6524 284.5038,147.7684 273.9388,147.7684 C263.3708,147.7684 254.8068,147.6524 254.8068,147.5084 C254.8068,147.3644 263.3708,147.2474 273.9388,147.2474 C284.5038,147.2474 293.0688,147.3644 293.0688,147.5084" id="Fill-97" fill="#000000"></path>
                        <path d="M245.4574,227.7056 C245.4574,227.8496 229.0814,227.9656 208.8854,227.9656 C188.6814,227.9656 172.3094,227.8496 172.3094,227.7056 C172.3094,227.5606 188.6814,227.4446 208.8854,227.4446 C229.0814,227.4446 245.4574,227.5606 245.4574,227.7056" id="Fill-98" fill="#000000"></path>
                    </g>
                    <g id="Group-120" transform="translate(7.000000, 277.000000)">
                        <path d="M78.1386,4.2857 C70.0256,8.4887 63.8046,15.7237 59.3306,23.6907 C54.8576,31.6587 51.9746,40.4007 49.1186,49.0797 L46.6196,93.8417 C56.0596,77.7817 63.6366,58.9017 65.6836,40.3867 C63.5906,40.1997 61.4956,40.0137 59.4016,39.8267 C63.6146,39.1827 67.1496,36.1317 69.3986,32.5137 C71.6486,28.8937 72.8066,24.7217 73.9366,20.6127 C71.3816,20.9927 68.8266,21.3727 66.2726,21.7527 C72.2746,17.7467 76.6256,11.3417 78.1386,4.2857" id="Fill-100" fill="#455A64"></path>
                        <path d="M78.1386,4.2857 C70.0256,8.4887 63.8046,15.7237 59.3306,23.6907 C54.8576,31.6587 51.9746,40.4007 49.1186,49.0797 L46.6196,93.8417 C56.0596,77.7817 63.6366,58.9017 65.6836,40.3867 C63.5906,40.1997 61.4956,40.0137 59.4016,39.8267 C63.6146,39.1827 67.1496,36.1317 69.3986,32.5137 C71.6486,28.8937 72.8066,24.7217 73.9366,20.6127 C71.3816,20.9927 68.8266,21.3727 66.2726,21.7527 C72.2746,17.7467 76.6256,11.3417 78.1386,4.2857" id="Fill-102" fill="#000000"></path>
                        <path d="M45.2221,104.3296 C45.2221,104.3296 24.7321,79.8046 24.9691,56.3916 L33.2451,56.3916 C33.2451,56.3916 24.2551,50.4796 24.9661,47.1696 C25.6781,43.8576 25.9141,31.3236 25.9141,31.3236 L33.4821,33.2166 C33.4821,33.2166 27.8061,30.3786 27.0971,25.8856 C26.3871,21.3916 28.7521,0.5806 28.7521,0.5806 C28.7521,0.5806 37.9751,10.2766 40.8131,20.2096 C43.6511,30.1416 51.1001,41.7296 48.9121,72.0006 C46.7251,102.2706 45.2221,104.3296 45.2221,104.3296" id="Fill-104" fill="#455A64"></path>
                        <path d="M55.6098,106.6451 C55.6098,106.6451 77.8088,91.8561 82.7408,72.9821 L76.0868,71.1701 C76.0868,71.1701 84.6088,68.3841 84.7608,65.5671 C84.9128,62.7491 87.4648,52.6211 87.4648,52.6211 L80.9668,52.4861 C80.9668,52.4861 86.1518,51.4461 87.7048,47.9891 C89.2578,44.5321 91.9098,27.2831 91.9098,27.2831 C91.9098,27.2831 82.3738,33.0601 77.9188,40.4251 C73.4638,47.7901 64.9398,55.4761 60.0758,80.2911 C55.2118,105.1071 55.6098,106.6451 55.6098,106.6451" id="Fill-106" fill="#455A64"></path>
                        <path d="M34.3495,21.9633659 C34.3585,21.9614 34.3855,22.0474 34.4305,22.2164 C34.4785,22.4154 34.5395,22.6634 34.6155,22.9704 C34.7755,23.6744 34.9965,24.6464 35.2775,25.8774 C35.8505,28.4034 36.6085,32.0744 37.4775,36.6234 C39.2255,45.7194 41.2915,58.3564 42.9205,72.3974 C44.5385,86.4434 45.4105,99.2204 45.7835,108.4754 C45.9755,113.1024 46.0755,116.8494 46.0935,119.4384 C46.1015,120.7014 46.1075,121.6974 46.1115,122.4204 C46.1085,122.7354 46.1055,122.9904 46.1035,123.1954 C46.0985,123.3704 46.0915,123.4604 46.0825,123.4604 C46.0735,123.4604 46.0625,123.3714 46.0505,123.1964 C46.0385,122.9914 46.0245,122.7374 46.0065,122.4224 C45.9785,121.7004 45.9405,120.7054 45.8915,119.4424 C45.8095,116.8564 45.6545,113.1134 45.4155,108.4914 C44.9495,99.2484 44.0195,86.4904 42.4035,72.4564 C40.7755,58.4294 38.7695,45.7964 37.1155,36.6914 C36.2935,32.1364 35.5915,28.4564 35.0795,25.9194 C34.8395,24.6794 34.6495,23.7004 34.5125,22.9914 C34.4575,22.6814 34.4135,22.4304 34.3775,22.2284 C34.3505,22.0554 34.3405,21.9654 34.3495,21.9633659" id="Fill-108" fill="#263238"></path>
                        <path d="M42.3798164,119.3482 C42.3798164,119.3482 23.6288,98.0722 17.8068,85.2112 L22.2018,83.3332 C19.0158,83.8592 15.7528,82.4902 13.2818,80.4102 C10.8118,78.3302 8.9978,75.5962 7.2188,72.9012 L13.0088,71.9222 C7.7438,70.4452 3.1048,66.8522 0.3578,62.1232 C7.1908,63.2462 13.3718,66.9992 18.4648,71.6902 C22.5908,75.4892 26.0838,79.8992 29.4378,84.4042 C31.0748,86.6022 32.5058,88.9442 33.6988,91.4102 C36.8498,97.9242 42.3908,111.5352 42.3798164,119.3482" id="Fill-110" fill="#455A64"></path>
                        <path d="M83.0361,39.6663285 C83.0441,39.6705 83.0161,39.7445 82.9561,39.8865 C82.8791,40.0545 82.7861,40.2585 82.6741,40.5075 C82.3961,41.0885 82.0191,41.8775 81.5441,42.8735 C80.5461,44.9195 79.1291,47.8945 77.4111,51.5835 C73.9721,58.9595 69.4361,69.2525 64.9531,80.8325 C60.4781,92.4205 56.9101,103.0885 54.4921,110.8595 C53.2801,114.7455 52.3281,117.8985 51.6901,120.0835 C51.3721,121.1405 51.1201,121.9785 50.9341,122.5945 C50.8501,122.8545 50.7821,123.0675 50.7251,123.2435 C50.6751,123.3895 50.6451,123.4625 50.6371,123.46054 C50.6281,123.4585 50.6401,123.3795 50.6741,123.2295 C50.7171,123.0505 50.7691,122.8325 50.8331,122.5665 C50.9961,121.9425 51.2171,121.0975 51.4951,120.0285 C52.0741,117.8255 52.9721,114.6545 54.1401,110.7525 C56.4691,102.9465 59.9871,92.2465 64.4671,80.6455 C68.9561,69.0515 73.5511,58.7685 77.0781,51.4265 C78.8401,47.7535 80.3081,44.8025 81.3621,42.7835 C81.8751,41.8055 82.2811,41.0305 82.5801,40.4605 C82.7111,40.2205 82.8191,40.0235 82.9081,39.8615 C82.9851,39.7285 83.0281,39.6625 83.0361,39.6663285" id="Fill-112" fill="#263238"></path>
                        <path d="M43.9706,128.465422 C43.9346,128.4694 43.8296,127.9284 43.6716,126.9474 C43.5206,125.9674 43.2686,124.5534 42.9196,122.8164 C42.2266,119.3404 41.0146,114.5844 39.1106,109.5244 C37.1946,104.4654 34.9606,100.0954 33.1836,97.0284 C32.2976,95.4944 31.5516,94.2674 31.0166,93.4314 C30.4886,92.5914 30.2096,92.1154 30.2396,92.0954 C30.2686,92.0744 30.6036,92.5114 31.1846,93.3194 C31.7736,94.1214 32.5696,95.3234 33.5006,96.8414 C35.3666,99.8724 37.6696,104.2484 39.5976,109.3404 C41.5146,114.4344 42.6786,119.2384 43.2816,122.7474 C43.5856,124.5014 43.7826,125.9294 43.8716,126.9214 C43.9696,127.9114 44.0066,128.4604 43.9706,128.465422" id="Fill-114" fill="#263238"></path>
                        <polygon id="Fill-116" fill="#D1D5DC" points="27.673 131.832 68.713 131.832 68.713 123.461 27.673 123.461"></polygon>
                        <polygon id="Fill-118" fill="#D1D5DC" points="31.5839 131.8316 36.0229 159.9896 60.8219 159.9896 64.9589 131.8316"></polygon>
                        <path d="M66.1957,131.8316 C66.1957,131.9766 58.4317,132.0926 48.8577,132.0926 C39.2797,132.0926 31.5177,131.9766 31.5177,131.8316 C31.5177,131.6876 39.2797,131.5716 48.8577,131.5716 C58.4317,131.5716 66.1957,131.6876 66.1957,131.8316" id="Fill-119" fill="#263238"></path>
                    </g>
                    <g id="Group-203" transform="translate(184.000000, 62.000000)">
                        <path d="M67.9428,354.2115 L67.9428,374.9815 L109.8238,374.7775 C109.5188,370.5665 86.5338,362.1635 86.5338,362.1635 L86.9908,354.2115 L67.9428,354.2115 Z" id="Fill-121" fill="#455A64"></path>
                        <path d="M74.7162,360.2847 C73.9132,360.5307 73.3702,361.4987 73.5702,362.3587 C73.7692,363.2197 74.6952,363.8137 75.5012,363.5827 C76.3092,363.3517 76.9942,362.2107 76.7052,361.3797 C76.4162,360.5487 75.2932,359.9127 74.5632,360.3427" id="Fill-123" fill="#FFFFFF"></path>
                        <path d="M67.9428,374.981 L67.9428,371.664 L107.9278,372.136 C107.9278,372.136 110.0128,373.391 109.8238,374.778 L67.9428,374.981 Z" id="Fill-125" fill="#263238"></path>
                        <path d="M86.5326,362.565 C86.5296,362.781 85.5136,362.894 84.5216,363.602 C83.5136,364.283 83.0116,365.224 82.8226,365.141 C82.6346,365.102 82.9196,363.81 84.1336,362.975 C85.3406,362.128 86.5746,362.367 86.5326,362.565" id="Fill-127" fill="#263238"></path>
                        <path d="M92.0199,364.4869 C92.0699,364.6959 91.1939,365.0749 90.5159,365.9969 C89.8119,366.8969 89.6519,367.8849 89.4499,367.8799 C89.2579,367.9159 89.0999,366.6559 89.9629,365.5269 C90.8169,364.3899 92.0129,364.2819 92.0199,364.4869" id="Fill-129" fill="#263238"></path>
                        <path d="M94.4887,369.7798 C94.3037,369.8298 94.0057,368.7568 94.5107,367.5688 C95.0097,366.3768 95.9617,365.8968 96.0507,366.0748 C96.1677,366.2508 95.5587,366.8928 95.1577,367.8758 C94.7357,368.8458 94.6897,369.7568 94.4887,369.7798" id="Fill-131" fill="#263238"></path>
                        <path d="M86.1264,356.6597 C86.0434,356.8567 85.1054,356.5737 83.9574,356.6747 C82.8074,356.7497 81.9174,357.1727 81.8094,356.9887 C81.6894,356.8357 82.5514,356.0237 83.9054,355.9267 C85.2594,355.8177 86.2244,356.4887 86.1264,356.6597" id="Fill-133" fill="#263238"></path>
                        <path d="M86.3588,363.495727 C86.3888,363.4997 86.4968,363.0527 86.4488,362.2257 C86.3888,361.4117 86.1398,360.1947 85.3388,358.9527 C84.9348,358.3407 84.4058,357.7277 83.7018,357.2277 C83.3608,356.9897 82.8308,356.7287 82.2878,356.9797 C81.7788,357.2247 81.4918,357.7937 81.4628,358.3487 C81.5168,360.4847 83.0508,362.4577 85.1428,363.2067 C87.2898,363.9587 89.5578,363.0307 90.7988,361.5267 C91.1038,361.1437 91.3968,360.7557 91.5498,360.2447 C91.6218,359.9957 91.6558,359.7007 91.5558,359.4147 C91.4618,359.1327 91.2378,358.9067 90.9868,358.8137 C90.4818,358.6417 90.0518,358.7927 89.6818,358.9417 C89.3178,359.1167 89.0048,359.2977 88.7078,359.4977 C87.5188,360.2887 86.7608,361.2037 86.3128,361.8677 C85.8628,362.5367 85.7068,362.9637 85.7358,362.9797 C85.8298,363.0757 86.6018,361.3407 88.9238,359.8807 C89.4848,359.5587 90.2188,359.0977 90.8108,359.3037 C91.0708,359.4097 91.1738,359.7157 91.0498,360.0797 C90.9398,360.4377 90.6718,360.8007 90.3918,361.1377 C89.2578,362.4667 87.2098,363.2727 85.3278,362.6057 C83.4688,361.9807 82.0668,360.0927 82.0108,358.3857 C82.0208,357.9897 82.2258,357.6267 82.5048,357.4857 C82.7728,357.3437 83.1248,357.4637 83.4378,357.6717 C84.0818,358.1007 84.5998,358.6587 84.9978,359.2127 C85.7898,360.3437 86.0908,361.4787 86.2178,362.2557 C86.3338,363.0417 86.3078,363.4917 86.3588,363.495727" id="Fill-135" fill="#263238"></path>
                        <polygon id="Fill-137" fill="#455A64" points="52.6371 357.2193 53.3461 362.5633 52.8721 374.6163 37.1711 374.9993 36.6111 362.5633 38.3971 355.1753"></polygon>
                        <path d="M45.1093,373.709503 C45.0133,373.7135 45.2393,370.0265 45.6143,365.4745 C45.9883,360.9205 46.3693,357.2265 46.4643,357.221495 C46.5603,357.2165 46.3343,360.9025 45.9603,365.4565 C45.5863,370.0095 45.2053,373.7045 45.1093,373.709503" id="Fill-139" fill="#263238"></path>
                        <polygon id="Fill-141" fill="#263238" points="52.935 372.6099 37.072 372.7949 37.072 374.9999 52.946 374.9809"></polygon>
                        <path d="M37.1107,365.6802 C37.0867,365.6612 37.2207,365.4302 37.5117,365.0432 C37.8037,364.6582 38.2657,364.1272 38.9117,363.5462 C39.5587,362.9682 40.3987,362.3402 41.4467,361.8442 C42.4857,361.3392 43.7537,360.9832 45.1077,360.9952 C47.8227,360.9992 50.1077,362.3282 51.2317,363.6542 C51.8157,364.3082 52.1757,364.9232 52.3817,365.3622 C52.5837,365.8032 52.6587,366.0622 52.6317,366.0732 C52.5467,366.1202 52.1677,365.0912 50.9877,363.8852 C49.8457,362.6742 47.6787,361.4772 45.1017,361.4702 C42.5327,361.4562 40.4167,362.7552 39.1297,363.8022 C37.8157,364.8742 37.1767,365.7352 37.1107,365.6802" id="Fill-143" fill="#263238"></path>
                        <path d="M45.0419,20.8619 L44.8749,75.1479 L68.1659,76.2589 L68.8389,63.0549 C68.8389,63.0549 77.1109,64.6969 79.2459,57.0149 C80.6089,52.1069 80.2679,14.1809 80.2679,14.1809 L45.0419,20.8619 Z" id="Fill-145" fill="#FFBE9D"></path>
                        <path d="M83.3324,18.0035 C79.6644,19.0535 78.8674,25.0485 78.8674,25.0485 L73.1134,37.7575 C70.1824,35.4625 66.2464,35.5935 65.5014,40.7455 C64.9634,44.4675 69.5914,45.2195 69.5914,45.2195 C66.8964,49.8045 65.0694,53.5135 61.1464,57.8735 C56.9014,62.5925 54.5234,63.0685 49.9194,63.1465 L44.8414,63.1465 C44.8414,63.1465 42.3564,55.0785 37.7544,34.9035 C32.6484,12.5215 59.1154,15.4045 64.0214,9.6915 C72.0134,0.3875 94.8964,14.6925 83.3324,18.0035" id="Fill-147" fill="#263238"></path>
                        <path d="M89.7973,13.1412 C89.4173,10.7582 87.1353,8.7642 84.7263,8.9162 C85.5893,7.7062 85.1773,5.8872 84.0683,4.8992 C82.9573,3.9112 81.3433,3.6542 79.8733,3.8762 C78.4043,4.0992 77.0363,4.7432 75.6933,5.3802 C75.4523,4.2442 74.0153,2.3632 72.9953,1.8082 C70.9473,0.694199388 69.6633,0.694199388 68.5023,0.694199388 C61.3563,0.6922 57.5883,5.5902 53.7543,10.5762 C53.0963,11.4322 52.4433,12.3862 51.4363,12.7752 C50.7573,13.0372 50.0063,13.0032 49.2783,13.0172 C43.8343,13.1232 38.5673,16.3992 36.0643,21.2342 C33.5613,26.0692 31.6933,37.2602 38.1683,44.1972 L42.0713,52.9112 L79.4033,23.3302 C79.6693,23.4682 82.0093,24.6092 83.8103,23.6622 C88.2793,21.3092 86.4043,17.3852 86.4043,17.3852 C86.7613,17.2002 90.1763,15.5242 89.7973,13.1412" id="Fill-149" fill="#263238"></path>
                        <path d="M55.2426,42.2344 C55.3926,42.2184 55.6236,44.1024 55.1086,46.3564 C54.6076,48.6134 53.5926,50.2154 53.4636,50.1374 C53.3066,50.0594 54.0546,48.3964 54.5336,46.2264 C55.0296,44.0614 55.0676,42.2384 55.2426,42.2344" id="Fill-151" fill="#455A64"></path>
                        <path d="M58.059,39.5703573 C58.216,39.5774 58.25,41.3724 57.842,43.5384 C57.442,45.7074 56.762,47.3684 56.614,47.3184 C56.453,47.2674 56.87,45.5564 57.262,43.4304 C57.663,41.3064 57.891,39.5604 58.059,39.5703573" id="Fill-153" fill="#455A64"></path>
                        <path d="M66.1254,30.6109 C66.1824,30.6889 65.5214,31.1699 64.6854,32.1509 C63.8404,33.1219 62.8784,34.6409 62.1754,36.4829 C61.4704,38.3259 61.0824,40.0909 60.7834,41.3649 C60.4904,42.6419 60.2894,43.4329 60.2064,43.4179 C60.1294,43.4039 60.1844,42.5919 60.3734,41.2869 C60.5694,39.9869 60.8964,38.1759 61.6244,36.2699 C62.3524,34.3639 63.4194,32.8029 64.3784,31.8669 C65.3324,30.9189 66.0924,30.5539 66.1254,30.6109" id="Fill-155" fill="#455A64"></path>
                        <path d="M69.3871,24.5113 C69.4551,24.4923 69.6941,25.0363 69.8391,25.9803 C69.9871,26.9193 69.9911,28.2653 69.6371,29.6863 C69.2781,31.1073 68.6391,32.2923 68.0671,33.0513 C67.4931,33.8143 67.0271,34.1813 66.9751,34.1333 C66.8291,34.0213 68.4061,32.2683 69.0651,29.5433 C69.7691,26.8303 69.2061,24.5413 69.3871,24.5113" id="Fill-157" fill="#455A64"></path>
                        <path d="M41.5907,38.0694 C41.5107,38.2124 40.7987,37.9644 39.9977,37.5174 C39.1977,37.0704 38.6127,36.5924 38.6927,36.4504 C38.7727,36.3084 39.4857,36.5554 40.2857,37.0024 C41.0857,37.4494 41.6707,37.9274 41.5907,38.0694" id="Fill-159" fill="#455A64"></path>
                        <path d="M52.8432,32.2735 C52.9962,32.2955 52.9022,33.4465 52.1782,34.6345 C51.4612,35.8285 50.4892,36.4485 50.3972,36.3225 C50.2862,36.1925 51.0182,35.4275 51.6722,34.3305 C52.3392,33.2405 52.6772,32.2355 52.8432,32.2735" id="Fill-161" fill="#455A64"></path>
                        <path d="M56.3031,30.4156 C56.4531,30.4486 56.2091,31.8276 55.2671,33.2376 C54.3331,34.6546 53.1581,35.4146 53.0691,35.2896 C52.9591,35.1576 53.9011,34.2426 54.7751,32.9116 C55.6611,31.5896 56.1391,30.3656 56.3031,30.4156" id="Fill-163" fill="#455A64"></path>
                        <path d="M73.5004,7.6802 C73.4594,7.7272 73.0634,7.3482 72.2244,6.8702 C71.3834,6.4092 70.0414,5.9042 68.3214,5.8612 C66.6174,5.8082 64.5244,6.2142 62.5964,7.4002 C60.6664,8.5842 58.9594,10.5132 57.7204,12.8312 C56.8164,14.5162 56.1914,16.2722 55.7404,17.9222 L55.6474,18.2632 L55.3344,18.0982 C53.6044,17.1902 51.7734,16.7912 50.1384,16.7702 C48.4964,16.7242 47.0514,17.0262 45.9084,17.4092 C43.6064,18.1942 42.5144,19.2292 42.4554,19.1362 C42.4374,19.1152 42.6964,18.8552 43.2334,18.4452 C43.7754,18.0432 44.6254,17.5192 45.7894,17.0742 C46.9504,16.6332 48.4364,16.2762 50.1444,16.2862 C51.8454,16.2732 53.7694,16.6582 55.6004,17.5992 L55.1944,17.7772 C55.6394,16.0902 56.2694,14.2892 57.2004,12.5522 C58.4794,10.1602 60.2684,8.1542 62.3144,6.9342 C64.3664,5.7112 66.5624,5.3362 68.3394,5.4452 C70.1334,5.5442 71.5124,6.1362 72.3414,6.6732 C72.7504,6.9592 73.0574,7.1902 73.2354,7.3832 C73.4234,7.5642 73.5144,7.6652 73.5004,7.6802" id="Fill-165" fill="#455A64"></path>
                        <path d="M85.7475,10.6343 C85.7065,10.6233 86.3955,10.4603 87.0845,11.2393 C87.3985,11.6153 87.6875,12.2083 87.6205,12.9403 C87.5495,13.6703 87.0445,14.4233 86.2675,14.8743 C85.5005,15.3433 84.4515,15.5003 83.4365,15.2633 C82.4175,15.0413 81.4355,14.5003 80.5185,13.8483 C79.5925,13.2003 78.7025,12.4473 77.6635,11.8913 C76.6255,11.3283 75.4565,10.9173 74.2225,10.6823 C71.7435,10.2203 69.2805,10.4983 67.2005,11.1633 C65.1085,11.8343 63.3725,12.8413 62.0105,13.8013 C59.2915,15.7563 57.9495,17.3923 57.8665,17.3073 C57.8395,17.2833 58.1495,16.8613 58.7875,16.1603 C59.4315,15.4673 60.4035,14.4883 61.7645,13.4643 C63.1205,12.4433 64.8795,11.3693 67.0325,10.6463 C69.1785,9.9283 71.7365,9.6193 74.3315,10.1023 C75.6235,10.3473 76.8515,10.7833 77.9415,11.3843 C79.0425,11.9853 79.9415,12.7653 80.8335,13.4053 C81.7185,14.0523 82.6255,14.5643 83.5465,14.7863 C84.4635,15.0173 85.3665,14.9023 86.0595,14.5113 C86.7555,14.1393 87.2055,13.5033 87.2925,12.8993 C87.3815,12.2863 87.1605,11.7383 86.9035,11.3823 C86.3505,10.6413 85.7175,10.6993 85.7475,10.6343" id="Fill-167" fill="#455A64"></path>
                        <path d="M194.2533,52.2847 C193.3743,51.5047 181.5143,56.4797 181.5143,56.4797 C181.5143,56.4797 172.6643,63.4217 169.0233,67.5217 L166.7733,69.3927 L133.1153,95.5667 L91.7153,78.3447 L82.7323,101.4407 C82.7323,101.4407 129.2103,119.9427 136.2913,116.7757 C143.9873,113.3327 172.6373,83.3487 172.7043,83.2457 L172.7043,83.2447 L176.8423,79.2597 C176.8423,79.2597 179.0303,79.2167 180.6903,79.1177 C182.3493,79.0197 187.2083,75.7907 187.2083,75.7907 C187.2083,75.7907 187.9103,74.5287 188.1503,72.9597 C188.3913,71.3917 187.2523,70.9037 187.2523,70.9037 C187.2523,70.9037 187.5243,69.8887 187.3353,68.5677 C187.1473,67.2467 185.3813,65.7147 185.3813,65.7147 C185.3813,65.7147 186.0783,65.1457 186.4873,63.6227 C186.8983,62.0997 184.9253,60.6627 184.9253,60.6627 C184.9253,60.6627 191.8083,55.9817 193.4803,55.1607 C195.1513,54.3407 195.1323,53.0657 194.2533,52.2847" id="Fill-169" fill="#FFBE9D"></path>
                        <path d="M97.8031,288.8179 C97.9411,287.2979 98.0171,286.1299 98.0171,285.3989 L102.6921,210.7649 C102.6921,210.7649 98.7621,188.9699 96.9041,183.1859 L80.1911,176.7169 L57.9271,185.3889 C57.7801,183.5919 57.6891,182.4909 57.6891,182.4909 L24.8951,193.8249 C24.8951,193.8249 24.0461,216.1979 24.8951,223.0069 C25.1681,225.1939 26.0261,230.8459 27.0651,237.5049 C27.0651,237.5049 28.1201,251.9769 28.3381,252.7859 C29.1331,255.7359 29.3171,262.9619 29.3171,270.2029 C29.3171,279.4039 29.8161,290.3529 30.3901,295.5589 C30.9641,300.7639 31.2431,357.9979 31.2431,357.9979 L55.4401,357.9979 L58.5471,266.8329 C59.0691,257.0629 59.8521,242.1219 60.3541,231.3139 L66.0371,264.9739 C66.0371,266.2099 69.4941,285.4539 69.4941,285.4539 C69.4941,285.4539 68.2301,294.4829 68.0121,303.7149 C67.6131,320.6819 65.6181,357.9979 65.6181,357.9979 L89.3061,357.9979 C89.3061,357.9979 96.4191,304.1119 97.8031,288.8189 L97.8031,288.8179 Z" id="Fill-171" fill="#263238"></path>
                        <path d="M101.8793,206.2915 C101.8493,206.3465 100.9883,205.9475 99.6963,205.1285 C98.4043,204.3125 96.6983,203.0435 95.0173,201.4185 C93.3363,199.7905 92.0133,198.1275 91.1533,196.8625 C90.2933,195.5985 89.8663,194.7525 89.9193,194.7205 C89.9863,194.6785 90.5203,195.4535 91.4453,196.6495 C92.3703,197.8475 93.7173,199.4465 95.3723,201.0515 C97.0293,202.6515 98.6723,203.9445 99.9003,204.8295 C101.1263,205.7155 101.9183,206.2245 101.8793,206.2915" id="Fill-173" fill="#455A64"></path>
                        <path d="M59.642,219.855 C59.611,219.871 59.448,219.606 59.178,219.111 C58.905,218.619 58.553,217.883 58.16,216.957 C57.371,215.104 56.489,212.444 55.956,209.408 C55.43,206.371 55.36,203.568 55.477,201.558 C55.534,200.552 55.615,199.742 55.706,199.186 C55.792,198.629 55.856,198.325 55.891,198.328961 C55.974,198.338 55.859,199.574 55.838,201.569 C55.815,203.563 55.942,206.323 56.459,209.32 C56.986,212.315 57.799,214.955 58.496,216.824 C59.191,218.694 59.717,219.818 59.642,219.855" id="Fill-175" fill="#455A64"></path>
                        <path d="M63.1635,247.956658 C63.1275,247.9626 63.0175,247.4996 62.8515,246.6576 C62.6785,245.7086 62.4585,244.5126 62.1965,243.0866 C61.6705,239.9536 60.9765,235.8326 60.2115,231.2756 C58.8735,222.9036 57.9625,217.2036 57.5385,214.5536 C57.6495,214.5116 58.1195,216.3796 58.6835,219.3866 C59.2595,222.3976 59.9855,226.5716 60.7405,231.1886 C61.4945,235.8056 62.1355,239.9916 62.5715,243.0266 C62.7665,244.4626 62.9295,245.6686 63.0595,246.6256 C63.1615,247.4776 63.2005,247.9506 63.1635,247.956658" id="Fill-177" fill="#455A64"></path>
                        <path d="M6.057,123.4732 C6.057,123.4732 2.86,145.9672 2.263,153.8492 C1.904,158.5942 6.723,164.8942 10.402,165.3552 C14.139,165.8242 26.484,166.5532 26.484,166.5532 L27.513,152.4462 L27.192,149.6402 L23.342,148.9152 L24.502,126.5412 L6.057,123.4732 Z" id="Fill-179" fill="#FFBE9D"></path>
                        <path d="M23.995,127.296898 C24.032,127.2959 24.081,127.7309 24.138,128.5189 C24.198,129.3079 24.247,130.4509 24.276,131.8629 C24.34,134.6899 24.275,138.5959 24.033,142.9009 C23.791,147.2059 23.447,151.0929 23.168,153.9019 C23.027,155.3069 22.901,156.4429 22.802,157.2259 C22.703,158.0089 22.63,158.4409 22.593,158.437916 C22.557,158.4349 22.558,157.9969 22.594,157.2079 C22.647,156.3079 22.712,155.1919 22.79,153.8709 C22.978,150.9359 23.224,147.1069 23.497,142.8699 C23.739,138.5749 23.864,134.6839 23.897,131.8649 C23.91,130.5429 23.921,129.4259 23.93,128.5259 C23.937,127.7359 23.958,127.2979 23.995,127.296898" id="Fill-181" fill="#AA6550"></path>
                        <path d="M25.2084,194.232 C31.5084,196.573 38.4124,196.769 45.1074,196.183 C51.8024,195.597 58.4124,194.259 65.1034,193.625 C75.2184,192.665 85.4854,193.33 95.3944,195.586 C96.0954,195.745 96.8194,195.914 97.5284,195.789 C98.2374,195.663 98.9344,195.16 99.0444,194.449 C99.2184,193.331 97.9934,192.55 96.9504,192.112 C74.1794,182.533 47.3414,183.132 25.0214,193.719" id="Fill-183" fill="#000000"></path>
                        <path d="M121.6684,88.5679 L86.1534,70.8839 C76.8194,69.7949 69.2724,70.1469 69.2724,70.1469 L45.7654,70.1469 C45.7654,70.1469 17.2774,78.5489 12.5764,86.2929 L0.3664,122.8949 L24.5014,126.5409 L27.5134,152.8359 C27.5134,152.8359 24.5184,183.2859 24.5184,187.7109 C24.5184,192.1349 24.8954,193.8249 24.8954,193.8249 C24.8954,193.8249 73.1884,186.4819 85.0804,190.3539 C96.9724,194.2259 100.1864,193.8249 100.1864,193.8249 C100.1864,193.8249 99.1914,181.1869 98.3104,173.8539 L95.5544,137.1609 L93.5174,109.1449 L115.8674,115.9849 L121.6684,88.5679 Z" id="Fill-185" fill="#55C1E2"></path>
                        <path d="M24.2802,126.826749 C24.1922,126.8367 23.9552,125.3127 23.4192,122.8797 C22.8822,120.4487 21.9932,117.1147 20.6252,113.5427 C19.2572,109.9707 17.6922,106.8497 16.4822,104.6267 C15.9082,103.5947 15.4222,102.7187 15.0242,102.0027 C14.6762,101.3847 14.4982,101.0337 14.5312,101.0157 C14.5642,100.9987 14.8032,101.3167 15.2102,101.9077 C15.6192,102.4957 16.1762,103.3687 16.8262,104.4647 C18.1302,106.6557 19.7632,109.7777 21.1422,113.3787 C22.5212,116.9777 23.3582,120.3547 23.8002,122.8157 C24.0202,124.0467 24.1652,125.0477 24.2282,125.7427 C24.2972,126.4377 24.3182,126.8227 24.2802,126.826749" id="Fill-187" fill="#263238"></path>
                        <path d="M69.8315,137.220132 C69.8485,137.2263 69.8045,137.3923 69.7065,137.7033 C69.5845,138.0683 69.4355,138.5153 69.2545,139.0563 C69.0575,139.6443 68.8025,140.3583 68.4715,141.1733 C68.1435,141.9903 67.7935,142.9313 67.3325,143.9393 C66.4635,145.9793 65.3075,148.3553 63.9095,150.9343 C62.4885,153.4983 60.8105,156.2573 58.8785,159.0363 C56.9295,161.8063 54.9115,164.3263 52.9885,166.5413 C51.0455,168.7383 49.2075,170.6383 47.5905,172.1543 C46.8005,172.9333 46.0365,173.5833 45.3815,174.1703 C44.7295,174.7623 44.1455,175.2453 43.6605,175.6313 C43.2145,175.9873 42.8465,176.2813 42.5445,176.5203 C42.2865,176.7193 42.1445,176.8173 42.1335,176.8033 C42.1225,176.7893 42.2425,176.6653 42.4785,176.4413 C42.7625,176.1823 43.1105,175.8653 43.5315,175.4813 C43.9945,175.0723 44.5575,174.5683 45.1895,173.9583 C45.8245,173.3533 46.5685,172.6863 47.3385,171.8943 C48.9175,170.3513 50.7195,168.4343 52.6335,166.2333 C54.5255,164.0123 56.5205,161.4963 58.4595,158.7433 C60.3815,155.9793 62.0605,153.2443 63.4975,150.7053 C64.9105,148.1533 66.0945,145.8043 67.0025,143.7923 C67.4825,142.7973 67.8535,141.8693 68.2055,141.0663 C68.5615,140.2633 68.8425,139.5613 69.0675,138.9863 C69.2845,138.4593 69.4635,138.0243 69.6095,137.6683 C69.7385,137.3693 69.8145,137.2143 69.8315,137.220132" id="Fill-189" fill="#263238"></path>
                        <path d="M86.2406,73.3096 C86.3446,73.3576 84.9126,74.7756 84.3696,77.7656 C84.0926,79.2406 84.0856,81.0466 84.4016,83.0146 C84.7066,84.9846 85.3006,87.1156 85.9026,89.3556 C87.1286,93.8316 88.4266,97.8296 89.4106,100.7076 C89.8806,102.0666 90.2746,103.2076 90.5886,104.1146 C90.8666,104.9186 91.0066,105.3696 90.9716,105.38389 C90.9376,105.3966 90.7316,104.9726 90.3936,104.1896 C90.0576,103.4056 89.5926,102.2626 89.0536,100.8356 C87.9756,97.9836 86.6156,93.9896 85.3866,89.4976 C84.7826,87.2526 84.1976,85.1056 83.9136,83.0876 C83.6166,81.0756 83.6626,79.2036 83.9976,77.6916 C84.3196,76.1746 84.8926,75.0356 85.3716,74.3216 C85.8596,73.6076 86.2196,73.2906 86.2406,73.3096" id="Fill-191" fill="#263238"></path>
                        <path d="M19.2196,111.8389 C19.2556,111.8789 18.6226,112.5149 17.3266,113.1239 C16.0506,113.7349 14.0476,114.2369 11.8626,113.9059 C9.6776,113.5719 7.9146,112.4969 6.8776,111.5339 C5.8216,110.5679 5.4066,109.7719 5.4526,109.7439 C5.5236,109.6899 6.0396,110.3949 7.1156,111.2539 C8.1776,112.1109 9.8766,113.0759 11.9416,113.3909 C14.0056,113.7039 15.9146,113.2889 17.1826,112.7849 C18.4666,112.2859 19.1686,111.7659 19.2196,111.8389" id="Fill-193" fill="#FFFFFF"></path>
                        <path d="M87.2973,95.3260569 C87.3143,95.3332 87.2103,95.5972 86.9973,96.0962 C86.7833,96.5922 86.4403,97.3132 85.9493,98.2172 C84.9533,100.0082 83.3353,102.5582 80.6693,105.1242 C78.0243,107.6652 74.2083,110.1932 69.3983,111.2582 C67.0113,111.7912 64.4013,111.9782 61.7533,111.5872 C59.0963,111.2272 56.4803,110.1942 54.0183,108.8372 C49.1083,106.0942 44.9633,102.6242 40.4213,100.9662 C35.9183,99.2372 31.3893,99.4372 27.8833,100.2742 C24.3343,101.1262 21.7443,102.6692 20.0933,103.8452 C18.4533,105.0612 17.6863,105.9072 17.6403,105.8592 C17.6403,105.8592 18.3533,104.9612 19.9723,103.6822 C21.6013,102.4462 24.1983,100.8302 27.7953,99.9172 C31.3463,99.0202 35.9653,98.7712 40.5893,100.5162 C45.2393,102.1912 49.4233,105.6802 54.2693,108.3812 C56.6983,109.7192 59.2423,110.7252 61.8263,111.0822 C64.4043,111.4702 66.9553,111.2992 69.2943,110.7902 C74.0093,109.7722 77.7733,107.3302 80.4163,104.8562 C83.0793,102.3602 84.7313,99.8652 85.7743,98.1172 C86.2873,97.2342 86.6583,96.5312 86.9023,96.0512 C87.1453,95.5692 87.2803,95.3192 87.2973,95.3260569" id="Fill-195" fill="#FFFFFF"></path>
                        <path d="M109.5297,82.5007796 C109.5567,82.49 109.7447,82.891 109.9927,83.652 C110.2307,84.414 110.4887,85.553 110.5687,86.988 C110.6377,88.418 110.5377,90.153 110.0107,91.987 C109.5047,93.82 108.5927,95.756 107.2017,97.471 C105.8037,99.195 104.1087,100.427 102.7447,101.686 C101.3487,102.92 100.2957,104.224 99.7187,105.497 C99.1267,106.758 98.9937,107.907 99.0557,108.68 C99.1157,109.457 99.2807,109.872 99.2337,109.887 C99.2167,109.894 99.1667,109.795 99.0857,109.599 C99.0057,109.403 98.9117,109.102 98.8547,108.701 C98.7257,107.904 98.8067,106.684 99.3837,105.347 C99.9367,104.002 101.0207,102.604 102.4187,101.333 C103.7907,100.035 105.4597,98.798 106.7977,97.143 C109.5147,93.809 110.2807,89.768 110.2007,87.001 C110.1327,84.185 109.4167,82.529 109.5297,82.5007796" id="Fill-197" fill="#FFFFFF"></path>
                        <path d="M51.7661612,166.8091 C51.775,166.8411 51.407,166.9781 50.725,167.1711 C50.042,167.3621 49.047,167.6211 47.782,167.8001 C46.525,167.9521 44.953,168.0651 43.294,167.5381 C42.471,167.2791 41.652,166.8321 40.939,166.2131 C40.232,165.5911 39.64,164.8371 39.02,164.1121 C38.405,163.3791 37.743,162.7561 37.011,162.2581 C36.275,161.7681 35.491,161.4131 34.718,161.1591 C33.165,160.6471 31.657,160.6071 30.431,160.7471 C29.197,160.8901 28.239,161.2501 27.609,161.5421 C26.973,161.8311 26.641,162.0411 26.614,162.0011 C26.6,161.9831 26.894,161.7141 27.517,161.3621 C28.134,161.0061 29.104,160.5801 30.379,160.3831 C31.646,160.1891 33.223,160.1901 34.863,160.7011 C35.678,160.9551 36.51,161.3201 37.293,161.8331 C38.071,162.3511 38.792,163.0291 39.415,163.7731 C40.046,164.5121 40.62,165.2461 41.277,165.8301 C41.933,166.4091 42.679,166.8271 43.444,167.0821 C44.983,167.6011 46.504,167.5381 47.74,167.4341 C50.227,167.1471 51.745,166.7111 51.7661612,166.8091" id="Fill-199" fill="#FFFFFF"></path>
                        <path d="M97.7523,164.6714 C97.7633,164.6864 97.6543,164.7784 97.4373,164.9424 C97.2143,165.0964 96.9043,165.3584 96.4503,165.6084 C95.5743,166.1564 94.2093,166.8244 92.4083,167.2994 C90.6113,167.7414 88.3663,168.0254 85.9193,167.6744 C83.4743,167.3794 80.8453,166.3964 78.5433,164.7154 C76.2483,163.0254 74.4363,161.0304 72.6443,159.4104 C70.8753,157.7644 69.0783,156.5204 67.4073,155.8024 C65.7453,155.0614 64.2593,154.8684 63.2483,154.8824 C62.2313,154.8994 61.6773,155.0514 61.666166,154.9994 C61.6613,154.9824 61.7963,154.9364 62.0603,154.8654 C62.3223,154.7884 62.7223,154.7164 63.2403,154.6794 C64.2733,154.6014 65.8233,154.7444 67.5513,155.4634 C69.2843,156.1544 71.1603,157.4084 72.9663,159.0554 C74.7953,160.6744 76.6133,162.6504 78.8503,164.2944 C81.0853,165.9244 83.6083,166.8844 85.9853,167.1984 C88.3603,167.5674 90.5523,167.3294 92.3203,166.9424 C94.0923,166.5234 95.4553,165.9194 96.3513,165.4324 C97.2533,164.9534 97.7243,164.6304 97.7523,164.6714" id="Fill-201" fill="#FFFFFF"></path>
                    </g>
                </g>
            </g>
        </g>
    </g>
</svg>
