<?xml version="1.0" encoding="UTF-8"?>
<svg width="150px" height="150px" viewBox="0 0 150 150" version="1.1" xmlns="http://www.w3.org/2000/svg" xmlns:xlink="http://www.w3.org/1999/xlink">
    <defs>
        <path d="M26,2.84217094e-12 L124,2.84217094e-12 C138.359403,2.84217094e-12 150,11.6405965 150,26 L150,124 C150,138.359403 138.359403,150 124,150 L26,150 C11.6405965,150 0,138.359403 0,124 L0,26 C0,11.6405965 11.6405965,2.84217094e-12 26,2.84217094e-12 Z" id="path-1"></path>
    </defs>
    <g stroke="none" stroke-width="1" fill="none" fill-rule="evenodd">
        <g transform="translate(-645.000000, -3009.000000)">
            <g transform="translate(645.000000, 3009.000000)">
                <g transform="translate(0.000000, 0.000000)">
                    <mask id="mask-s" fill="white">
                        <use xlink:href="#path-1"></use>
                    </mask>
                    <use id="Mask" fill="#55C1E2" xlink:href="#path-1"></use>
                    <polygon id="Rectangle-Copy" fill="#000000" opacity="0.100000001" mask="url(#mask-s)" points="199.908009 34.114809 297.135191 131.341991 93.8419914 334.635191 -3.385191 237.408009"></polygon>
                </g>
                <path d="M73.3032227,116.561806 C75.2807617,116.561806 77.2399905,116.424477 79.1809082,116.149818 C81.1218259,115.87516 83.099365,115.426551 85.1135254,114.803993 C87.1276858,114.181435 89.0136719,113.394081 90.7714844,112.441933 C92.5292969,111.489784 94.1955564,110.299599 95.7702637,108.871376 C97.344971,107.443153 98.6907962,105.84098 99.8077393,104.064857 C100.924682,102.288735 101.803589,100.210487 102.444458,97.8301162 C103.085327,95.4497454 103.405762,92.8679583 103.405762,90.0847549 C103.405762,86.6423718 102.856445,83.6577529 101.757812,81.1308974 C100.109863,77.2856826 96.8688965,74.0630261 92.0349121,71.4629287 C89.8376465,70.291054 85.3698733,68.4050671 78.6315918,65.8049697 C74.786377,64.3401257 72.1862796,63.0126116 70.8312988,61.8224258 C69.4763181,60.6322399 68.7988281,59.3047259 68.7988281,57.8398818 C68.7988281,56.3750378 69.2749026,55.2214733 70.2270508,54.3791885 C71.1791989,53.5369036 72.5708011,53.1157607 74.4018555,53.1157607 C76.4526364,53.1157607 78.6590576,53.6650771 81.0211182,54.7637099 C83.3831787,55.8623428 86.2487796,57.7117083 89.6179199,60.3118057 L101.483154,45.0408096 C97.5646975,41.5984265 93.1976321,38.9342419 88.381958,37.0482558 C83.5662839,35.1622698 78.5034182,34.274208 73.1933594,34.3840713 C68.1396484,34.4939346 63.5803223,35.6108776 59.5153809,37.7349014 C55.4504395,39.8589251 52.2735598,42.7428362 49.9847412,46.3866348 C47.6959226,50.0304333 46.5515137,54.08622 46.5515137,58.5539932 C46.5515137,60.8245007 46.7987061,62.9485244 47.2930908,64.9260635 C47.7874756,66.9036025 48.428345,68.6522595 49.2156982,70.1720351 C50.0030515,71.6918108 51.0284424,73.1291882 52.2918701,74.4841689 C53.5552979,75.8391497 54.8461914,76.9927141 56.1645508,77.9448623 C57.4829102,78.8970105 59.0118405,79.8216936 60.7513428,80.7189101 C62.490845,81.6161267 64.1204831,82.3668594 65.6402588,82.9711074 C67.1600345,83.5753555 68.8903811,84.2070693 70.8312988,84.866249 C74.9694821,86.2578503 77.6885984,87.4755019 78.9886475,88.5192031 C80.2886966,89.5629043 80.9387207,90.9087295 80.9387207,92.5566787 C80.9387207,93.9849014 80.371094,95.202553 79.2358398,96.2096328 C78.1005857,97.2167126 76.3793945,97.7202529 74.0722656,97.7202529 C71.362305,97.7202529 68.3868408,96.996986 65.145874,95.5504531 C61.9049072,94.1039202 58.8012695,91.8791887 55.8349609,88.8762588 L43.75,103.762733 C47.9248047,108.01078 52.5573728,111.205971 57.6477051,113.348305 C62.7380374,115.490639 67.9565432,116.561806 73.3032227,116.561806 Z" id="S" fill="#FFFFFF" fill-rule="nonzero"></path>
            </g>
        </g>
    </g>
</svg>
